<svg width="130" height="500" viewBox="0 0 130 500" fill="none" xmlns="http://www.w3.org/2000/svg">
<g clip-path="url(#clip0_17_46)">
<rect width="130" height="500" fill="white"/>
<rect width="130" height="500" fill="black"/>
<rect width="130" height="64" fill="#F5EFEF" fill-opacity="0.47"/>
<path d="M44.7614 40V25.4545H46.5227V38.4375H53.2841V40H44.7614ZM60.2159 40.2273C59.2311 40.2273 58.367 39.9929 57.6236 39.5241C56.8849 39.0554 56.3073 38.3996 55.8906 37.5568C55.4787 36.714 55.2727 35.7292 55.2727 34.6023C55.2727 33.4659 55.4787 32.474 55.8906 31.6264C56.3073 30.7789 56.8849 30.1207 57.6236 29.652C58.367 29.1832 59.2311 28.9489 60.2159 28.9489C61.2008 28.9489 62.0625 29.1832 62.8011 29.652C63.5445 30.1207 64.1222 30.7789 64.5341 31.6264C64.9508 32.474 65.1591 33.4659 65.1591 34.6023C65.1591 35.7292 64.9508 36.714 64.5341 37.5568C64.1222 38.3996 63.5445 39.0554 62.8011 39.5241C62.0625 39.9929 61.2008 40.2273 60.2159 40.2273ZM60.2159 38.7216C60.964 38.7216 61.5795 38.5298 62.0625 38.1463C62.5455 37.7628 62.9029 37.2585 63.1349 36.6335C63.367 36.0085 63.483 35.3314 63.483 34.6023C63.483 33.8731 63.367 33.1937 63.1349 32.5639C62.9029 31.9342 62.5455 31.4252 62.0625 31.0369C61.5795 30.6487 60.964 30.4545 60.2159 30.4545C59.4678 30.4545 58.8523 30.6487 58.3693 31.0369C57.8864 31.4252 57.5289 31.9342 57.2969 32.5639C57.0649 33.1937 56.9489 33.8731 56.9489 34.6023C56.9489 35.3314 57.0649 36.0085 57.2969 36.6335C57.5289 37.2585 57.8864 37.7628 58.3693 38.1463C58.8523 38.5298 59.4678 38.7216 60.2159 38.7216ZM72.1211 44.3182C71.3114 44.3182 70.6154 44.214 70.033 44.0057C69.4506 43.8021 68.9653 43.5322 68.5771 43.196C68.1935 42.8646 67.8881 42.5095 67.6609 42.1307L68.9961 41.1932C69.1476 41.392 69.3394 41.6193 69.5714 41.875C69.8034 42.1354 70.1206 42.3603 70.5231 42.5497C70.9303 42.7438 71.4629 42.8409 72.1211 42.8409C73.0018 42.8409 73.7286 42.6278 74.3015 42.2017C74.8744 41.7756 75.1609 41.108 75.1609 40.1989V37.983H75.0188C74.8957 38.1818 74.7205 38.428 74.4933 38.7216C74.2707 39.0104 73.9487 39.2685 73.5273 39.4957C73.1107 39.7183 72.5472 39.8295 71.837 39.8295C70.9563 39.8295 70.1656 39.6212 69.4648 39.2045C68.7688 38.7879 68.2172 38.1818 67.81 37.3864C67.4076 36.5909 67.2063 35.625 67.2063 34.4886C67.2063 33.3712 67.4028 32.3982 67.7958 31.5696C68.1888 30.7363 68.7357 30.0923 69.4364 29.6378C70.1372 29.1785 70.9469 28.9489 71.8654 28.9489C72.5756 28.9489 73.1391 29.0672 73.5558 29.304C73.9772 29.536 74.2991 29.8011 74.5217 30.0994C74.7489 30.393 74.9241 30.6345 75.0472 30.8239H75.2177V29.0909H76.837V40.3125C76.837 41.25 76.6239 42.0123 76.1978 42.5994C75.7764 43.1913 75.2082 43.6245 74.4933 43.8991C73.783 44.1785 72.9923 44.3182 72.1211 44.3182ZM72.0643 38.3239C72.7366 38.3239 73.3048 38.17 73.7688 37.8622C74.2328 37.5545 74.5856 37.1117 74.8271 36.5341C75.0685 35.9564 75.1893 35.2652 75.1893 34.4602C75.1893 33.6742 75.0709 32.9806 74.8342 32.3793C74.5974 31.7779 74.247 31.3068 73.783 30.9659C73.319 30.625 72.7461 30.4545 72.0643 30.4545C71.354 30.4545 70.7622 30.6345 70.2887 30.9943C69.82 31.3542 69.4672 31.8371 69.2305 32.4432C68.9985 33.0492 68.8825 33.7216 68.8825 34.4602C68.8825 35.2178 69.0008 35.8878 69.2376 36.4702C69.479 37.0478 69.8342 37.5024 70.3029 37.8338C70.7764 38.1605 71.3635 38.3239 72.0643 38.3239ZM84.337 40.2273C83.3522 40.2273 82.488 39.9929 81.7447 39.5241C81.006 39.0554 80.4284 38.3996 80.0117 37.5568C79.5998 36.714 79.3938 35.7292 79.3938 34.6023C79.3938 33.4659 79.5998 32.474 80.0117 31.6264C80.4284 30.7789 81.006 30.1207 81.7447 29.652C82.488 29.1832 83.3522 28.9489 84.337 28.9489C85.3219 28.9489 86.1836 29.1832 86.9222 29.652C87.6656 30.1207 88.2433 30.7789 88.6552 31.6264C89.0719 32.474 89.2802 33.4659 89.2802 34.6023C89.2802 35.7292 89.0719 36.714 88.6552 37.5568C88.2433 38.3996 87.6656 39.0554 86.9222 39.5241C86.1836 39.9929 85.3219 40.2273 84.337 40.2273ZM84.337 38.7216C85.0851 38.7216 85.7006 38.5298 86.1836 38.1463C86.6665 37.7628 87.024 37.2585 87.256 36.6335C87.488 36.0085 87.604 35.3314 87.604 34.6023C87.604 33.8731 87.488 33.1937 87.256 32.5639C87.024 31.9342 86.6665 31.4252 86.1836 31.0369C85.7006 30.6487 85.0851 30.4545 84.337 30.4545C83.5889 30.4545 82.9734 30.6487 82.4904 31.0369C82.0075 31.4252 81.65 31.9342 81.418 32.5639C81.186 33.1937 81.07 33.8731 81.07 34.6023C81.07 35.3314 81.186 36.0085 81.418 36.6335C81.65 37.2585 82.0075 37.7628 82.4904 38.1463C82.9734 38.5298 83.5889 38.7216 84.337 38.7216Z" fill="white"/>
<path d="M37.8655 94.9091H39.7575L44.2064 105.776H44.3598L48.8087 94.9091H50.7007V108H49.2178V98.054H49.0899L44.999 108H43.5672L39.4763 98.054H39.3485V108H37.8655V94.9091ZM57.7911 108.205C56.8451 108.205 56.029 107.996 55.343 107.578C54.6611 107.156 54.1349 106.568 53.7641 105.814C53.3976 105.055 53.2144 104.173 53.2144 103.168C53.2144 102.162 53.3976 101.276 53.7641 100.509C54.1349 99.7372 54.6505 99.1364 55.311 98.706C55.9758 98.2713 56.7513 98.054 57.6377 98.054C58.1491 98.054 58.654 98.1392 59.1526 98.3097C59.6512 98.4801 60.105 98.7571 60.5141 99.1406C60.9232 99.5199 61.2492 100.023 61.4921 100.649C61.735 101.276 61.8564 102.047 61.8564 102.963V103.602H54.2883V102.298H60.3224C60.3224 101.744 60.2116 101.25 59.99 100.815C59.7726 100.381 59.4616 100.038 59.0567 99.7862C58.6562 99.5348 58.1832 99.4091 57.6377 99.4091C57.0368 99.4091 56.517 99.5582 56.078 99.8565C55.6434 100.151 55.3089 100.534 55.0745 101.007C54.8401 101.48 54.7229 101.987 54.7229 102.528V103.398C54.7229 104.139 54.8508 104.768 55.1064 105.283C55.3664 105.795 55.7265 106.185 56.1867 106.453C56.6469 106.717 57.1817 106.849 57.7911 106.849C58.1874 106.849 58.5454 106.794 58.865 106.683C59.1888 106.568 59.468 106.398 59.7023 106.172C59.9367 105.942 60.1178 105.656 60.2457 105.315L61.703 105.724C61.5496 106.219 61.2918 106.653 60.9296 107.028C60.5674 107.399 60.1199 107.689 59.5873 107.898C59.0546 108.102 58.4559 108.205 57.7911 108.205ZM65.6597 102.094V108H64.1512V98.1818H65.6086V99.7159H65.7364C65.9665 99.2173 66.316 98.8168 66.7847 98.5142C67.2535 98.2074 67.8586 98.054 68.6001 98.054C69.2648 98.054 69.8465 98.1903 70.3451 98.4631C70.8437 98.7315 71.2314 99.1406 71.5084 99.6903C71.7854 100.236 71.9239 100.926 71.9239 101.761V108H70.4154V101.864C70.4154 101.092 70.2151 100.491 69.8145 100.061C69.414 99.6264 68.8643 99.4091 68.1654 99.4091C67.6839 99.4091 67.2535 99.5135 66.8742 99.7223C66.4992 99.9311 66.203 100.236 65.9857 100.636C65.7684 101.037 65.6597 101.523 65.6597 102.094ZM80.868 103.986V98.1818H82.3765V108H80.868V106.338H80.7657C80.5356 106.837 80.1776 107.261 79.6919 107.61C79.2061 107.955 78.5924 108.128 77.8509 108.128C77.2373 108.128 76.6919 107.994 76.2146 107.725C75.7373 107.452 75.3623 107.043 75.0896 106.498C74.8169 105.948 74.6805 105.256 74.6805 104.42V98.1818H76.189V104.318C76.189 105.034 76.3893 105.605 76.7899 106.031C77.1947 106.457 77.7103 106.67 78.3367 106.67C78.7117 106.67 79.0931 106.575 79.4809 106.383C79.873 106.191 80.2011 105.897 80.4653 105.501C80.7338 105.104 80.868 104.599 80.868 103.986ZM90.1764 108V106.849L94.4974 102.119C95.0045 101.565 95.4221 101.084 95.7503 100.675C96.0784 100.261 96.3213 99.8736 96.479 99.5114C96.6409 99.1449 96.7219 98.7614 96.7219 98.3608C96.7219 97.9006 96.6111 97.5021 96.3895 97.1655C96.1721 96.8288 95.8738 96.5689 95.4946 96.3857C95.1153 96.2024 94.6892 96.1108 94.2162 96.1108C93.7133 96.1108 93.2744 96.2152 92.8994 96.424C92.5287 96.6286 92.241 96.9162 92.0365 97.2869C91.8362 97.6577 91.7361 98.0923 91.7361 98.5909H90.2275C90.2275 97.8239 90.4044 97.1506 90.7581 96.571C91.1118 95.9915 91.5933 95.5398 92.2027 95.2159C92.8163 94.892 93.5045 94.7301 94.2673 94.7301C95.0344 94.7301 95.714 94.892 96.3064 95.2159C96.8987 95.5398 97.3632 95.9766 97.6998 96.5263C98.0365 97.076 98.2048 97.6875 98.2048 98.3608C98.2048 98.8423 98.1175 99.3132 97.9427 99.7734C97.7723 100.229 97.474 100.739 97.0479 101.301C96.626 101.859 96.04 102.541 95.29 103.347L92.3497 106.491V106.594H98.4349V108H90.1764Z" fill="white"/>
<path d="M37.5843 160.909H39.4763L43.9252 171.776H44.0786L48.5274 160.909H50.4195V174H48.9365V164.054H48.8087L44.7178 174H43.286L39.195 164.054H39.0672V174H37.5843V160.909ZM57.5099 174.205C56.5638 174.205 55.7478 173.996 55.0617 173.578C54.3799 173.156 53.8536 172.568 53.4829 171.814C53.1164 171.055 52.9331 170.173 52.9331 169.168C52.9331 168.162 53.1164 167.276 53.4829 166.509C53.8536 165.737 54.3692 165.136 55.0297 164.706C55.6945 164.271 56.4701 164.054 57.3564 164.054C57.8678 164.054 58.3728 164.139 58.8714 164.31C59.3699 164.48 59.8238 164.757 60.2329 165.141C60.642 165.52 60.968 166.023 61.2108 166.649C61.4537 167.276 61.5752 168.047 61.5752 168.963V169.602H54.007V168.298H60.0411C60.0411 167.744 59.9303 167.25 59.7087 166.815C59.4914 166.381 59.1803 166.038 58.7755 165.786C58.3749 165.535 57.9019 165.409 57.3564 165.409C56.7556 165.409 56.2357 165.558 55.7968 165.857C55.3621 166.151 55.0276 166.534 54.7932 167.007C54.5589 167.48 54.4417 167.987 54.4417 168.528V169.398C54.4417 170.139 54.5695 170.768 54.8252 171.283C55.0851 171.795 55.4452 172.185 55.9055 172.453C56.3657 172.717 56.9005 172.849 57.5099 172.849C57.9062 172.849 58.2641 172.794 58.5837 172.683C58.9076 172.568 59.1867 172.398 59.4211 172.172C59.6555 171.942 59.8366 171.656 59.9644 171.315L61.4218 171.724C61.2684 172.219 61.0106 172.653 60.6483 173.028C60.2861 173.399 59.8387 173.689 59.306 173.898C58.7733 174.102 58.1746 174.205 57.5099 174.205ZM65.3785 168.094V174H63.8699V164.182H65.3273V165.716H65.4552C65.6853 165.217 66.0347 164.817 66.5035 164.514C66.9722 164.207 67.5773 164.054 68.3188 164.054C68.9836 164.054 69.5653 164.19 70.0638 164.463C70.5624 164.732 70.9502 165.141 71.2272 165.69C71.5042 166.236 71.6427 166.926 71.6427 167.761V174H70.1341V167.864C70.1341 167.092 69.9339 166.491 69.5333 166.061C69.1327 165.626 68.583 165.409 67.8841 165.409C67.4026 165.409 66.9722 165.513 66.593 165.722C66.218 165.931 65.9218 166.236 65.7045 166.636C65.4871 167.037 65.3785 167.523 65.3785 168.094ZM80.5867 169.986V164.182H82.0953V174H80.5867V172.338H80.4845C80.2544 172.837 79.8964 173.261 79.4106 173.61C78.9248 173.955 78.3112 174.128 77.5697 174.128C76.9561 174.128 76.4106 173.994 75.9333 173.725C75.4561 173.452 75.0811 173.043 74.8083 172.498C74.5356 171.948 74.3992 171.256 74.3992 170.42V164.182H75.9078V170.318C75.9078 171.034 76.108 171.605 76.5086 172.031C76.9134 172.457 77.4291 172.67 78.0555 172.67C78.4305 172.67 78.8119 172.575 79.1997 172.383C79.5917 172.191 79.9198 171.897 80.184 171.501C80.4525 171.104 80.5867 170.599 80.5867 169.986ZM94.3184 174.179C93.4747 174.179 92.7226 174.034 92.0621 173.744C91.4058 173.455 90.8838 173.052 90.496 172.536C90.1125 172.016 89.9037 171.413 89.8696 170.727H91.4804C91.5145 171.149 91.6594 171.513 91.915 171.82C92.1707 172.123 92.5052 172.357 92.9186 172.523C93.3319 172.69 93.79 172.773 94.2929 172.773C94.8554 172.773 95.354 172.675 95.7886 172.479C96.2233 172.283 96.5642 172.01 96.8113 171.661C97.0585 171.311 97.1821 170.906 97.1821 170.446C97.1821 169.964 97.0628 169.54 96.8241 169.174C96.5855 168.803 96.2361 168.513 95.7758 168.305C95.3156 168.096 94.7531 167.991 94.0883 167.991H93.04V166.585H94.0883C94.6082 166.585 95.0642 166.491 95.4562 166.304C95.8525 166.116 96.1615 165.852 96.3831 165.511C96.6089 165.17 96.7219 164.77 96.7219 164.31C96.7219 163.866 96.6238 163.481 96.4278 163.153C96.2318 162.825 95.9548 162.569 95.5969 162.386C95.2432 162.202 94.8256 162.111 94.344 162.111C93.8923 162.111 93.4662 162.194 93.0656 162.36C92.6693 162.522 92.3454 162.759 92.094 163.07C91.8426 163.376 91.7062 163.747 91.6849 164.182H90.1508C90.1764 163.496 90.3831 162.895 90.7709 162.379C91.1586 161.859 91.6657 161.455 92.2922 161.165C92.9229 160.875 93.6153 160.73 94.3696 160.73C95.1792 160.73 95.8738 160.894 96.4534 161.222C97.0329 161.546 97.4782 161.974 97.7893 162.507C98.1004 163.04 98.2559 163.615 98.2559 164.233C98.2559 164.97 98.0621 165.599 97.6743 166.119C97.2907 166.638 96.7687 166.999 96.1082 167.199V167.301C96.9349 167.437 97.5805 167.789 98.045 168.356C98.5095 168.918 98.7417 169.615 98.7417 170.446C98.7417 171.158 98.5479 171.797 98.1601 172.364C97.7765 172.926 97.2524 173.369 96.5876 173.693C95.9229 174.017 95.1665 174.179 94.3184 174.179Z" fill="white"/>
<path d="M37.5403 226.909H39.4324L43.8812 237.776H44.0346L48.4835 226.909H50.3755V240H48.8926V230.054H48.7647L44.6738 240H43.242L39.1511 230.054H39.0233V240H37.5403V226.909ZM57.4659 240.205C56.5199 240.205 55.7038 239.996 55.0178 239.578C54.3359 239.156 53.8097 238.568 53.4389 237.814C53.0724 237.055 52.8892 236.173 52.8892 235.168C52.8892 234.162 53.0724 233.276 53.4389 232.509C53.8097 231.737 54.3253 231.136 54.9858 230.706C55.6506 230.271 56.4261 230.054 57.3125 230.054C57.8239 230.054 58.3288 230.139 58.8274 230.31C59.326 230.48 59.7798 230.757 60.1889 231.141C60.598 231.52 60.924 232.023 61.1669 232.649C61.4098 233.276 61.5312 234.047 61.5312 234.963V235.602H53.9631V234.298H59.9972C59.9972 233.744 59.8864 233.25 59.6648 232.815C59.4474 232.381 59.1364 232.038 58.7315 231.786C58.331 231.535 57.858 231.409 57.3125 231.409C56.7116 231.409 56.1918 231.558 55.7528 231.857C55.3182 232.151 54.9837 232.534 54.7493 233.007C54.5149 233.48 54.3977 233.987 54.3977 234.528V235.398C54.3977 236.139 54.5256 236.768 54.7812 237.283C55.0412 237.795 55.4013 238.185 55.8615 238.453C56.3217 238.717 56.8565 238.849 57.4659 238.849C57.8622 238.849 58.2202 238.794 58.5398 238.683C58.8636 238.568 59.1428 238.398 59.3771 238.172C59.6115 237.942 59.7926 237.656 59.9205 237.315L61.3778 237.724C61.2244 238.219 60.9666 238.653 60.6044 239.028C60.2422 239.399 59.7947 239.689 59.2621 239.898C58.7294 240.102 58.1307 240.205 57.4659 240.205ZM65.3345 234.094V240H63.826V230.182H65.2834V231.716H65.4112C65.6413 231.217 65.9908 230.817 66.4595 230.514C66.9283 230.207 67.5334 230.054 68.2749 230.054C68.9396 230.054 69.5213 230.19 70.0199 230.463C70.5185 230.732 70.9063 231.141 71.1832 231.69C71.4602 232.236 71.5987 232.926 71.5987 233.761V240H70.0902V233.864C70.0902 233.092 69.8899 232.491 69.4893 232.061C69.0888 231.626 68.5391 231.409 67.8402 231.409C67.3587 231.409 66.9283 231.513 66.549 231.722C66.174 231.931 65.8778 232.236 65.6605 232.636C65.4432 233.037 65.3345 233.523 65.3345 234.094ZM80.5428 235.986V230.182H82.0513V240H80.5428V238.338H80.4405C80.2104 238.837 79.8525 239.261 79.3667 239.61C78.8809 239.955 78.2672 240.128 77.5257 240.128C76.9121 240.128 76.3667 239.994 75.8894 239.725C75.4121 239.452 75.0371 239.043 74.7644 238.498C74.4917 237.948 74.3553 237.256 74.3553 236.42V230.182H75.8638V236.318C75.8638 237.034 76.0641 237.605 76.4647 238.031C76.8695 238.457 77.3851 238.67 78.0115 238.67C78.3865 238.67 78.7679 238.575 79.1557 238.383C79.5478 238.191 79.8759 237.897 80.1401 237.501C80.4086 237.104 80.5428 236.599 80.5428 235.986ZM89.5444 237.315V236.011L95.2972 226.909H96.2433V228.929H95.604L91.2575 235.807V235.909H99.0046V237.315H89.5444ZM95.7063 240V236.919V236.312V226.909H97.2148V240H95.7063Z" fill="white"/>
<path d="M37.8391 292.909H39.7312L44.18 303.776H44.3335L48.7823 292.909H50.6744V306H49.1914V296.054H49.0636L44.9727 306H43.5408L39.4499 296.054H39.3221V306H37.8391V292.909ZM57.7647 306.205C56.8187 306.205 56.0027 305.996 55.3166 305.578C54.6348 305.156 54.1085 304.568 53.7377 303.814C53.3713 303.055 53.188 302.173 53.188 301.168C53.188 300.162 53.3713 299.276 53.7377 298.509C54.1085 297.737 54.6241 297.136 55.2846 296.706C55.9494 296.271 56.725 296.054 57.6113 296.054C58.1227 296.054 58.6277 296.139 59.1262 296.31C59.6248 296.48 60.0787 296.757 60.4877 297.141C60.8968 297.52 61.2228 298.023 61.4657 298.649C61.7086 299.276 61.8301 300.047 61.8301 300.963V301.602H54.2619V300.298H60.296C60.296 299.744 60.1852 299.25 59.9636 298.815C59.7463 298.381 59.4352 298.038 59.0304 297.786C58.6298 297.535 58.1568 297.409 57.6113 297.409C57.0105 297.409 56.4906 297.558 56.0517 297.857C55.617 298.151 55.2825 298.534 55.0481 299.007C54.8137 299.48 54.6966 299.987 54.6966 300.528V301.398C54.6966 302.139 54.8244 302.768 55.0801 303.283C55.34 303.795 55.7001 304.185 56.1603 304.453C56.6206 304.717 57.1554 304.849 57.7647 304.849C58.161 304.849 58.519 304.794 58.8386 304.683C59.1625 304.568 59.4416 304.398 59.676 304.172C59.9103 303.942 60.0914 303.656 60.2193 303.315L61.6767 303.724C61.5233 304.219 61.2654 304.653 60.9032 305.028C60.541 305.399 60.0936 305.689 59.5609 305.898C59.0282 306.102 58.4295 306.205 57.7647 306.205ZM65.6333 300.094V306H64.1248V296.182H65.5822V297.716H65.71C65.9402 297.217 66.2896 296.817 66.7583 296.514C67.2271 296.207 67.8322 296.054 68.5737 296.054C69.2385 296.054 69.8201 296.19 70.3187 296.463C70.8173 296.732 71.2051 297.141 71.4821 297.69C71.7591 298.236 71.8976 298.926 71.8976 299.761V306H70.389V299.864C70.389 299.092 70.1887 298.491 69.7882 298.061C69.3876 297.626 68.8379 297.409 68.139 297.409C67.6575 297.409 67.2271 297.513 66.8478 297.722C66.4728 297.931 66.1767 298.236 65.9593 298.636C65.742 299.037 65.6333 299.523 65.6333 300.094ZM80.8416 301.986V296.182H82.3501V306H80.8416V304.338H80.7393C80.5092 304.837 80.1513 305.261 79.6655 305.61C79.1797 305.955 78.5661 306.128 77.8246 306.128C77.2109 306.128 76.6655 305.994 76.1882 305.725C75.7109 305.452 75.3359 305.043 75.0632 304.498C74.7905 303.948 74.6541 303.256 74.6541 302.42V296.182H76.1626V302.318C76.1626 303.034 76.3629 303.605 76.7635 304.031C77.1683 304.457 77.6839 304.67 78.3104 304.67C78.6854 304.67 79.0668 304.575 79.4545 304.383C79.8466 304.191 80.1747 303.897 80.4389 303.501C80.7074 303.104 80.8416 302.599 80.8416 301.986ZM94.2409 306.179C93.4909 306.179 92.8155 306.03 92.2147 305.732C91.6138 305.433 91.1323 305.024 90.7701 304.504C90.4078 303.984 90.2097 303.392 90.1756 302.727H91.7097C91.7694 303.32 92.0378 303.81 92.5151 304.197C92.9966 304.581 93.5719 304.773 94.2409 304.773C94.7779 304.773 95.2551 304.647 95.6728 304.396C96.0946 304.144 96.4249 303.799 96.6635 303.36C96.9064 302.917 97.0279 302.416 97.0279 301.858C97.0279 301.287 96.9022 300.778 96.6507 300.33C96.4036 299.879 96.0627 299.523 95.628 299.263C95.1934 299.003 94.6969 298.871 94.1387 298.866C93.7381 298.862 93.3269 298.924 92.905 299.052C92.4831 299.175 92.1358 299.335 91.8631 299.531L90.3801 299.352L91.1728 292.909H97.9739V294.315H92.5023L92.0421 298.176H92.1188C92.3873 297.963 92.7239 297.786 93.1287 297.646C93.5336 297.505 93.9554 297.435 94.3944 297.435C95.1955 297.435 95.9093 297.626 96.5357 298.01C97.1664 298.389 97.6607 298.909 98.0186 299.57C98.3809 300.23 98.562 300.984 98.562 301.832C98.562 302.668 98.3745 303.413 97.9995 304.07C97.6287 304.722 97.1174 305.237 96.4654 305.616C95.8134 305.991 95.0719 306.179 94.2409 306.179Z" fill="white"/>
<path d="M37.6985 358.909H39.5906L44.0394 369.776H44.1928L48.6417 358.909H50.5337V372H49.0508V362.054H48.9229L44.832 372H43.4002L39.3093 362.054H39.1815V372H37.6985V358.909ZM57.6241 372.205C56.6781 372.205 55.862 371.996 55.176 371.578C54.4941 371.156 53.9679 370.568 53.5971 369.814C53.2306 369.055 53.0474 368.173 53.0474 367.168C53.0474 366.162 53.2306 365.276 53.5971 364.509C53.9679 363.737 54.4835 363.136 55.144 362.706C55.8088 362.271 56.5843 362.054 57.4707 362.054C57.9821 362.054 58.487 362.139 58.9856 362.31C59.4842 362.48 59.938 362.757 60.3471 363.141C60.7562 363.52 61.0822 364.023 61.3251 364.649C61.568 365.276 61.6895 366.047 61.6895 366.963V367.602H54.1213V366.298H60.1554C60.1554 365.744 60.0446 365.25 59.823 364.815C59.6056 364.381 59.2946 364.038 58.8897 363.786C58.4892 363.535 58.0162 363.409 57.4707 363.409C56.8699 363.409 56.35 363.558 55.911 363.857C55.4764 364.151 55.1419 364.534 54.9075 365.007C54.6731 365.48 54.5559 365.987 54.5559 366.528V367.398C54.5559 368.139 54.6838 368.768 54.9395 369.283C55.1994 369.795 55.5595 370.185 56.0197 370.453C56.4799 370.717 57.0147 370.849 57.6241 370.849C58.0204 370.849 58.3784 370.794 58.698 370.683C59.0218 370.568 59.301 370.398 59.5353 370.172C59.7697 369.942 59.9508 369.656 60.0787 369.315L61.536 369.724C61.3826 370.219 61.1248 370.653 60.7626 371.028C60.4004 371.399 59.9529 371.689 59.4203 371.898C58.8876 372.102 58.2889 372.205 57.6241 372.205ZM65.4927 366.094V372H63.9842V362.182H65.4416V363.716H65.5694C65.7995 363.217 66.149 362.817 66.6177 362.514C67.0865 362.207 67.6916 362.054 68.4331 362.054C69.0978 362.054 69.6795 362.19 70.1781 362.463C70.6767 362.732 71.0645 363.141 71.3414 363.69C71.6184 364.236 71.7569 364.926 71.7569 365.761V372H70.2484V365.864C70.2484 365.092 70.0481 364.491 69.6476 364.061C69.247 363.626 68.6973 363.409 67.9984 363.409C67.5169 363.409 67.0865 363.513 66.7072 363.722C66.3322 363.931 66.036 364.236 65.8187 364.636C65.6014 365.037 65.4927 365.523 65.4927 366.094ZM80.701 367.986V362.182H82.2095V372H80.701V370.338H80.5987C80.3686 370.837 80.0107 371.261 79.5249 371.61C79.0391 371.955 78.4254 372.128 77.6839 372.128C77.0703 372.128 76.5249 371.994 76.0476 371.725C75.5703 371.452 75.1953 371.043 74.9226 370.498C74.6499 369.948 74.5135 369.256 74.5135 368.42V362.182H76.022V368.318C76.022 369.034 76.2223 369.605 76.6229 370.031C77.0277 370.457 77.5433 370.67 78.1697 370.67C78.5447 370.67 78.9261 370.575 79.3139 370.383C79.706 370.191 80.0341 369.897 80.2983 369.501C80.5668 369.104 80.701 368.599 80.701 367.986ZM94.356 372.179C93.8191 372.17 93.2821 372.068 92.7452 371.872C92.2083 371.676 91.7182 371.346 91.275 370.881C90.8319 370.413 90.476 369.78 90.2076 368.983C89.9391 368.182 89.8049 367.176 89.8049 365.966C89.8049 364.807 89.9135 363.78 90.1309 362.885C90.3482 361.986 90.6635 361.229 91.0769 360.616C91.4902 359.998 91.9888 359.529 92.5726 359.21C93.1607 358.89 93.8233 358.73 94.5605 358.73C95.2935 358.73 95.9455 358.877 96.5165 359.171C97.0918 359.461 97.5605 359.866 97.9228 360.386C98.285 360.906 98.5194 361.504 98.6259 362.182H97.0662C96.9213 361.594 96.6401 361.106 96.2225 360.718C95.8049 360.33 95.2509 360.136 94.5605 360.136C93.5463 360.136 92.7473 360.577 92.1635 361.46C91.584 362.342 91.2921 363.58 91.2878 365.173H91.3901C91.6287 364.811 91.9121 364.502 92.2402 364.246C92.5726 363.987 92.9391 363.786 93.3397 363.646C93.7402 363.505 94.1642 363.435 94.6117 363.435C95.3617 363.435 96.0478 363.622 96.6699 363.997C97.2921 364.368 97.7907 364.881 98.1657 365.538C98.5407 366.19 98.7282 366.938 98.7282 367.781C98.7282 368.591 98.5471 369.332 98.1848 370.006C97.8226 370.675 97.3134 371.207 96.6571 371.604C96.0051 371.996 95.2381 372.188 94.356 372.179ZM94.356 370.773C94.8929 370.773 95.3745 370.638 95.8006 370.37C96.231 370.102 96.5698 369.741 96.8169 369.29C97.0684 368.838 97.1941 368.335 97.1941 367.781C97.1941 367.24 97.0726 366.748 96.8297 366.305C96.5911 365.857 96.2608 365.501 95.839 365.237C95.4213 364.973 94.9441 364.841 94.4071 364.841C94.0023 364.841 93.6252 364.922 93.2757 365.084C92.9263 365.241 92.6195 365.459 92.3553 365.736C92.0953 366.013 91.8908 366.33 91.7417 366.688C91.5925 367.042 91.5179 367.415 91.5179 367.807C91.5179 368.327 91.6394 368.812 91.8823 369.264C92.1294 369.716 92.4661 370.08 92.8922 370.357C93.3226 370.634 93.8105 370.773 94.356 370.773Z" fill="white"/>
<path d="M92.6216 465.155C92.5142 464.729 92.3025 464.341 92.0077 464.028C91.7129 463.716 91.3453 463.491 90.9418 463.375C89.4564 462.955 83.5189 462.955 83.5189 462.955C83.5189 462.955 77.5814 462.955 76.0959 463.375C75.6924 463.491 75.3248 463.716 75.03 464.028C74.7353 464.341 74.5236 464.729 74.4161 465.155C74.0189 466.725 74.0189 470 74.0189 470C74.0189 470 74.0189 473.275 74.4161 474.845C74.5236 475.271 74.7353 475.659 75.03 475.972C75.3248 476.284 75.6924 476.509 76.0959 476.625C77.5814 477.045 83.5189 477.045 83.5189 477.045C83.5189 477.045 89.4564 477.045 90.9418 476.625C91.3453 476.509 91.7129 476.284 92.0077 475.972C92.3025 475.659 92.5142 475.271 92.6216 474.845C93.0189 473.275 93.0189 470 93.0189 470C93.0189 470 93.0189 466.725 92.6216 465.155Z" fill="#FF0302"/>
<path d="M81.5757 472.974V467.026L86.5416 470L81.5757 472.974Z" fill="#FEFEFE"/>
<path d="M44.9751 478.126C52.145 478.126 56.0666 471.873 56.0666 466.45C56.0666 466.273 56.0666 466.096 56.0552 465.92C56.8181 465.339 57.4766 464.62 58 463.796C57.2886 464.128 56.5339 464.346 55.761 464.442C56.5749 463.929 57.1839 463.122 57.4748 462.172C56.7097 462.65 55.8725 462.987 54.9995 463.168C54.4118 462.51 53.6345 462.075 52.7878 461.929C51.9412 461.783 51.0725 461.934 50.3161 462.361C49.5597 462.787 48.9578 463.463 48.6035 464.286C48.2492 465.108 48.1624 466.031 48.3564 466.91C46.8065 466.829 45.2904 466.405 43.9063 465.666C42.5222 464.927 41.3012 463.891 40.3224 462.623C39.8239 463.527 39.6712 464.596 39.8955 465.614C40.1197 466.631 40.7039 467.521 41.5293 468.101C40.9089 468.082 40.302 467.905 39.76 467.587V467.639C39.7602 468.587 40.0718 469.505 40.6418 470.238C41.2118 470.971 42.0052 471.474 42.8874 471.662C42.3135 471.826 41.7114 471.85 41.1272 471.732C41.3764 472.547 41.8614 473.26 42.5144 473.771C43.1674 474.282 43.9557 474.565 44.7692 474.582C43.9609 475.25 43.0354 475.745 42.0454 476.037C41.0555 476.328 40.0206 476.412 39 476.282C40.7827 477.487 42.8569 478.125 44.9751 478.122" fill="#1DA1F2"/>
<path d="M26 470C26 464.477 21.7467 460 16.5 460C11.2533 460 7 464.477 7 470C7 474.991 10.474 479.128 15.0156 479.879V472.891H12.6035V470H15.0156V467.797C15.0156 465.291 16.4339 463.906 18.6039 463.906C19.643 463.906 20.7305 464.102 20.7305 464.102V466.563H19.5326C18.3525 466.563 17.9844 467.333 17.9844 468.125V470H20.6191L20.1979 472.891H17.9844V479.879C22.526 479.128 26 474.991 26 470Z" fill="#1877F2"/>
<path d="M20.1979 472.891L20.6191 470H17.9844V468.125C17.9844 467.334 18.3525 466.562 19.5326 466.562H20.7305V464.102C20.7305 464.102 19.6434 463.906 18.6039 463.906C16.4339 463.906 15.0156 465.291 15.0156 467.797V470H12.6035V472.891H15.0156V479.879C15.9992 480.04 17.0008 480.04 17.9844 479.879V472.891H20.1979Z" fill="white"/>
<path d="M118.314 467.22C119.6 468.142 121.175 468.685 122.877 468.685V465.399C122.555 465.399 122.234 465.365 121.919 465.298V467.885C120.217 467.885 118.642 467.342 117.355 466.42V473.126C117.355 476.481 114.645 479.2 111.303 479.2C110.056 479.2 108.896 478.822 107.933 478.173C109.032 479.3 110.565 480 112.261 480C115.604 480 118.314 477.281 118.314 473.926V467.22H118.314V467.22ZM119.496 463.904C118.839 463.184 118.407 462.252 118.314 461.223V460.8H117.406C117.634 462.109 118.414 463.227 119.496 463.904ZM110.048 475.598C109.68 475.115 109.482 474.524 109.483 473.916C109.483 472.382 110.722 471.138 112.252 471.138C112.537 471.138 112.82 471.181 113.091 471.268V467.908C112.774 467.865 112.454 467.846 112.133 467.853V470.468C111.862 470.381 111.578 470.337 111.293 470.338C109.764 470.338 108.525 471.582 108.525 473.116C108.525 474.201 109.144 475.141 110.048 475.598Z" fill="#FF004F"/>
<path d="M117.355 466.419C118.642 467.342 120.217 467.885 121.919 467.885V465.298C120.969 465.095 120.128 464.597 119.496 463.904C118.414 463.227 117.634 462.109 117.406 460.8H115.02V473.926C115.015 475.456 113.777 476.695 112.251 476.695C111.352 476.695 110.553 476.265 110.047 475.598C109.144 475.141 108.524 474.201 108.524 473.116C108.524 471.582 109.764 470.338 111.293 470.338C111.586 470.338 111.868 470.383 112.133 470.468V467.853C108.849 467.921 106.208 470.614 106.208 473.926C106.208 475.579 106.866 477.078 107.933 478.173C108.896 478.822 110.056 479.2 111.303 479.2C114.646 479.2 117.355 476.48 117.355 473.126V466.419H117.355Z" fill="black"/>
<path d="M121.919 465.298V464.599C121.062 464.6 120.223 464.359 119.496 463.904C120.139 464.611 120.986 465.098 121.919 465.298ZM117.406 460.8C117.384 460.675 117.367 460.549 117.355 460.423V460H114.062V473.126C114.056 474.656 112.819 475.895 111.293 475.895C110.845 475.895 110.422 475.788 110.047 475.598C110.553 476.265 111.352 476.695 112.251 476.695C113.777 476.695 115.015 475.456 115.02 473.926V460.8H117.406ZM112.133 467.853V467.108C111.858 467.07 111.581 467.052 111.303 467.052C107.96 467.052 105.25 469.771 105.25 473.126C105.25 475.229 106.315 477.082 107.933 478.172C106.866 477.077 106.208 475.579 106.208 473.926C106.208 470.614 108.849 467.921 112.133 467.853Z" fill="#00F2EA"/>
</g>
<defs>
<clipPath id="clip0_17_46">
<rect width="130" height="500" fill="white"/>
</clipPath>
</defs>
</svg>
