<svg width="577" height="83" viewBox="0 0 577 83" fill="none" xmlns="http://www.w3.org/2000/svg">
<g clip-path="url(#clip0_17_40)">
<rect width="577" height="83" fill="white"/>
<rect width="577" height="83" fill="#D9D9D9"/>
<rect x="13" y="18" width="51" height="47" fill="#1E1E1E"/>
<path d="M24.0568 47V38.2727H25.1136V46.0625H29.1705V47H24.0568ZM33.3295 47.1364C32.7386 47.1364 32.2202 46.9957 31.7741 46.7145C31.331 46.4332 30.9844 46.0398 30.7344 45.5341C30.4872 45.0284 30.3636 44.4375 30.3636 43.7614C30.3636 43.0795 30.4872 42.4844 30.7344 41.9759C30.9844 41.4673 31.331 41.0724 31.7741 40.7912C32.2202 40.5099 32.7386 40.3693 33.3295 40.3693C33.9205 40.3693 34.4375 40.5099 34.8807 40.7912C35.3267 41.0724 35.6733 41.4673 35.9205 41.9759C36.1705 42.4844 36.2955 43.0795 36.2955 43.7614C36.2955 44.4375 36.1705 45.0284 35.9205 45.5341C35.6733 46.0398 35.3267 46.4332 34.8807 46.7145C34.4375 46.9957 33.9205 47.1364 33.3295 47.1364ZM33.3295 46.233C33.7784 46.233 34.1477 46.1179 34.4375 45.8878C34.7273 45.6577 34.9418 45.3551 35.081 44.9801C35.2202 44.6051 35.2898 44.1989 35.2898 43.7614C35.2898 43.3239 35.2202 42.9162 35.081 42.5384C34.9418 42.1605 34.7273 41.8551 34.4375 41.6222C34.1477 41.3892 33.7784 41.2727 33.3295 41.2727C32.8807 41.2727 32.5114 41.3892 32.2216 41.6222C31.9318 41.8551 31.7173 42.1605 31.5781 42.5384C31.4389 42.9162 31.3693 43.3239 31.3693 43.7614C31.3693 44.1989 31.4389 44.6051 31.5781 44.9801C31.7173 45.3551 31.9318 45.6577 32.2216 45.8878C32.5114 46.1179 32.8807 46.233 33.3295 46.233ZM40.4727 49.5909C39.9869 49.5909 39.5692 49.5284 39.2198 49.4034C38.8704 49.2812 38.5792 49.1193 38.3462 48.9176C38.1161 48.7188 37.9329 48.5057 37.7965 48.2784L38.5977 47.7159C38.6886 47.8352 38.8036 47.9716 38.9428 48.125C39.082 48.2812 39.2724 48.4162 39.5138 48.5298C39.7582 48.6463 40.0778 48.7045 40.4727 48.7045C41.0011 48.7045 41.4371 48.5767 41.7809 48.321C42.1246 48.0653 42.2965 47.6648 42.2965 47.1193V45.7898H42.2113C42.1374 45.9091 42.0323 46.0568 41.896 46.233C41.7624 46.4062 41.5692 46.5611 41.3164 46.6974C41.0664 46.831 40.7283 46.8977 40.3022 46.8977C39.7738 46.8977 39.2994 46.7727 38.8789 46.5227C38.4613 46.2727 38.1303 45.9091 37.886 45.4318C37.6445 44.9545 37.5238 44.375 37.5238 43.6932C37.5238 43.0227 37.6417 42.4389 37.8775 41.9418C38.1133 41.4418 38.4414 41.0554 38.8619 40.7827C39.2823 40.5071 39.7681 40.3693 40.3192 40.3693C40.7454 40.3693 41.0835 40.4403 41.3335 40.5824C41.5863 40.7216 41.7795 40.8807 41.913 41.0597C42.0494 41.2358 42.1545 41.3807 42.2283 41.4943H42.3306V40.4545H43.3022V47.1875C43.3022 47.75 43.1744 48.2074 42.9187 48.5597C42.6658 48.9148 42.3249 49.1747 41.896 49.3395C41.4698 49.5071 40.9954 49.5909 40.4727 49.5909ZM40.4386 45.9943C40.842 45.9943 41.1829 45.902 41.4613 45.7173C41.7397 45.5327 41.9513 45.267 42.0962 44.9205C42.2411 44.5739 42.3136 44.1591 42.3136 43.6761C42.3136 43.2045 42.2425 42.7884 42.1005 42.4276C41.9585 42.0668 41.7482 41.7841 41.4698 41.5795C41.1914 41.375 40.8477 41.2727 40.4386 41.2727C40.0124 41.2727 39.6573 41.3807 39.3732 41.5966C39.092 41.8125 38.8803 42.1023 38.7383 42.4659C38.5991 42.8295 38.5295 43.233 38.5295 43.6761C38.5295 44.1307 38.6005 44.5327 38.7425 44.8821C38.8874 45.2287 39.1005 45.5014 39.3817 45.7003C39.6658 45.8963 40.0181 45.9943 40.4386 45.9943ZM47.8022 47.1364C47.2113 47.1364 46.6928 46.9957 46.2468 46.7145C45.8036 46.4332 45.457 46.0398 45.207 45.5341C44.9599 45.0284 44.8363 44.4375 44.8363 43.7614C44.8363 43.0795 44.9599 42.4844 45.207 41.9759C45.457 41.4673 45.8036 41.0724 46.2468 40.7912C46.6928 40.5099 47.2113 40.3693 47.8022 40.3693C48.3931 40.3693 48.9102 40.5099 49.3533 40.7912C49.7994 41.0724 50.146 41.4673 50.3931 41.9759C50.6431 42.4844 50.7681 43.0795 50.7681 43.7614C50.7681 44.4375 50.6431 45.0284 50.3931 45.5341C50.146 46.0398 49.7994 46.4332 49.3533 46.7145C48.9102 46.9957 48.3931 47.1364 47.8022 47.1364ZM47.8022 46.233C48.2511 46.233 48.6204 46.1179 48.9102 45.8878C49.1999 45.6577 49.4144 45.3551 49.5536 44.9801C49.6928 44.6051 49.7624 44.1989 49.7624 43.7614C49.7624 43.3239 49.6928 42.9162 49.5536 42.5384C49.4144 42.1605 49.1999 41.8551 48.9102 41.6222C48.6204 41.3892 48.2511 41.2727 47.8022 41.2727C47.3533 41.2727 46.984 41.3892 46.6942 41.6222C46.4045 41.8551 46.19 42.1605 46.0508 42.5384C45.9116 42.9162 45.842 43.3239 45.842 43.7614C45.842 44.1989 45.9116 44.6051 46.0508 44.9801C46.19 45.3551 46.4045 45.6577 46.6942 45.8878C46.984 46.1179 47.3533 46.233 47.8022 46.233Z" fill="white"/>
<path d="M139.057 38.2727H140.318L143.284 45.517H143.386L146.352 38.2727H147.614V47H146.625V40.3693H146.54L143.812 47H142.858L140.131 40.3693H140.045V47H139.057V38.2727ZM152.341 47.1364C151.71 47.1364 151.166 46.9972 150.708 46.7188C150.254 46.4375 149.903 46.0455 149.656 45.5426C149.412 45.0369 149.289 44.4489 149.289 43.7784C149.289 43.108 149.412 42.517 149.656 42.0057C149.903 41.4915 150.247 41.0909 150.687 40.804C151.13 40.5142 151.647 40.3693 152.238 40.3693C152.579 40.3693 152.916 40.4261 153.248 40.5398C153.581 40.6534 153.883 40.8381 154.156 41.0938C154.429 41.3466 154.646 41.6818 154.808 42.0994C154.97 42.517 155.051 43.0312 155.051 43.642V44.0682H150.005V43.1989H154.028C154.028 42.8295 153.954 42.5 153.806 42.2102C153.662 41.9205 153.454 41.6918 153.184 41.5241C152.917 41.3565 152.602 41.2727 152.238 41.2727C151.838 41.2727 151.491 41.3722 151.199 41.571C150.909 41.767 150.686 42.0227 150.529 42.3381C150.373 42.6534 150.295 42.9915 150.295 43.3523V43.9318C150.295 44.4261 150.38 44.8452 150.551 45.1889C150.724 45.5298 150.964 45.7898 151.271 45.9688C151.578 46.1449 151.934 46.233 152.341 46.233C152.605 46.233 152.843 46.196 153.056 46.1222C153.272 46.0455 153.458 45.9318 153.615 45.7812C153.771 45.6278 153.892 45.4375 153.977 45.2102L154.949 45.483C154.846 45.8125 154.674 46.1023 154.433 46.3523C154.191 46.5994 153.893 46.7926 153.538 46.9318C153.183 47.0682 152.784 47.1364 152.341 47.1364ZM157.586 43.0625V47H156.581V40.4545H157.552V41.4773H157.637C157.791 41.1449 158.024 40.8778 158.336 40.6761C158.649 40.4716 159.052 40.3693 159.547 40.3693C159.99 40.3693 160.377 40.4602 160.71 40.642C161.042 40.821 161.301 41.0938 161.485 41.4602C161.67 41.8239 161.762 42.2841 161.762 42.8409V47H160.757V42.9091C160.757 42.3949 160.623 41.9943 160.356 41.7074C160.089 41.4176 159.723 41.2727 159.257 41.2727C158.936 41.2727 158.649 41.3423 158.396 41.4815C158.146 41.6207 157.949 41.8239 157.804 42.0909C157.659 42.358 157.586 42.6818 157.586 43.0625ZM167.725 44.3239V40.4545H168.731V47H167.725V45.892H167.657C167.504 46.2244 167.265 46.5071 166.941 46.7401C166.617 46.9702 166.208 47.0852 165.714 47.0852C165.305 47.0852 164.941 46.9957 164.623 46.8168C164.305 46.6349 164.055 46.3622 163.873 45.9986C163.691 45.6321 163.6 45.1705 163.6 44.6136V40.4545H164.606V44.5455C164.606 45.0227 164.739 45.4034 165.006 45.6875C165.276 45.9716 165.62 46.1136 166.038 46.1136C166.288 46.1136 166.542 46.0497 166.8 45.9219C167.062 45.794 167.281 45.598 167.457 45.3338C167.636 45.0696 167.725 44.733 167.725 44.3239ZM176.999 38.2727V47H175.942V39.3807H175.891L173.76 40.7955V39.7216L175.942 38.2727H176.999Z" fill="#1E1E1E"/>
<path d="M205.057 38.2727H206.318L209.284 45.517H209.386L212.352 38.2727H213.614V47H212.625V40.3693H212.54L209.812 47H208.858L206.131 40.3693H206.045V47H205.057V38.2727ZM218.341 47.1364C217.71 47.1364 217.166 46.9972 216.708 46.7188C216.254 46.4375 215.903 46.0455 215.656 45.5426C215.412 45.0369 215.289 44.4489 215.289 43.7784C215.289 43.108 215.412 42.517 215.656 42.0057C215.903 41.4915 216.247 41.0909 216.687 40.804C217.13 40.5142 217.647 40.3693 218.238 40.3693C218.579 40.3693 218.916 40.4261 219.248 40.5398C219.581 40.6534 219.883 40.8381 220.156 41.0938C220.429 41.3466 220.646 41.6818 220.808 42.0994C220.97 42.517 221.051 43.0312 221.051 43.642V44.0682H216.005V43.1989H220.028C220.028 42.8295 219.954 42.5 219.806 42.2102C219.662 41.9205 219.454 41.6918 219.184 41.5241C218.917 41.3565 218.602 41.2727 218.238 41.2727C217.838 41.2727 217.491 41.3722 217.199 41.571C216.909 41.767 216.686 42.0227 216.529 42.3381C216.373 42.6534 216.295 42.9915 216.295 43.3523V43.9318C216.295 44.4261 216.38 44.8452 216.551 45.1889C216.724 45.5298 216.964 45.7898 217.271 45.9688C217.578 46.1449 217.934 46.233 218.341 46.233C218.605 46.233 218.843 46.196 219.056 46.1222C219.272 46.0455 219.458 45.9318 219.615 45.7812C219.771 45.6278 219.892 45.4375 219.977 45.2102L220.949 45.483C220.846 45.8125 220.674 46.1023 220.433 46.3523C220.191 46.5994 219.893 46.7926 219.538 46.9318C219.183 47.0682 218.784 47.1364 218.341 47.1364ZM223.586 43.0625V47H222.581V40.4545H223.552V41.4773H223.637C223.791 41.1449 224.024 40.8778 224.336 40.6761C224.649 40.4716 225.052 40.3693 225.547 40.3693C225.99 40.3693 226.377 40.4602 226.71 40.642C227.042 40.821 227.301 41.0938 227.485 41.4602C227.67 41.8239 227.762 42.2841 227.762 42.8409V47H226.757V42.9091C226.757 42.3949 226.623 41.9943 226.356 41.7074C226.089 41.4176 225.723 41.2727 225.257 41.2727C224.936 41.2727 224.649 41.3423 224.396 41.4815C224.146 41.6207 223.949 41.8239 223.804 42.0909C223.659 42.358 223.586 42.6818 223.586 43.0625ZM233.725 44.3239V40.4545H234.731V47H233.725V45.892H233.657C233.504 46.2244 233.265 46.5071 232.941 46.7401C232.617 46.9702 232.208 47.0852 231.714 47.0852C231.305 47.0852 230.941 46.9957 230.623 46.8168C230.305 46.6349 230.055 46.3622 229.873 45.9986C229.691 45.6321 229.6 45.1705 229.6 44.6136V40.4545H230.606V44.5455C230.606 45.0227 230.739 45.4034 231.006 45.6875C231.276 45.9716 231.62 46.1136 232.038 46.1136C232.288 46.1136 232.542 46.0497 232.8 45.9219C233.062 45.794 233.281 45.598 233.457 45.3338C233.636 45.0696 233.725 44.733 233.725 44.3239ZM236.556 47V46.233L239.436 43.0795C239.775 42.7102 240.053 42.3892 240.272 42.1165C240.49 41.8409 240.652 41.5824 240.757 41.3409C240.865 41.0966 240.919 40.8409 240.919 40.5739C240.919 40.267 240.846 40.0014 240.698 39.777C240.553 39.5526 240.354 39.3793 240.101 39.2571C239.848 39.1349 239.564 39.0739 239.249 39.0739C238.914 39.0739 238.621 39.1435 238.371 39.2827C238.124 39.419 237.932 39.6108 237.796 39.858C237.662 40.1051 237.596 40.3949 237.596 40.7273H236.59C236.59 40.2159 236.708 39.767 236.944 39.3807C237.179 38.9943 237.5 38.6932 237.907 38.4773C238.316 38.2614 238.775 38.1534 239.283 38.1534C239.794 38.1534 240.248 38.2614 240.642 38.4773C241.037 38.6932 241.347 38.9844 241.571 39.3509C241.796 39.7173 241.908 40.125 241.908 40.5739C241.908 40.8949 241.85 41.2088 241.733 41.5156C241.62 41.8196 241.421 42.1591 241.137 42.5341C240.855 42.9062 240.465 43.3608 239.965 43.8977L238.005 45.9943V46.0625H242.061V47H236.556Z" fill="#1E1E1E"/>
<path d="M271.057 38.2727H272.318L275.284 45.517H275.386L278.352 38.2727H279.614V47H278.625V40.3693H278.54L275.812 47H274.858L272.131 40.3693H272.045V47H271.057V38.2727ZM284.341 47.1364C283.71 47.1364 283.166 46.9972 282.708 46.7188C282.254 46.4375 281.903 46.0455 281.656 45.5426C281.412 45.0369 281.289 44.4489 281.289 43.7784C281.289 43.108 281.412 42.517 281.656 42.0057C281.903 41.4915 282.247 41.0909 282.687 40.804C283.13 40.5142 283.647 40.3693 284.238 40.3693C284.579 40.3693 284.916 40.4261 285.248 40.5398C285.581 40.6534 285.883 40.8381 286.156 41.0938C286.429 41.3466 286.646 41.6818 286.808 42.0994C286.97 42.517 287.051 43.0312 287.051 43.642V44.0682H282.005V43.1989H286.028C286.028 42.8295 285.954 42.5 285.806 42.2102C285.662 41.9205 285.454 41.6918 285.184 41.5241C284.917 41.3565 284.602 41.2727 284.238 41.2727C283.838 41.2727 283.491 41.3722 283.199 41.571C282.909 41.767 282.686 42.0227 282.529 42.3381C282.373 42.6534 282.295 42.9915 282.295 43.3523V43.9318C282.295 44.4261 282.38 44.8452 282.551 45.1889C282.724 45.5298 282.964 45.7898 283.271 45.9688C283.578 46.1449 283.934 46.233 284.341 46.233C284.605 46.233 284.843 46.196 285.056 46.1222C285.272 46.0455 285.458 45.9318 285.615 45.7812C285.771 45.6278 285.892 45.4375 285.977 45.2102L286.949 45.483C286.846 45.8125 286.674 46.1023 286.433 46.3523C286.191 46.5994 285.893 46.7926 285.538 46.9318C285.183 47.0682 284.784 47.1364 284.341 47.1364ZM289.586 43.0625V47H288.581V40.4545H289.552V41.4773H289.637C289.791 41.1449 290.024 40.8778 290.336 40.6761C290.649 40.4716 291.052 40.3693 291.547 40.3693C291.99 40.3693 292.377 40.4602 292.71 40.642C293.042 40.821 293.301 41.0938 293.485 41.4602C293.67 41.8239 293.762 42.2841 293.762 42.8409V47H292.757V42.9091C292.757 42.3949 292.623 41.9943 292.356 41.7074C292.089 41.4176 291.723 41.2727 291.257 41.2727C290.936 41.2727 290.649 41.3423 290.396 41.4815C290.146 41.6207 289.949 41.8239 289.804 42.0909C289.659 42.358 289.586 42.6818 289.586 43.0625ZM299.725 44.3239V40.4545H300.731V47H299.725V45.892H299.657C299.504 46.2244 299.265 46.5071 298.941 46.7401C298.617 46.9702 298.208 47.0852 297.714 47.0852C297.305 47.0852 296.941 46.9957 296.623 46.8168C296.305 46.6349 296.055 46.3622 295.873 45.9986C295.691 45.6321 295.6 45.1705 295.6 44.6136V40.4545H296.606V44.5455C296.606 45.0227 296.739 45.4034 297.006 45.6875C297.276 45.9716 297.62 46.1136 298.038 46.1136C298.288 46.1136 298.542 46.0497 298.8 45.9219C299.062 45.794 299.281 45.598 299.457 45.3338C299.636 45.0696 299.725 44.733 299.725 44.3239ZM305.505 47.1193C304.942 47.1193 304.441 47.0227 304 46.8295C303.563 46.6364 303.215 46.3679 302.956 46.0241C302.701 45.6776 302.561 45.2756 302.539 44.8182H303.613C303.635 45.0994 303.732 45.3423 303.902 45.5469C304.073 45.7486 304.296 45.9048 304.571 46.0156C304.847 46.1264 305.152 46.1818 305.488 46.1818C305.863 46.1818 306.195 46.1165 306.485 45.9858C306.775 45.8551 307.002 45.6733 307.167 45.4403C307.331 45.2074 307.414 44.9375 307.414 44.6307C307.414 44.3097 307.334 44.027 307.175 43.7827C307.016 43.5355 306.783 43.3423 306.476 43.2031C306.169 43.0639 305.794 42.9943 305.351 42.9943H304.652V42.0568H305.351C305.698 42.0568 306.002 41.9943 306.263 41.8693C306.527 41.7443 306.733 41.5682 306.881 41.3409C307.032 41.1136 307.107 40.8466 307.107 40.5398C307.107 40.2443 307.042 39.9872 306.911 39.7685C306.78 39.5497 306.596 39.3793 306.357 39.2571C306.121 39.1349 305.843 39.0739 305.522 39.0739C305.221 39.0739 304.936 39.1293 304.669 39.2401C304.405 39.348 304.189 39.5057 304.022 39.7131C303.854 39.9176 303.763 40.1648 303.749 40.4545H302.726C302.743 39.9972 302.881 39.5966 303.14 39.2528C303.398 38.9062 303.736 38.6364 304.154 38.4432C304.574 38.25 305.036 38.1534 305.539 38.1534C306.078 38.1534 306.542 38.2628 306.928 38.4815C307.314 38.6974 307.611 38.983 307.819 39.3381C308.026 39.6932 308.13 40.0767 308.13 40.4886C308.13 40.9801 308 41.3991 307.742 41.7457C307.486 42.0923 307.138 42.3324 306.698 42.4659V42.5341C307.249 42.625 307.679 42.8594 307.989 43.2372C308.299 43.6122 308.453 44.0767 308.453 44.6307C308.453 45.1051 308.324 45.5312 308.066 45.9091C307.81 46.2841 307.461 46.5795 307.017 46.7955C306.574 47.0114 306.07 47.1193 305.505 47.1193Z" fill="#1E1E1E"/>
<path d="M337.057 38.2727H338.318L341.284 45.517H341.386L344.352 38.2727H345.614V47H344.625V40.3693H344.54L341.812 47H340.858L338.131 40.3693H338.045V47H337.057V38.2727ZM350.341 47.1364C349.71 47.1364 349.166 46.9972 348.708 46.7188C348.254 46.4375 347.903 46.0455 347.656 45.5426C347.412 45.0369 347.289 44.4489 347.289 43.7784C347.289 43.108 347.412 42.517 347.656 42.0057C347.903 41.4915 348.247 41.0909 348.687 40.804C349.13 40.5142 349.647 40.3693 350.238 40.3693C350.579 40.3693 350.916 40.4261 351.248 40.5398C351.581 40.6534 351.883 40.8381 352.156 41.0938C352.429 41.3466 352.646 41.6818 352.808 42.0994C352.97 42.517 353.051 43.0312 353.051 43.642V44.0682H348.005V43.1989H352.028C352.028 42.8295 351.954 42.5 351.806 42.2102C351.662 41.9205 351.454 41.6918 351.184 41.5241C350.917 41.3565 350.602 41.2727 350.238 41.2727C349.838 41.2727 349.491 41.3722 349.199 41.571C348.909 41.767 348.686 42.0227 348.529 42.3381C348.373 42.6534 348.295 42.9915 348.295 43.3523V43.9318C348.295 44.4261 348.38 44.8452 348.551 45.1889C348.724 45.5298 348.964 45.7898 349.271 45.9688C349.578 46.1449 349.934 46.233 350.341 46.233C350.605 46.233 350.843 46.196 351.056 46.1222C351.272 46.0455 351.458 45.9318 351.615 45.7812C351.771 45.6278 351.892 45.4375 351.977 45.2102L352.949 45.483C352.846 45.8125 352.674 46.1023 352.433 46.3523C352.191 46.5994 351.893 46.7926 351.538 46.9318C351.183 47.0682 350.784 47.1364 350.341 47.1364ZM355.586 43.0625V47H354.581V40.4545H355.552V41.4773H355.637C355.791 41.1449 356.024 40.8778 356.336 40.6761C356.649 40.4716 357.052 40.3693 357.547 40.3693C357.99 40.3693 358.377 40.4602 358.71 40.642C359.042 40.821 359.301 41.0938 359.485 41.4602C359.67 41.8239 359.762 42.2841 359.762 42.8409V47H358.757V42.9091C358.757 42.3949 358.623 41.9943 358.356 41.7074C358.089 41.4176 357.723 41.2727 357.257 41.2727C356.936 41.2727 356.649 41.3423 356.396 41.4815C356.146 41.6207 355.949 41.8239 355.804 42.0909C355.659 42.358 355.586 42.6818 355.586 43.0625ZM365.725 44.3239V40.4545H366.731V47H365.725V45.892H365.657C365.504 46.2244 365.265 46.5071 364.941 46.7401C364.617 46.9702 364.208 47.0852 363.714 47.0852C363.305 47.0852 362.941 46.9957 362.623 46.8168C362.305 46.6349 362.055 46.3622 361.873 45.9986C361.691 45.6321 361.6 45.1705 361.6 44.6136V40.4545H362.606V44.5455C362.606 45.0227 362.739 45.4034 363.006 45.6875C363.276 45.9716 363.62 46.1136 364.038 46.1136C364.288 46.1136 364.542 46.0497 364.8 45.9219C365.062 45.794 365.281 45.598 365.457 45.3338C365.636 45.0696 365.725 44.733 365.725 44.3239ZM368.351 45.2102V44.3409L372.186 38.2727H372.817V39.6193H372.391L369.493 44.2045V44.2727H374.658V45.2102H368.351ZM372.459 47V44.946V44.5412V38.2727H373.465V47H372.459Z" fill="#1E1E1E"/>
<rect x="428" y="26" width="139" height="32" rx="16" fill="#8AF8FF"/>
<path d="M440.114 38.2727V47H439.057V38.2727H440.114ZM443.102 43.0625V47H442.096V40.4545H443.068V41.4773H443.153C443.306 41.1449 443.539 40.8778 443.852 40.6761C444.164 40.4716 444.568 40.3693 445.062 40.3693C445.505 40.3693 445.893 40.4602 446.225 40.642C446.558 40.821 446.816 41.0938 447.001 41.4602C447.186 41.8239 447.278 42.2841 447.278 42.8409V47H446.272V42.9091C446.272 42.3949 446.139 41.9943 445.872 41.7074C445.605 41.4176 445.238 41.2727 444.772 41.2727C444.451 41.2727 444.164 41.3423 443.912 41.4815C443.662 41.6207 443.464 41.8239 443.319 42.0909C443.174 42.358 443.102 42.6818 443.102 43.0625ZM453.752 41.9205L452.849 42.1761C452.792 42.0256 452.708 41.8793 452.597 41.7372C452.489 41.5923 452.342 41.473 452.154 41.3793C451.967 41.2855 451.727 41.2386 451.434 41.2386C451.033 41.2386 450.7 41.331 450.433 41.5156C450.168 41.6974 450.036 41.929 450.036 42.2102C450.036 42.4602 450.127 42.6577 450.309 42.8026C450.491 42.9474 450.775 43.0682 451.161 43.1648L452.133 43.4034C452.718 43.5455 453.154 43.7628 453.441 44.0554C453.728 44.3452 453.871 44.7187 453.871 45.1761C453.871 45.5511 453.763 45.8864 453.548 46.1818C453.335 46.4773 453.036 46.7102 452.653 46.8807C452.269 47.0511 451.823 47.1364 451.315 47.1364C450.647 47.1364 450.094 46.9915 449.657 46.7017C449.219 46.4119 448.942 45.9886 448.826 45.4318L449.781 45.1932C449.871 45.5455 450.043 45.8097 450.296 45.9858C450.552 46.1619 450.886 46.25 451.298 46.25C451.766 46.25 452.138 46.1506 452.414 45.9517C452.692 45.75 452.832 45.5085 452.832 45.2273C452.832 45 452.752 44.8097 452.593 44.6562C452.434 44.5 452.19 44.3835 451.86 44.3068L450.769 44.0511C450.17 43.9091 449.729 43.6889 449.448 43.3906C449.17 43.0895 449.031 42.7131 449.031 42.2614C449.031 41.892 449.134 41.5653 449.342 41.2812C449.552 40.9972 449.837 40.7741 450.198 40.6122C450.562 40.4503 450.974 40.3693 451.434 40.3693C452.082 40.3693 452.59 40.5114 452.96 40.7955C453.332 41.0795 453.596 41.4545 453.752 41.9205ZM458.044 47.1364C457.431 47.1364 456.902 46.9915 456.459 46.7017C456.016 46.4119 455.675 46.0128 455.436 45.5043C455.198 44.9957 455.078 44.4148 455.078 43.7614C455.078 43.0966 455.201 42.5099 455.445 42.0014C455.692 41.4901 456.036 41.0909 456.476 40.804C456.919 40.5142 457.436 40.3693 458.027 40.3693C458.488 40.3693 458.902 40.4545 459.272 40.625C459.641 40.7955 459.944 41.0341 460.179 41.3409C460.415 41.6477 460.561 42.0057 460.618 42.4148H459.613C459.536 42.1165 459.365 41.8523 459.101 41.6222C458.84 41.3892 458.488 41.2727 458.044 41.2727C457.652 41.2727 457.309 41.375 457.013 41.5795C456.721 41.7812 456.492 42.0668 456.327 42.4361C456.165 42.8026 456.084 43.233 456.084 43.7273C456.084 44.233 456.164 44.6733 456.323 45.0483C456.485 45.4233 456.712 45.7145 457.005 45.9219C457.3 46.1293 457.647 46.233 458.044 46.233C458.306 46.233 458.543 46.1875 458.756 46.0966C458.969 46.0057 459.15 45.875 459.297 45.7045C459.445 45.5341 459.55 45.3295 459.613 45.0909H460.618C460.561 45.4773 460.421 45.8253 460.196 46.1349C459.975 46.4418 459.681 46.6861 459.314 46.8679C458.951 47.0469 458.527 47.1364 458.044 47.1364ZM462.088 47V40.4545H463.06V41.4432H463.128C463.248 41.1193 463.463 40.8565 463.776 40.6548C464.088 40.4531 464.441 40.3523 464.833 40.3523C464.907 40.3523 464.999 40.3537 465.11 40.3565C465.221 40.3594 465.304 40.3636 465.361 40.3693V41.392C465.327 41.3835 465.249 41.3707 465.127 41.3537C465.007 41.3338 464.881 41.3239 464.748 41.3239C464.429 41.3239 464.145 41.3906 463.895 41.5241C463.648 41.6548 463.452 41.8366 463.307 42.0696C463.165 42.2997 463.094 42.5625 463.094 42.858V47H462.088ZM466.553 47V40.4545H467.559V47H466.553ZM467.065 39.3636C466.869 39.3636 466.7 39.2969 466.558 39.1634C466.418 39.0298 466.349 38.8693 466.349 38.6818C466.349 38.4943 466.418 38.3338 466.558 38.2003C466.7 38.0668 466.869 38 467.065 38C467.261 38 467.428 38.0668 467.567 38.2003C467.71 38.3338 467.781 38.4943 467.781 38.6818C467.781 38.8693 467.71 39.0298 467.567 39.1634C467.428 39.2969 467.261 39.3636 467.065 39.3636ZM469.401 49.4545V40.4545H470.373V41.4943H470.492C470.566 41.3807 470.668 41.2358 470.799 41.0597C470.932 40.8807 471.123 40.7216 471.37 40.5824C471.62 40.4403 471.958 40.3693 472.384 40.3693C472.935 40.3693 473.421 40.5071 473.841 40.7827C474.262 41.0582 474.59 41.4489 474.826 41.9545C475.061 42.4602 475.179 43.0568 475.179 43.7443C475.179 44.4375 475.061 45.0384 474.826 45.5469C474.59 46.0526 474.263 46.4446 473.846 46.723C473.428 46.9986 472.946 47.1364 472.401 47.1364C471.98 47.1364 471.644 47.0668 471.391 46.9276C471.138 46.7855 470.944 46.625 470.807 46.446C470.671 46.2642 470.566 46.1136 470.492 45.9943H470.407V49.4545H469.401ZM470.39 43.7273C470.39 44.2216 470.462 44.6577 470.607 45.0355C470.752 45.4105 470.963 45.7045 471.242 45.9176C471.52 46.1278 471.861 46.233 472.265 46.233C472.685 46.233 473.036 46.1222 473.317 45.9006C473.601 45.6761 473.814 45.375 473.956 44.9972C474.101 44.6165 474.174 44.1932 474.174 43.7273C474.174 43.267 474.103 42.8523 473.961 42.483C473.821 42.1108 473.61 41.8168 473.326 41.6009C473.044 41.3821 472.691 41.2727 472.265 41.2727C471.855 41.2727 471.512 41.3764 471.233 41.5838C470.955 41.7884 470.745 42.0753 470.603 42.4446C470.461 42.8111 470.39 43.2386 470.39 43.7273ZM479.56 40.4545V41.3068H476.168V40.4545H479.56ZM477.157 38.8864H478.162V45.125C478.162 45.4091 478.203 45.6222 478.286 45.7642C478.371 45.9034 478.479 45.9972 478.61 46.0455C478.743 46.0909 478.884 46.1136 479.032 46.1136C479.142 46.1136 479.233 46.108 479.304 46.0966C479.375 46.0824 479.432 46.071 479.475 46.0625L479.679 46.9659C479.611 46.9915 479.516 47.017 479.394 47.0426C479.272 47.071 479.117 47.0852 478.929 47.0852C478.645 47.0852 478.367 47.0241 478.094 46.902C477.824 46.7798 477.6 46.5938 477.421 46.3438C477.245 46.0938 477.157 45.7784 477.157 45.3977V38.8864ZM481.073 47V40.4545H482.078V47H481.073ZM481.584 39.3636C481.388 39.3636 481.219 39.2969 481.077 39.1634C480.938 39.0298 480.868 38.8693 480.868 38.6818C480.868 38.4943 480.938 38.3338 481.077 38.2003C481.219 38.0668 481.388 38 481.584 38C481.78 38 481.948 38.0668 482.087 38.2003C482.229 38.3338 482.3 38.4943 482.3 38.6818C482.3 38.8693 482.229 39.0298 482.087 39.1634C481.948 39.2969 481.78 39.3636 481.584 39.3636ZM486.58 47.1364C485.989 47.1364 485.47 46.9957 485.024 46.7145C484.581 46.4332 484.234 46.0398 483.984 45.5341C483.737 45.0284 483.614 44.4375 483.614 43.7614C483.614 43.0795 483.737 42.4844 483.984 41.9759C484.234 41.4673 484.581 41.0724 485.024 40.7912C485.47 40.5099 485.989 40.3693 486.58 40.3693C487.17 40.3693 487.688 40.5099 488.131 40.7912C488.577 41.0724 488.923 41.4673 489.17 41.9759C489.42 42.4844 489.545 43.0795 489.545 43.7614C489.545 44.4375 489.42 45.0284 489.17 45.5341C488.923 46.0398 488.577 46.4332 488.131 46.7145C487.688 46.9957 487.17 47.1364 486.58 47.1364ZM486.58 46.233C487.028 46.233 487.398 46.1179 487.688 45.8878C487.977 45.6577 488.192 45.3551 488.331 44.9801C488.47 44.6051 488.54 44.1989 488.54 43.7614C488.54 43.3239 488.47 42.9162 488.331 42.5384C488.192 42.1605 487.977 41.8551 487.688 41.6222C487.398 41.3892 487.028 41.2727 486.58 41.2727C486.131 41.2727 485.761 41.3892 485.472 41.6222C485.182 41.8551 484.967 42.1605 484.828 42.5384C484.689 42.9162 484.619 43.3239 484.619 43.7614C484.619 44.1989 484.689 44.6051 484.828 44.9801C484.967 45.3551 485.182 45.6577 485.472 45.8878C485.761 46.1179 486.131 46.233 486.58 46.233ZM492.086 43.0625V47H491.081V40.4545H492.052V41.4773H492.137C492.291 41.1449 492.524 40.8778 492.836 40.6761C493.149 40.4716 493.552 40.3693 494.047 40.3693C494.49 40.3693 494.877 40.4602 495.21 40.642C495.542 40.821 495.801 41.0938 495.985 41.4602C496.17 41.8239 496.262 42.2841 496.262 42.8409V47H495.257V42.9091C495.257 42.3949 495.123 41.9943 494.856 41.7074C494.589 41.4176 494.223 41.2727 493.757 41.2727C493.436 41.2727 493.149 41.3423 492.896 41.4815C492.646 41.6207 492.449 41.8239 492.304 42.0909C492.159 42.358 492.086 42.6818 492.086 43.0625ZM501.185 37.8636L498.373 48.3125H497.452L500.265 37.8636H501.185ZM509.537 41H508.48C508.417 40.696 508.308 40.429 508.152 40.1989C507.998 39.9688 507.811 39.7756 507.589 39.6193C507.37 39.4602 507.127 39.3409 506.86 39.2614C506.593 39.1818 506.315 39.142 506.025 39.142C505.497 39.142 505.018 39.2756 504.589 39.5426C504.163 39.8097 503.824 40.2031 503.571 40.723C503.321 41.2429 503.196 41.8807 503.196 42.6364C503.196 43.392 503.321 44.0298 503.571 44.5497C503.824 45.0696 504.163 45.4631 504.589 45.7301C505.018 45.9972 505.497 46.1307 506.025 46.1307C506.315 46.1307 506.593 46.0909 506.86 46.0114C507.127 45.9318 507.37 45.8139 507.589 45.6577C507.811 45.4986 507.998 45.304 508.152 45.0739C508.308 44.8409 508.417 44.5739 508.48 44.2727H509.537C509.457 44.7187 509.312 45.1179 509.102 45.4702C508.892 45.8224 508.63 46.1222 508.318 46.3693C508.005 46.6136 507.654 46.7997 507.265 46.9276C506.879 47.0554 506.466 47.1193 506.025 47.1193C505.281 47.1193 504.619 46.9375 504.039 46.5739C503.46 46.2102 503.004 45.6932 502.672 45.0227C502.339 44.3523 502.173 43.5568 502.173 42.6364C502.173 41.7159 502.339 40.9205 502.672 40.25C503.004 39.5795 503.46 39.0625 504.039 38.6989C504.619 38.3352 505.281 38.1534 506.025 38.1534C506.466 38.1534 506.879 38.2173 507.265 38.3452C507.654 38.473 508.005 38.6605 508.318 38.9077C508.63 39.152 508.892 39.4503 509.102 39.8026C509.312 40.152 509.457 40.5511 509.537 41ZM513.767 47.1364C513.176 47.1364 512.658 46.9957 512.212 46.7145C511.768 46.4332 511.422 46.0398 511.172 45.5341C510.925 45.0284 510.801 44.4375 510.801 43.7614C510.801 43.0795 510.925 42.4844 511.172 41.9759C511.422 41.4673 511.768 41.0724 512.212 40.7912C512.658 40.5099 513.176 40.3693 513.767 40.3693C514.358 40.3693 514.875 40.5099 515.318 40.7912C515.764 41.0724 516.111 41.4673 516.358 41.9759C516.608 42.4844 516.733 43.0795 516.733 43.7614C516.733 44.4375 516.608 45.0284 516.358 45.5341C516.111 46.0398 515.764 46.4332 515.318 46.7145C514.875 46.9957 514.358 47.1364 513.767 47.1364ZM513.767 46.233C514.216 46.233 514.585 46.1179 514.875 45.8878C515.165 45.6577 515.379 45.3551 515.518 44.9801C515.658 44.6051 515.727 44.1989 515.727 43.7614C515.727 43.3239 515.658 42.9162 515.518 42.5384C515.379 42.1605 515.165 41.8551 514.875 41.6222C514.585 41.3892 514.216 41.2727 513.767 41.2727C513.318 41.2727 512.949 41.3892 512.659 41.6222C512.369 41.8551 512.155 42.1605 512.016 42.5384C511.876 42.9162 511.807 43.3239 511.807 43.7614C511.807 44.1989 511.876 44.6051 512.016 44.9801C512.155 45.3551 512.369 45.6577 512.659 45.8878C512.949 46.1179 513.318 46.233 513.767 46.233ZM519.274 43.0625V47H518.268V40.4545H519.24V41.4773H519.325C519.478 41.1449 519.711 40.8778 520.024 40.6761C520.336 40.4716 520.74 40.3693 521.234 40.3693C521.677 40.3693 522.065 40.4602 522.397 40.642C522.73 40.821 522.988 41.0938 523.173 41.4602C523.358 41.8239 523.45 42.2841 523.45 42.8409V47H522.444V42.9091C522.444 42.3949 522.311 41.9943 522.044 41.7074C521.777 41.4176 521.41 41.2727 520.944 41.2727C520.623 41.2727 520.336 41.3423 520.083 41.4815C519.833 41.6207 519.636 41.8239 519.491 42.0909C519.346 42.358 519.274 42.6818 519.274 43.0625ZM526.293 43.0625V47H525.288V40.4545H526.259V41.4773H526.344C526.498 41.1449 526.731 40.8778 527.043 40.6761C527.356 40.4716 527.759 40.3693 528.254 40.3693C528.697 40.3693 529.085 40.4602 529.417 40.642C529.749 40.821 530.008 41.0938 530.192 41.4602C530.377 41.8239 530.469 42.2841 530.469 42.8409V47H529.464V42.9091C529.464 42.3949 529.33 41.9943 529.063 41.7074C528.796 41.4176 528.43 41.2727 527.964 41.2727C527.643 41.2727 527.356 41.3423 527.103 41.4815C526.853 41.6207 526.656 41.8239 526.511 42.0909C526.366 42.358 526.293 42.6818 526.293 43.0625ZM535.051 47.1364C534.421 47.1364 533.877 46.9972 533.419 46.7188C532.965 46.4375 532.614 46.0455 532.367 45.5426C532.123 45.0369 532 44.4489 532 43.7784C532 43.108 532.123 42.517 532.367 42.0057C532.614 41.4915 532.958 41.0909 533.398 40.804C533.841 40.5142 534.358 40.3693 534.949 40.3693C535.29 40.3693 535.627 40.4261 535.959 40.5398C536.292 40.6534 536.594 40.8381 536.867 41.0938C537.14 41.3466 537.357 41.6818 537.519 42.0994C537.681 42.517 537.762 43.0312 537.762 43.642V44.0682H532.716V43.1989H536.739C536.739 42.8295 536.665 42.5 536.517 42.2102C536.373 41.9205 536.165 41.6918 535.895 41.5241C535.628 41.3565 535.313 41.2727 534.949 41.2727C534.549 41.2727 534.202 41.3722 533.909 41.571C533.62 41.767 533.397 42.0227 533.24 42.3381C533.084 42.6534 533.006 42.9915 533.006 43.3523V43.9318C533.006 44.4261 533.091 44.8452 533.262 45.1889C533.435 45.5298 533.675 45.7898 533.982 45.9688C534.289 46.1449 534.645 46.233 535.051 46.233C535.316 46.233 535.554 46.196 535.767 46.1222C535.983 46.0455 536.169 45.9318 536.326 45.7812C536.482 45.6278 536.603 45.4375 536.688 45.2102L537.659 45.483C537.557 45.8125 537.385 46.1023 537.144 46.3523C536.902 46.5994 536.604 46.7926 536.249 46.9318C535.894 47.0682 535.495 47.1364 535.051 47.1364ZM539.866 40.4545L541.434 43.1307L543.002 40.4545H544.161L542.048 43.7273L544.161 47H543.002L541.434 44.4602L539.866 47H538.707L540.786 43.7273L538.707 40.4545H539.866ZM545.596 47V40.4545H546.602V47H545.596ZM546.108 39.3636C545.912 39.3636 545.743 39.2969 545.6 39.1634C545.461 39.0298 545.392 38.8693 545.392 38.6818C545.392 38.4943 545.461 38.3338 545.6 38.2003C545.743 38.0668 545.912 38 546.108 38C546.304 38 546.471 38.0668 546.61 38.2003C546.752 38.3338 546.824 38.4943 546.824 38.6818C546.824 38.8693 546.752 39.0298 546.61 39.1634C546.471 39.2969 546.304 39.3636 546.108 39.3636ZM551.103 47.1364C550.512 47.1364 549.994 46.9957 549.548 46.7145C549.104 46.4332 548.758 46.0398 548.508 45.5341C548.261 45.0284 548.137 44.4375 548.137 43.7614C548.137 43.0795 548.261 42.4844 548.508 41.9759C548.758 41.4673 549.104 41.0724 549.548 40.7912C549.994 40.5099 550.512 40.3693 551.103 40.3693C551.694 40.3693 552.211 40.5099 552.654 40.7912C553.1 41.0724 553.447 41.4673 553.694 41.9759C553.944 42.4844 554.069 43.0795 554.069 43.7614C554.069 44.4375 553.944 45.0284 553.694 45.5341C553.447 46.0398 553.1 46.4332 552.654 46.7145C552.211 46.9957 551.694 47.1364 551.103 47.1364ZM551.103 46.233C551.552 46.233 551.921 46.1179 552.211 45.8878C552.501 45.6577 552.715 45.3551 552.854 44.9801C552.994 44.6051 553.063 44.1989 553.063 43.7614C553.063 43.3239 552.994 42.9162 552.854 42.5384C552.715 42.1605 552.501 41.8551 552.211 41.6222C551.921 41.3892 551.552 41.2727 551.103 41.2727C550.654 41.2727 550.285 41.3892 549.995 41.6222C549.705 41.8551 549.491 42.1605 549.352 42.5384C549.212 42.9162 549.143 43.3239 549.143 43.7614C549.143 44.1989 549.212 44.6051 549.352 44.9801C549.491 45.3551 549.705 45.6577 549.995 45.8878C550.285 46.1179 550.654 46.233 551.103 46.233ZM556.61 43.0625V47H555.604V40.4545H556.576V41.4773H556.661C556.814 41.1449 557.047 40.8778 557.36 40.6761C557.672 40.4716 558.076 40.3693 558.57 40.3693C559.013 40.3693 559.401 40.4602 559.733 40.642C560.066 40.821 560.324 41.0938 560.509 41.4602C560.694 41.8239 560.786 42.2841 560.786 42.8409V47H559.78V42.9091C559.78 42.3949 559.647 41.9943 559.38 41.7074C559.113 41.4176 558.746 41.2727 558.28 41.2727C557.959 41.2727 557.672 41.3423 557.419 41.4815C557.169 41.6207 556.972 41.8239 556.827 42.0909C556.682 42.358 556.61 42.6818 556.61 43.0625Z" fill="#1E1E1E"/>
</g>
<defs>
<clipPath id="clip0_17_40">
<rect width="577" height="83" fill="white"/>
</clipPath>
</defs>
</svg>
