<svg width="130" height="503" viewBox="0 0 130 503" fill="none" xmlns="http://www.w3.org/2000/svg">
<rect width="130" height="503" fill="white"/>
<rect width="130" height="500" fill="black"/>
<rect x="43" y="35" width="51" height="47" fill="#1E1E1E"/>
<path d="M54.0568 64V55.2727H55.1136V63.0625H59.1705V64H54.0568ZM63.3295 64.1364C62.7386 64.1364 62.2202 63.9957 61.7741 63.7145C61.331 63.4332 60.9844 63.0398 60.7344 62.5341C60.4872 62.0284 60.3636 61.4375 60.3636 60.7614C60.3636 60.0795 60.4872 59.4844 60.7344 58.9759C60.9844 58.4673 61.331 58.0724 61.7741 57.7912C62.2202 57.5099 62.7386 57.3693 63.3295 57.3693C63.9205 57.3693 64.4375 57.5099 64.8807 57.7912C65.3267 58.0724 65.6733 58.4673 65.9205 58.9759C66.1705 59.4844 66.2955 60.0795 66.2955 60.7614C66.2955 61.4375 66.1705 62.0284 65.9205 62.5341C65.6733 63.0398 65.3267 63.4332 64.8807 63.7145C64.4375 63.9957 63.9205 64.1364 63.3295 64.1364ZM63.3295 63.233C63.7784 63.233 64.1477 63.1179 64.4375 62.8878C64.7273 62.6577 64.9418 62.3551 65.081 61.9801C65.2202 61.6051 65.2898 61.1989 65.2898 60.7614C65.2898 60.3239 65.2202 59.9162 65.081 59.5384C64.9418 59.1605 64.7273 58.8551 64.4375 58.6222C64.1477 58.3892 63.7784 58.2727 63.3295 58.2727C62.8807 58.2727 62.5114 58.3892 62.2216 58.6222C61.9318 58.8551 61.7173 59.1605 61.5781 59.5384C61.4389 59.9162 61.3693 60.3239 61.3693 60.7614C61.3693 61.1989 61.4389 61.6051 61.5781 61.9801C61.7173 62.3551 61.9318 62.6577 62.2216 62.8878C62.5114 63.1179 62.8807 63.233 63.3295 63.233ZM70.4727 66.5909C69.9869 66.5909 69.5692 66.5284 69.2198 66.4034C68.8704 66.2812 68.5792 66.1193 68.3462 65.9176C68.1161 65.7188 67.9329 65.5057 67.7965 65.2784L68.5977 64.7159C68.6886 64.8352 68.8036 64.9716 68.9428 65.125C69.082 65.2812 69.2724 65.4162 69.5138 65.5298C69.7582 65.6463 70.0778 65.7045 70.4727 65.7045C71.0011 65.7045 71.4371 65.5767 71.7809 65.321C72.1246 65.0653 72.2965 64.6648 72.2965 64.1193V62.7898H72.2113C72.1374 62.9091 72.0323 63.0568 71.896 63.233C71.7624 63.4062 71.5692 63.5611 71.3164 63.6974C71.0664 63.831 70.7283 63.8977 70.3022 63.8977C69.7738 63.8977 69.2994 63.7727 68.8789 63.5227C68.4613 63.2727 68.1303 62.9091 67.886 62.4318C67.6445 61.9545 67.5238 61.375 67.5238 60.6932C67.5238 60.0227 67.6417 59.4389 67.8775 58.9418C68.1133 58.4418 68.4414 58.0554 68.8619 57.7827C69.2823 57.5071 69.7681 57.3693 70.3192 57.3693C70.7454 57.3693 71.0835 57.4403 71.3335 57.5824C71.5863 57.7216 71.7795 57.8807 71.913 58.0597C72.0494 58.2358 72.1545 58.3807 72.2283 58.4943H72.3306V57.4545H73.3022V64.1875C73.3022 64.75 73.1744 65.2074 72.9187 65.5597C72.6658 65.9148 72.3249 66.1747 71.896 66.3395C71.4698 66.5071 70.9954 66.5909 70.4727 66.5909ZM70.4386 62.9943C70.842 62.9943 71.1829 62.902 71.4613 62.7173C71.7397 62.5327 71.9513 62.267 72.0962 61.9205C72.2411 61.5739 72.3136 61.1591 72.3136 60.6761C72.3136 60.2045 72.2425 59.7884 72.1005 59.4276C71.9585 59.0668 71.7482 58.7841 71.4698 58.5795C71.1914 58.375 70.8477 58.2727 70.4386 58.2727C70.0124 58.2727 69.6573 58.3807 69.3732 58.5966C69.092 58.8125 68.8803 59.1023 68.7383 59.4659C68.5991 59.8295 68.5295 60.233 68.5295 60.6761C68.5295 61.1307 68.6005 61.5327 68.7425 61.8821C68.8874 62.2287 69.1005 62.5014 69.3817 62.7003C69.6658 62.8963 70.0181 62.9943 70.4386 62.9943ZM77.8022 64.1364C77.2113 64.1364 76.6928 63.9957 76.2468 63.7145C75.8036 63.4332 75.457 63.0398 75.207 62.5341C74.9599 62.0284 74.8363 61.4375 74.8363 60.7614C74.8363 60.0795 74.9599 59.4844 75.207 58.9759C75.457 58.4673 75.8036 58.0724 76.2468 57.7912C76.6928 57.5099 77.2113 57.3693 77.8022 57.3693C78.3931 57.3693 78.9102 57.5099 79.3533 57.7912C79.7994 58.0724 80.146 58.4673 80.3931 58.9759C80.6431 59.4844 80.7681 60.0795 80.7681 60.7614C80.7681 61.4375 80.6431 62.0284 80.3931 62.5341C80.146 63.0398 79.7994 63.4332 79.3533 63.7145C78.9102 63.9957 78.3931 64.1364 77.8022 64.1364ZM77.8022 63.233C78.2511 63.233 78.6204 63.1179 78.9102 62.8878C79.1999 62.6577 79.4144 62.3551 79.5536 61.9801C79.6928 61.6051 79.7624 61.1989 79.7624 60.7614C79.7624 60.3239 79.6928 59.9162 79.5536 59.5384C79.4144 59.1605 79.1999 58.8551 78.9102 58.6222C78.6204 58.3892 78.2511 58.2727 77.8022 58.2727C77.3533 58.2727 76.984 58.3892 76.6942 58.6222C76.4045 58.8551 76.19 59.1605 76.0508 59.5384C75.9116 59.9162 75.842 60.3239 75.842 60.7614C75.842 61.1989 75.9116 61.6051 76.0508 61.9801C76.19 62.3551 76.4045 62.6577 76.6942 62.8878C76.984 63.1179 77.3533 63.233 77.8022 63.233Z" fill="white"/>
<g clip-path="url(#clip0_17_45)">
<path d="M98 415.801C100.672 415.801 100.988 415.812 102.039 415.859C103.016 415.902 103.543 416.066 103.895 416.203C104.359 416.383 104.695 416.602 105.043 416.949C105.395 417.301 105.609 417.633 105.789 418.098C105.926 418.449 106.09 418.98 106.133 419.953C106.18 421.008 106.191 421.324 106.191 423.992C106.191 426.664 106.18 426.98 106.133 428.031C106.09 429.008 105.926 429.535 105.789 429.887C105.609 430.352 105.391 430.688 105.043 431.035C104.691 431.387 104.359 431.602 103.895 431.781C103.543 431.918 103.012 432.082 102.039 432.125C100.984 432.172 100.668 432.184 98 432.184C95.3281 432.184 95.0117 432.172 93.9609 432.125C92.9844 432.082 92.457 431.918 92.1055 431.781C91.6406 431.602 91.3047 431.383 90.957 431.035C90.6055 430.684 90.3906 430.352 90.2109 429.887C90.0742 429.535 89.9102 429.004 89.8672 428.031C89.8203 426.977 89.8086 426.66 89.8086 423.992C89.8086 421.32 89.8203 421.004 89.8672 419.953C89.9102 418.977 90.0742 418.449 90.2109 418.098C90.3906 417.633 90.6094 417.297 90.957 416.949C91.3086 416.598 91.6406 416.383 92.1055 416.203C92.457 416.066 92.9883 415.902 93.9609 415.859C95.0117 415.812 95.3281 415.801 98 415.801ZM98 414C95.2852 414 94.9453 414.012 93.8789 414.059C92.8164 414.105 92.0859 414.277 91.4531 414.523C90.793 414.781 90.2344 415.121 89.6797 415.68C89.1211 416.234 88.7813 416.793 88.5234 417.449C88.2773 418.086 88.1055 418.812 88.0586 419.875C88.0117 420.945 88 421.285 88 424C88 426.715 88.0117 427.055 88.0586 428.121C88.1055 429.184 88.2773 429.914 88.5234 430.547C88.7813 431.207 89.1211 431.766 89.6797 432.32C90.2344 432.875 90.793 433.219 91.4492 433.473C92.0859 433.719 92.8125 433.891 93.875 433.938C94.9414 433.984 95.2813 433.996 97.9961 433.996C100.711 433.996 101.051 433.984 102.117 433.938C103.18 433.891 103.91 433.719 104.543 433.473C105.199 433.219 105.758 432.875 106.313 432.32C106.867 431.766 107.211 431.207 107.465 430.551C107.711 429.914 107.883 429.188 107.93 428.125C107.977 427.059 107.988 426.719 107.988 424.004C107.988 421.289 107.977 420.949 107.93 419.883C107.883 418.82 107.711 418.09 107.465 417.457C107.219 416.793 106.879 416.234 106.32 415.68C105.766 415.125 105.207 414.781 104.551 414.527C103.914 414.281 103.188 414.109 102.125 414.063C101.055 414.012 100.715 414 98 414Z" fill="white"/>
<path d="M98 418.863C95.1641 418.863 92.8633 421.164 92.8633 424C92.8633 426.836 95.1641 429.137 98 429.137C100.836 429.137 103.137 426.836 103.137 424C103.137 421.164 100.836 418.863 98 418.863ZM98 427.332C96.1602 427.332 94.668 425.84 94.668 424C94.668 422.16 96.1602 420.668 98 420.668C99.8398 420.668 101.332 422.16 101.332 424C101.332 425.84 99.8398 427.332 98 427.332Z" fill="white"/>
<path d="M104.539 418.66C104.539 419.324 104 419.859 103.34 419.859C102.676 419.859 102.141 419.32 102.141 418.66C102.141 417.996 102.68 417.461 103.34 417.461C104 417.461 104.539 418 104.539 418.66Z" fill="white"/>
</g>
<path d="M69.2918 432.125C76.8371 432.125 80.9652 425.872 80.9652 420.452C80.9652 420.276 80.9613 420.096 80.9535 419.92C81.7566 419.34 82.4496 418.62 83 417.796C82.2521 418.129 81.458 418.346 80.6449 418.441C81.5011 417.927 82.1421 417.121 82.4492 416.172C81.6438 416.649 80.763 416.986 79.8445 417.167C79.2257 416.51 78.4075 416.074 77.5164 415.928C76.6253 415.783 75.711 415.934 74.9148 416.36C74.1186 416.786 73.4848 417.462 73.1115 418.284C72.7382 419.107 72.6462 420.029 72.8496 420.909C71.2187 420.827 69.6233 420.403 68.1667 419.665C66.71 418.927 65.4247 417.891 64.3941 416.625C63.8703 417.528 63.71 418.596 63.9459 419.613C64.1817 420.63 64.7959 421.52 65.6637 422.1C65.0122 422.079 64.375 421.904 63.8047 421.588V421.639C63.8041 422.587 64.1317 423.506 64.7319 424.239C65.3321 424.972 66.1678 425.475 67.0969 425.663C66.4934 425.828 65.86 425.852 65.2457 425.733C65.5079 426.548 66.018 427.261 66.7048 427.772C67.3916 428.283 68.2209 428.567 69.077 428.584C67.6237 429.726 65.8285 430.345 63.9805 430.342C63.6527 430.342 63.3253 430.322 63 430.282C64.8774 431.486 67.0613 432.126 69.2918 432.125Z" fill="white"/>
<path d="M57 424C57 418.477 52.5229 414 47 414C41.4771 414 37 418.477 37 424C37 428.991 40.6568 433.128 45.4375 433.879V426.891H42.8984V424H45.4375V421.797C45.4375 419.291 46.9305 417.906 49.2146 417.906C50.3084 417.906 51.4531 418.102 51.4531 418.102V420.563H50.1922C48.95 420.563 48.5625 421.333 48.5625 422.125V424H51.3359L50.8926 426.891H48.5625V433.879C53.3432 433.128 57 428.991 57 424Z" fill="white"/>
<path d="M30.8008 419C30.8008 419 30.6055 417.621 30.0039 417.016C29.2422 416.219 28.3906 416.215 28 416.168C25.2031 415.965 21.0039 415.965 21.0039 415.965H20.9961C20.9961 415.965 16.7969 415.965 14 416.168C13.6094 416.215 12.7578 416.219 11.9961 417.016C11.3945 417.621 11.2031 419 11.2031 419C11.2031 419 11 420.621 11 422.238V423.754C11 425.371 11.1992 426.992 11.1992 426.992C11.1992 426.992 11.3945 428.371 11.9922 428.977C12.7539 429.773 13.7539 429.746 14.1992 429.832C15.8008 429.984 21 430.031 21 430.031C21 430.031 25.2031 430.023 28 429.824C28.3906 429.777 29.2422 429.773 30.0039 428.977C30.6055 428.371 30.8008 426.992 30.8008 426.992C30.8008 426.992 31 425.375 31 423.754V422.238C31 420.621 30.8008 419 30.8008 419ZM18.9336 425.594V419.973L24.3359 422.793L18.9336 425.594Z" fill="white"/>
<path d="M40.0568 112.273H41.3182L44.2841 119.517H44.3864L47.3523 112.273H48.6136V121H47.625V114.369H47.5398L44.8125 121H43.858L41.1307 114.369H41.0455V121H40.0568V112.273ZM53.3406 121.136C52.7099 121.136 52.1658 120.997 51.7085 120.719C51.2539 120.438 50.9031 120.045 50.6559 119.543C50.4116 119.037 50.2894 118.449 50.2894 117.778C50.2894 117.108 50.4116 116.517 50.6559 116.006C50.9031 115.491 51.2468 115.091 51.6871 114.804C52.1303 114.514 52.6474 114.369 53.2383 114.369C53.5792 114.369 53.9158 114.426 54.2482 114.54C54.5806 114.653 54.8832 114.838 55.1559 115.094C55.4286 115.347 55.646 115.682 55.8079 116.099C55.9698 116.517 56.0508 117.031 56.0508 117.642V118.068H51.0053V117.199H55.0281C55.0281 116.83 54.9542 116.5 54.8065 116.21C54.6616 115.92 54.4542 115.692 54.1843 115.524C53.9173 115.357 53.6019 115.273 53.2383 115.273C52.8377 115.273 52.4911 115.372 52.1985 115.571C51.9087 115.767 51.6857 116.023 51.5295 116.338C51.3732 116.653 51.2951 116.991 51.2951 117.352V117.932C51.2951 118.426 51.3803 118.845 51.5508 119.189C51.7241 119.53 51.9641 119.79 52.271 119.969C52.5778 120.145 52.9343 120.233 53.3406 120.233C53.6048 120.233 53.8434 120.196 54.0565 120.122C54.2724 120.045 54.4585 119.932 54.6147 119.781C54.771 119.628 54.8917 119.437 54.9769 119.21L55.9485 119.483C55.8462 119.812 55.6744 120.102 55.4329 120.352C55.1914 120.599 54.8931 120.793 54.538 120.932C54.1829 121.068 53.7837 121.136 53.3406 121.136ZM58.5863 117.062V121H57.5806V114.455H58.5522V115.477H58.6374C58.7908 115.145 59.0238 114.878 59.3363 114.676C59.6488 114.472 60.0522 114.369 60.5465 114.369C60.9897 114.369 61.3775 114.46 61.7099 114.642C62.0423 114.821 62.3008 115.094 62.4854 115.46C62.6701 115.824 62.7624 116.284 62.7624 116.841V121H61.7567V116.909C61.7567 116.395 61.6232 115.994 61.3562 115.707C61.0891 115.418 60.7227 115.273 60.2567 115.273C59.9357 115.273 59.6488 115.342 59.396 115.482C59.146 115.621 58.9485 115.824 58.8036 116.091C58.6587 116.358 58.5863 116.682 58.5863 117.062ZM68.7251 118.324V114.455H69.7308V121H68.7251V119.892H68.657C68.5036 120.224 68.2649 120.507 67.9411 120.74C67.6172 120.97 67.2081 121.085 66.7138 121.085C66.3047 121.085 65.9411 120.996 65.6229 120.817C65.3047 120.635 65.0547 120.362 64.8729 119.999C64.6911 119.632 64.6001 119.17 64.6001 118.614V114.455H65.6058V118.545C65.6058 119.023 65.7393 119.403 66.0064 119.688C66.2763 119.972 66.62 120.114 67.0376 120.114C67.2876 120.114 67.5419 120.05 67.8004 119.922C68.0618 119.794 68.2805 119.598 68.4567 119.334C68.6357 119.07 68.7251 118.733 68.7251 118.324ZM74.6239 112.273V121H73.5671V113.381H73.516L71.3853 114.795V113.722L73.5671 112.273H74.6239Z" fill="white"/>
<path d="M40.0568 112.273H41.3182L44.2841 119.517H44.3864L47.3523 112.273H48.6136V121H47.625V114.369H47.5398L44.8125 121H43.858L41.1307 114.369H41.0455V121H40.0568V112.273ZM53.3406 121.136C52.7099 121.136 52.1658 120.997 51.7085 120.719C51.2539 120.438 50.9031 120.045 50.6559 119.543C50.4116 119.037 50.2894 118.449 50.2894 117.778C50.2894 117.108 50.4116 116.517 50.6559 116.006C50.9031 115.491 51.2468 115.091 51.6871 114.804C52.1303 114.514 52.6474 114.369 53.2383 114.369C53.5792 114.369 53.9158 114.426 54.2482 114.54C54.5806 114.653 54.8832 114.838 55.1559 115.094C55.4286 115.347 55.646 115.682 55.8079 116.099C55.9698 116.517 56.0508 117.031 56.0508 117.642V118.068H51.0053V117.199H55.0281C55.0281 116.83 54.9542 116.5 54.8065 116.21C54.6616 115.92 54.4542 115.692 54.1843 115.524C53.9173 115.357 53.6019 115.273 53.2383 115.273C52.8377 115.273 52.4911 115.372 52.1985 115.571C51.9087 115.767 51.6857 116.023 51.5295 116.338C51.3732 116.653 51.2951 116.991 51.2951 117.352V117.932C51.2951 118.426 51.3803 118.845 51.5508 119.189C51.7241 119.53 51.9641 119.79 52.271 119.969C52.5778 120.145 52.9343 120.233 53.3406 120.233C53.6048 120.233 53.8434 120.196 54.0565 120.122C54.2724 120.045 54.4585 119.932 54.6147 119.781C54.771 119.628 54.8917 119.437 54.9769 119.21L55.9485 119.483C55.8462 119.812 55.6744 120.102 55.4329 120.352C55.1914 120.599 54.8931 120.793 54.538 120.932C54.1829 121.068 53.7837 121.136 53.3406 121.136ZM58.5863 117.062V121H57.5806V114.455H58.5522V115.477H58.6374C58.7908 115.145 59.0238 114.878 59.3363 114.676C59.6488 114.472 60.0522 114.369 60.5465 114.369C60.9897 114.369 61.3775 114.46 61.7099 114.642C62.0423 114.821 62.3008 115.094 62.4854 115.46C62.6701 115.824 62.7624 116.284 62.7624 116.841V121H61.7567V116.909C61.7567 116.395 61.6232 115.994 61.3562 115.707C61.0891 115.418 60.7227 115.273 60.2567 115.273C59.9357 115.273 59.6488 115.342 59.396 115.482C59.146 115.621 58.9485 115.824 58.8036 116.091C58.6587 116.358 58.5863 116.682 58.5863 117.062ZM68.7251 118.324V114.455H69.7308V121H68.7251V119.892H68.657C68.5036 120.224 68.2649 120.507 67.9411 120.74C67.6172 120.97 67.2081 121.085 66.7138 121.085C66.3047 121.085 65.9411 120.996 65.6229 120.817C65.3047 120.635 65.0547 120.362 64.8729 119.999C64.6911 119.632 64.6001 119.17 64.6001 118.614V114.455H65.6058V118.545C65.6058 119.023 65.7393 119.403 66.0064 119.688C66.2763 119.972 66.62 120.114 67.0376 120.114C67.2876 120.114 67.5419 120.05 67.8004 119.922C68.0618 119.794 68.2805 119.598 68.4567 119.334C68.6357 119.07 68.7251 118.733 68.7251 118.324ZM74.6239 112.273V121H73.5671V113.381H73.516L71.3853 114.795V113.722L73.5671 112.273H74.6239Z" fill="white"/>
<path d="M40.0568 155.273H41.3182L44.2841 162.517H44.3864L47.3523 155.273H48.6136V164H47.625V157.369H47.5398L44.8125 164H43.858L41.1307 157.369H41.0455V164H40.0568V155.273ZM53.3406 164.136C52.7099 164.136 52.1658 163.997 51.7085 163.719C51.2539 163.438 50.9031 163.045 50.6559 162.543C50.4116 162.037 50.2894 161.449 50.2894 160.778C50.2894 160.108 50.4116 159.517 50.6559 159.006C50.9031 158.491 51.2468 158.091 51.6871 157.804C52.1303 157.514 52.6474 157.369 53.2383 157.369C53.5792 157.369 53.9158 157.426 54.2482 157.54C54.5806 157.653 54.8832 157.838 55.1559 158.094C55.4286 158.347 55.646 158.682 55.8079 159.099C55.9698 159.517 56.0508 160.031 56.0508 160.642V161.068H51.0053V160.199H55.0281C55.0281 159.83 54.9542 159.5 54.8065 159.21C54.6616 158.92 54.4542 158.692 54.1843 158.524C53.9173 158.357 53.6019 158.273 53.2383 158.273C52.8377 158.273 52.4911 158.372 52.1985 158.571C51.9087 158.767 51.6857 159.023 51.5295 159.338C51.3732 159.653 51.2951 159.991 51.2951 160.352V160.932C51.2951 161.426 51.3803 161.845 51.5508 162.189C51.7241 162.53 51.9641 162.79 52.271 162.969C52.5778 163.145 52.9343 163.233 53.3406 163.233C53.6048 163.233 53.8434 163.196 54.0565 163.122C54.2724 163.045 54.4585 162.932 54.6147 162.781C54.771 162.628 54.8917 162.437 54.9769 162.21L55.9485 162.483C55.8462 162.812 55.6744 163.102 55.4329 163.352C55.1914 163.599 54.8931 163.793 54.538 163.932C54.1829 164.068 53.7837 164.136 53.3406 164.136ZM58.5863 160.062V164H57.5806V157.455H58.5522V158.477H58.6374C58.7908 158.145 59.0238 157.878 59.3363 157.676C59.6488 157.472 60.0522 157.369 60.5465 157.369C60.9897 157.369 61.3775 157.46 61.7099 157.642C62.0423 157.821 62.3008 158.094 62.4854 158.46C62.6701 158.824 62.7624 159.284 62.7624 159.841V164H61.7567V159.909C61.7567 159.395 61.6232 158.994 61.3562 158.707C61.0891 158.418 60.7227 158.273 60.2567 158.273C59.9357 158.273 59.6488 158.342 59.396 158.482C59.146 158.621 58.9485 158.824 58.8036 159.091C58.6587 159.358 58.5863 159.682 58.5863 160.062ZM68.7251 161.324V157.455H69.7308V164H68.7251V162.892H68.657C68.5036 163.224 68.2649 163.507 67.9411 163.74C67.6172 163.97 67.2081 164.085 66.7138 164.085C66.3047 164.085 65.9411 163.996 65.6229 163.817C65.3047 163.635 65.0547 163.362 64.8729 162.999C64.6911 162.632 64.6001 162.17 64.6001 161.614V157.455H65.6058V161.545C65.6058 162.023 65.7393 162.403 66.0064 162.688C66.2763 162.972 66.62 163.114 67.0376 163.114C67.2876 163.114 67.5419 163.05 67.8004 162.922C68.0618 162.794 68.2805 162.598 68.4567 162.334C68.6357 162.07 68.7251 161.733 68.7251 161.324ZM71.5558 164V163.233L74.4364 160.08C74.7745 159.71 75.0529 159.389 75.2717 159.116C75.4904 158.841 75.6523 158.582 75.7575 158.341C75.8654 158.097 75.9194 157.841 75.9194 157.574C75.9194 157.267 75.8455 157.001 75.6978 156.777C75.5529 156.553 75.354 156.379 75.1012 156.257C74.8484 156.135 74.5643 156.074 74.2489 156.074C73.9137 156.074 73.6211 156.143 73.3711 156.283C73.1239 156.419 72.9322 156.611 72.7958 156.858C72.6623 157.105 72.5955 157.395 72.5955 157.727H71.5898C71.5898 157.216 71.7077 156.767 71.9435 156.381C72.1793 155.994 72.5004 155.693 72.9066 155.477C73.3157 155.261 73.7745 155.153 74.283 155.153C74.7944 155.153 75.2475 155.261 75.6424 155.477C76.0373 155.693 76.3469 155.984 76.5714 156.351C76.7958 156.717 76.908 157.125 76.908 157.574C76.908 157.895 76.8498 158.209 76.7333 158.516C76.6197 158.82 76.4208 159.159 76.1367 159.534C75.8555 159.906 75.4648 160.361 74.9648 160.898L73.0046 162.994V163.062H77.0614V164H71.5558Z" fill="white"/>
<path d="M40.0568 198.273H41.3182L44.2841 205.517H44.3864L47.3523 198.273H48.6136V207H47.625V200.369H47.5398L44.8125 207H43.858L41.1307 200.369H41.0455V207H40.0568V198.273ZM53.3406 207.136C52.7099 207.136 52.1658 206.997 51.7085 206.719C51.2539 206.438 50.9031 206.045 50.6559 205.543C50.4116 205.037 50.2894 204.449 50.2894 203.778C50.2894 203.108 50.4116 202.517 50.6559 202.006C50.9031 201.491 51.2468 201.091 51.6871 200.804C52.1303 200.514 52.6474 200.369 53.2383 200.369C53.5792 200.369 53.9158 200.426 54.2482 200.54C54.5806 200.653 54.8832 200.838 55.1559 201.094C55.4286 201.347 55.646 201.682 55.8079 202.099C55.9698 202.517 56.0508 203.031 56.0508 203.642V204.068H51.0053V203.199H55.0281C55.0281 202.83 54.9542 202.5 54.8065 202.21C54.6616 201.92 54.4542 201.692 54.1843 201.524C53.9173 201.357 53.6019 201.273 53.2383 201.273C52.8377 201.273 52.4911 201.372 52.1985 201.571C51.9087 201.767 51.6857 202.023 51.5295 202.338C51.3732 202.653 51.2951 202.991 51.2951 203.352V203.932C51.2951 204.426 51.3803 204.845 51.5508 205.189C51.7241 205.53 51.9641 205.79 52.271 205.969C52.5778 206.145 52.9343 206.233 53.3406 206.233C53.6048 206.233 53.8434 206.196 54.0565 206.122C54.2724 206.045 54.4585 205.932 54.6147 205.781C54.771 205.628 54.8917 205.437 54.9769 205.21L55.9485 205.483C55.8462 205.812 55.6744 206.102 55.4329 206.352C55.1914 206.599 54.8931 206.793 54.538 206.932C54.1829 207.068 53.7837 207.136 53.3406 207.136ZM58.5863 203.062V207H57.5806V200.455H58.5522V201.477H58.6374C58.7908 201.145 59.0238 200.878 59.3363 200.676C59.6488 200.472 60.0522 200.369 60.5465 200.369C60.9897 200.369 61.3775 200.46 61.7099 200.642C62.0423 200.821 62.3008 201.094 62.4854 201.46C62.6701 201.824 62.7624 202.284 62.7624 202.841V207H61.7567V202.909C61.7567 202.395 61.6232 201.994 61.3562 201.707C61.0891 201.418 60.7227 201.273 60.2567 201.273C59.9357 201.273 59.6488 201.342 59.396 201.482C59.146 201.621 58.9485 201.824 58.8036 202.091C58.6587 202.358 58.5863 202.682 58.5863 203.062ZM68.7251 204.324V200.455H69.7308V207H68.7251V205.892H68.657C68.5036 206.224 68.2649 206.507 67.9411 206.74C67.6172 206.97 67.2081 207.085 66.7138 207.085C66.3047 207.085 65.9411 206.996 65.6229 206.817C65.3047 206.635 65.0547 206.362 64.8729 205.999C64.6911 205.632 64.6001 205.17 64.6001 204.614V200.455H65.6058V204.545C65.6058 205.023 65.7393 205.403 66.0064 205.688C66.2763 205.972 66.62 206.114 67.0376 206.114C67.2876 206.114 67.5419 206.05 67.8004 205.922C68.0618 205.794 68.2805 205.598 68.4567 205.334C68.6357 205.07 68.7251 204.733 68.7251 204.324ZM74.5046 207.119C73.9421 207.119 73.4407 207.023 73.0004 206.83C72.5629 206.636 72.2148 206.368 71.9563 206.024C71.7006 205.678 71.5614 205.276 71.5387 204.818H72.6126C72.6353 205.099 72.7319 205.342 72.9023 205.547C73.0728 205.749 73.2958 205.905 73.5714 206.016C73.8469 206.126 74.1523 206.182 74.4876 206.182C74.8626 206.182 75.195 206.116 75.4847 205.986C75.7745 205.855 76.0018 205.673 76.1665 205.44C76.3313 205.207 76.4137 204.938 76.4137 204.631C76.4137 204.31 76.3342 204.027 76.1751 203.783C76.016 203.536 75.783 203.342 75.4762 203.203C75.1694 203.064 74.7944 202.994 74.3512 202.994H73.6523V202.057H74.3512C74.6978 202.057 75.0018 201.994 75.2631 201.869C75.5273 201.744 75.7333 201.568 75.881 201.341C76.0316 201.114 76.1069 200.847 76.1069 200.54C76.1069 200.244 76.0415 199.987 75.9109 199.768C75.7802 199.55 75.5955 199.379 75.3569 199.257C75.1211 199.135 74.8427 199.074 74.5217 199.074C74.2205 199.074 73.9364 199.129 73.6694 199.24C73.4052 199.348 73.1893 199.506 73.0217 199.713C72.854 199.918 72.7631 200.165 72.7489 200.455H71.7262C71.7433 199.997 71.881 199.597 72.1396 199.253C72.3981 198.906 72.7362 198.636 73.1538 198.443C73.5742 198.25 74.0359 198.153 74.5387 198.153C75.0785 198.153 75.5415 198.263 75.9279 198.482C76.3143 198.697 76.6112 198.983 76.8185 199.338C77.0259 199.693 77.1296 200.077 77.1296 200.489C77.1296 200.98 77.0004 201.399 76.7418 201.746C76.4862 202.092 76.1381 202.332 75.6978 202.466V202.534C76.2489 202.625 76.6793 202.859 76.989 203.237C77.2987 203.612 77.4535 204.077 77.4535 204.631C77.4535 205.105 77.3242 205.531 77.0657 205.909C76.81 206.284 76.4606 206.58 76.0174 206.795C75.5742 207.011 75.07 207.119 74.5046 207.119Z" fill="white"/>
<path d="M40.0568 241.273H41.3182L44.2841 248.517H44.3864L47.3523 241.273H48.6136V250H47.625V243.369H47.5398L44.8125 250H43.858L41.1307 243.369H41.0455V250H40.0568V241.273ZM53.3406 250.136C52.7099 250.136 52.1658 249.997 51.7085 249.719C51.2539 249.438 50.9031 249.045 50.6559 248.543C50.4116 248.037 50.2894 247.449 50.2894 246.778C50.2894 246.108 50.4116 245.517 50.6559 245.006C50.9031 244.491 51.2468 244.091 51.6871 243.804C52.1303 243.514 52.6474 243.369 53.2383 243.369C53.5792 243.369 53.9158 243.426 54.2482 243.54C54.5806 243.653 54.8832 243.838 55.1559 244.094C55.4286 244.347 55.646 244.682 55.8079 245.099C55.9698 245.517 56.0508 246.031 56.0508 246.642V247.068H51.0053V246.199H55.0281C55.0281 245.83 54.9542 245.5 54.8065 245.21C54.6616 244.92 54.4542 244.692 54.1843 244.524C53.9173 244.357 53.6019 244.273 53.2383 244.273C52.8377 244.273 52.4911 244.372 52.1985 244.571C51.9087 244.767 51.6857 245.023 51.5295 245.338C51.3732 245.653 51.2951 245.991 51.2951 246.352V246.932C51.2951 247.426 51.3803 247.845 51.5508 248.189C51.7241 248.53 51.9641 248.79 52.271 248.969C52.5778 249.145 52.9343 249.233 53.3406 249.233C53.6048 249.233 53.8434 249.196 54.0565 249.122C54.2724 249.045 54.4585 248.932 54.6147 248.781C54.771 248.628 54.8917 248.437 54.9769 248.21L55.9485 248.483C55.8462 248.812 55.6744 249.102 55.4329 249.352C55.1914 249.599 54.8931 249.793 54.538 249.932C54.1829 250.068 53.7837 250.136 53.3406 250.136ZM58.5863 246.062V250H57.5806V243.455H58.5522V244.477H58.6374C58.7908 244.145 59.0238 243.878 59.3363 243.676C59.6488 243.472 60.0522 243.369 60.5465 243.369C60.9897 243.369 61.3775 243.46 61.7099 243.642C62.0423 243.821 62.3008 244.094 62.4854 244.46C62.6701 244.824 62.7624 245.284 62.7624 245.841V250H61.7567V245.909C61.7567 245.395 61.6232 244.994 61.3562 244.707C61.0891 244.418 60.7227 244.273 60.2567 244.273C59.9357 244.273 59.6488 244.342 59.396 244.482C59.146 244.621 58.9485 244.824 58.8036 245.091C58.6587 245.358 58.5863 245.682 58.5863 246.062ZM68.7251 247.324V243.455H69.7308V250H68.7251V248.892H68.657C68.5036 249.224 68.2649 249.507 67.9411 249.74C67.6172 249.97 67.2081 250.085 66.7138 250.085C66.3047 250.085 65.9411 249.996 65.6229 249.817C65.3047 249.635 65.0547 249.362 64.8729 248.999C64.6911 248.632 64.6001 248.17 64.6001 247.614V243.455H65.6058V247.545C65.6058 248.023 65.7393 248.403 66.0064 248.688C66.2763 248.972 66.62 249.114 67.0376 249.114C67.2876 249.114 67.5419 249.05 67.8004 248.922C68.0618 248.794 68.2805 248.598 68.4567 248.334C68.6357 248.07 68.7251 247.733 68.7251 247.324ZM71.3512 248.21V247.341L75.1864 241.273H75.8171V242.619H75.391L72.4933 247.205V247.273H77.658V248.21H71.3512ZM75.4592 250V247.946V247.541V241.273H76.4648V250H75.4592Z" fill="white"/>
<path d="M40.0568 284.273H41.3182L44.2841 291.517H44.3864L47.3523 284.273H48.6136V293H47.625V286.369H47.5398L44.8125 293H43.858L41.1307 286.369H41.0455V293H40.0568V284.273ZM53.3406 293.136C52.7099 293.136 52.1658 292.997 51.7085 292.719C51.2539 292.438 50.9031 292.045 50.6559 291.543C50.4116 291.037 50.2894 290.449 50.2894 289.778C50.2894 289.108 50.4116 288.517 50.6559 288.006C50.9031 287.491 51.2468 287.091 51.6871 286.804C52.1303 286.514 52.6474 286.369 53.2383 286.369C53.5792 286.369 53.9158 286.426 54.2482 286.54C54.5806 286.653 54.8832 286.838 55.1559 287.094C55.4286 287.347 55.646 287.682 55.8079 288.099C55.9698 288.517 56.0508 289.031 56.0508 289.642V290.068H51.0053V289.199H55.0281C55.0281 288.83 54.9542 288.5 54.8065 288.21C54.6616 287.92 54.4542 287.692 54.1843 287.524C53.9173 287.357 53.6019 287.273 53.2383 287.273C52.8377 287.273 52.4911 287.372 52.1985 287.571C51.9087 287.767 51.6857 288.023 51.5295 288.338C51.3732 288.653 51.2951 288.991 51.2951 289.352V289.932C51.2951 290.426 51.3803 290.845 51.5508 291.189C51.7241 291.53 51.9641 291.79 52.271 291.969C52.5778 292.145 52.9343 292.233 53.3406 292.233C53.6048 292.233 53.8434 292.196 54.0565 292.122C54.2724 292.045 54.4585 291.932 54.6147 291.781C54.771 291.628 54.8917 291.437 54.9769 291.21L55.9485 291.483C55.8462 291.812 55.6744 292.102 55.4329 292.352C55.1914 292.599 54.8931 292.793 54.538 292.932C54.1829 293.068 53.7837 293.136 53.3406 293.136ZM58.5863 289.062V293H57.5806V286.455H58.5522V287.477H58.6374C58.7908 287.145 59.0238 286.878 59.3363 286.676C59.6488 286.472 60.0522 286.369 60.5465 286.369C60.9897 286.369 61.3775 286.46 61.7099 286.642C62.0423 286.821 62.3008 287.094 62.4854 287.46C62.6701 287.824 62.7624 288.284 62.7624 288.841V293H61.7567V288.909C61.7567 288.395 61.6232 287.994 61.3562 287.707C61.0891 287.418 60.7227 287.273 60.2567 287.273C59.9357 287.273 59.6488 287.342 59.396 287.482C59.146 287.621 58.9485 287.824 58.8036 288.091C58.6587 288.358 58.5863 288.682 58.5863 289.062ZM68.7251 290.324V286.455H69.7308V293H68.7251V291.892H68.657C68.5036 292.224 68.2649 292.507 67.9411 292.74C67.6172 292.97 67.2081 293.085 66.7138 293.085C66.3047 293.085 65.9411 292.996 65.6229 292.817C65.3047 292.635 65.0547 292.362 64.8729 291.999C64.6911 291.632 64.6001 291.17 64.6001 290.614V286.455H65.6058V290.545C65.6058 291.023 65.7393 291.403 66.0064 291.688C66.2763 291.972 66.62 292.114 67.0376 292.114C67.2876 292.114 67.5419 292.05 67.8004 291.922C68.0618 291.794 68.2805 291.598 68.4567 291.334C68.6357 291.07 68.7251 290.733 68.7251 290.324ZM74.283 293.119C73.783 293.119 73.3327 293.02 72.9322 292.821C72.5316 292.622 72.2106 292.349 71.9691 292.003C71.7276 291.656 71.5955 291.261 71.5728 290.818H72.5955C72.6353 291.213 72.8143 291.54 73.1325 291.798C73.4535 292.054 73.837 292.182 74.283 292.182C74.641 292.182 74.9592 292.098 75.2376 291.93C75.5188 291.763 75.739 291.533 75.8981 291.24C76.06 290.945 76.141 290.611 76.141 290.239C76.141 289.858 76.0572 289.518 75.8896 289.22C75.7248 288.919 75.4975 288.682 75.2077 288.509C74.918 288.335 74.587 288.247 74.2148 288.244C73.9478 288.241 73.6737 288.283 73.3924 288.368C73.1112 288.45 72.8796 288.557 72.6978 288.688L71.7092 288.568L72.2376 284.273H76.7717V285.21H73.1239L72.8171 287.784H72.8683C73.0472 287.642 73.2717 287.524 73.5415 287.43C73.8114 287.337 74.0927 287.29 74.3853 287.29C74.9194 287.29 75.3952 287.418 75.8129 287.673C76.2333 287.926 76.5629 288.273 76.8015 288.713C77.043 289.153 77.1637 289.656 77.1637 290.222C77.1637 290.778 77.0387 291.276 76.7887 291.713C76.5415 292.148 76.2006 292.491 75.766 292.744C75.3313 292.994 74.837 293.119 74.283 293.119Z" fill="white"/>
<defs>
<clipPath id="clip0_17_45">
<rect width="20" height="20" fill="white" transform="translate(88 414)"/>
</clipPath>
</defs>
</svg>
