<svg width="591" height="115" viewBox="0 0 591 115" fill="none" xmlns="http://www.w3.org/2000/svg">
<rect width="591" height="115" fill="white"/>
<rect x="5" width="577" height="83" fill="black"/>
<rect x="268" y="18" width="51" height="47" fill="#F5EFEF" fill-opacity="0.47"/>
<path d="M279.057 46V37.2727H280.114V45.0625H284.17V46H279.057ZM288.33 46.1364C287.739 46.1364 287.22 45.9957 286.774 45.7145C286.331 45.4332 285.984 45.0398 285.734 44.5341C285.487 44.0284 285.364 43.4375 285.364 42.7614C285.364 42.0795 285.487 41.4844 285.734 40.9759C285.984 40.4673 286.331 40.0724 286.774 39.7912C287.22 39.5099 287.739 39.3693 288.33 39.3693C288.92 39.3693 289.438 39.5099 289.881 39.7912C290.327 40.0724 290.673 40.4673 290.92 40.9759C291.17 41.4844 291.295 42.0795 291.295 42.7614C291.295 43.4375 291.17 44.0284 290.92 44.5341C290.673 45.0398 290.327 45.4332 289.881 45.7145C289.438 45.9957 288.92 46.1364 288.33 46.1364ZM288.33 45.233C288.778 45.233 289.148 45.1179 289.438 44.8878C289.727 44.6577 289.942 44.3551 290.081 43.9801C290.22 43.6051 290.29 43.1989 290.29 42.7614C290.29 42.3239 290.22 41.9162 290.081 41.5384C289.942 41.1605 289.727 40.8551 289.438 40.6222C289.148 40.3892 288.778 40.2727 288.33 40.2727C287.881 40.2727 287.511 40.3892 287.222 40.6222C286.932 40.8551 286.717 41.1605 286.578 41.5384C286.439 41.9162 286.369 42.3239 286.369 42.7614C286.369 43.1989 286.439 43.6051 286.578 43.9801C286.717 44.3551 286.932 44.6577 287.222 44.8878C287.511 45.1179 287.881 45.233 288.33 45.233ZM295.473 48.5909C294.987 48.5909 294.569 48.5284 294.22 48.4034C293.87 48.2812 293.579 48.1193 293.346 47.9176C293.116 47.7188 292.933 47.5057 292.797 47.2784L293.598 46.7159C293.689 46.8352 293.804 46.9716 293.943 47.125C294.082 47.2812 294.272 47.4162 294.514 47.5298C294.758 47.6463 295.078 47.7045 295.473 47.7045C296.001 47.7045 296.437 47.5767 296.781 47.321C297.125 47.0653 297.297 46.6648 297.297 46.1193V44.7898H297.211C297.137 44.9091 297.032 45.0568 296.896 45.233C296.762 45.4062 296.569 45.5611 296.316 45.6974C296.066 45.831 295.728 45.8977 295.302 45.8977C294.774 45.8977 294.299 45.7727 293.879 45.5227C293.461 45.2727 293.13 44.9091 292.886 44.4318C292.645 43.9545 292.524 43.375 292.524 42.6932C292.524 42.0227 292.642 41.4389 292.877 40.9418C293.113 40.4418 293.441 40.0554 293.862 39.7827C294.282 39.5071 294.768 39.3693 295.319 39.3693C295.745 39.3693 296.083 39.4403 296.333 39.5824C296.586 39.7216 296.779 39.8807 296.913 40.0597C297.049 40.2358 297.154 40.3807 297.228 40.4943H297.331V39.4545H298.302V46.1875C298.302 46.75 298.174 47.2074 297.919 47.5597C297.666 47.9148 297.325 48.1747 296.896 48.3395C296.47 48.5071 295.995 48.5909 295.473 48.5909ZM295.439 44.9943C295.842 44.9943 296.183 44.902 296.461 44.7173C296.74 44.5327 296.951 44.267 297.096 43.9205C297.241 43.5739 297.314 43.1591 297.314 42.6761C297.314 42.2045 297.243 41.7884 297.1 41.4276C296.958 41.0668 296.748 40.7841 296.47 40.5795C296.191 40.375 295.848 40.2727 295.439 40.2727C295.012 40.2727 294.657 40.3807 294.373 40.5966C294.092 40.8125 293.88 41.1023 293.738 41.4659C293.599 41.8295 293.529 42.233 293.529 42.6761C293.529 43.1307 293.6 43.5327 293.743 43.8821C293.887 44.2287 294.1 44.5014 294.382 44.7003C294.666 44.8963 295.018 44.9943 295.439 44.9943ZM302.802 46.1364C302.211 46.1364 301.693 45.9957 301.247 45.7145C300.804 45.4332 300.457 45.0398 300.207 44.5341C299.96 44.0284 299.836 43.4375 299.836 42.7614C299.836 42.0795 299.96 41.4844 300.207 40.9759C300.457 40.4673 300.804 40.0724 301.247 39.7912C301.693 39.5099 302.211 39.3693 302.802 39.3693C303.393 39.3693 303.91 39.5099 304.353 39.7912C304.799 40.0724 305.146 40.4673 305.393 40.9759C305.643 41.4844 305.768 42.0795 305.768 42.7614C305.768 43.4375 305.643 44.0284 305.393 44.5341C305.146 45.0398 304.799 45.4332 304.353 45.7145C303.91 45.9957 303.393 46.1364 302.802 46.1364ZM302.802 45.233C303.251 45.233 303.62 45.1179 303.91 44.8878C304.2 44.6577 304.414 44.3551 304.554 43.9801C304.693 43.6051 304.762 43.1989 304.762 42.7614C304.762 42.3239 304.693 41.9162 304.554 41.5384C304.414 41.1605 304.2 40.8551 303.91 40.6222C303.62 40.3892 303.251 40.2727 302.802 40.2727C302.353 40.2727 301.984 40.3892 301.694 40.6222C301.404 40.8551 301.19 41.1605 301.051 41.5384C300.912 41.9162 300.842 42.3239 300.842 42.7614C300.842 43.1989 300.912 43.6051 301.051 43.9801C301.19 44.3551 301.404 44.6577 301.694 44.8878C301.984 45.1179 302.353 45.233 302.802 45.233Z" fill="white"/>
<path d="M177.057 102.273H178.318L181.284 109.517H181.386L184.352 102.273H185.614V111H184.625V104.369H184.54L181.812 111H180.858L178.131 104.369H178.045V111H177.057V102.273ZM190.341 111.136C189.71 111.136 189.166 110.997 188.708 110.719C188.254 110.438 187.903 110.045 187.656 109.543C187.412 109.037 187.289 108.449 187.289 107.778C187.289 107.108 187.412 106.517 187.656 106.006C187.903 105.491 188.247 105.091 188.687 104.804C189.13 104.514 189.647 104.369 190.238 104.369C190.579 104.369 190.916 104.426 191.248 104.54C191.581 104.653 191.883 104.838 192.156 105.094C192.429 105.347 192.646 105.682 192.808 106.099C192.97 106.517 193.051 107.031 193.051 107.642V108.068H188.005V107.199H192.028C192.028 106.83 191.954 106.5 191.806 106.21C191.662 105.92 191.454 105.692 191.184 105.524C190.917 105.357 190.602 105.273 190.238 105.273C189.838 105.273 189.491 105.372 189.199 105.571C188.909 105.767 188.686 106.023 188.529 106.338C188.373 106.653 188.295 106.991 188.295 107.352V107.932C188.295 108.426 188.38 108.845 188.551 109.189C188.724 109.53 188.964 109.79 189.271 109.969C189.578 110.145 189.934 110.233 190.341 110.233C190.605 110.233 190.843 110.196 191.056 110.122C191.272 110.045 191.458 109.932 191.615 109.781C191.771 109.628 191.892 109.437 191.977 109.21L192.949 109.483C192.846 109.812 192.674 110.102 192.433 110.352C192.191 110.599 191.893 110.793 191.538 110.932C191.183 111.068 190.784 111.136 190.341 111.136ZM195.586 107.062V111H194.581V104.455H195.552V105.477H195.637C195.791 105.145 196.024 104.878 196.336 104.676C196.649 104.472 197.052 104.369 197.547 104.369C197.99 104.369 198.377 104.46 198.71 104.642C199.042 104.821 199.301 105.094 199.485 105.46C199.67 105.824 199.762 106.284 199.762 106.841V111H198.757V106.909C198.757 106.395 198.623 105.994 198.356 105.707C198.089 105.418 197.723 105.273 197.257 105.273C196.936 105.273 196.649 105.342 196.396 105.482C196.146 105.621 195.949 105.824 195.804 106.091C195.659 106.358 195.586 106.682 195.586 107.062ZM205.725 108.324V104.455H206.731V111H205.725V109.892H205.657C205.504 110.224 205.265 110.507 204.941 110.74C204.617 110.97 204.208 111.085 203.714 111.085C203.305 111.085 202.941 110.996 202.623 110.817C202.305 110.635 202.055 110.362 201.873 109.999C201.691 109.632 201.6 109.17 201.6 108.614V104.455H202.606V108.545C202.606 109.023 202.739 109.403 203.006 109.688C203.276 109.972 203.62 110.114 204.038 110.114C204.288 110.114 204.542 110.05 204.8 109.922C205.062 109.794 205.281 109.598 205.457 109.334C205.636 109.07 205.725 108.733 205.725 108.324ZM214.999 102.273V111H213.942V103.381H213.891L211.76 104.795V103.722L213.942 102.273H214.999Z" fill="white"/>
<path d="M243.057 102.273H244.318L247.284 109.517H247.386L250.352 102.273H251.614V111H250.625V104.369H250.54L247.812 111H246.858L244.131 104.369H244.045V111H243.057V102.273ZM256.341 111.136C255.71 111.136 255.166 110.997 254.708 110.719C254.254 110.438 253.903 110.045 253.656 109.543C253.412 109.037 253.289 108.449 253.289 107.778C253.289 107.108 253.412 106.517 253.656 106.006C253.903 105.491 254.247 105.091 254.687 104.804C255.13 104.514 255.647 104.369 256.238 104.369C256.579 104.369 256.916 104.426 257.248 104.54C257.581 104.653 257.883 104.838 258.156 105.094C258.429 105.347 258.646 105.682 258.808 106.099C258.97 106.517 259.051 107.031 259.051 107.642V108.068H254.005V107.199H258.028C258.028 106.83 257.954 106.5 257.806 106.21C257.662 105.92 257.454 105.692 257.184 105.524C256.917 105.357 256.602 105.273 256.238 105.273C255.838 105.273 255.491 105.372 255.199 105.571C254.909 105.767 254.686 106.023 254.529 106.338C254.373 106.653 254.295 106.991 254.295 107.352V107.932C254.295 108.426 254.38 108.845 254.551 109.189C254.724 109.53 254.964 109.79 255.271 109.969C255.578 110.145 255.934 110.233 256.341 110.233C256.605 110.233 256.843 110.196 257.056 110.122C257.272 110.045 257.458 109.932 257.615 109.781C257.771 109.628 257.892 109.437 257.977 109.21L258.949 109.483C258.846 109.812 258.674 110.102 258.433 110.352C258.191 110.599 257.893 110.793 257.538 110.932C257.183 111.068 256.784 111.136 256.341 111.136ZM261.586 107.062V111H260.581V104.455H261.552V105.477H261.637C261.791 105.145 262.024 104.878 262.336 104.676C262.649 104.472 263.052 104.369 263.547 104.369C263.99 104.369 264.377 104.46 264.71 104.642C265.042 104.821 265.301 105.094 265.485 105.46C265.67 105.824 265.762 106.284 265.762 106.841V111H264.757V106.909C264.757 106.395 264.623 105.994 264.356 105.707C264.089 105.418 263.723 105.273 263.257 105.273C262.936 105.273 262.649 105.342 262.396 105.482C262.146 105.621 261.949 105.824 261.804 106.091C261.659 106.358 261.586 106.682 261.586 107.062ZM271.725 108.324V104.455H272.731V111H271.725V109.892H271.657C271.504 110.224 271.265 110.507 270.941 110.74C270.617 110.97 270.208 111.085 269.714 111.085C269.305 111.085 268.941 110.996 268.623 110.817C268.305 110.635 268.055 110.362 267.873 109.999C267.691 109.632 267.6 109.17 267.6 108.614V104.455H268.606V108.545C268.606 109.023 268.739 109.403 269.006 109.688C269.276 109.972 269.62 110.114 270.038 110.114C270.288 110.114 270.542 110.05 270.8 109.922C271.062 109.794 271.281 109.598 271.457 109.334C271.636 109.07 271.725 108.733 271.725 108.324ZM274.556 111V110.233L277.436 107.08C277.775 106.71 278.053 106.389 278.272 106.116C278.49 105.841 278.652 105.582 278.757 105.341C278.865 105.097 278.919 104.841 278.919 104.574C278.919 104.267 278.846 104.001 278.698 103.777C278.553 103.553 278.354 103.379 278.101 103.257C277.848 103.135 277.564 103.074 277.249 103.074C276.914 103.074 276.621 103.143 276.371 103.283C276.124 103.419 275.932 103.611 275.796 103.858C275.662 104.105 275.596 104.395 275.596 104.727H274.59C274.59 104.216 274.708 103.767 274.944 103.381C275.179 102.994 275.5 102.693 275.907 102.477C276.316 102.261 276.775 102.153 277.283 102.153C277.794 102.153 278.248 102.261 278.642 102.477C279.037 102.693 279.347 102.984 279.571 103.351C279.796 103.717 279.908 104.125 279.908 104.574C279.908 104.895 279.85 105.209 279.733 105.516C279.62 105.82 279.421 106.159 279.137 106.534C278.855 106.906 278.465 107.361 277.965 107.898L276.005 109.994V110.062H280.061V111H274.556Z" fill="white"/>
<path d="M309.057 102.273H310.318L313.284 109.517H313.386L316.352 102.273H317.614V111H316.625V104.369H316.54L313.812 111H312.858L310.131 104.369H310.045V111H309.057V102.273ZM322.341 111.136C321.71 111.136 321.166 110.997 320.708 110.719C320.254 110.438 319.903 110.045 319.656 109.543C319.412 109.037 319.289 108.449 319.289 107.778C319.289 107.108 319.412 106.517 319.656 106.006C319.903 105.491 320.247 105.091 320.687 104.804C321.13 104.514 321.647 104.369 322.238 104.369C322.579 104.369 322.916 104.426 323.248 104.54C323.581 104.653 323.883 104.838 324.156 105.094C324.429 105.347 324.646 105.682 324.808 106.099C324.97 106.517 325.051 107.031 325.051 107.642V108.068H320.005V107.199H324.028C324.028 106.83 323.954 106.5 323.806 106.21C323.662 105.92 323.454 105.692 323.184 105.524C322.917 105.357 322.602 105.273 322.238 105.273C321.838 105.273 321.491 105.372 321.199 105.571C320.909 105.767 320.686 106.023 320.529 106.338C320.373 106.653 320.295 106.991 320.295 107.352V107.932C320.295 108.426 320.38 108.845 320.551 109.189C320.724 109.53 320.964 109.79 321.271 109.969C321.578 110.145 321.934 110.233 322.341 110.233C322.605 110.233 322.843 110.196 323.056 110.122C323.272 110.045 323.458 109.932 323.615 109.781C323.771 109.628 323.892 109.437 323.977 109.21L324.949 109.483C324.846 109.812 324.674 110.102 324.433 110.352C324.191 110.599 323.893 110.793 323.538 110.932C323.183 111.068 322.784 111.136 322.341 111.136ZM327.586 107.062V111H326.581V104.455H327.552V105.477H327.637C327.791 105.145 328.024 104.878 328.336 104.676C328.649 104.472 329.052 104.369 329.547 104.369C329.99 104.369 330.377 104.46 330.71 104.642C331.042 104.821 331.301 105.094 331.485 105.46C331.67 105.824 331.762 106.284 331.762 106.841V111H330.757V106.909C330.757 106.395 330.623 105.994 330.356 105.707C330.089 105.418 329.723 105.273 329.257 105.273C328.936 105.273 328.649 105.342 328.396 105.482C328.146 105.621 327.949 105.824 327.804 106.091C327.659 106.358 327.586 106.682 327.586 107.062ZM337.725 108.324V104.455H338.731V111H337.725V109.892H337.657C337.504 110.224 337.265 110.507 336.941 110.74C336.617 110.97 336.208 111.085 335.714 111.085C335.305 111.085 334.941 110.996 334.623 110.817C334.305 110.635 334.055 110.362 333.873 109.999C333.691 109.632 333.6 109.17 333.6 108.614V104.455H334.606V108.545C334.606 109.023 334.739 109.403 335.006 109.688C335.276 109.972 335.62 110.114 336.038 110.114C336.288 110.114 336.542 110.05 336.8 109.922C337.062 109.794 337.281 109.598 337.457 109.334C337.636 109.07 337.725 108.733 337.725 108.324ZM343.505 111.119C342.942 111.119 342.441 111.023 342 110.83C341.563 110.636 341.215 110.368 340.956 110.024C340.701 109.678 340.561 109.276 340.539 108.818H341.613C341.635 109.099 341.732 109.342 341.902 109.547C342.073 109.749 342.296 109.905 342.571 110.016C342.847 110.126 343.152 110.182 343.488 110.182C343.863 110.182 344.195 110.116 344.485 109.986C344.775 109.855 345.002 109.673 345.167 109.44C345.331 109.207 345.414 108.938 345.414 108.631C345.414 108.31 345.334 108.027 345.175 107.783C345.016 107.536 344.783 107.342 344.476 107.203C344.169 107.064 343.794 106.994 343.351 106.994H342.652V106.057H343.351C343.698 106.057 344.002 105.994 344.263 105.869C344.527 105.744 344.733 105.568 344.881 105.341C345.032 105.114 345.107 104.847 345.107 104.54C345.107 104.244 345.042 103.987 344.911 103.768C344.78 103.55 344.596 103.379 344.357 103.257C344.121 103.135 343.843 103.074 343.522 103.074C343.221 103.074 342.936 103.129 342.669 103.24C342.405 103.348 342.189 103.506 342.022 103.713C341.854 103.918 341.763 104.165 341.749 104.455H340.726C340.743 103.997 340.881 103.597 341.14 103.253C341.398 102.906 341.736 102.636 342.154 102.443C342.574 102.25 343.036 102.153 343.539 102.153C344.078 102.153 344.542 102.263 344.928 102.482C345.314 102.697 345.611 102.983 345.819 103.338C346.026 103.693 346.13 104.077 346.13 104.489C346.13 104.98 346 105.399 345.742 105.746C345.486 106.092 345.138 106.332 344.698 106.466V106.534C345.249 106.625 345.679 106.859 345.989 107.237C346.299 107.612 346.453 108.077 346.453 108.631C346.453 109.105 346.324 109.531 346.066 109.909C345.81 110.284 345.461 110.58 345.017 110.795C344.574 111.011 344.07 111.119 343.505 111.119Z" fill="white"/>
<path d="M375.057 102.273H376.318L379.284 109.517H379.386L382.352 102.273H383.614V111H382.625V104.369H382.54L379.812 111H378.858L376.131 104.369H376.045V111H375.057V102.273ZM388.341 111.136C387.71 111.136 387.166 110.997 386.708 110.719C386.254 110.438 385.903 110.045 385.656 109.543C385.412 109.037 385.289 108.449 385.289 107.778C385.289 107.108 385.412 106.517 385.656 106.006C385.903 105.491 386.247 105.091 386.687 104.804C387.13 104.514 387.647 104.369 388.238 104.369C388.579 104.369 388.916 104.426 389.248 104.54C389.581 104.653 389.883 104.838 390.156 105.094C390.429 105.347 390.646 105.682 390.808 106.099C390.97 106.517 391.051 107.031 391.051 107.642V108.068H386.005V107.199H390.028C390.028 106.83 389.954 106.5 389.806 106.21C389.662 105.92 389.454 105.692 389.184 105.524C388.917 105.357 388.602 105.273 388.238 105.273C387.838 105.273 387.491 105.372 387.199 105.571C386.909 105.767 386.686 106.023 386.529 106.338C386.373 106.653 386.295 106.991 386.295 107.352V107.932C386.295 108.426 386.38 108.845 386.551 109.189C386.724 109.53 386.964 109.79 387.271 109.969C387.578 110.145 387.934 110.233 388.341 110.233C388.605 110.233 388.843 110.196 389.056 110.122C389.272 110.045 389.458 109.932 389.615 109.781C389.771 109.628 389.892 109.437 389.977 109.21L390.949 109.483C390.846 109.812 390.674 110.102 390.433 110.352C390.191 110.599 389.893 110.793 389.538 110.932C389.183 111.068 388.784 111.136 388.341 111.136ZM393.586 107.062V111H392.581V104.455H393.552V105.477H393.637C393.791 105.145 394.024 104.878 394.336 104.676C394.649 104.472 395.052 104.369 395.547 104.369C395.99 104.369 396.377 104.46 396.71 104.642C397.042 104.821 397.301 105.094 397.485 105.46C397.67 105.824 397.762 106.284 397.762 106.841V111H396.757V106.909C396.757 106.395 396.623 105.994 396.356 105.707C396.089 105.418 395.723 105.273 395.257 105.273C394.936 105.273 394.649 105.342 394.396 105.482C394.146 105.621 393.949 105.824 393.804 106.091C393.659 106.358 393.586 106.682 393.586 107.062ZM403.725 108.324V104.455H404.731V111H403.725V109.892H403.657C403.504 110.224 403.265 110.507 402.941 110.74C402.617 110.97 402.208 111.085 401.714 111.085C401.305 111.085 400.941 110.996 400.623 110.817C400.305 110.635 400.055 110.362 399.873 109.999C399.691 109.632 399.6 109.17 399.6 108.614V104.455H400.606V108.545C400.606 109.023 400.739 109.403 401.006 109.688C401.276 109.972 401.62 110.114 402.038 110.114C402.288 110.114 402.542 110.05 402.8 109.922C403.062 109.794 403.281 109.598 403.457 109.334C403.636 109.07 403.725 108.733 403.725 108.324ZM406.351 109.21V108.341L410.186 102.273H410.817V103.619H410.391L407.493 108.205V108.273H412.658V109.21H406.351ZM410.459 111V108.946V108.541V102.273H411.465V111H410.459Z" fill="white"/>
<rect x="426" y="25" width="139" height="32" rx="16" fill="white"/>
<path d="M438.114 37.2727V46H437.057V37.2727H438.114ZM441.102 42.0625V46H440.096V39.4545H441.068V40.4773H441.153C441.306 40.1449 441.539 39.8778 441.852 39.6761C442.164 39.4716 442.568 39.3693 443.062 39.3693C443.505 39.3693 443.893 39.4602 444.225 39.642C444.558 39.821 444.816 40.0938 445.001 40.4602C445.186 40.8239 445.278 41.2841 445.278 41.8409V46H444.272V41.9091C444.272 41.3949 444.139 40.9943 443.872 40.7074C443.605 40.4176 443.238 40.2727 442.772 40.2727C442.451 40.2727 442.164 40.3423 441.912 40.4815C441.662 40.6207 441.464 40.8239 441.319 41.0909C441.174 41.358 441.102 41.6818 441.102 42.0625ZM451.752 40.9205L450.849 41.1761C450.792 41.0256 450.708 40.8793 450.597 40.7372C450.489 40.5923 450.342 40.473 450.154 40.3793C449.967 40.2855 449.727 40.2386 449.434 40.2386C449.033 40.2386 448.7 40.331 448.433 40.5156C448.168 40.6974 448.036 40.929 448.036 41.2102C448.036 41.4602 448.127 41.6577 448.309 41.8026C448.491 41.9474 448.775 42.0682 449.161 42.1648L450.133 42.4034C450.718 42.5455 451.154 42.7628 451.441 43.0554C451.728 43.3452 451.871 43.7187 451.871 44.1761C451.871 44.5511 451.763 44.8864 451.548 45.1818C451.335 45.4773 451.036 45.7102 450.653 45.8807C450.269 46.0511 449.823 46.1364 449.315 46.1364C448.647 46.1364 448.094 45.9915 447.657 45.7017C447.219 45.4119 446.942 44.9886 446.826 44.4318L447.781 44.1932C447.871 44.5455 448.043 44.8097 448.296 44.9858C448.552 45.1619 448.886 45.25 449.298 45.25C449.766 45.25 450.138 45.1506 450.414 44.9517C450.692 44.75 450.832 44.5085 450.832 44.2273C450.832 44 450.752 43.8097 450.593 43.6562C450.434 43.5 450.19 43.3835 449.86 43.3068L448.769 43.0511C448.17 42.9091 447.729 42.6889 447.448 42.3906C447.17 42.0895 447.031 41.7131 447.031 41.2614C447.031 40.892 447.134 40.5653 447.342 40.2812C447.552 39.9972 447.837 39.7741 448.198 39.6122C448.562 39.4503 448.974 39.3693 449.434 39.3693C450.082 39.3693 450.59 39.5114 450.96 39.7955C451.332 40.0795 451.596 40.4545 451.752 40.9205ZM456.044 46.1364C455.431 46.1364 454.902 45.9915 454.459 45.7017C454.016 45.4119 453.675 45.0128 453.436 44.5043C453.198 43.9957 453.078 43.4148 453.078 42.7614C453.078 42.0966 453.201 41.5099 453.445 41.0014C453.692 40.4901 454.036 40.0909 454.476 39.804C454.919 39.5142 455.436 39.3693 456.027 39.3693C456.488 39.3693 456.902 39.4545 457.272 39.625C457.641 39.7955 457.944 40.0341 458.179 40.3409C458.415 40.6477 458.561 41.0057 458.618 41.4148H457.613C457.536 41.1165 457.365 40.8523 457.101 40.6222C456.84 40.3892 456.488 40.2727 456.044 40.2727C455.652 40.2727 455.309 40.375 455.013 40.5795C454.721 40.7812 454.492 41.0668 454.327 41.4361C454.165 41.8026 454.084 42.233 454.084 42.7273C454.084 43.233 454.164 43.6733 454.323 44.0483C454.485 44.4233 454.712 44.7145 455.005 44.9219C455.3 45.1293 455.647 45.233 456.044 45.233C456.306 45.233 456.543 45.1875 456.756 45.0966C456.969 45.0057 457.15 44.875 457.297 44.7045C457.445 44.5341 457.55 44.3295 457.613 44.0909H458.618C458.561 44.4773 458.421 44.8253 458.196 45.1349C457.975 45.4418 457.681 45.6861 457.314 45.8679C456.951 46.0469 456.527 46.1364 456.044 46.1364ZM460.088 46V39.4545H461.06V40.4432H461.128C461.248 40.1193 461.463 39.8565 461.776 39.6548C462.088 39.4531 462.441 39.3523 462.833 39.3523C462.907 39.3523 462.999 39.3537 463.11 39.3565C463.221 39.3594 463.304 39.3636 463.361 39.3693V40.392C463.327 40.3835 463.249 40.3707 463.127 40.3537C463.007 40.3338 462.881 40.3239 462.748 40.3239C462.429 40.3239 462.145 40.3906 461.895 40.5241C461.648 40.6548 461.452 40.8366 461.307 41.0696C461.165 41.2997 461.094 41.5625 461.094 41.858V46H460.088ZM464.553 46V39.4545H465.559V46H464.553ZM465.065 38.3636C464.869 38.3636 464.7 38.2969 464.558 38.1634C464.418 38.0298 464.349 37.8693 464.349 37.6818C464.349 37.4943 464.418 37.3338 464.558 37.2003C464.7 37.0668 464.869 37 465.065 37C465.261 37 465.428 37.0668 465.567 37.2003C465.71 37.3338 465.781 37.4943 465.781 37.6818C465.781 37.8693 465.71 38.0298 465.567 38.1634C465.428 38.2969 465.261 38.3636 465.065 38.3636ZM467.401 48.4545V39.4545H468.373V40.4943H468.492C468.566 40.3807 468.668 40.2358 468.799 40.0597C468.932 39.8807 469.123 39.7216 469.37 39.5824C469.62 39.4403 469.958 39.3693 470.384 39.3693C470.935 39.3693 471.421 39.5071 471.841 39.7827C472.262 40.0582 472.59 40.4489 472.826 40.9545C473.061 41.4602 473.179 42.0568 473.179 42.7443C473.179 43.4375 473.061 44.0384 472.826 44.5469C472.59 45.0526 472.263 45.4446 471.846 45.723C471.428 45.9986 470.946 46.1364 470.401 46.1364C469.98 46.1364 469.644 46.0668 469.391 45.9276C469.138 45.7855 468.944 45.625 468.807 45.446C468.671 45.2642 468.566 45.1136 468.492 44.9943H468.407V48.4545H467.401ZM468.39 42.7273C468.39 43.2216 468.462 43.6577 468.607 44.0355C468.752 44.4105 468.963 44.7045 469.242 44.9176C469.52 45.1278 469.861 45.233 470.265 45.233C470.685 45.233 471.036 45.1222 471.317 44.9006C471.601 44.6761 471.814 44.375 471.956 43.9972C472.101 43.6165 472.174 43.1932 472.174 42.7273C472.174 42.267 472.103 41.8523 471.961 41.483C471.821 41.1108 471.61 40.8168 471.326 40.6009C471.044 40.3821 470.691 40.2727 470.265 40.2727C469.855 40.2727 469.512 40.3764 469.233 40.5838C468.955 40.7884 468.745 41.0753 468.603 41.4446C468.461 41.8111 468.39 42.2386 468.39 42.7273ZM477.56 39.4545V40.3068H474.168V39.4545H477.56ZM475.157 37.8864H476.162V44.125C476.162 44.4091 476.203 44.6222 476.286 44.7642C476.371 44.9034 476.479 44.9972 476.61 45.0455C476.743 45.0909 476.884 45.1136 477.032 45.1136C477.142 45.1136 477.233 45.108 477.304 45.0966C477.375 45.0824 477.432 45.071 477.475 45.0625L477.679 45.9659C477.611 45.9915 477.516 46.017 477.394 46.0426C477.272 46.071 477.117 46.0852 476.929 46.0852C476.645 46.0852 476.367 46.0241 476.094 45.902C475.824 45.7798 475.6 45.5938 475.421 45.3438C475.245 45.0938 475.157 44.7784 475.157 44.3977V37.8864ZM479.073 46V39.4545H480.078V46H479.073ZM479.584 38.3636C479.388 38.3636 479.219 38.2969 479.077 38.1634C478.938 38.0298 478.868 37.8693 478.868 37.6818C478.868 37.4943 478.938 37.3338 479.077 37.2003C479.219 37.0668 479.388 37 479.584 37C479.78 37 479.948 37.0668 480.087 37.2003C480.229 37.3338 480.3 37.4943 480.3 37.6818C480.3 37.8693 480.229 38.0298 480.087 38.1634C479.948 38.2969 479.78 38.3636 479.584 38.3636ZM484.58 46.1364C483.989 46.1364 483.47 45.9957 483.024 45.7145C482.581 45.4332 482.234 45.0398 481.984 44.5341C481.737 44.0284 481.614 43.4375 481.614 42.7614C481.614 42.0795 481.737 41.4844 481.984 40.9759C482.234 40.4673 482.581 40.0724 483.024 39.7912C483.47 39.5099 483.989 39.3693 484.58 39.3693C485.17 39.3693 485.688 39.5099 486.131 39.7912C486.577 40.0724 486.923 40.4673 487.17 40.9759C487.42 41.4844 487.545 42.0795 487.545 42.7614C487.545 43.4375 487.42 44.0284 487.17 44.5341C486.923 45.0398 486.577 45.4332 486.131 45.7145C485.688 45.9957 485.17 46.1364 484.58 46.1364ZM484.58 45.233C485.028 45.233 485.398 45.1179 485.688 44.8878C485.977 44.6577 486.192 44.3551 486.331 43.9801C486.47 43.6051 486.54 43.1989 486.54 42.7614C486.54 42.3239 486.47 41.9162 486.331 41.5384C486.192 41.1605 485.977 40.8551 485.688 40.6222C485.398 40.3892 485.028 40.2727 484.58 40.2727C484.131 40.2727 483.761 40.3892 483.472 40.6222C483.182 40.8551 482.967 41.1605 482.828 41.5384C482.689 41.9162 482.619 42.3239 482.619 42.7614C482.619 43.1989 482.689 43.6051 482.828 43.9801C482.967 44.3551 483.182 44.6577 483.472 44.8878C483.761 45.1179 484.131 45.233 484.58 45.233ZM490.086 42.0625V46H489.081V39.4545H490.052V40.4773H490.137C490.291 40.1449 490.524 39.8778 490.836 39.6761C491.149 39.4716 491.552 39.3693 492.047 39.3693C492.49 39.3693 492.877 39.4602 493.21 39.642C493.542 39.821 493.801 40.0938 493.985 40.4602C494.17 40.8239 494.262 41.2841 494.262 41.8409V46H493.257V41.9091C493.257 41.3949 493.123 40.9943 492.856 40.7074C492.589 40.4176 492.223 40.2727 491.757 40.2727C491.436 40.2727 491.149 40.3423 490.896 40.4815C490.646 40.6207 490.449 40.8239 490.304 41.0909C490.159 41.358 490.086 41.6818 490.086 42.0625ZM499.185 36.8636L496.373 47.3125H495.452L498.265 36.8636H499.185ZM507.537 40H506.48C506.417 39.696 506.308 39.429 506.152 39.1989C505.998 38.9688 505.811 38.7756 505.589 38.6193C505.37 38.4602 505.127 38.3409 504.86 38.2614C504.593 38.1818 504.315 38.142 504.025 38.142C503.497 38.142 503.018 38.2756 502.589 38.5426C502.163 38.8097 501.824 39.2031 501.571 39.723C501.321 40.2429 501.196 40.8807 501.196 41.6364C501.196 42.392 501.321 43.0298 501.571 43.5497C501.824 44.0696 502.163 44.4631 502.589 44.7301C503.018 44.9972 503.497 45.1307 504.025 45.1307C504.315 45.1307 504.593 45.0909 504.86 45.0114C505.127 44.9318 505.37 44.8139 505.589 44.6577C505.811 44.4986 505.998 44.304 506.152 44.0739C506.308 43.8409 506.417 43.5739 506.48 43.2727H507.537C507.457 43.7187 507.312 44.1179 507.102 44.4702C506.892 44.8224 506.63 45.1222 506.318 45.3693C506.005 45.6136 505.654 45.7997 505.265 45.9276C504.879 46.0554 504.466 46.1193 504.025 46.1193C503.281 46.1193 502.619 45.9375 502.039 45.5739C501.46 45.2102 501.004 44.6932 500.672 44.0227C500.339 43.3523 500.173 42.5568 500.173 41.6364C500.173 40.7159 500.339 39.9205 500.672 39.25C501.004 38.5795 501.46 38.0625 502.039 37.6989C502.619 37.3352 503.281 37.1534 504.025 37.1534C504.466 37.1534 504.879 37.2173 505.265 37.3452C505.654 37.473 506.005 37.6605 506.318 37.9077C506.63 38.152 506.892 38.4503 507.102 38.8026C507.312 39.152 507.457 39.5511 507.537 40ZM511.767 46.1364C511.176 46.1364 510.658 45.9957 510.212 45.7145C509.768 45.4332 509.422 45.0398 509.172 44.5341C508.925 44.0284 508.801 43.4375 508.801 42.7614C508.801 42.0795 508.925 41.4844 509.172 40.9759C509.422 40.4673 509.768 40.0724 510.212 39.7912C510.658 39.5099 511.176 39.3693 511.767 39.3693C512.358 39.3693 512.875 39.5099 513.318 39.7912C513.764 40.0724 514.111 40.4673 514.358 40.9759C514.608 41.4844 514.733 42.0795 514.733 42.7614C514.733 43.4375 514.608 44.0284 514.358 44.5341C514.111 45.0398 513.764 45.4332 513.318 45.7145C512.875 45.9957 512.358 46.1364 511.767 46.1364ZM511.767 45.233C512.216 45.233 512.585 45.1179 512.875 44.8878C513.165 44.6577 513.379 44.3551 513.518 43.9801C513.658 43.6051 513.727 43.1989 513.727 42.7614C513.727 42.3239 513.658 41.9162 513.518 41.5384C513.379 41.1605 513.165 40.8551 512.875 40.6222C512.585 40.3892 512.216 40.2727 511.767 40.2727C511.318 40.2727 510.949 40.3892 510.659 40.6222C510.369 40.8551 510.155 41.1605 510.016 41.5384C509.876 41.9162 509.807 42.3239 509.807 42.7614C509.807 43.1989 509.876 43.6051 510.016 43.9801C510.155 44.3551 510.369 44.6577 510.659 44.8878C510.949 45.1179 511.318 45.233 511.767 45.233ZM517.274 42.0625V46H516.268V39.4545H517.24V40.4773H517.325C517.478 40.1449 517.711 39.8778 518.024 39.6761C518.336 39.4716 518.74 39.3693 519.234 39.3693C519.677 39.3693 520.065 39.4602 520.397 39.642C520.73 39.821 520.988 40.0938 521.173 40.4602C521.358 40.8239 521.45 41.2841 521.45 41.8409V46H520.444V41.9091C520.444 41.3949 520.311 40.9943 520.044 40.7074C519.777 40.4176 519.41 40.2727 518.944 40.2727C518.623 40.2727 518.336 40.3423 518.083 40.4815C517.833 40.6207 517.636 40.8239 517.491 41.0909C517.346 41.358 517.274 41.6818 517.274 42.0625ZM524.293 42.0625V46H523.288V39.4545H524.259V40.4773H524.344C524.498 40.1449 524.731 39.8778 525.043 39.6761C525.356 39.4716 525.759 39.3693 526.254 39.3693C526.697 39.3693 527.085 39.4602 527.417 39.642C527.749 39.821 528.008 40.0938 528.192 40.4602C528.377 40.8239 528.469 41.2841 528.469 41.8409V46H527.464V41.9091C527.464 41.3949 527.33 40.9943 527.063 40.7074C526.796 40.4176 526.43 40.2727 525.964 40.2727C525.643 40.2727 525.356 40.3423 525.103 40.4815C524.853 40.6207 524.656 40.8239 524.511 41.0909C524.366 41.358 524.293 41.6818 524.293 42.0625ZM533.051 46.1364C532.421 46.1364 531.877 45.9972 531.419 45.7188C530.965 45.4375 530.614 45.0455 530.367 44.5426C530.123 44.0369 530 43.4489 530 42.7784C530 42.108 530.123 41.517 530.367 41.0057C530.614 40.4915 530.958 40.0909 531.398 39.804C531.841 39.5142 532.358 39.3693 532.949 39.3693C533.29 39.3693 533.627 39.4261 533.959 39.5398C534.292 39.6534 534.594 39.8381 534.867 40.0938C535.14 40.3466 535.357 40.6818 535.519 41.0994C535.681 41.517 535.762 42.0312 535.762 42.642V43.0682H530.716V42.1989H534.739C534.739 41.8295 534.665 41.5 534.517 41.2102C534.373 40.9205 534.165 40.6918 533.895 40.5241C533.628 40.3565 533.313 40.2727 532.949 40.2727C532.549 40.2727 532.202 40.3722 531.909 40.571C531.62 40.767 531.397 41.0227 531.24 41.3381C531.084 41.6534 531.006 41.9915 531.006 42.3523V42.9318C531.006 43.4261 531.091 43.8452 531.262 44.1889C531.435 44.5298 531.675 44.7898 531.982 44.9688C532.289 45.1449 532.645 45.233 533.051 45.233C533.316 45.233 533.554 45.196 533.767 45.1222C533.983 45.0455 534.169 44.9318 534.326 44.7812C534.482 44.6278 534.603 44.4375 534.688 44.2102L535.659 44.483C535.557 44.8125 535.385 45.1023 535.144 45.3523C534.902 45.5994 534.604 45.7926 534.249 45.9318C533.894 46.0682 533.495 46.1364 533.051 46.1364ZM537.866 39.4545L539.434 42.1307L541.002 39.4545H542.161L540.048 42.7273L542.161 46H541.002L539.434 43.4602L537.866 46H536.707L538.786 42.7273L536.707 39.4545H537.866ZM543.596 46V39.4545H544.602V46H543.596ZM544.108 38.3636C543.912 38.3636 543.743 38.2969 543.6 38.1634C543.461 38.0298 543.392 37.8693 543.392 37.6818C543.392 37.4943 543.461 37.3338 543.6 37.2003C543.743 37.0668 543.912 37 544.108 37C544.304 37 544.471 37.0668 544.61 37.2003C544.752 37.3338 544.824 37.4943 544.824 37.6818C544.824 37.8693 544.752 38.0298 544.61 38.1634C544.471 38.2969 544.304 38.3636 544.108 38.3636ZM549.103 46.1364C548.512 46.1364 547.994 45.9957 547.548 45.7145C547.104 45.4332 546.758 45.0398 546.508 44.5341C546.261 44.0284 546.137 43.4375 546.137 42.7614C546.137 42.0795 546.261 41.4844 546.508 40.9759C546.758 40.4673 547.104 40.0724 547.548 39.7912C547.994 39.5099 548.512 39.3693 549.103 39.3693C549.694 39.3693 550.211 39.5099 550.654 39.7912C551.1 40.0724 551.447 40.4673 551.694 40.9759C551.944 41.4844 552.069 42.0795 552.069 42.7614C552.069 43.4375 551.944 44.0284 551.694 44.5341C551.447 45.0398 551.1 45.4332 550.654 45.7145C550.211 45.9957 549.694 46.1364 549.103 46.1364ZM549.103 45.233C549.552 45.233 549.921 45.1179 550.211 44.8878C550.501 44.6577 550.715 44.3551 550.854 43.9801C550.994 43.6051 551.063 43.1989 551.063 42.7614C551.063 42.3239 550.994 41.9162 550.854 41.5384C550.715 41.1605 550.501 40.8551 550.211 40.6222C549.921 40.3892 549.552 40.2727 549.103 40.2727C548.654 40.2727 548.285 40.3892 547.995 40.6222C547.705 40.8551 547.491 41.1605 547.352 41.5384C547.212 41.9162 547.143 42.3239 547.143 42.7614C547.143 43.1989 547.212 43.6051 547.352 43.9801C547.491 44.3551 547.705 44.6577 547.995 44.8878C548.285 45.1179 548.654 45.233 549.103 45.233ZM554.61 42.0625V46H553.604V39.4545H554.576V40.4773H554.661C554.814 40.1449 555.047 39.8778 555.36 39.6761C555.672 39.4716 556.076 39.3693 556.57 39.3693C557.013 39.3693 557.401 39.4602 557.733 39.642C558.066 39.821 558.324 40.0938 558.509 40.4602C558.694 40.8239 558.786 41.2841 558.786 41.8409V46H557.78V41.9091C557.78 41.3949 557.647 40.9943 557.38 40.7074C557.113 40.4176 556.746 40.2727 556.28 40.2727C555.959 40.2727 555.672 40.3423 555.419 40.4815C555.169 40.6207 554.972 40.8239 554.827 41.0909C554.682 41.358 554.61 41.6818 554.61 42.0625Z" fill="#1E1E1E"/>
<g clip-path="url(#clip0_12_313)">
<path d="M106 33.8008C108.672 33.8008 108.988 33.8125 110.039 33.8594C111.016 33.9023 111.543 34.0664 111.895 34.2031C112.359 34.3828 112.695 34.6016 113.043 34.9492C113.395 35.3008 113.609 35.6328 113.789 36.0977C113.926 36.4492 114.09 36.9805 114.133 37.9531C114.18 39.0078 114.191 39.3242 114.191 41.9922C114.191 44.6641 114.18 44.9805 114.133 46.0313C114.09 47.0078 113.926 47.5352 113.789 47.8867C113.609 48.3516 113.391 48.6875 113.043 49.0352C112.691 49.3867 112.359 49.6016 111.895 49.7813C111.543 49.918 111.012 50.082 110.039 50.125C108.984 50.1719 108.668 50.1836 106 50.1836C103.328 50.1836 103.012 50.1719 101.961 50.125C100.984 50.082 100.457 49.918 100.105 49.7813C99.6406 49.6016 99.3047 49.3828 98.957 49.0352C98.6055 48.6836 98.3906 48.3516 98.2109 47.8867C98.0742 47.5352 97.9102 47.0039 97.8672 46.0313C97.8203 44.9766 97.8086 44.6602 97.8086 41.9922C97.8086 39.3203 97.8203 39.0039 97.8672 37.9531C97.9102 36.9766 98.0742 36.4492 98.2109 36.0977C98.3906 35.6328 98.6094 35.2969 98.957 34.9492C99.3086 34.5977 99.6406 34.3828 100.105 34.2031C100.457 34.0664 100.988 33.9023 101.961 33.8594C103.012 33.8125 103.328 33.8008 106 33.8008ZM106 32C103.285 32 102.945 32.0117 101.879 32.0586C100.816 32.1055 100.086 32.2773 99.4531 32.5234C98.793 32.7812 98.2344 33.1211 97.6797 33.6797C97.1211 34.2344 96.7813 34.793 96.5234 35.4492C96.2773 36.0859 96.1055 36.8125 96.0586 37.875C96.0117 38.9453 96 39.2852 96 42C96 44.7148 96.0117 45.0547 96.0586 46.1211C96.1055 47.1836 96.2773 47.9141 96.5234 48.5469C96.7813 49.207 97.1211 49.7656 97.6797 50.3203C98.2344 50.875 98.793 51.2188 99.4492 51.4727C100.086 51.7188 100.813 51.8906 101.875 51.9375C102.941 51.9844 103.281 51.9961 105.996 51.9961C108.711 51.9961 109.051 51.9844 110.117 51.9375C111.18 51.8906 111.91 51.7188 112.543 51.4727C113.199 51.2188 113.758 50.875 114.313 50.3203C114.867 49.7656 115.211 49.207 115.465 48.5508C115.711 47.9141 115.883 47.1875 115.93 46.125C115.977 45.0586 115.988 44.7188 115.988 42.0039C115.988 39.2891 115.977 38.9492 115.93 37.8828C115.883 36.8203 115.711 36.0898 115.465 35.457C115.219 34.793 114.879 34.2344 114.32 33.6797C113.766 33.125 113.207 32.7813 112.551 32.5273C111.914 32.2812 111.188 32.1094 110.125 32.0625C109.055 32.0117 108.715 32 106 32Z" fill="white"/>
<path d="M106 36.8633C103.164 36.8633 100.863 39.1641 100.863 42C100.863 44.8359 103.164 47.1367 106 47.1367C108.836 47.1367 111.137 44.8359 111.137 42C111.137 39.1641 108.836 36.8633 106 36.8633ZM106 45.332C104.16 45.332 102.668 43.8398 102.668 42C102.668 40.1602 104.16 38.668 106 38.668C107.84 38.668 109.332 40.1602 109.332 42C109.332 43.8398 107.84 45.332 106 45.332Z" fill="white"/>
<path d="M112.539 36.6601C112.539 37.3242 112 37.8593 111.34 37.8593C110.676 37.8593 110.141 37.3203 110.141 36.6601C110.141 35.9961 110.68 35.4609 111.34 35.4609C112 35.4609 112.539 36 112.539 36.6601Z" fill="white"/>
</g>
<path d="M77.2918 50.125C84.8371 50.125 88.9652 43.8723 88.9652 38.4516C88.9652 38.2758 88.9613 38.0961 88.9535 37.9203C89.7566 37.3396 90.4496 36.6202 91 35.7961C90.2521 36.1289 89.458 36.3462 88.6449 36.4406C89.5011 35.9275 90.1421 35.1213 90.4492 34.1715C89.6438 34.6488 88.763 34.9855 87.8445 35.1672C87.2257 34.5097 86.4075 34.0743 85.5164 33.9284C84.6253 33.7825 83.711 33.9342 82.9148 34.3601C82.1186 34.786 81.4848 35.4623 81.1115 36.2845C80.7382 37.1066 80.6462 38.0289 80.8496 38.9086C79.2187 38.8268 77.6233 38.4031 76.1667 37.6651C74.71 36.9271 73.4247 35.8912 72.3941 34.6246C71.8703 35.5277 71.71 36.5964 71.9459 37.6134C72.1817 38.6305 72.7959 39.5196 73.6637 40.1C73.0122 40.0793 72.375 39.9039 71.8047 39.5883V39.6391C71.8041 40.5868 72.1317 41.5055 72.7319 42.239C73.3321 42.9725 74.1678 43.4755 75.0969 43.6625C74.4934 43.8276 73.86 43.8517 73.2457 43.7328C73.5079 44.5479 74.018 45.2608 74.7048 45.772C75.3916 46.2832 76.2209 46.5672 77.077 46.5844C75.6237 47.726 73.8285 48.3451 71.9805 48.3422C71.6527 48.3417 71.3253 48.3216 71 48.282C72.8774 49.4865 75.0613 50.1262 77.2918 50.125Z" fill="white"/>
<path d="M65 42C65 36.4771 60.5229 32 55 32C49.4771 32 45 36.4771 45 42C45 46.9912 48.6568 51.1283 53.4375 51.8785V44.8906H50.8984V42H53.4375V39.7969C53.4375 37.2906 54.9305 35.9063 57.2146 35.9063C58.3084 35.9063 59.4531 36.1016 59.4531 36.1016V38.5625H58.1922C56.95 38.5625 56.5625 39.3334 56.5625 40.125V42H59.3359L58.8926 44.8906H56.5625V51.8785C61.3432 51.1283 65 46.9912 65 42Z" fill="white"/>
<path d="M38.8008 37C38.8008 37 38.6055 35.6211 38.0039 35.0157C37.2422 34.2188 36.3906 34.2149 36 34.168C33.2031 33.9649 29.0039 33.9649 29.0039 33.9649H28.9961C28.9961 33.9649 24.7969 33.9649 22 34.168C21.6094 34.2149 20.7578 34.2188 19.9961 35.0157C19.3945 35.6211 19.2031 37 19.2031 37C19.2031 37 19 38.6211 19 40.2383V41.7539C19 43.3711 19.1992 44.9922 19.1992 44.9922C19.1992 44.9922 19.3945 46.3711 19.9922 46.9766C20.7539 47.7735 21.7539 47.7461 22.1992 47.8321C23.8008 47.9844 29 48.0313 29 48.0313C29 48.0313 33.2031 48.0235 36 47.8243C36.3906 47.7774 37.2422 47.7735 38.0039 46.9766C38.6055 46.3711 38.8008 44.9922 38.8008 44.9922C38.8008 44.9922 39 43.375 39 41.7539V40.2383C39 38.6211 38.8008 37 38.8008 37ZM26.9336 43.5938V37.9727L32.3359 40.793L26.9336 43.5938Z" fill="white"/>
<rect x="5" y="83" width="577" height="32" fill="black"/>
<path d="M178.057 96.2727H179.318L182.284 103.517H182.386L185.352 96.2727H186.614V105H185.625V98.3693H185.54L182.812 105H181.858L179.131 98.3693H179.045V105H178.057V96.2727ZM191.341 105.136C190.71 105.136 190.166 104.997 189.708 104.719C189.254 104.438 188.903 104.045 188.656 103.543C188.412 103.037 188.289 102.449 188.289 101.778C188.289 101.108 188.412 100.517 188.656 100.006C188.903 99.4915 189.247 99.0909 189.687 98.804C190.13 98.5142 190.647 98.3693 191.238 98.3693C191.579 98.3693 191.916 98.4261 192.248 98.5398C192.581 98.6534 192.883 98.8381 193.156 99.0938C193.429 99.3466 193.646 99.6818 193.808 100.099C193.97 100.517 194.051 101.031 194.051 101.642V102.068H189.005V101.199H193.028C193.028 100.83 192.954 100.5 192.806 100.21C192.662 99.9205 192.454 99.6918 192.184 99.5241C191.917 99.3565 191.602 99.2727 191.238 99.2727C190.838 99.2727 190.491 99.3722 190.199 99.571C189.909 99.767 189.686 100.023 189.529 100.338C189.373 100.653 189.295 100.991 189.295 101.352V101.932C189.295 102.426 189.38 102.845 189.551 103.189C189.724 103.53 189.964 103.79 190.271 103.969C190.578 104.145 190.934 104.233 191.341 104.233C191.605 104.233 191.843 104.196 192.056 104.122C192.272 104.045 192.458 103.932 192.615 103.781C192.771 103.628 192.892 103.437 192.977 103.21L193.949 103.483C193.846 103.812 193.674 104.102 193.433 104.352C193.191 104.599 192.893 104.793 192.538 104.932C192.183 105.068 191.784 105.136 191.341 105.136ZM196.586 101.062V105H195.581V98.4545H196.552V99.4773H196.637C196.791 99.1449 197.024 98.8778 197.336 98.6761C197.649 98.4716 198.052 98.3693 198.547 98.3693C198.99 98.3693 199.377 98.4602 199.71 98.642C200.042 98.821 200.301 99.0938 200.485 99.4602C200.67 99.8239 200.762 100.284 200.762 100.841V105H199.757V100.909C199.757 100.395 199.623 99.9943 199.356 99.7074C199.089 99.4176 198.723 99.2727 198.257 99.2727C197.936 99.2727 197.649 99.3423 197.396 99.4815C197.146 99.6207 196.949 99.8239 196.804 100.091C196.659 100.358 196.586 100.682 196.586 101.062ZM206.725 102.324V98.4545H207.731V105H206.725V103.892H206.657C206.504 104.224 206.265 104.507 205.941 104.74C205.617 104.97 205.208 105.085 204.714 105.085C204.305 105.085 203.941 104.996 203.623 104.817C203.305 104.635 203.055 104.362 202.873 103.999C202.691 103.632 202.6 103.17 202.6 102.614V98.4545H203.606V102.545C203.606 103.023 203.739 103.403 204.006 103.688C204.276 103.972 204.62 104.114 205.038 104.114C205.288 104.114 205.542 104.05 205.8 103.922C206.062 103.794 206.281 103.598 206.457 103.334C206.636 103.07 206.725 102.733 206.725 102.324ZM215.999 96.2727V105H214.942V97.3807H214.891L212.76 98.7955V97.7216L214.942 96.2727H215.999Z" fill="white"/>
<path d="M244.057 96.2727H245.318L248.284 103.517H248.386L251.352 96.2727H252.614V105H251.625V98.3693H251.54L248.812 105H247.858L245.131 98.3693H245.045V105H244.057V96.2727ZM257.341 105.136C256.71 105.136 256.166 104.997 255.708 104.719C255.254 104.438 254.903 104.045 254.656 103.543C254.412 103.037 254.289 102.449 254.289 101.778C254.289 101.108 254.412 100.517 254.656 100.006C254.903 99.4915 255.247 99.0909 255.687 98.804C256.13 98.5142 256.647 98.3693 257.238 98.3693C257.579 98.3693 257.916 98.4261 258.248 98.5398C258.581 98.6534 258.883 98.8381 259.156 99.0938C259.429 99.3466 259.646 99.6818 259.808 100.099C259.97 100.517 260.051 101.031 260.051 101.642V102.068H255.005V101.199H259.028C259.028 100.83 258.954 100.5 258.806 100.21C258.662 99.9205 258.454 99.6918 258.184 99.5241C257.917 99.3565 257.602 99.2727 257.238 99.2727C256.838 99.2727 256.491 99.3722 256.199 99.571C255.909 99.767 255.686 100.023 255.529 100.338C255.373 100.653 255.295 100.991 255.295 101.352V101.932C255.295 102.426 255.38 102.845 255.551 103.189C255.724 103.53 255.964 103.79 256.271 103.969C256.578 104.145 256.934 104.233 257.341 104.233C257.605 104.233 257.843 104.196 258.056 104.122C258.272 104.045 258.458 103.932 258.615 103.781C258.771 103.628 258.892 103.437 258.977 103.21L259.949 103.483C259.846 103.812 259.674 104.102 259.433 104.352C259.191 104.599 258.893 104.793 258.538 104.932C258.183 105.068 257.784 105.136 257.341 105.136ZM262.586 101.062V105H261.581V98.4545H262.552V99.4773H262.637C262.791 99.1449 263.024 98.8778 263.336 98.6761C263.649 98.4716 264.052 98.3693 264.547 98.3693C264.99 98.3693 265.377 98.4602 265.71 98.642C266.042 98.821 266.301 99.0938 266.485 99.4602C266.67 99.8239 266.762 100.284 266.762 100.841V105H265.757V100.909C265.757 100.395 265.623 99.9943 265.356 99.7074C265.089 99.4176 264.723 99.2727 264.257 99.2727C263.936 99.2727 263.649 99.3423 263.396 99.4815C263.146 99.6207 262.949 99.8239 262.804 100.091C262.659 100.358 262.586 100.682 262.586 101.062ZM272.725 102.324V98.4545H273.731V105H272.725V103.892H272.657C272.504 104.224 272.265 104.507 271.941 104.74C271.617 104.97 271.208 105.085 270.714 105.085C270.305 105.085 269.941 104.996 269.623 104.817C269.305 104.635 269.055 104.362 268.873 103.999C268.691 103.632 268.6 103.17 268.6 102.614V98.4545H269.606V102.545C269.606 103.023 269.739 103.403 270.006 103.688C270.276 103.972 270.62 104.114 271.038 104.114C271.288 104.114 271.542 104.05 271.8 103.922C272.062 103.794 272.281 103.598 272.457 103.334C272.636 103.07 272.725 102.733 272.725 102.324ZM275.556 105V104.233L278.436 101.08C278.775 100.71 279.053 100.389 279.272 100.116C279.49 99.8409 279.652 99.5824 279.757 99.3409C279.865 99.0966 279.919 98.8409 279.919 98.5739C279.919 98.267 279.846 98.0014 279.698 97.777C279.553 97.5526 279.354 97.3793 279.101 97.2571C278.848 97.1349 278.564 97.0739 278.249 97.0739C277.914 97.0739 277.621 97.1435 277.371 97.2827C277.124 97.419 276.932 97.6108 276.796 97.858C276.662 98.1051 276.596 98.3949 276.596 98.7273H275.59C275.59 98.2159 275.708 97.767 275.944 97.3807C276.179 96.9943 276.5 96.6932 276.907 96.4773C277.316 96.2614 277.775 96.1534 278.283 96.1534C278.794 96.1534 279.248 96.2614 279.642 96.4773C280.037 96.6932 280.347 96.9844 280.571 97.3509C280.796 97.7173 280.908 98.125 280.908 98.5739C280.908 98.8949 280.85 99.2088 280.733 99.5156C280.62 99.8196 280.421 100.159 280.137 100.534C279.855 100.906 279.465 101.361 278.965 101.898L277.005 103.994V104.062H281.061V105H275.556Z" fill="white"/>
<path d="M310.057 96.2727H311.318L314.284 103.517H314.386L317.352 96.2727H318.614V105H317.625V98.3693H317.54L314.812 105H313.858L311.131 98.3693H311.045V105H310.057V96.2727ZM323.341 105.136C322.71 105.136 322.166 104.997 321.708 104.719C321.254 104.438 320.903 104.045 320.656 103.543C320.412 103.037 320.289 102.449 320.289 101.778C320.289 101.108 320.412 100.517 320.656 100.006C320.903 99.4915 321.247 99.0909 321.687 98.804C322.13 98.5142 322.647 98.3693 323.238 98.3693C323.579 98.3693 323.916 98.4261 324.248 98.5398C324.581 98.6534 324.883 98.8381 325.156 99.0938C325.429 99.3466 325.646 99.6818 325.808 100.099C325.97 100.517 326.051 101.031 326.051 101.642V102.068H321.005V101.199H325.028C325.028 100.83 324.954 100.5 324.806 100.21C324.662 99.9205 324.454 99.6918 324.184 99.5241C323.917 99.3565 323.602 99.2727 323.238 99.2727C322.838 99.2727 322.491 99.3722 322.199 99.571C321.909 99.767 321.686 100.023 321.529 100.338C321.373 100.653 321.295 100.991 321.295 101.352V101.932C321.295 102.426 321.38 102.845 321.551 103.189C321.724 103.53 321.964 103.79 322.271 103.969C322.578 104.145 322.934 104.233 323.341 104.233C323.605 104.233 323.843 104.196 324.056 104.122C324.272 104.045 324.458 103.932 324.615 103.781C324.771 103.628 324.892 103.437 324.977 103.21L325.949 103.483C325.846 103.812 325.674 104.102 325.433 104.352C325.191 104.599 324.893 104.793 324.538 104.932C324.183 105.068 323.784 105.136 323.341 105.136ZM328.586 101.062V105H327.581V98.4545H328.552V99.4773H328.637C328.791 99.1449 329.024 98.8778 329.336 98.6761C329.649 98.4716 330.052 98.3693 330.547 98.3693C330.99 98.3693 331.377 98.4602 331.71 98.642C332.042 98.821 332.301 99.0938 332.485 99.4602C332.67 99.8239 332.762 100.284 332.762 100.841V105H331.757V100.909C331.757 100.395 331.623 99.9943 331.356 99.7074C331.089 99.4176 330.723 99.2727 330.257 99.2727C329.936 99.2727 329.649 99.3423 329.396 99.4815C329.146 99.6207 328.949 99.8239 328.804 100.091C328.659 100.358 328.586 100.682 328.586 101.062ZM338.725 102.324V98.4545H339.731V105H338.725V103.892H338.657C338.504 104.224 338.265 104.507 337.941 104.74C337.617 104.97 337.208 105.085 336.714 105.085C336.305 105.085 335.941 104.996 335.623 104.817C335.305 104.635 335.055 104.362 334.873 103.999C334.691 103.632 334.6 103.17 334.6 102.614V98.4545H335.606V102.545C335.606 103.023 335.739 103.403 336.006 103.688C336.276 103.972 336.62 104.114 337.038 104.114C337.288 104.114 337.542 104.05 337.8 103.922C338.062 103.794 338.281 103.598 338.457 103.334C338.636 103.07 338.725 102.733 338.725 102.324ZM344.505 105.119C343.942 105.119 343.441 105.023 343 104.83C342.563 104.636 342.215 104.368 341.956 104.024C341.701 103.678 341.561 103.276 341.539 102.818H342.613C342.635 103.099 342.732 103.342 342.902 103.547C343.073 103.749 343.296 103.905 343.571 104.016C343.847 104.126 344.152 104.182 344.488 104.182C344.863 104.182 345.195 104.116 345.485 103.986C345.775 103.855 346.002 103.673 346.167 103.44C346.331 103.207 346.414 102.938 346.414 102.631C346.414 102.31 346.334 102.027 346.175 101.783C346.016 101.536 345.783 101.342 345.476 101.203C345.169 101.064 344.794 100.994 344.351 100.994H343.652V100.057H344.351C344.698 100.057 345.002 99.9943 345.263 99.8693C345.527 99.7443 345.733 99.5682 345.881 99.3409C346.032 99.1136 346.107 98.8466 346.107 98.5398C346.107 98.2443 346.042 97.9872 345.911 97.7685C345.78 97.5497 345.596 97.3793 345.357 97.2571C345.121 97.1349 344.843 97.0739 344.522 97.0739C344.221 97.0739 343.936 97.1293 343.669 97.2401C343.405 97.348 343.189 97.5057 343.022 97.7131C342.854 97.9176 342.763 98.1648 342.749 98.4545H341.726C341.743 97.9972 341.881 97.5966 342.14 97.2528C342.398 96.9062 342.736 96.6364 343.154 96.4432C343.574 96.25 344.036 96.1534 344.539 96.1534C345.078 96.1534 345.542 96.2628 345.928 96.4815C346.314 96.6974 346.611 96.983 346.819 97.3381C347.026 97.6932 347.13 98.0767 347.13 98.4886C347.13 98.9801 347 99.3991 346.742 99.7457C346.486 100.092 346.138 100.332 345.698 100.466V100.534C346.249 100.625 346.679 100.859 346.989 101.237C347.299 101.612 347.453 102.077 347.453 102.631C347.453 103.105 347.324 103.531 347.066 103.909C346.81 104.284 346.461 104.58 346.017 104.795C345.574 105.011 345.07 105.119 344.505 105.119Z" fill="white"/>
<path d="M376.057 96.2727H377.318L380.284 103.517H380.386L383.352 96.2727H384.614V105H383.625V98.3693H383.54L380.812 105H379.858L377.131 98.3693H377.045V105H376.057V96.2727ZM389.341 105.136C388.71 105.136 388.166 104.997 387.708 104.719C387.254 104.438 386.903 104.045 386.656 103.543C386.412 103.037 386.289 102.449 386.289 101.778C386.289 101.108 386.412 100.517 386.656 100.006C386.903 99.4915 387.247 99.0909 387.687 98.804C388.13 98.5142 388.647 98.3693 389.238 98.3693C389.579 98.3693 389.916 98.4261 390.248 98.5398C390.581 98.6534 390.883 98.8381 391.156 99.0938C391.429 99.3466 391.646 99.6818 391.808 100.099C391.97 100.517 392.051 101.031 392.051 101.642V102.068H387.005V101.199H391.028C391.028 100.83 390.954 100.5 390.806 100.21C390.662 99.9205 390.454 99.6918 390.184 99.5241C389.917 99.3565 389.602 99.2727 389.238 99.2727C388.838 99.2727 388.491 99.3722 388.199 99.571C387.909 99.767 387.686 100.023 387.529 100.338C387.373 100.653 387.295 100.991 387.295 101.352V101.932C387.295 102.426 387.38 102.845 387.551 103.189C387.724 103.53 387.964 103.79 388.271 103.969C388.578 104.145 388.934 104.233 389.341 104.233C389.605 104.233 389.843 104.196 390.056 104.122C390.272 104.045 390.458 103.932 390.615 103.781C390.771 103.628 390.892 103.437 390.977 103.21L391.949 103.483C391.846 103.812 391.674 104.102 391.433 104.352C391.191 104.599 390.893 104.793 390.538 104.932C390.183 105.068 389.784 105.136 389.341 105.136ZM394.586 101.062V105H393.581V98.4545H394.552V99.4773H394.637C394.791 99.1449 395.024 98.8778 395.336 98.6761C395.649 98.4716 396.052 98.3693 396.547 98.3693C396.99 98.3693 397.377 98.4602 397.71 98.642C398.042 98.821 398.301 99.0938 398.485 99.4602C398.67 99.8239 398.762 100.284 398.762 100.841V105H397.757V100.909C397.757 100.395 397.623 99.9943 397.356 99.7074C397.089 99.4176 396.723 99.2727 396.257 99.2727C395.936 99.2727 395.649 99.3423 395.396 99.4815C395.146 99.6207 394.949 99.8239 394.804 100.091C394.659 100.358 394.586 100.682 394.586 101.062ZM404.725 102.324V98.4545H405.731V105H404.725V103.892H404.657C404.504 104.224 404.265 104.507 403.941 104.74C403.617 104.97 403.208 105.085 402.714 105.085C402.305 105.085 401.941 104.996 401.623 104.817C401.305 104.635 401.055 104.362 400.873 103.999C400.691 103.632 400.6 103.17 400.6 102.614V98.4545H401.606V102.545C401.606 103.023 401.739 103.403 402.006 103.688C402.276 103.972 402.62 104.114 403.038 104.114C403.288 104.114 403.542 104.05 403.8 103.922C404.062 103.794 404.281 103.598 404.457 103.334C404.636 103.07 404.725 102.733 404.725 102.324ZM407.351 103.21V102.341L411.186 96.2727H411.817V97.6193H411.391L408.493 102.205V102.273H413.658V103.21H407.351ZM411.459 105V102.946V102.541V96.2727H412.465V105H411.459Z" fill="white"/>
<defs>
<clipPath id="clip0_12_313">
<rect width="20" height="20" fill="white" transform="translate(96 32)"/>
</clipPath>
</defs>
</svg>
