<svg width="577" height="83" viewBox="0 0 577 83" fill="none" xmlns="http://www.w3.org/2000/svg">
<g clip-path="url(#clip0_17_42)">
<rect width="577" height="83" fill="white"/>
<rect width="577" height="83" fill="black"/>
<rect x="7" y="18" width="51" height="47" fill="#F5EFEF" fill-opacity="0.47"/>
<path d="M18.0568 46V37.2727H19.1136V45.0625H23.1705V46H18.0568ZM27.3295 46.1364C26.7386 46.1364 26.2202 45.9957 25.7741 45.7145C25.331 45.4332 24.9844 45.0398 24.7344 44.5341C24.4872 44.0284 24.3636 43.4375 24.3636 42.7614C24.3636 42.0795 24.4872 41.4844 24.7344 40.9759C24.9844 40.4673 25.331 40.0724 25.7741 39.7912C26.2202 39.5099 26.7386 39.3693 27.3295 39.3693C27.9205 39.3693 28.4375 39.5099 28.8807 39.7912C29.3267 40.0724 29.6733 40.4673 29.9205 40.9759C30.1705 41.4844 30.2955 42.0795 30.2955 42.7614C30.2955 43.4375 30.1705 44.0284 29.9205 44.5341C29.6733 45.0398 29.3267 45.4332 28.8807 45.7145C28.4375 45.9957 27.9205 46.1364 27.3295 46.1364ZM27.3295 45.233C27.7784 45.233 28.1477 45.1179 28.4375 44.8878C28.7273 44.6577 28.9418 44.3551 29.081 43.9801C29.2202 43.6051 29.2898 43.1989 29.2898 42.7614C29.2898 42.3239 29.2202 41.9162 29.081 41.5384C28.9418 41.1605 28.7273 40.8551 28.4375 40.6222C28.1477 40.3892 27.7784 40.2727 27.3295 40.2727C26.8807 40.2727 26.5114 40.3892 26.2216 40.6222C25.9318 40.8551 25.7173 41.1605 25.5781 41.5384C25.4389 41.9162 25.3693 42.3239 25.3693 42.7614C25.3693 43.1989 25.4389 43.6051 25.5781 43.9801C25.7173 44.3551 25.9318 44.6577 26.2216 44.8878C26.5114 45.1179 26.8807 45.233 27.3295 45.233ZM34.4727 48.5909C33.9869 48.5909 33.5692 48.5284 33.2198 48.4034C32.8704 48.2812 32.5792 48.1193 32.3462 47.9176C32.1161 47.7188 31.9329 47.5057 31.7965 47.2784L32.5977 46.7159C32.6886 46.8352 32.8036 46.9716 32.9428 47.125C33.082 47.2812 33.2724 47.4162 33.5138 47.5298C33.7582 47.6463 34.0778 47.7045 34.4727 47.7045C35.0011 47.7045 35.4371 47.5767 35.7809 47.321C36.1246 47.0653 36.2965 46.6648 36.2965 46.1193V44.7898H36.2113C36.1374 44.9091 36.0323 45.0568 35.896 45.233C35.7624 45.4062 35.5692 45.5611 35.3164 45.6974C35.0664 45.831 34.7283 45.8977 34.3022 45.8977C33.7738 45.8977 33.2994 45.7727 32.8789 45.5227C32.4613 45.2727 32.1303 44.9091 31.886 44.4318C31.6445 43.9545 31.5238 43.375 31.5238 42.6932C31.5238 42.0227 31.6417 41.4389 31.8775 40.9418C32.1133 40.4418 32.4414 40.0554 32.8619 39.7827C33.2823 39.5071 33.7681 39.3693 34.3192 39.3693C34.7454 39.3693 35.0835 39.4403 35.3335 39.5824C35.5863 39.7216 35.7795 39.8807 35.913 40.0597C36.0494 40.2358 36.1545 40.3807 36.2283 40.4943H36.3306V39.4545H37.3022V46.1875C37.3022 46.75 37.1744 47.2074 36.9187 47.5597C36.6658 47.9148 36.3249 48.1747 35.896 48.3395C35.4698 48.5071 34.9954 48.5909 34.4727 48.5909ZM34.4386 44.9943C34.842 44.9943 35.1829 44.902 35.4613 44.7173C35.7397 44.5327 35.9513 44.267 36.0962 43.9205C36.2411 43.5739 36.3136 43.1591 36.3136 42.6761C36.3136 42.2045 36.2425 41.7884 36.1005 41.4276C35.9585 41.0668 35.7482 40.7841 35.4698 40.5795C35.1914 40.375 34.8477 40.2727 34.4386 40.2727C34.0124 40.2727 33.6573 40.3807 33.3732 40.5966C33.092 40.8125 32.8803 41.1023 32.7383 41.4659C32.5991 41.8295 32.5295 42.233 32.5295 42.6761C32.5295 43.1307 32.6005 43.5327 32.7425 43.8821C32.8874 44.2287 33.1005 44.5014 33.3817 44.7003C33.6658 44.8963 34.0181 44.9943 34.4386 44.9943ZM41.8022 46.1364C41.2113 46.1364 40.6928 45.9957 40.2468 45.7145C39.8036 45.4332 39.457 45.0398 39.207 44.5341C38.9599 44.0284 38.8363 43.4375 38.8363 42.7614C38.8363 42.0795 38.9599 41.4844 39.207 40.9759C39.457 40.4673 39.8036 40.0724 40.2468 39.7912C40.6928 39.5099 41.2113 39.3693 41.8022 39.3693C42.3931 39.3693 42.9102 39.5099 43.3533 39.7912C43.7994 40.0724 44.146 40.4673 44.3931 40.9759C44.6431 41.4844 44.7681 42.0795 44.7681 42.7614C44.7681 43.4375 44.6431 44.0284 44.3931 44.5341C44.146 45.0398 43.7994 45.4332 43.3533 45.7145C42.9102 45.9957 42.3931 46.1364 41.8022 46.1364ZM41.8022 45.233C42.2511 45.233 42.6204 45.1179 42.9102 44.8878C43.1999 44.6577 43.4144 44.3551 43.5536 43.9801C43.6928 43.6051 43.7624 43.1989 43.7624 42.7614C43.7624 42.3239 43.6928 41.9162 43.5536 41.5384C43.4144 41.1605 43.1999 40.8551 42.9102 40.6222C42.6204 40.3892 42.2511 40.2727 41.8022 40.2727C41.3533 40.2727 40.984 40.3892 40.6942 40.6222C40.4045 40.8551 40.19 41.1605 40.0508 41.5384C39.9116 41.9162 39.842 42.3239 39.842 42.7614C39.842 43.1989 39.9116 43.6051 40.0508 43.9801C40.19 44.3551 40.4045 44.6577 40.6942 44.8878C40.984 45.1179 41.3533 45.233 41.8022 45.233Z" fill="white"/>
<path d="M166.057 38.2727H167.318L170.284 45.517H170.386L173.352 38.2727H174.614V47H173.625V40.3693H173.54L170.812 47H169.858L167.131 40.3693H167.045V47H166.057V38.2727ZM179.341 47.1364C178.71 47.1364 178.166 46.9972 177.708 46.7188C177.254 46.4375 176.903 46.0455 176.656 45.5426C176.412 45.0369 176.289 44.4489 176.289 43.7784C176.289 43.108 176.412 42.517 176.656 42.0057C176.903 41.4915 177.247 41.0909 177.687 40.804C178.13 40.5142 178.647 40.3693 179.238 40.3693C179.579 40.3693 179.916 40.4261 180.248 40.5398C180.581 40.6534 180.883 40.8381 181.156 41.0938C181.429 41.3466 181.646 41.6818 181.808 42.0994C181.97 42.517 182.051 43.0312 182.051 43.642V44.0682H177.005V43.1989H181.028C181.028 42.8295 180.954 42.5 180.806 42.2102C180.662 41.9205 180.454 41.6918 180.184 41.5241C179.917 41.3565 179.602 41.2727 179.238 41.2727C178.838 41.2727 178.491 41.3722 178.199 41.571C177.909 41.767 177.686 42.0227 177.529 42.3381C177.373 42.6534 177.295 42.9915 177.295 43.3523V43.9318C177.295 44.4261 177.38 44.8452 177.551 45.1889C177.724 45.5298 177.964 45.7898 178.271 45.9688C178.578 46.1449 178.934 46.233 179.341 46.233C179.605 46.233 179.843 46.196 180.056 46.1222C180.272 46.0455 180.458 45.9318 180.615 45.7812C180.771 45.6278 180.892 45.4375 180.977 45.2102L181.949 45.483C181.846 45.8125 181.674 46.1023 181.433 46.3523C181.191 46.5994 180.893 46.7926 180.538 46.9318C180.183 47.0682 179.784 47.1364 179.341 47.1364ZM184.586 43.0625V47H183.581V40.4545H184.552V41.4773H184.637C184.791 41.1449 185.024 40.8778 185.336 40.6761C185.649 40.4716 186.052 40.3693 186.547 40.3693C186.99 40.3693 187.377 40.4602 187.71 40.642C188.042 40.821 188.301 41.0938 188.485 41.4602C188.67 41.8239 188.762 42.2841 188.762 42.8409V47H187.757V42.9091C187.757 42.3949 187.623 41.9943 187.356 41.7074C187.089 41.4176 186.723 41.2727 186.257 41.2727C185.936 41.2727 185.649 41.3423 185.396 41.4815C185.146 41.6207 184.949 41.8239 184.804 42.0909C184.659 42.358 184.586 42.6818 184.586 43.0625ZM194.725 44.3239V40.4545H195.731V47H194.725V45.892H194.657C194.504 46.2244 194.265 46.5071 193.941 46.7401C193.617 46.9702 193.208 47.0852 192.714 47.0852C192.305 47.0852 191.941 46.9957 191.623 46.8168C191.305 46.6349 191.055 46.3622 190.873 45.9986C190.691 45.6321 190.6 45.1705 190.6 44.6136V40.4545H191.606V44.5455C191.606 45.0227 191.739 45.4034 192.006 45.6875C192.276 45.9716 192.62 46.1136 193.038 46.1136C193.288 46.1136 193.542 46.0497 193.8 45.9219C194.062 45.794 194.281 45.598 194.457 45.3338C194.636 45.0696 194.725 44.733 194.725 44.3239ZM203.999 38.2727V47H202.942V39.3807H202.891L200.76 40.7955V39.7216L202.942 38.2727H203.999Z" fill="white"/>
<path d="M232.057 38.2727H233.318L236.284 45.517H236.386L239.352 38.2727H240.614V47H239.625V40.3693H239.54L236.812 47H235.858L233.131 40.3693H233.045V47H232.057V38.2727ZM245.341 47.1364C244.71 47.1364 244.166 46.9972 243.708 46.7188C243.254 46.4375 242.903 46.0455 242.656 45.5426C242.412 45.0369 242.289 44.4489 242.289 43.7784C242.289 43.108 242.412 42.517 242.656 42.0057C242.903 41.4915 243.247 41.0909 243.687 40.804C244.13 40.5142 244.647 40.3693 245.238 40.3693C245.579 40.3693 245.916 40.4261 246.248 40.5398C246.581 40.6534 246.883 40.8381 247.156 41.0938C247.429 41.3466 247.646 41.6818 247.808 42.0994C247.97 42.517 248.051 43.0312 248.051 43.642V44.0682H243.005V43.1989H247.028C247.028 42.8295 246.954 42.5 246.806 42.2102C246.662 41.9205 246.454 41.6918 246.184 41.5241C245.917 41.3565 245.602 41.2727 245.238 41.2727C244.838 41.2727 244.491 41.3722 244.199 41.571C243.909 41.767 243.686 42.0227 243.529 42.3381C243.373 42.6534 243.295 42.9915 243.295 43.3523V43.9318C243.295 44.4261 243.38 44.8452 243.551 45.1889C243.724 45.5298 243.964 45.7898 244.271 45.9688C244.578 46.1449 244.934 46.233 245.341 46.233C245.605 46.233 245.843 46.196 246.056 46.1222C246.272 46.0455 246.458 45.9318 246.615 45.7812C246.771 45.6278 246.892 45.4375 246.977 45.2102L247.949 45.483C247.846 45.8125 247.674 46.1023 247.433 46.3523C247.191 46.5994 246.893 46.7926 246.538 46.9318C246.183 47.0682 245.784 47.1364 245.341 47.1364ZM250.586 43.0625V47H249.581V40.4545H250.552V41.4773H250.637C250.791 41.1449 251.024 40.8778 251.336 40.6761C251.649 40.4716 252.052 40.3693 252.547 40.3693C252.99 40.3693 253.377 40.4602 253.71 40.642C254.042 40.821 254.301 41.0938 254.485 41.4602C254.67 41.8239 254.762 42.2841 254.762 42.8409V47H253.757V42.9091C253.757 42.3949 253.623 41.9943 253.356 41.7074C253.089 41.4176 252.723 41.2727 252.257 41.2727C251.936 41.2727 251.649 41.3423 251.396 41.4815C251.146 41.6207 250.949 41.8239 250.804 42.0909C250.659 42.358 250.586 42.6818 250.586 43.0625ZM260.725 44.3239V40.4545H261.731V47H260.725V45.892H260.657C260.504 46.2244 260.265 46.5071 259.941 46.7401C259.617 46.9702 259.208 47.0852 258.714 47.0852C258.305 47.0852 257.941 46.9957 257.623 46.8168C257.305 46.6349 257.055 46.3622 256.873 45.9986C256.691 45.6321 256.6 45.1705 256.6 44.6136V40.4545H257.606V44.5455C257.606 45.0227 257.739 45.4034 258.006 45.6875C258.276 45.9716 258.62 46.1136 259.038 46.1136C259.288 46.1136 259.542 46.0497 259.8 45.9219C260.062 45.794 260.281 45.598 260.457 45.3338C260.636 45.0696 260.725 44.733 260.725 44.3239ZM263.556 47V46.233L266.436 43.0795C266.775 42.7102 267.053 42.3892 267.272 42.1165C267.49 41.8409 267.652 41.5824 267.757 41.3409C267.865 41.0966 267.919 40.8409 267.919 40.5739C267.919 40.267 267.846 40.0014 267.698 39.777C267.553 39.5526 267.354 39.3793 267.101 39.2571C266.848 39.1349 266.564 39.0739 266.249 39.0739C265.914 39.0739 265.621 39.1435 265.371 39.2827C265.124 39.419 264.932 39.6108 264.796 39.858C264.662 40.1051 264.596 40.3949 264.596 40.7273H263.59C263.59 40.2159 263.708 39.767 263.944 39.3807C264.179 38.9943 264.5 38.6932 264.907 38.4773C265.316 38.2614 265.775 38.1534 266.283 38.1534C266.794 38.1534 267.248 38.2614 267.642 38.4773C268.037 38.6932 268.347 38.9844 268.571 39.3509C268.796 39.7173 268.908 40.125 268.908 40.5739C268.908 40.8949 268.85 41.2088 268.733 41.5156C268.62 41.8196 268.421 42.1591 268.137 42.5341C267.855 42.9062 267.465 43.3608 266.965 43.8977L265.005 45.9943V46.0625H269.061V47H263.556Z" fill="white"/>
<path d="M298.057 38.2727H299.318L302.284 45.517H302.386L305.352 38.2727H306.614V47H305.625V40.3693H305.54L302.812 47H301.858L299.131 40.3693H299.045V47H298.057V38.2727ZM311.341 47.1364C310.71 47.1364 310.166 46.9972 309.708 46.7188C309.254 46.4375 308.903 46.0455 308.656 45.5426C308.412 45.0369 308.289 44.4489 308.289 43.7784C308.289 43.108 308.412 42.517 308.656 42.0057C308.903 41.4915 309.247 41.0909 309.687 40.804C310.13 40.5142 310.647 40.3693 311.238 40.3693C311.579 40.3693 311.916 40.4261 312.248 40.5398C312.581 40.6534 312.883 40.8381 313.156 41.0938C313.429 41.3466 313.646 41.6818 313.808 42.0994C313.97 42.517 314.051 43.0312 314.051 43.642V44.0682H309.005V43.1989H313.028C313.028 42.8295 312.954 42.5 312.806 42.2102C312.662 41.9205 312.454 41.6918 312.184 41.5241C311.917 41.3565 311.602 41.2727 311.238 41.2727C310.838 41.2727 310.491 41.3722 310.199 41.571C309.909 41.767 309.686 42.0227 309.529 42.3381C309.373 42.6534 309.295 42.9915 309.295 43.3523V43.9318C309.295 44.4261 309.38 44.8452 309.551 45.1889C309.724 45.5298 309.964 45.7898 310.271 45.9688C310.578 46.1449 310.934 46.233 311.341 46.233C311.605 46.233 311.843 46.196 312.056 46.1222C312.272 46.0455 312.458 45.9318 312.615 45.7812C312.771 45.6278 312.892 45.4375 312.977 45.2102L313.949 45.483C313.846 45.8125 313.674 46.1023 313.433 46.3523C313.191 46.5994 312.893 46.7926 312.538 46.9318C312.183 47.0682 311.784 47.1364 311.341 47.1364ZM316.586 43.0625V47H315.581V40.4545H316.552V41.4773H316.637C316.791 41.1449 317.024 40.8778 317.336 40.6761C317.649 40.4716 318.052 40.3693 318.547 40.3693C318.99 40.3693 319.377 40.4602 319.71 40.642C320.042 40.821 320.301 41.0938 320.485 41.4602C320.67 41.8239 320.762 42.2841 320.762 42.8409V47H319.757V42.9091C319.757 42.3949 319.623 41.9943 319.356 41.7074C319.089 41.4176 318.723 41.2727 318.257 41.2727C317.936 41.2727 317.649 41.3423 317.396 41.4815C317.146 41.6207 316.949 41.8239 316.804 42.0909C316.659 42.358 316.586 42.6818 316.586 43.0625ZM326.725 44.3239V40.4545H327.731V47H326.725V45.892H326.657C326.504 46.2244 326.265 46.5071 325.941 46.7401C325.617 46.9702 325.208 47.0852 324.714 47.0852C324.305 47.0852 323.941 46.9957 323.623 46.8168C323.305 46.6349 323.055 46.3622 322.873 45.9986C322.691 45.6321 322.6 45.1705 322.6 44.6136V40.4545H323.606V44.5455C323.606 45.0227 323.739 45.4034 324.006 45.6875C324.276 45.9716 324.62 46.1136 325.038 46.1136C325.288 46.1136 325.542 46.0497 325.8 45.9219C326.062 45.794 326.281 45.598 326.457 45.3338C326.636 45.0696 326.725 44.733 326.725 44.3239ZM332.505 47.1193C331.942 47.1193 331.441 47.0227 331 46.8295C330.563 46.6364 330.215 46.3679 329.956 46.0241C329.701 45.6776 329.561 45.2756 329.539 44.8182H330.613C330.635 45.0994 330.732 45.3423 330.902 45.5469C331.073 45.7486 331.296 45.9048 331.571 46.0156C331.847 46.1264 332.152 46.1818 332.488 46.1818C332.863 46.1818 333.195 46.1165 333.485 45.9858C333.775 45.8551 334.002 45.6733 334.167 45.4403C334.331 45.2074 334.414 44.9375 334.414 44.6307C334.414 44.3097 334.334 44.027 334.175 43.7827C334.016 43.5355 333.783 43.3423 333.476 43.2031C333.169 43.0639 332.794 42.9943 332.351 42.9943H331.652V42.0568H332.351C332.698 42.0568 333.002 41.9943 333.263 41.8693C333.527 41.7443 333.733 41.5682 333.881 41.3409C334.032 41.1136 334.107 40.8466 334.107 40.5398C334.107 40.2443 334.042 39.9872 333.911 39.7685C333.78 39.5497 333.596 39.3793 333.357 39.2571C333.121 39.1349 332.843 39.0739 332.522 39.0739C332.221 39.0739 331.936 39.1293 331.669 39.2401C331.405 39.348 331.189 39.5057 331.022 39.7131C330.854 39.9176 330.763 40.1648 330.749 40.4545H329.726C329.743 39.9972 329.881 39.5966 330.14 39.2528C330.398 38.9062 330.736 38.6364 331.154 38.4432C331.574 38.25 332.036 38.1534 332.539 38.1534C333.078 38.1534 333.542 38.2628 333.928 38.4815C334.314 38.6974 334.611 38.983 334.819 39.3381C335.026 39.6932 335.13 40.0767 335.13 40.4886C335.13 40.9801 335 41.3991 334.742 41.7457C334.486 42.0923 334.138 42.3324 333.698 42.4659V42.5341C334.249 42.625 334.679 42.8594 334.989 43.2372C335.299 43.6122 335.453 44.0767 335.453 44.6307C335.453 45.1051 335.324 45.5312 335.066 45.9091C334.81 46.2841 334.461 46.5795 334.017 46.7955C333.574 47.0114 333.07 47.1193 332.505 47.1193Z" fill="white"/>
<path d="M364.057 38.2727H365.318L368.284 45.517H368.386L371.352 38.2727H372.614V47H371.625V40.3693H371.54L368.812 47H367.858L365.131 40.3693H365.045V47H364.057V38.2727ZM377.341 47.1364C376.71 47.1364 376.166 46.9972 375.708 46.7188C375.254 46.4375 374.903 46.0455 374.656 45.5426C374.412 45.0369 374.289 44.4489 374.289 43.7784C374.289 43.108 374.412 42.517 374.656 42.0057C374.903 41.4915 375.247 41.0909 375.687 40.804C376.13 40.5142 376.647 40.3693 377.238 40.3693C377.579 40.3693 377.916 40.4261 378.248 40.5398C378.581 40.6534 378.883 40.8381 379.156 41.0938C379.429 41.3466 379.646 41.6818 379.808 42.0994C379.97 42.517 380.051 43.0312 380.051 43.642V44.0682H375.005V43.1989H379.028C379.028 42.8295 378.954 42.5 378.806 42.2102C378.662 41.9205 378.454 41.6918 378.184 41.5241C377.917 41.3565 377.602 41.2727 377.238 41.2727C376.838 41.2727 376.491 41.3722 376.199 41.571C375.909 41.767 375.686 42.0227 375.529 42.3381C375.373 42.6534 375.295 42.9915 375.295 43.3523V43.9318C375.295 44.4261 375.38 44.8452 375.551 45.1889C375.724 45.5298 375.964 45.7898 376.271 45.9688C376.578 46.1449 376.934 46.233 377.341 46.233C377.605 46.233 377.843 46.196 378.056 46.1222C378.272 46.0455 378.458 45.9318 378.615 45.7812C378.771 45.6278 378.892 45.4375 378.977 45.2102L379.949 45.483C379.846 45.8125 379.674 46.1023 379.433 46.3523C379.191 46.5994 378.893 46.7926 378.538 46.9318C378.183 47.0682 377.784 47.1364 377.341 47.1364ZM382.586 43.0625V47H381.581V40.4545H382.552V41.4773H382.637C382.791 41.1449 383.024 40.8778 383.336 40.6761C383.649 40.4716 384.052 40.3693 384.547 40.3693C384.99 40.3693 385.377 40.4602 385.71 40.642C386.042 40.821 386.301 41.0938 386.485 41.4602C386.67 41.8239 386.762 42.2841 386.762 42.8409V47H385.757V42.9091C385.757 42.3949 385.623 41.9943 385.356 41.7074C385.089 41.4176 384.723 41.2727 384.257 41.2727C383.936 41.2727 383.649 41.3423 383.396 41.4815C383.146 41.6207 382.949 41.8239 382.804 42.0909C382.659 42.358 382.586 42.6818 382.586 43.0625ZM392.725 44.3239V40.4545H393.731V47H392.725V45.892H392.657C392.504 46.2244 392.265 46.5071 391.941 46.7401C391.617 46.9702 391.208 47.0852 390.714 47.0852C390.305 47.0852 389.941 46.9957 389.623 46.8168C389.305 46.6349 389.055 46.3622 388.873 45.9986C388.691 45.6321 388.6 45.1705 388.6 44.6136V40.4545H389.606V44.5455C389.606 45.0227 389.739 45.4034 390.006 45.6875C390.276 45.9716 390.62 46.1136 391.038 46.1136C391.288 46.1136 391.542 46.0497 391.8 45.9219C392.062 45.794 392.281 45.598 392.457 45.3338C392.636 45.0696 392.725 44.733 392.725 44.3239ZM395.351 45.2102V44.3409L399.186 38.2727H399.817V39.6193H399.391L396.493 44.2045V44.2727H401.658V45.2102H395.351ZM399.459 47V44.946V44.5412V38.2727H400.465V47H399.459Z" fill="white"/>
<g clip-path="url(#clip1_17_42)">
<path d="M556 33.8008C558.672 33.8008 558.988 33.8125 560.039 33.8594C561.016 33.9023 561.543 34.0664 561.895 34.2031C562.359 34.3828 562.695 34.6016 563.043 34.9492C563.395 35.3008 563.609 35.6328 563.789 36.0977C563.926 36.4492 564.09 36.9805 564.133 37.9531C564.18 39.0078 564.191 39.3242 564.191 41.9922C564.191 44.6641 564.18 44.9805 564.133 46.0313C564.09 47.0078 563.926 47.5352 563.789 47.8867C563.609 48.3516 563.391 48.6875 563.043 49.0352C562.691 49.3867 562.359 49.6016 561.895 49.7813C561.543 49.918 561.012 50.082 560.039 50.125C558.984 50.1719 558.668 50.1836 556 50.1836C553.328 50.1836 553.012 50.1719 551.961 50.125C550.984 50.082 550.457 49.918 550.105 49.7813C549.641 49.6016 549.305 49.3828 548.957 49.0352C548.605 48.6836 548.391 48.3516 548.211 47.8867C548.074 47.5352 547.91 47.0039 547.867 46.0313C547.82 44.9766 547.809 44.6602 547.809 41.9922C547.809 39.3203 547.82 39.0039 547.867 37.9531C547.91 36.9766 548.074 36.4492 548.211 36.0977C548.391 35.6328 548.609 35.2969 548.957 34.9492C549.309 34.5977 549.641 34.3828 550.105 34.2031C550.457 34.0664 550.988 33.9023 551.961 33.8594C553.012 33.8125 553.328 33.8008 556 33.8008ZM556 32C553.285 32 552.945 32.0117 551.879 32.0586C550.816 32.1055 550.086 32.2773 549.453 32.5234C548.793 32.7812 548.234 33.1211 547.68 33.6797C547.121 34.2344 546.781 34.793 546.523 35.4492C546.277 36.0859 546.105 36.8125 546.059 37.875C546.012 38.9453 546 39.2852 546 42C546 44.7148 546.012 45.0547 546.059 46.1211C546.105 47.1836 546.277 47.9141 546.523 48.5469C546.781 49.207 547.121 49.7656 547.68 50.3203C548.234 50.875 548.793 51.2188 549.449 51.4727C550.086 51.7188 550.813 51.8906 551.875 51.9375C552.941 51.9844 553.281 51.9961 555.996 51.9961C558.711 51.9961 559.051 51.9844 560.117 51.9375C561.18 51.8906 561.91 51.7188 562.543 51.4727C563.199 51.2188 563.758 50.875 564.313 50.3203C564.867 49.7656 565.211 49.207 565.465 48.5508C565.711 47.9141 565.883 47.1875 565.93 46.125C565.977 45.0586 565.988 44.7188 565.988 42.0039C565.988 39.2891 565.977 38.9492 565.93 37.8828C565.883 36.8203 565.711 36.0898 565.465 35.457C565.219 34.793 564.879 34.2344 564.32 33.6797C563.766 33.125 563.207 32.7813 562.551 32.5273C561.914 32.2812 561.188 32.1094 560.125 32.0625C559.055 32.0117 558.715 32 556 32Z" fill="white"/>
<path d="M556 36.8633C553.164 36.8633 550.863 39.1641 550.863 42C550.863 44.8359 553.164 47.1367 556 47.1367C558.836 47.1367 561.137 44.8359 561.137 42C561.137 39.1641 558.836 36.8633 556 36.8633ZM556 45.332C554.16 45.332 552.668 43.8398 552.668 42C552.668 40.1602 554.16 38.668 556 38.668C557.84 38.668 559.332 40.1602 559.332 42C559.332 43.8398 557.84 45.332 556 45.332Z" fill="white"/>
<path d="M562.539 36.6601C562.539 37.3242 562 37.8593 561.34 37.8593C560.676 37.8593 560.141 37.3203 560.141 36.6601C560.141 35.9961 560.68 35.4609 561.34 35.4609C562 35.4609 562.539 36 562.539 36.6601Z" fill="white"/>
</g>
<path d="M527.292 50.125C534.837 50.125 538.965 43.8723 538.965 38.4516C538.965 38.2758 538.961 38.0961 538.954 37.9203C539.757 37.3396 540.45 36.6202 541 35.7961C540.252 36.1289 539.458 36.3462 538.645 36.4406C539.501 35.9275 540.142 35.1213 540.449 34.1715C539.644 34.6488 538.763 34.9855 537.845 35.1672C537.226 34.5097 536.407 34.0743 535.516 33.9284C534.625 33.7825 533.711 33.9342 532.915 34.3601C532.119 34.786 531.485 35.4623 531.112 36.2845C530.738 37.1066 530.646 38.0289 530.85 38.9086C529.219 38.8268 527.623 38.4031 526.167 37.6651C524.71 36.9271 523.425 35.8912 522.394 34.6246C521.87 35.5277 521.71 36.5964 521.946 37.6134C522.182 38.6305 522.796 39.5196 523.664 40.1C523.012 40.0793 522.375 39.9039 521.805 39.5883V39.6391C521.804 40.5868 522.132 41.5055 522.732 42.239C523.332 42.9725 524.168 43.4755 525.097 43.6625C524.493 43.8276 523.86 43.8517 523.246 43.7328C523.508 44.5479 524.018 45.2608 524.705 45.772C525.392 46.2832 526.221 46.5672 527.077 46.5844C525.624 47.726 523.828 48.3451 521.98 48.3422C521.653 48.3417 521.325 48.3216 521 48.282C522.877 49.4865 525.061 50.1262 527.292 50.125Z" fill="white"/>
<path d="M515 42C515 36.4771 510.523 32 505 32C499.477 32 495 36.4771 495 42C495 46.9912 498.657 51.1283 503.437 51.8785V44.8906H500.898V42H503.437V39.7969C503.437 37.2906 504.93 35.9063 507.215 35.9063C508.308 35.9063 509.453 36.1016 509.453 36.1016V38.5625H508.192C506.95 38.5625 506.562 39.3334 506.562 40.125V42H509.336L508.893 44.8906H506.562V51.8785C511.343 51.1283 515 46.9912 515 42Z" fill="white"/>
<path d="M488.801 37C488.801 37 488.605 35.6211 488.004 35.0157C487.242 34.2188 486.391 34.2149 486 34.168C483.203 33.9649 479.004 33.9649 479.004 33.9649H478.996C478.996 33.9649 474.797 33.9649 472 34.168C471.609 34.2149 470.758 34.2188 469.996 35.0157C469.395 35.6211 469.203 37 469.203 37C469.203 37 469 38.6211 469 40.2383V41.7539C469 43.3711 469.199 44.9922 469.199 44.9922C469.199 44.9922 469.395 46.3711 469.992 46.9766C470.754 47.7735 471.754 47.7461 472.199 47.8321C473.801 47.9844 479 48.0313 479 48.0313C479 48.0313 483.203 48.0235 486 47.8243C486.391 47.7774 487.242 47.7735 488.004 46.9766C488.605 46.3711 488.801 44.9922 488.801 44.9922C488.801 44.9922 489 43.375 489 41.7539V40.2383C489 38.6211 488.801 37 488.801 37ZM476.934 43.5938V37.9727L482.336 40.793L476.934 43.5938Z" fill="white"/>
</g>
<defs>
<clipPath id="clip0_17_42">
<rect width="577" height="83" fill="white"/>
</clipPath>
<clipPath id="clip1_17_42">
<rect width="20" height="20" fill="white" transform="translate(546 32)"/>
</clipPath>
</defs>
</svg>
