<svg width="577" height="83" viewBox="0 0 577 83" fill="none" xmlns="http://www.w3.org/2000/svg">
<g clip-path="url(#clip0_17_41)">
<rect width="577" height="83" fill="white"/>
<rect width="577" height="83" fill="#D9D9D9"/>
<rect x="505" y="18" width="51" height="47" fill="black"/>
<path d="M516.057 46V37.2727H517.114V45.0625H521.17V46H516.057ZM525.33 46.1364C524.739 46.1364 524.22 45.9957 523.774 45.7145C523.331 45.4332 522.984 45.0398 522.734 44.5341C522.487 44.0284 522.364 43.4375 522.364 42.7614C522.364 42.0795 522.487 41.4844 522.734 40.9759C522.984 40.4673 523.331 40.0724 523.774 39.7912C524.22 39.5099 524.739 39.3693 525.33 39.3693C525.92 39.3693 526.438 39.5099 526.881 39.7912C527.327 40.0724 527.673 40.4673 527.92 40.9759C528.17 41.4844 528.295 42.0795 528.295 42.7614C528.295 43.4375 528.17 44.0284 527.92 44.5341C527.673 45.0398 527.327 45.4332 526.881 45.7145C526.438 45.9957 525.92 46.1364 525.33 46.1364ZM525.33 45.233C525.778 45.233 526.148 45.1179 526.438 44.8878C526.727 44.6577 526.942 44.3551 527.081 43.9801C527.22 43.6051 527.29 43.1989 527.29 42.7614C527.29 42.3239 527.22 41.9162 527.081 41.5384C526.942 41.1605 526.727 40.8551 526.438 40.6222C526.148 40.3892 525.778 40.2727 525.33 40.2727C524.881 40.2727 524.511 40.3892 524.222 40.6222C523.932 40.8551 523.717 41.1605 523.578 41.5384C523.439 41.9162 523.369 42.3239 523.369 42.7614C523.369 43.1989 523.439 43.6051 523.578 43.9801C523.717 44.3551 523.932 44.6577 524.222 44.8878C524.511 45.1179 524.881 45.233 525.33 45.233ZM532.473 48.5909C531.987 48.5909 531.569 48.5284 531.22 48.4034C530.87 48.2812 530.579 48.1193 530.346 47.9176C530.116 47.7188 529.933 47.5057 529.797 47.2784L530.598 46.7159C530.689 46.8352 530.804 46.9716 530.943 47.125C531.082 47.2812 531.272 47.4162 531.514 47.5298C531.758 47.6463 532.078 47.7045 532.473 47.7045C533.001 47.7045 533.437 47.5767 533.781 47.321C534.125 47.0653 534.297 46.6648 534.297 46.1193V44.7898H534.211C534.137 44.9091 534.032 45.0568 533.896 45.233C533.762 45.4062 533.569 45.5611 533.316 45.6974C533.066 45.831 532.728 45.8977 532.302 45.8977C531.774 45.8977 531.299 45.7727 530.879 45.5227C530.461 45.2727 530.13 44.9091 529.886 44.4318C529.645 43.9545 529.524 43.375 529.524 42.6932C529.524 42.0227 529.642 41.4389 529.877 40.9418C530.113 40.4418 530.441 40.0554 530.862 39.7827C531.282 39.5071 531.768 39.3693 532.319 39.3693C532.745 39.3693 533.083 39.4403 533.333 39.5824C533.586 39.7216 533.779 39.8807 533.913 40.0597C534.049 40.2358 534.154 40.3807 534.228 40.4943H534.331V39.4545H535.302V46.1875C535.302 46.75 535.174 47.2074 534.919 47.5597C534.666 47.9148 534.325 48.1747 533.896 48.3395C533.47 48.5071 532.995 48.5909 532.473 48.5909ZM532.439 44.9943C532.842 44.9943 533.183 44.902 533.461 44.7173C533.74 44.5327 533.951 44.267 534.096 43.9205C534.241 43.5739 534.314 43.1591 534.314 42.6761C534.314 42.2045 534.243 41.7884 534.1 41.4276C533.958 41.0668 533.748 40.7841 533.47 40.5795C533.191 40.375 532.848 40.2727 532.439 40.2727C532.012 40.2727 531.657 40.3807 531.373 40.5966C531.092 40.8125 530.88 41.1023 530.738 41.4659C530.599 41.8295 530.529 42.233 530.529 42.6761C530.529 43.1307 530.6 43.5327 530.743 43.8821C530.887 44.2287 531.1 44.5014 531.382 44.7003C531.666 44.8963 532.018 44.9943 532.439 44.9943ZM539.802 46.1364C539.211 46.1364 538.693 45.9957 538.247 45.7145C537.804 45.4332 537.457 45.0398 537.207 44.5341C536.96 44.0284 536.836 43.4375 536.836 42.7614C536.836 42.0795 536.96 41.4844 537.207 40.9759C537.457 40.4673 537.804 40.0724 538.247 39.7912C538.693 39.5099 539.211 39.3693 539.802 39.3693C540.393 39.3693 540.91 39.5099 541.353 39.7912C541.799 40.0724 542.146 40.4673 542.393 40.9759C542.643 41.4844 542.768 42.0795 542.768 42.7614C542.768 43.4375 542.643 44.0284 542.393 44.5341C542.146 45.0398 541.799 45.4332 541.353 45.7145C540.91 45.9957 540.393 46.1364 539.802 46.1364ZM539.802 45.233C540.251 45.233 540.62 45.1179 540.91 44.8878C541.2 44.6577 541.414 44.3551 541.554 43.9801C541.693 43.6051 541.762 43.1989 541.762 42.7614C541.762 42.3239 541.693 41.9162 541.554 41.5384C541.414 41.1605 541.2 40.8551 540.91 40.6222C540.62 40.3892 540.251 40.2727 539.802 40.2727C539.353 40.2727 538.984 40.3892 538.694 40.6222C538.404 40.8551 538.19 41.1605 538.051 41.5384C537.912 41.9162 537.842 42.3239 537.842 42.7614C537.842 43.1989 537.912 43.6051 538.051 43.9801C538.19 44.3551 538.404 44.6577 538.694 44.8878C538.984 45.1179 539.353 45.233 539.802 45.233Z" fill="white"/>
<path d="M192.057 38.2727H193.318L196.284 45.517H196.386L199.352 38.2727H200.614V47H199.625V40.3693H199.54L196.812 47H195.858L193.131 40.3693H193.045V47H192.057V38.2727ZM205.341 47.1364C204.71 47.1364 204.166 46.9972 203.708 46.7188C203.254 46.4375 202.903 46.0455 202.656 45.5426C202.412 45.0369 202.289 44.4489 202.289 43.7784C202.289 43.108 202.412 42.517 202.656 42.0057C202.903 41.4915 203.247 41.0909 203.687 40.804C204.13 40.5142 204.647 40.3693 205.238 40.3693C205.579 40.3693 205.916 40.4261 206.248 40.5398C206.581 40.6534 206.883 40.8381 207.156 41.0938C207.429 41.3466 207.646 41.6818 207.808 42.0994C207.97 42.517 208.051 43.0312 208.051 43.642V44.0682H203.005V43.1989H207.028C207.028 42.8295 206.954 42.5 206.806 42.2102C206.662 41.9205 206.454 41.6918 206.184 41.5241C205.917 41.3565 205.602 41.2727 205.238 41.2727C204.838 41.2727 204.491 41.3722 204.199 41.571C203.909 41.767 203.686 42.0227 203.529 42.3381C203.373 42.6534 203.295 42.9915 203.295 43.3523V43.9318C203.295 44.4261 203.38 44.8452 203.551 45.1889C203.724 45.5298 203.964 45.7898 204.271 45.9688C204.578 46.1449 204.934 46.233 205.341 46.233C205.605 46.233 205.843 46.196 206.056 46.1222C206.272 46.0455 206.458 45.9318 206.615 45.7812C206.771 45.6278 206.892 45.4375 206.977 45.2102L207.949 45.483C207.846 45.8125 207.674 46.1023 207.433 46.3523C207.191 46.5994 206.893 46.7926 206.538 46.9318C206.183 47.0682 205.784 47.1364 205.341 47.1364ZM210.586 43.0625V47H209.581V40.4545H210.552V41.4773H210.637C210.791 41.1449 211.024 40.8778 211.336 40.6761C211.649 40.4716 212.052 40.3693 212.547 40.3693C212.99 40.3693 213.377 40.4602 213.71 40.642C214.042 40.821 214.301 41.0938 214.485 41.4602C214.67 41.8239 214.762 42.2841 214.762 42.8409V47H213.757V42.9091C213.757 42.3949 213.623 41.9943 213.356 41.7074C213.089 41.4176 212.723 41.2727 212.257 41.2727C211.936 41.2727 211.649 41.3423 211.396 41.4815C211.146 41.6207 210.949 41.8239 210.804 42.0909C210.659 42.358 210.586 42.6818 210.586 43.0625ZM220.725 44.3239V40.4545H221.731V47H220.725V45.892H220.657C220.504 46.2244 220.265 46.5071 219.941 46.7401C219.617 46.9702 219.208 47.0852 218.714 47.0852C218.305 47.0852 217.941 46.9957 217.623 46.8168C217.305 46.6349 217.055 46.3622 216.873 45.9986C216.691 45.6321 216.6 45.1705 216.6 44.6136V40.4545H217.606V44.5455C217.606 45.0227 217.739 45.4034 218.006 45.6875C218.276 45.9716 218.62 46.1136 219.038 46.1136C219.288 46.1136 219.542 46.0497 219.8 45.9219C220.062 45.794 220.281 45.598 220.457 45.3338C220.636 45.0696 220.725 44.733 220.725 44.3239ZM229.999 38.2727V47H228.942V39.3807H228.891L226.76 40.7955V39.7216L228.942 38.2727H229.999Z" fill="#1E1E1E"/>
<path d="M258.057 38.2727H259.318L262.284 45.517H262.386L265.352 38.2727H266.614V47H265.625V40.3693H265.54L262.812 47H261.858L259.131 40.3693H259.045V47H258.057V38.2727ZM271.341 47.1364C270.71 47.1364 270.166 46.9972 269.708 46.7188C269.254 46.4375 268.903 46.0455 268.656 45.5426C268.412 45.0369 268.289 44.4489 268.289 43.7784C268.289 43.108 268.412 42.517 268.656 42.0057C268.903 41.4915 269.247 41.0909 269.687 40.804C270.13 40.5142 270.647 40.3693 271.238 40.3693C271.579 40.3693 271.916 40.4261 272.248 40.5398C272.581 40.6534 272.883 40.8381 273.156 41.0938C273.429 41.3466 273.646 41.6818 273.808 42.0994C273.97 42.517 274.051 43.0312 274.051 43.642V44.0682H269.005V43.1989H273.028C273.028 42.8295 272.954 42.5 272.806 42.2102C272.662 41.9205 272.454 41.6918 272.184 41.5241C271.917 41.3565 271.602 41.2727 271.238 41.2727C270.838 41.2727 270.491 41.3722 270.199 41.571C269.909 41.767 269.686 42.0227 269.529 42.3381C269.373 42.6534 269.295 42.9915 269.295 43.3523V43.9318C269.295 44.4261 269.38 44.8452 269.551 45.1889C269.724 45.5298 269.964 45.7898 270.271 45.9688C270.578 46.1449 270.934 46.233 271.341 46.233C271.605 46.233 271.843 46.196 272.056 46.1222C272.272 46.0455 272.458 45.9318 272.615 45.7812C272.771 45.6278 272.892 45.4375 272.977 45.2102L273.949 45.483C273.846 45.8125 273.674 46.1023 273.433 46.3523C273.191 46.5994 272.893 46.7926 272.538 46.9318C272.183 47.0682 271.784 47.1364 271.341 47.1364ZM276.586 43.0625V47H275.581V40.4545H276.552V41.4773H276.637C276.791 41.1449 277.024 40.8778 277.336 40.6761C277.649 40.4716 278.052 40.3693 278.547 40.3693C278.99 40.3693 279.377 40.4602 279.71 40.642C280.042 40.821 280.301 41.0938 280.485 41.4602C280.67 41.8239 280.762 42.2841 280.762 42.8409V47H279.757V42.9091C279.757 42.3949 279.623 41.9943 279.356 41.7074C279.089 41.4176 278.723 41.2727 278.257 41.2727C277.936 41.2727 277.649 41.3423 277.396 41.4815C277.146 41.6207 276.949 41.8239 276.804 42.0909C276.659 42.358 276.586 42.6818 276.586 43.0625ZM286.725 44.3239V40.4545H287.731V47H286.725V45.892H286.657C286.504 46.2244 286.265 46.5071 285.941 46.7401C285.617 46.9702 285.208 47.0852 284.714 47.0852C284.305 47.0852 283.941 46.9957 283.623 46.8168C283.305 46.6349 283.055 46.3622 282.873 45.9986C282.691 45.6321 282.6 45.1705 282.6 44.6136V40.4545H283.606V44.5455C283.606 45.0227 283.739 45.4034 284.006 45.6875C284.276 45.9716 284.62 46.1136 285.038 46.1136C285.288 46.1136 285.542 46.0497 285.8 45.9219C286.062 45.794 286.281 45.598 286.457 45.3338C286.636 45.0696 286.725 44.733 286.725 44.3239ZM289.556 47V46.233L292.436 43.0795C292.775 42.7102 293.053 42.3892 293.272 42.1165C293.49 41.8409 293.652 41.5824 293.757 41.3409C293.865 41.0966 293.919 40.8409 293.919 40.5739C293.919 40.267 293.846 40.0014 293.698 39.777C293.553 39.5526 293.354 39.3793 293.101 39.2571C292.848 39.1349 292.564 39.0739 292.249 39.0739C291.914 39.0739 291.621 39.1435 291.371 39.2827C291.124 39.419 290.932 39.6108 290.796 39.858C290.662 40.1051 290.596 40.3949 290.596 40.7273H289.59C289.59 40.2159 289.708 39.767 289.944 39.3807C290.179 38.9943 290.5 38.6932 290.907 38.4773C291.316 38.2614 291.775 38.1534 292.283 38.1534C292.794 38.1534 293.248 38.2614 293.642 38.4773C294.037 38.6932 294.347 38.9844 294.571 39.3509C294.796 39.7173 294.908 40.125 294.908 40.5739C294.908 40.8949 294.85 41.2088 294.733 41.5156C294.62 41.8196 294.421 42.1591 294.137 42.5341C293.855 42.9062 293.465 43.3608 292.965 43.8977L291.005 45.9943V46.0625H295.061V47H289.556Z" fill="#1E1E1E"/>
<path d="M324.057 38.2727H325.318L328.284 45.517H328.386L331.352 38.2727H332.614V47H331.625V40.3693H331.54L328.812 47H327.858L325.131 40.3693H325.045V47H324.057V38.2727ZM337.341 47.1364C336.71 47.1364 336.166 46.9972 335.708 46.7188C335.254 46.4375 334.903 46.0455 334.656 45.5426C334.412 45.0369 334.289 44.4489 334.289 43.7784C334.289 43.108 334.412 42.517 334.656 42.0057C334.903 41.4915 335.247 41.0909 335.687 40.804C336.13 40.5142 336.647 40.3693 337.238 40.3693C337.579 40.3693 337.916 40.4261 338.248 40.5398C338.581 40.6534 338.883 40.8381 339.156 41.0938C339.429 41.3466 339.646 41.6818 339.808 42.0994C339.97 42.517 340.051 43.0312 340.051 43.642V44.0682H335.005V43.1989H339.028C339.028 42.8295 338.954 42.5 338.806 42.2102C338.662 41.9205 338.454 41.6918 338.184 41.5241C337.917 41.3565 337.602 41.2727 337.238 41.2727C336.838 41.2727 336.491 41.3722 336.199 41.571C335.909 41.767 335.686 42.0227 335.529 42.3381C335.373 42.6534 335.295 42.9915 335.295 43.3523V43.9318C335.295 44.4261 335.38 44.8452 335.551 45.1889C335.724 45.5298 335.964 45.7898 336.271 45.9688C336.578 46.1449 336.934 46.233 337.341 46.233C337.605 46.233 337.843 46.196 338.056 46.1222C338.272 46.0455 338.458 45.9318 338.615 45.7812C338.771 45.6278 338.892 45.4375 338.977 45.2102L339.949 45.483C339.846 45.8125 339.674 46.1023 339.433 46.3523C339.191 46.5994 338.893 46.7926 338.538 46.9318C338.183 47.0682 337.784 47.1364 337.341 47.1364ZM342.586 43.0625V47H341.581V40.4545H342.552V41.4773H342.637C342.791 41.1449 343.024 40.8778 343.336 40.6761C343.649 40.4716 344.052 40.3693 344.547 40.3693C344.99 40.3693 345.377 40.4602 345.71 40.642C346.042 40.821 346.301 41.0938 346.485 41.4602C346.67 41.8239 346.762 42.2841 346.762 42.8409V47H345.757V42.9091C345.757 42.3949 345.623 41.9943 345.356 41.7074C345.089 41.4176 344.723 41.2727 344.257 41.2727C343.936 41.2727 343.649 41.3423 343.396 41.4815C343.146 41.6207 342.949 41.8239 342.804 42.0909C342.659 42.358 342.586 42.6818 342.586 43.0625ZM352.725 44.3239V40.4545H353.731V47H352.725V45.892H352.657C352.504 46.2244 352.265 46.5071 351.941 46.7401C351.617 46.9702 351.208 47.0852 350.714 47.0852C350.305 47.0852 349.941 46.9957 349.623 46.8168C349.305 46.6349 349.055 46.3622 348.873 45.9986C348.691 45.6321 348.6 45.1705 348.6 44.6136V40.4545H349.606V44.5455C349.606 45.0227 349.739 45.4034 350.006 45.6875C350.276 45.9716 350.62 46.1136 351.038 46.1136C351.288 46.1136 351.542 46.0497 351.8 45.9219C352.062 45.794 352.281 45.598 352.457 45.3338C352.636 45.0696 352.725 44.733 352.725 44.3239ZM358.505 47.1193C357.942 47.1193 357.441 47.0227 357 46.8295C356.563 46.6364 356.215 46.3679 355.956 46.0241C355.701 45.6776 355.561 45.2756 355.539 44.8182H356.613C356.635 45.0994 356.732 45.3423 356.902 45.5469C357.073 45.7486 357.296 45.9048 357.571 46.0156C357.847 46.1264 358.152 46.1818 358.488 46.1818C358.863 46.1818 359.195 46.1165 359.485 45.9858C359.775 45.8551 360.002 45.6733 360.167 45.4403C360.331 45.2074 360.414 44.9375 360.414 44.6307C360.414 44.3097 360.334 44.027 360.175 43.7827C360.016 43.5355 359.783 43.3423 359.476 43.2031C359.169 43.0639 358.794 42.9943 358.351 42.9943H357.652V42.0568H358.351C358.698 42.0568 359.002 41.9943 359.263 41.8693C359.527 41.7443 359.733 41.5682 359.881 41.3409C360.032 41.1136 360.107 40.8466 360.107 40.5398C360.107 40.2443 360.042 39.9872 359.911 39.7685C359.78 39.5497 359.596 39.3793 359.357 39.2571C359.121 39.1349 358.843 39.0739 358.522 39.0739C358.221 39.0739 357.936 39.1293 357.669 39.2401C357.405 39.348 357.189 39.5057 357.022 39.7131C356.854 39.9176 356.763 40.1648 356.749 40.4545H355.726C355.743 39.9972 355.881 39.5966 356.14 39.2528C356.398 38.9062 356.736 38.6364 357.154 38.4432C357.574 38.25 358.036 38.1534 358.539 38.1534C359.078 38.1534 359.542 38.2628 359.928 38.4815C360.314 38.6974 360.611 38.983 360.819 39.3381C361.026 39.6932 361.13 40.0767 361.13 40.4886C361.13 40.9801 361 41.3991 360.742 41.7457C360.486 42.0923 360.138 42.3324 359.698 42.4659V42.5341C360.249 42.625 360.679 42.8594 360.989 43.2372C361.299 43.6122 361.453 44.0767 361.453 44.6307C361.453 45.1051 361.324 45.5312 361.066 45.9091C360.81 46.2841 360.461 46.5795 360.017 46.7955C359.574 47.0114 359.07 47.1193 358.505 47.1193Z" fill="#1E1E1E"/>
<path d="M390.057 38.2727H391.318L394.284 45.517H394.386L397.352 38.2727H398.614V47H397.625V40.3693H397.54L394.812 47H393.858L391.131 40.3693H391.045V47H390.057V38.2727ZM403.341 47.1364C402.71 47.1364 402.166 46.9972 401.708 46.7188C401.254 46.4375 400.903 46.0455 400.656 45.5426C400.412 45.0369 400.289 44.4489 400.289 43.7784C400.289 43.108 400.412 42.517 400.656 42.0057C400.903 41.4915 401.247 41.0909 401.687 40.804C402.13 40.5142 402.647 40.3693 403.238 40.3693C403.579 40.3693 403.916 40.4261 404.248 40.5398C404.581 40.6534 404.883 40.8381 405.156 41.0938C405.429 41.3466 405.646 41.6818 405.808 42.0994C405.97 42.517 406.051 43.0312 406.051 43.642V44.0682H401.005V43.1989H405.028C405.028 42.8295 404.954 42.5 404.806 42.2102C404.662 41.9205 404.454 41.6918 404.184 41.5241C403.917 41.3565 403.602 41.2727 403.238 41.2727C402.838 41.2727 402.491 41.3722 402.199 41.571C401.909 41.767 401.686 42.0227 401.529 42.3381C401.373 42.6534 401.295 42.9915 401.295 43.3523V43.9318C401.295 44.4261 401.38 44.8452 401.551 45.1889C401.724 45.5298 401.964 45.7898 402.271 45.9688C402.578 46.1449 402.934 46.233 403.341 46.233C403.605 46.233 403.843 46.196 404.056 46.1222C404.272 46.0455 404.458 45.9318 404.615 45.7812C404.771 45.6278 404.892 45.4375 404.977 45.2102L405.949 45.483C405.846 45.8125 405.674 46.1023 405.433 46.3523C405.191 46.5994 404.893 46.7926 404.538 46.9318C404.183 47.0682 403.784 47.1364 403.341 47.1364ZM408.586 43.0625V47H407.581V40.4545H408.552V41.4773H408.637C408.791 41.1449 409.024 40.8778 409.336 40.6761C409.649 40.4716 410.052 40.3693 410.547 40.3693C410.99 40.3693 411.377 40.4602 411.71 40.642C412.042 40.821 412.301 41.0938 412.485 41.4602C412.67 41.8239 412.762 42.2841 412.762 42.8409V47H411.757V42.9091C411.757 42.3949 411.623 41.9943 411.356 41.7074C411.089 41.4176 410.723 41.2727 410.257 41.2727C409.936 41.2727 409.649 41.3423 409.396 41.4815C409.146 41.6207 408.949 41.8239 408.804 42.0909C408.659 42.358 408.586 42.6818 408.586 43.0625ZM418.725 44.3239V40.4545H419.731V47H418.725V45.892H418.657C418.504 46.2244 418.265 46.5071 417.941 46.7401C417.617 46.9702 417.208 47.0852 416.714 47.0852C416.305 47.0852 415.941 46.9957 415.623 46.8168C415.305 46.6349 415.055 46.3622 414.873 45.9986C414.691 45.6321 414.6 45.1705 414.6 44.6136V40.4545H415.606V44.5455C415.606 45.0227 415.739 45.4034 416.006 45.6875C416.276 45.9716 416.62 46.1136 417.038 46.1136C417.288 46.1136 417.542 46.0497 417.8 45.9219C418.062 45.794 418.281 45.598 418.457 45.3338C418.636 45.0696 418.725 44.733 418.725 44.3239ZM421.351 45.2102V44.3409L425.186 38.2727H425.817V39.6193H425.391L422.493 44.2045V44.2727H427.658V45.2102H421.351ZM425.459 47V44.946V44.5412V38.2727H426.465V47H425.459Z" fill="#1E1E1E"/>
<rect x="14" y="26" width="139" height="32" rx="16" fill="#8AF8FF"/>
<path d="M26.1136 38.2727V47H25.0568V38.2727H26.1136ZM29.1019 43.0625V47H28.0962V40.4545H29.0678V41.4773H29.1531C29.3065 41.1449 29.5394 40.8778 29.8519 40.6761C30.1644 40.4716 30.5678 40.3693 31.0621 40.3693C31.5053 40.3693 31.8931 40.4602 32.2255 40.642C32.5579 40.821 32.8164 41.0938 33.0011 41.4602C33.1857 41.8239 33.2781 42.2841 33.2781 42.8409V47H32.2724V42.9091C32.2724 42.3949 32.1388 41.9943 31.8718 41.7074C31.6048 41.4176 31.2383 41.2727 30.7724 41.2727C30.4513 41.2727 30.1644 41.3423 29.9116 41.4815C29.6616 41.6207 29.4641 41.8239 29.3192 42.0909C29.1744 42.358 29.1019 42.6818 29.1019 43.0625ZM39.7521 41.9205L38.8487 42.1761C38.7919 42.0256 38.7081 41.8793 38.5973 41.7372C38.4893 41.5923 38.3416 41.473 38.1541 41.3793C37.9666 41.2855 37.7266 41.2386 37.4339 41.2386C37.0334 41.2386 36.6996 41.331 36.4325 41.5156C36.1683 41.6974 36.0362 41.929 36.0362 42.2102C36.0362 42.4602 36.1271 42.6577 36.3089 42.8026C36.4908 42.9474 36.7749 43.0682 37.1612 43.1648L38.1328 43.4034C38.718 43.5455 39.1541 43.7628 39.4411 44.0554C39.728 44.3452 39.8714 44.7187 39.8714 45.1761C39.8714 45.5511 39.7635 45.8864 39.5476 46.1818C39.3345 46.4773 39.0362 46.7102 38.6527 46.8807C38.2692 47.0511 37.8232 47.1364 37.3146 47.1364C36.647 47.1364 36.0945 46.9915 35.657 46.7017C35.2195 46.4119 34.9425 45.9886 34.826 45.4318L35.7805 45.1932C35.8714 45.5455 36.0433 45.8097 36.2962 45.9858C36.5518 46.1619 36.8857 46.25 37.2976 46.25C37.7663 46.25 38.1385 46.1506 38.4141 45.9517C38.6925 45.75 38.8317 45.5085 38.8317 45.2273C38.8317 45 38.7521 44.8097 38.593 44.6562C38.4339 44.5 38.1896 44.3835 37.8601 44.3068L36.7692 44.0511C36.1697 43.9091 35.7294 43.6889 35.4482 43.3906C35.1697 43.0895 35.0305 42.7131 35.0305 42.2614C35.0305 41.892 35.1342 41.5653 35.3416 41.2812C35.5518 40.9972 35.8374 40.7741 36.1982 40.6122C36.5618 40.4503 36.9737 40.3693 37.4339 40.3693C38.0817 40.3693 38.5902 40.5114 38.9595 40.7955C39.3317 41.0795 39.5959 41.4545 39.7521 41.9205ZM44.0444 47.1364C43.4308 47.1364 42.9023 46.9915 42.4592 46.7017C42.016 46.4119 41.6751 46.0128 41.4364 45.5043C41.1978 44.9957 41.0785 44.4148 41.0785 43.7614C41.0785 43.0966 41.2006 42.5099 41.445 42.0014C41.6921 41.4901 42.0359 41.0909 42.4762 40.804C42.9194 40.5142 43.4364 40.3693 44.0273 40.3693C44.4876 40.3693 44.9023 40.4545 45.2717 40.625C45.641 40.7955 45.9435 41.0341 46.1793 41.3409C46.4151 41.6477 46.5614 42.0057 46.6183 42.4148H45.6126C45.5359 42.1165 45.3654 41.8523 45.1012 41.6222C44.8398 41.3892 44.4876 41.2727 44.0444 41.2727C43.6523 41.2727 43.3086 41.375 43.0131 41.5795C42.7205 41.7812 42.4918 42.0668 42.3271 42.4361C42.1651 42.8026 42.0842 43.233 42.0842 43.7273C42.0842 44.233 42.1637 44.6733 42.3228 45.0483C42.4847 45.4233 42.712 45.7145 43.0046 45.9219C43.3001 46.1293 43.6467 46.233 44.0444 46.233C44.3058 46.233 44.543 46.1875 44.756 46.0966C44.9691 46.0057 45.1495 45.875 45.2972 45.7045C45.445 45.5341 45.5501 45.3295 45.6126 45.0909H46.6183C46.5614 45.4773 46.4208 45.8253 46.1964 46.1349C45.9748 46.4418 45.6808 46.6861 45.3143 46.8679C44.9506 47.0469 44.5273 47.1364 44.0444 47.1364ZM48.0884 47V40.4545H49.06V41.4432H49.1282C49.2475 41.1193 49.4634 40.8565 49.7759 40.6548C50.0884 40.4531 50.4407 40.3523 50.8327 40.3523C50.9066 40.3523 50.9989 40.3537 51.1097 40.3565C51.2205 40.3594 51.3043 40.3636 51.3612 40.3693V41.392C51.3271 41.3835 51.2489 41.3707 51.1268 41.3537C51.0075 41.3338 50.881 41.3239 50.7475 41.3239C50.4293 41.3239 50.1452 41.3906 49.8952 41.5241C49.6481 41.6548 49.4521 41.8366 49.3072 42.0696C49.1651 42.2997 49.0941 42.5625 49.0941 42.858V47H48.0884ZM52.5533 47V40.4545H53.5589V47H52.5533ZM53.0646 39.3636C52.8686 39.3636 52.6996 39.2969 52.5575 39.1634C52.4183 39.0298 52.3487 38.8693 52.3487 38.6818C52.3487 38.4943 52.4183 38.3338 52.5575 38.2003C52.6996 38.0668 52.8686 38 53.0646 38C53.2607 38 53.4283 38.0668 53.5675 38.2003C53.7095 38.3338 53.7805 38.4943 53.7805 38.6818C53.7805 38.8693 53.7095 39.0298 53.5675 39.1634C53.4283 39.2969 53.2607 39.3636 53.0646 39.3636ZM55.4009 49.4545V40.4545H56.3725V41.4943H56.4918C56.5657 41.3807 56.668 41.2358 56.7987 41.0597C56.9322 40.8807 57.1225 40.7216 57.3697 40.5824C57.6197 40.4403 57.9577 40.3693 58.3839 40.3693C58.935 40.3693 59.4208 40.5071 59.8413 40.7827C60.2617 41.0582 60.5898 41.4489 60.8256 41.9545C61.0614 42.4602 61.1793 43.0568 61.1793 43.7443C61.1793 44.4375 61.0614 45.0384 60.8256 45.5469C60.5898 46.0526 60.2631 46.4446 59.8455 46.723C59.4279 46.9986 58.9464 47.1364 58.4009 47.1364C57.9805 47.1364 57.6438 47.0668 57.391 46.9276C57.1381 46.7855 56.9435 46.625 56.8072 46.446C56.6708 46.2642 56.5657 46.1136 56.4918 45.9943H56.4066V49.4545H55.4009ZM56.3896 43.7273C56.3896 44.2216 56.462 44.6577 56.6069 45.0355C56.7518 45.4105 56.9634 45.7045 57.2418 45.9176C57.5202 46.1278 57.8612 46.233 58.2646 46.233C58.685 46.233 59.0359 46.1222 59.3171 45.9006C59.6012 45.6761 59.8143 45.375 59.9563 44.9972C60.1012 44.6165 60.1737 44.1932 60.1737 43.7273C60.1737 43.267 60.1026 42.8523 59.9606 42.483C59.8214 42.1108 59.6097 41.8168 59.3256 41.6009C59.0444 41.3821 58.6907 41.2727 58.2646 41.2727C57.8555 41.2727 57.5117 41.3764 57.2333 41.5838C56.9549 41.7884 56.7447 42.0753 56.6026 42.4446C56.4606 42.8111 56.3896 43.2386 56.3896 43.7273ZM65.56 40.4545V41.3068H62.168V40.4545H65.56ZM63.1566 38.8864H64.1623V45.125C64.1623 45.4091 64.2035 45.6222 64.2859 45.7642C64.3711 45.9034 64.479 45.9972 64.6097 46.0455C64.7433 46.0909 64.8839 46.1136 65.0316 46.1136C65.1424 46.1136 65.2333 46.108 65.3043 46.0966C65.3754 46.0824 65.4322 46.071 65.4748 46.0625L65.6793 46.9659C65.6112 46.9915 65.516 47.017 65.3938 47.0426C65.2717 47.071 65.1168 47.0852 64.9293 47.0852C64.6452 47.0852 64.3668 47.0241 64.0941 46.902C63.8242 46.7798 63.5998 46.5938 63.4208 46.3438C63.2447 46.0938 63.1566 45.7784 63.1566 45.3977V38.8864ZM67.0728 47V40.4545H68.0785V47H67.0728ZM67.5842 39.3636C67.3881 39.3636 67.2191 39.2969 67.0771 39.1634C66.9379 39.0298 66.8683 38.8693 66.8683 38.6818C66.8683 38.4943 66.9379 38.3338 67.0771 38.2003C67.2191 38.0668 67.3881 38 67.5842 38C67.7802 38 67.9478 38.0668 68.087 38.2003C68.229 38.3338 68.3001 38.4943 68.3001 38.6818C68.3001 38.8693 68.229 39.0298 68.087 39.1634C67.9478 39.2969 67.7802 39.3636 67.5842 39.3636ZM72.5795 47.1364C71.9886 47.1364 71.4702 46.9957 71.0241 46.7145C70.581 46.4332 70.2344 46.0398 69.9844 45.5341C69.7372 45.0284 69.6136 44.4375 69.6136 43.7614C69.6136 43.0795 69.7372 42.4844 69.9844 41.9759C70.2344 41.4673 70.581 41.0724 71.0241 40.7912C71.4702 40.5099 71.9886 40.3693 72.5795 40.3693C73.1705 40.3693 73.6875 40.5099 74.1307 40.7912C74.5767 41.0724 74.9233 41.4673 75.1705 41.9759C75.4205 42.4844 75.5455 43.0795 75.5455 43.7614C75.5455 44.4375 75.4205 45.0284 75.1705 45.5341C74.9233 46.0398 74.5767 46.4332 74.1307 46.7145C73.6875 46.9957 73.1705 47.1364 72.5795 47.1364ZM72.5795 46.233C73.0284 46.233 73.3977 46.1179 73.6875 45.8878C73.9773 45.6577 74.1918 45.3551 74.331 44.9801C74.4702 44.6051 74.5398 44.1989 74.5398 43.7614C74.5398 43.3239 74.4702 42.9162 74.331 42.5384C74.1918 42.1605 73.9773 41.8551 73.6875 41.6222C73.3977 41.3892 73.0284 41.2727 72.5795 41.2727C72.1307 41.2727 71.7614 41.3892 71.4716 41.6222C71.1818 41.8551 70.9673 42.1605 70.8281 42.5384C70.6889 42.9162 70.6193 43.3239 70.6193 43.7614C70.6193 44.1989 70.6889 44.6051 70.8281 44.9801C70.9673 45.3551 71.1818 45.6577 71.4716 45.8878C71.7614 46.1179 72.1307 46.233 72.5795 46.233ZM78.0863 43.0625V47H77.0806V40.4545H78.0522V41.4773H78.1374C78.2908 41.1449 78.5238 40.8778 78.8363 40.6761C79.1488 40.4716 79.5522 40.3693 80.0465 40.3693C80.4897 40.3693 80.8775 40.4602 81.2099 40.642C81.5423 40.821 81.8008 41.0938 81.9854 41.4602C82.1701 41.8239 82.2624 42.2841 82.2624 42.8409V47H81.2567V42.9091C81.2567 42.3949 81.1232 41.9943 80.8562 41.7074C80.5891 41.4176 80.2227 41.2727 79.7567 41.2727C79.4357 41.2727 79.1488 41.3423 78.896 41.4815C78.646 41.6207 78.4485 41.8239 78.3036 42.0909C78.1587 42.358 78.0863 42.6818 78.0863 43.0625ZM87.1854 37.8636L84.3729 48.3125H83.4524L86.2649 37.8636H87.1854ZM95.5366 41H94.4798C94.4173 40.696 94.3079 40.429 94.1516 40.1989C93.9982 39.9688 93.8107 39.7756 93.5891 39.6193C93.3704 39.4602 93.1275 39.3409 92.8604 39.2614C92.5934 39.1818 92.315 39.142 92.0252 39.142C91.4968 39.142 91.0181 39.2756 90.5891 39.5426C90.163 39.8097 89.8235 40.2031 89.5707 40.723C89.3207 41.2429 89.1957 41.8807 89.1957 42.6364C89.1957 43.392 89.3207 44.0298 89.5707 44.5497C89.8235 45.0696 90.163 45.4631 90.5891 45.7301C91.0181 45.9972 91.4968 46.1307 92.0252 46.1307C92.315 46.1307 92.5934 46.0909 92.8604 46.0114C93.1275 45.9318 93.3704 45.8139 93.5891 45.6577C93.8107 45.4986 93.9982 45.304 94.1516 45.0739C94.3079 44.8409 94.4173 44.5739 94.4798 44.2727H95.5366C95.457 44.7187 95.3121 45.1179 95.1019 45.4702C94.8917 45.8224 94.6303 46.1222 94.3178 46.3693C94.0053 46.6136 93.6545 46.7997 93.2653 46.9276C92.8789 47.0554 92.4656 47.1193 92.0252 47.1193C91.2809 47.1193 90.619 46.9375 90.0394 46.5739C89.4599 46.2102 89.0039 45.6932 88.6715 45.0227C88.3391 44.3523 88.1729 43.5568 88.1729 42.6364C88.1729 41.7159 88.3391 40.9205 88.6715 40.25C89.0039 39.5795 89.4599 39.0625 90.0394 38.6989C90.619 38.3352 91.2809 38.1534 92.0252 38.1534C92.4656 38.1534 92.8789 38.2173 93.2653 38.3452C93.6545 38.473 94.0053 38.6605 94.3178 38.9077C94.6303 39.152 94.8917 39.4503 95.1019 39.8026C95.3121 40.152 95.457 40.5511 95.5366 41ZM99.767 47.1364C99.1761 47.1364 98.6577 46.9957 98.2116 46.7145C97.7685 46.4332 97.4219 46.0398 97.1719 45.5341C96.9247 45.0284 96.8011 44.4375 96.8011 43.7614C96.8011 43.0795 96.9247 42.4844 97.1719 41.9759C97.4219 41.4673 97.7685 41.0724 98.2116 40.7912C98.6577 40.5099 99.1761 40.3693 99.767 40.3693C100.358 40.3693 100.875 40.5099 101.318 40.7912C101.764 41.0724 102.111 41.4673 102.358 41.9759C102.608 42.4844 102.733 43.0795 102.733 43.7614C102.733 44.4375 102.608 45.0284 102.358 45.5341C102.111 46.0398 101.764 46.4332 101.318 46.7145C100.875 46.9957 100.358 47.1364 99.767 47.1364ZM99.767 46.233C100.216 46.233 100.585 46.1179 100.875 45.8878C101.165 45.6577 101.379 45.3551 101.518 44.9801C101.658 44.6051 101.727 44.1989 101.727 43.7614C101.727 43.3239 101.658 42.9162 101.518 42.5384C101.379 42.1605 101.165 41.8551 100.875 41.6222C100.585 41.3892 100.216 41.2727 99.767 41.2727C99.3182 41.2727 98.9489 41.3892 98.6591 41.6222C98.3693 41.8551 98.1548 42.1605 98.0156 42.5384C97.8764 42.9162 97.8068 43.3239 97.8068 43.7614C97.8068 44.1989 97.8764 44.6051 98.0156 44.9801C98.1548 45.3551 98.3693 45.6577 98.6591 45.8878C98.9489 46.1179 99.3182 46.233 99.767 46.233ZM105.274 43.0625V47H104.268V40.4545H105.24V41.4773H105.325C105.478 41.1449 105.711 40.8778 106.024 40.6761C106.336 40.4716 106.74 40.3693 107.234 40.3693C107.677 40.3693 108.065 40.4602 108.397 40.642C108.73 40.821 108.988 41.0938 109.173 41.4602C109.358 41.8239 109.45 42.2841 109.45 42.8409V47H108.444V42.9091C108.444 42.3949 108.311 41.9943 108.044 41.7074C107.777 41.4176 107.41 41.2727 106.944 41.2727C106.623 41.2727 106.336 41.3423 106.083 41.4815C105.833 41.6207 105.636 41.8239 105.491 42.0909C105.346 42.358 105.274 42.6818 105.274 43.0625ZM112.293 43.0625V47H111.288V40.4545H112.259V41.4773H112.344C112.498 41.1449 112.731 40.8778 113.043 40.6761C113.356 40.4716 113.759 40.3693 114.254 40.3693C114.697 40.3693 115.085 40.4602 115.417 40.642C115.749 40.821 116.008 41.0938 116.192 41.4602C116.377 41.8239 116.469 42.2841 116.469 42.8409V47H115.464V42.9091C115.464 42.3949 115.33 41.9943 115.063 41.7074C114.796 41.4176 114.43 41.2727 113.964 41.2727C113.643 41.2727 113.356 41.3423 113.103 41.4815C112.853 41.6207 112.656 41.8239 112.511 42.0909C112.366 42.358 112.293 42.6818 112.293 43.0625ZM121.051 47.1364C120.421 47.1364 119.877 46.9972 119.419 46.7188C118.965 46.4375 118.614 46.0455 118.367 45.5426C118.123 45.0369 118 44.4489 118 43.7784C118 43.108 118.123 42.517 118.367 42.0057C118.614 41.4915 118.958 41.0909 119.398 40.804C119.841 40.5142 120.358 40.3693 120.949 40.3693C121.29 40.3693 121.627 40.4261 121.959 40.5398C122.292 40.6534 122.594 40.8381 122.867 41.0938C123.14 41.3466 123.357 41.6818 123.519 42.0994C123.681 42.517 123.762 43.0312 123.762 43.642V44.0682H118.716V43.1989H122.739C122.739 42.8295 122.665 42.5 122.517 42.2102C122.373 41.9205 122.165 41.6918 121.895 41.5241C121.628 41.3565 121.313 41.2727 120.949 41.2727C120.549 41.2727 120.202 41.3722 119.909 41.571C119.62 41.767 119.397 42.0227 119.24 42.3381C119.084 42.6534 119.006 42.9915 119.006 43.3523V43.9318C119.006 44.4261 119.091 44.8452 119.262 45.1889C119.435 45.5298 119.675 45.7898 119.982 45.9688C120.289 46.1449 120.645 46.233 121.051 46.233C121.316 46.233 121.554 46.196 121.767 46.1222C121.983 46.0455 122.169 45.9318 122.326 45.7812C122.482 45.6278 122.603 45.4375 122.688 45.2102L123.659 45.483C123.557 45.8125 123.385 46.1023 123.144 46.3523C122.902 46.5994 122.604 46.7926 122.249 46.9318C121.894 47.0682 121.495 47.1364 121.051 47.1364ZM125.866 40.4545L127.434 43.1307L129.002 40.4545H130.161L128.048 43.7273L130.161 47H129.002L127.434 44.4602L125.866 47H124.707L126.786 43.7273L124.707 40.4545H125.866ZM131.596 47V40.4545H132.602V47H131.596ZM132.108 39.3636C131.912 39.3636 131.743 39.2969 131.6 39.1634C131.461 39.0298 131.392 38.8693 131.392 38.6818C131.392 38.4943 131.461 38.3338 131.6 38.2003C131.743 38.0668 131.912 38 132.108 38C132.304 38 132.471 38.0668 132.61 38.2003C132.752 38.3338 132.824 38.4943 132.824 38.6818C132.824 38.8693 132.752 39.0298 132.61 39.1634C132.471 39.2969 132.304 39.3636 132.108 39.3636ZM137.103 47.1364C136.512 47.1364 135.994 46.9957 135.548 46.7145C135.104 46.4332 134.758 46.0398 134.508 45.5341C134.261 45.0284 134.137 44.4375 134.137 43.7614C134.137 43.0795 134.261 42.4844 134.508 41.9759C134.758 41.4673 135.104 41.0724 135.548 40.7912C135.994 40.5099 136.512 40.3693 137.103 40.3693C137.694 40.3693 138.211 40.5099 138.654 40.7912C139.1 41.0724 139.447 41.4673 139.694 41.9759C139.944 42.4844 140.069 43.0795 140.069 43.7614C140.069 44.4375 139.944 45.0284 139.694 45.5341C139.447 46.0398 139.1 46.4332 138.654 46.7145C138.211 46.9957 137.694 47.1364 137.103 47.1364ZM137.103 46.233C137.552 46.233 137.921 46.1179 138.211 45.8878C138.501 45.6577 138.715 45.3551 138.854 44.9801C138.994 44.6051 139.063 44.1989 139.063 43.7614C139.063 43.3239 138.994 42.9162 138.854 42.5384C138.715 42.1605 138.501 41.8551 138.211 41.6222C137.921 41.3892 137.552 41.2727 137.103 41.2727C136.654 41.2727 136.285 41.3892 135.995 41.6222C135.705 41.8551 135.491 42.1605 135.352 42.5384C135.212 42.9162 135.143 43.3239 135.143 43.7614C135.143 44.1989 135.212 44.6051 135.352 44.9801C135.491 45.3551 135.705 45.6577 135.995 45.8878C136.285 46.1179 136.654 46.233 137.103 46.233ZM142.61 43.0625V47H141.604V40.4545H142.576V41.4773H142.661C142.814 41.1449 143.047 40.8778 143.36 40.6761C143.672 40.4716 144.076 40.3693 144.57 40.3693C145.013 40.3693 145.401 40.4602 145.733 40.642C146.066 40.821 146.324 41.0938 146.509 41.4602C146.694 41.8239 146.786 42.2841 146.786 42.8409V47H145.78V42.9091C145.78 42.3949 145.647 41.9943 145.38 41.7074C145.113 41.4176 144.746 41.2727 144.28 41.2727C143.959 41.2727 143.672 41.3423 143.419 41.4815C143.169 41.6207 142.972 41.8239 142.827 42.0909C142.682 42.358 142.61 42.6818 142.61 43.0625Z" fill="#1E1E1E"/>
</g>
<defs>
<clipPath id="clip0_17_41">
<rect width="577" height="83" fill="white"/>
</clipPath>
</defs>
</svg>
