<svg width="667" height="236" viewBox="0 0 667 236" fill="none" xmlns="http://www.w3.org/2000/svg">
<g clip-path="url(#clip0_4_241)">
<rect width="667" height="236" fill="white"/>
<path d="M373.314 125.22C374.6 126.142 376.175 126.685 377.877 126.685V123.399C377.555 123.399 377.234 123.365 376.919 123.298V125.885C375.217 125.885 373.642 125.342 372.355 124.42V131.126C372.355 134.481 369.646 137.2 366.303 137.2C365.056 137.2 363.896 136.822 362.933 136.173C364.032 137.3 365.565 138 367.261 138C370.604 138 373.314 135.281 373.314 131.926V125.22H373.314V125.22ZM374.496 121.904C373.839 121.184 373.407 120.252 373.314 119.223V118.8H372.406C372.634 120.109 373.414 121.227 374.496 121.904ZM365.048 133.598C364.68 133.115 364.482 132.524 364.483 131.916C364.483 130.382 365.722 129.138 367.252 129.138C367.537 129.138 367.82 129.181 368.091 129.268V125.908C367.774 125.865 367.454 125.846 367.133 125.853V128.468C366.862 128.381 366.578 128.337 366.293 128.338C364.764 128.338 363.525 129.582 363.525 131.116C363.525 132.201 364.144 133.141 365.048 133.598Z" fill="#FF004F"/>
<path d="M372.355 124.419C373.642 125.342 375.217 125.885 376.919 125.885V123.298C375.969 123.095 375.128 122.597 374.496 121.904C373.414 121.227 372.634 120.109 372.406 118.8H370.02V131.926C370.015 133.456 368.777 134.695 367.251 134.695C366.352 134.695 365.553 134.265 365.047 133.598C364.144 133.141 363.524 132.201 363.524 131.116C363.524 129.582 364.764 128.338 366.293 128.338C366.586 128.338 366.868 128.383 367.133 128.468V125.853C363.849 125.921 361.208 128.614 361.208 131.926C361.208 133.579 361.866 135.078 362.933 136.173C363.896 136.822 365.056 137.2 366.303 137.2C369.646 137.2 372.355 134.48 372.355 131.126V124.419H372.355Z" fill="black"/>
<path d="M376.919 123.298V122.599C376.062 122.6 375.223 122.359 374.496 121.904C375.139 122.611 375.986 123.098 376.919 123.298ZM372.406 118.8C372.384 118.675 372.367 118.549 372.355 118.423V118H369.062V131.126C369.056 132.656 367.819 133.895 366.293 133.895C365.845 133.895 365.422 133.788 365.047 133.598C365.553 134.265 366.352 134.695 367.251 134.695C368.777 134.695 370.015 133.456 370.02 131.926V118.8H372.406ZM367.133 125.853V125.108C366.858 125.07 366.581 125.052 366.303 125.052C362.96 125.052 360.25 127.771 360.25 131.126C360.25 133.229 361.315 135.082 362.933 136.172C361.866 135.077 361.208 133.579 361.208 131.926C361.208 128.614 363.849 125.921 367.133 125.853Z" fill="#00F2EA"/>
<g clip-path="url(#clip1_4_241)">
<path d="M413.602 123.155C413.489 122.729 413.266 122.341 412.955 122.028C412.645 121.716 412.258 121.491 411.833 121.375C410.27 120.955 404.02 120.955 404.02 120.955C404.02 120.955 397.77 120.955 396.206 121.375C395.781 121.491 395.395 121.716 395.084 122.028C394.774 122.341 394.551 122.729 394.438 123.155C394.02 124.725 394.02 128 394.02 128C394.02 128 394.02 131.275 394.438 132.845C394.551 133.271 394.774 133.659 395.084 133.972C395.395 134.284 395.781 134.509 396.206 134.625C397.77 135.045 404.02 135.045 404.02 135.045C404.02 135.045 410.27 135.045 411.833 134.625C412.258 134.509 412.645 134.284 412.955 133.972C413.266 133.659 413.489 133.271 413.602 132.845C414.02 131.275 414.02 128 414.02 128C414.02 128 414.02 124.725 413.602 123.155Z" fill="#FF0302"/>
<path d="M401.974 130.974V125.026L407.202 128L401.974 130.974Z" fill="#FEFEFE"/>
</g>
<g clip-path="url(#clip2_4_241)">
<path d="M334 119.801C336.672 119.801 336.988 119.812 338.039 119.859C339.016 119.902 339.543 120.066 339.895 120.203C340.359 120.383 340.695 120.602 341.043 120.949C341.395 121.301 341.609 121.633 341.789 122.098C341.926 122.449 342.09 122.98 342.133 123.953C342.18 125.008 342.191 125.324 342.191 127.992C342.191 130.664 342.18 130.98 342.133 132.031C342.09 133.008 341.926 133.535 341.789 133.887C341.609 134.352 341.391 134.688 341.043 135.035C340.691 135.387 340.359 135.602 339.895 135.781C339.543 135.918 339.012 136.082 338.039 136.125C336.984 136.172 336.668 136.184 334 136.184C331.328 136.184 331.012 136.172 329.961 136.125C328.984 136.082 328.457 135.918 328.105 135.781C327.641 135.602 327.305 135.383 326.957 135.035C326.605 134.684 326.391 134.352 326.211 133.887C326.074 133.535 325.91 133.004 325.867 132.031C325.82 130.977 325.809 130.66 325.809 127.992C325.809 125.32 325.82 125.004 325.867 123.953C325.91 122.977 326.074 122.449 326.211 122.098C326.391 121.633 326.609 121.297 326.957 120.949C327.309 120.598 327.641 120.383 328.105 120.203C328.457 120.066 328.988 119.902 329.961 119.859C331.012 119.812 331.328 119.801 334 119.801ZM334 118C331.285 118 330.945 118.012 329.879 118.059C328.816 118.105 328.086 118.277 327.453 118.523C326.793 118.781 326.234 119.121 325.68 119.68C325.121 120.234 324.781 120.793 324.523 121.449C324.277 122.086 324.105 122.812 324.059 123.875C324.012 124.945 324 125.285 324 128C324 130.715 324.012 131.055 324.059 132.121C324.105 133.184 324.277 133.914 324.523 134.547C324.781 135.207 325.121 135.766 325.68 136.32C326.234 136.875 326.793 137.219 327.449 137.473C328.086 137.719 328.813 137.891 329.875 137.938C330.941 137.984 331.281 137.996 333.996 137.996C336.711 137.996 337.051 137.984 338.117 137.938C339.18 137.891 339.91 137.719 340.543 137.473C341.199 137.219 341.758 136.875 342.313 136.32C342.867 135.766 343.211 135.207 343.465 134.551C343.711 133.914 343.883 133.188 343.93 132.125C343.977 131.059 343.988 130.719 343.988 128.004C343.988 125.289 343.977 124.949 343.93 123.883C343.883 122.82 343.711 122.09 343.465 121.457C343.219 120.793 342.879 120.234 342.32 119.68C341.766 119.125 341.207 118.781 340.551 118.527C339.914 118.281 339.188 118.109 338.125 118.063C337.055 118.012 336.715 118 334 118Z" fill="#000100"/>
<path d="M334 122.863C331.164 122.863 328.863 125.164 328.863 128C328.863 130.836 331.164 133.137 334 133.137C336.836 133.137 339.137 130.836 339.137 128C339.137 125.164 336.836 122.863 334 122.863ZM334 131.332C332.16 131.332 330.668 129.84 330.668 128C330.668 126.16 332.16 124.668 334 124.668C335.84 124.668 337.332 126.16 337.332 128C337.332 129.84 335.84 131.332 334 131.332Z" fill="#000100"/>
<path d="M340.539 122.66C340.539 123.324 340 123.859 339.34 123.859C338.676 123.859 338.141 123.32 338.141 122.66C338.141 121.996 338.68 121.461 339.34 121.461C340 121.461 340.539 122 340.539 122.66Z" fill="#000100"/>
</g>
<path d="M295.29 136.126C302.837 136.126 306.965 129.873 306.965 124.45C306.965 124.273 306.965 124.096 306.953 123.92C307.756 123.339 308.449 122.62 309 121.796C308.251 122.128 307.457 122.346 306.643 122.442C307.5 121.929 308.141 121.122 308.447 120.172C307.642 120.65 306.761 120.987 305.842 121.168C305.223 120.51 304.405 120.075 303.513 119.929C302.622 119.783 301.708 119.934 300.912 120.361C300.115 120.787 299.482 121.463 299.109 122.286C298.736 123.108 298.645 124.031 298.849 124.91C297.217 124.829 295.621 124.405 294.165 123.666C292.708 122.927 291.422 121.891 290.392 120.623C289.867 121.526 289.707 122.596 289.943 123.614C290.179 124.631 290.794 125.521 291.662 126.101C291.009 126.082 290.371 125.905 289.8 125.587V125.639C289.8 126.587 290.128 127.505 290.728 128.238C291.328 128.971 292.163 129.474 293.092 129.662C292.488 129.826 291.854 129.85 291.239 129.732C291.502 130.547 292.012 131.26 292.699 131.771C293.387 132.282 294.217 132.565 295.073 132.582C294.222 133.25 293.248 133.745 292.206 134.037C291.164 134.328 290.074 134.412 289 134.282C290.877 135.487 293.06 136.125 295.29 136.122" fill="#1DA1F2"/>
<g clip-path="url(#clip3_4_241)">
<path d="M274 128C274 122.477 269.523 118 264 118C258.477 118 254 122.477 254 128C254 132.991 257.657 137.128 262.437 137.879V130.891H259.898V128H262.437V125.797C262.437 123.291 263.93 121.906 266.215 121.906C267.308 121.906 268.453 122.102 268.453 122.102V124.563H267.192C265.95 124.563 265.562 125.333 265.562 126.125V128H268.336L267.893 130.891H265.562V137.879C270.343 137.128 274 132.991 274 128Z" fill="#1877F2"/>
<path d="M267.893 130.891L268.336 128H265.562V126.125C265.562 125.334 265.95 124.562 267.192 124.562H268.453V122.102C268.453 122.102 267.309 121.906 266.215 121.906C263.93 121.906 262.437 123.291 262.437 125.797V128H259.898V130.891H262.437V137.879C263.473 138.04 264.527 138.04 265.562 137.879V130.891H267.893Z" fill="white"/>
</g>
<rect x="219" y="14" width="234" height="64" fill="#1E1E1E"/>
<path d="M317.752 51V42.2727H318.809V50.0625H322.866V51H317.752ZM331.526 46.6364C331.526 47.5568 331.36 48.3523 331.027 49.0227C330.695 49.6932 330.239 50.2102 329.659 50.5739C329.08 50.9375 328.418 51.1193 327.674 51.1193C326.929 51.1193 326.267 50.9375 325.688 50.5739C325.108 50.2102 324.652 49.6932 324.32 49.0227C323.988 48.3523 323.821 47.5568 323.821 46.6364C323.821 45.7159 323.988 44.9205 324.32 44.25C324.652 43.5795 325.108 43.0625 325.688 42.6989C326.267 42.3352 326.929 42.1534 327.674 42.1534C328.418 42.1534 329.08 42.3352 329.659 42.6989C330.239 43.0625 330.695 43.5795 331.027 44.25C331.36 44.9205 331.526 45.7159 331.526 46.6364ZM330.503 46.6364C330.503 45.8807 330.377 45.2429 330.124 44.723C329.874 44.2031 329.534 43.8097 329.105 43.5426C328.679 43.2756 328.202 43.142 327.674 43.142C327.145 43.142 326.667 43.2756 326.238 43.5426C325.811 43.8097 325.472 44.2031 325.219 44.723C324.969 45.2429 324.844 45.8807 324.844 46.6364C324.844 47.392 324.969 48.0298 325.219 48.5497C325.472 49.0696 325.811 49.4631 326.238 49.7301C326.667 49.9972 327.145 50.1307 327.674 50.1307C328.202 50.1307 328.679 49.9972 329.105 49.7301C329.534 49.4631 329.874 49.0696 330.124 48.5497C330.377 48.0298 330.503 47.392 330.503 46.6364ZM339.269 45C339.175 44.7131 339.051 44.456 338.898 44.2287C338.748 43.9986 338.567 43.8026 338.357 43.6406C338.15 43.4787 337.914 43.3551 337.65 43.2699C337.385 43.1847 337.096 43.142 336.78 43.142C336.263 43.142 335.793 43.2756 335.37 43.5426C334.946 43.8097 334.61 44.2031 334.36 44.723C334.11 45.2429 333.985 45.8807 333.985 46.6364C333.985 47.392 334.111 48.0298 334.364 48.5497C334.617 49.0696 334.959 49.4631 335.391 49.7301C335.823 49.9972 336.309 50.1307 336.848 50.1307C337.348 50.1307 337.789 50.0241 338.169 49.8111C338.553 49.5952 338.851 49.2912 339.064 48.8991C339.28 48.5043 339.388 48.0398 339.388 47.5057L339.712 47.5739H337.087V46.6364H340.411V47.5739C340.411 48.2926 340.257 48.9176 339.951 49.4489C339.647 49.9801 339.226 50.392 338.689 50.6847C338.155 50.9744 337.542 51.1193 336.848 51.1193C336.076 51.1193 335.397 50.9375 334.811 50.5739C334.229 50.2102 333.775 49.6932 333.448 49.0227C333.124 48.3523 332.962 47.5568 332.962 46.6364C332.962 45.946 333.054 45.3253 333.239 44.7741C333.426 44.2202 333.691 43.7486 334.032 43.3594C334.373 42.9702 334.776 42.6719 335.242 42.4645C335.708 42.2571 336.221 42.1534 336.78 42.1534C337.24 42.1534 337.669 42.223 338.067 42.3622C338.468 42.4986 338.824 42.6932 339.137 42.946C339.452 43.196 339.715 43.4957 339.925 43.8452C340.135 44.1918 340.28 44.5767 340.36 45H339.269ZM349.585 46.6364C349.585 47.5568 349.418 48.3523 349.086 49.0227C348.754 49.6932 348.298 50.2102 347.718 50.5739C347.138 50.9375 346.477 51.1193 345.732 51.1193C344.988 51.1193 344.326 50.9375 343.746 50.5739C343.167 50.2102 342.711 49.6932 342.379 49.0227C342.046 48.3523 341.88 47.5568 341.88 46.6364C341.88 45.7159 342.046 44.9205 342.379 44.25C342.711 43.5795 343.167 43.0625 343.746 42.6989C344.326 42.3352 344.988 42.1534 345.732 42.1534C346.477 42.1534 347.138 42.3352 347.718 42.6989C348.298 43.0625 348.754 43.5795 349.086 44.25C349.418 44.9205 349.585 45.7159 349.585 46.6364ZM348.562 46.6364C348.562 45.8807 348.435 45.2429 348.183 44.723C347.933 44.2031 347.593 43.8097 347.164 43.5426C346.738 43.2756 346.261 43.142 345.732 43.142C345.204 43.142 344.725 43.2756 344.296 43.5426C343.87 43.8097 343.531 44.2031 343.278 44.723C343.028 45.2429 342.903 45.8807 342.903 46.6364C342.903 47.392 343.028 48.0298 343.278 48.5497C343.531 49.0696 343.87 49.4631 344.296 49.7301C344.725 49.9972 345.204 50.1307 345.732 50.1307C346.261 50.1307 346.738 49.9972 347.164 49.7301C347.593 49.4631 347.933 49.0696 348.183 48.5497C348.435 48.0298 348.562 47.392 348.562 46.6364Z" fill="white"/>
<path d="M291.057 217.114H292.318L295.284 224.358H295.386L298.352 217.114H299.614V225.841H298.625V219.21H298.54L295.812 225.841H294.858L292.131 219.21H292.045V225.841H291.057V217.114ZM304.341 225.977C303.71 225.977 303.166 225.838 302.708 225.56C302.254 225.279 301.903 224.886 301.656 224.384C301.412 223.878 301.289 223.29 301.289 222.619C301.289 221.949 301.412 221.358 301.656 220.847C301.903 220.332 302.247 219.932 302.687 219.645C303.13 219.355 303.647 219.21 304.238 219.21C304.579 219.21 304.916 219.267 305.248 219.381C305.581 219.494 305.883 219.679 306.156 219.935C306.429 220.188 306.646 220.523 306.808 220.94C306.97 221.358 307.051 221.872 307.051 222.483V222.909H302.005V222.04H306.028C306.028 221.671 305.954 221.341 305.806 221.051C305.662 220.761 305.454 220.533 305.184 220.365C304.917 220.198 304.602 220.114 304.238 220.114C303.838 220.114 303.491 220.213 303.199 220.412C302.909 220.608 302.686 220.864 302.529 221.179C302.373 221.494 302.295 221.832 302.295 222.193V222.773C302.295 223.267 302.38 223.686 302.551 224.03C302.724 224.371 302.964 224.631 303.271 224.81C303.578 224.986 303.934 225.074 304.341 225.074C304.605 225.074 304.843 225.037 305.056 224.963C305.272 224.886 305.458 224.773 305.615 224.622C305.771 224.469 305.892 224.279 305.977 224.051L306.949 224.324C306.846 224.654 306.674 224.943 306.433 225.193C306.191 225.44 305.893 225.634 305.538 225.773C305.183 225.909 304.784 225.977 304.341 225.977ZM309.586 221.904V225.841H308.581V219.296H309.552V220.318H309.637C309.791 219.986 310.024 219.719 310.336 219.517C310.649 219.313 311.052 219.21 311.547 219.21C311.99 219.21 312.377 219.301 312.71 219.483C313.042 219.662 313.301 219.935 313.485 220.301C313.67 220.665 313.762 221.125 313.762 221.682V225.841H312.757V221.75C312.757 221.236 312.623 220.835 312.356 220.548C312.089 220.259 311.723 220.114 311.257 220.114C310.936 220.114 310.649 220.183 310.396 220.323C310.146 220.462 309.949 220.665 309.804 220.932C309.659 221.199 309.586 221.523 309.586 221.904ZM318.447 219.296V220.148H315.055V219.296H318.447ZM316.043 217.727H317.049V223.966C317.049 224.25 317.09 224.463 317.173 224.605C317.258 224.744 317.366 224.838 317.496 224.886C317.63 224.932 317.771 224.955 317.918 224.955C318.029 224.955 318.12 224.949 318.191 224.938C318.262 224.923 318.319 224.912 318.362 224.904L318.566 225.807C318.498 225.832 318.403 225.858 318.281 225.884C318.158 225.912 318.004 225.926 317.816 225.926C317.532 225.926 317.254 225.865 316.981 225.743C316.711 225.621 316.487 225.435 316.308 225.185C316.131 224.935 316.043 224.619 316.043 224.239V217.727ZM319.96 225.841V219.296H320.965V225.841H319.96ZM320.471 218.205C320.275 218.205 320.106 218.138 319.964 218.004C319.825 217.871 319.755 217.71 319.755 217.523C319.755 217.335 319.825 217.175 319.964 217.041C320.106 216.908 320.275 216.841 320.471 216.841C320.667 216.841 320.835 216.908 320.974 217.041C321.116 217.175 321.187 217.335 321.187 217.523C321.187 217.71 321.116 217.871 320.974 218.004C320.835 218.138 320.667 218.205 320.471 218.205ZM325.466 225.977C324.875 225.977 324.357 225.837 323.911 225.555C323.468 225.274 323.121 224.881 322.871 224.375C322.624 223.869 322.5 223.279 322.5 222.602C322.5 221.921 322.624 221.325 322.871 220.817C323.121 220.308 323.468 219.913 323.911 219.632C324.357 219.351 324.875 219.21 325.466 219.21C326.057 219.21 326.574 219.351 327.017 219.632C327.463 219.913 327.81 220.308 328.057 220.817C328.307 221.325 328.432 221.921 328.432 222.602C328.432 223.279 328.307 223.869 328.057 224.375C327.81 224.881 327.463 225.274 327.017 225.555C326.574 225.837 326.057 225.977 325.466 225.977ZM325.466 225.074C325.915 225.074 326.284 224.959 326.574 224.729C326.864 224.499 327.078 224.196 327.218 223.821C327.357 223.446 327.426 223.04 327.426 222.602C327.426 222.165 327.357 221.757 327.218 221.379C327.078 221.002 326.864 220.696 326.574 220.463C326.284 220.23 325.915 220.114 325.466 220.114C325.017 220.114 324.648 220.23 324.358 220.463C324.069 220.696 323.854 221.002 323.715 221.379C323.576 221.757 323.506 222.165 323.506 222.602C323.506 223.04 323.576 223.446 323.715 223.821C323.854 224.196 324.069 224.499 324.358 224.729C324.648 224.959 325.017 225.074 325.466 225.074ZM330.973 221.904V225.841H329.967V219.296H330.939V220.318H331.024C331.178 219.986 331.411 219.719 331.723 219.517C332.036 219.313 332.439 219.21 332.933 219.21C333.376 219.21 333.764 219.301 334.097 219.483C334.429 219.662 334.688 219.935 334.872 220.301C335.057 220.665 335.149 221.125 335.149 221.682V225.841H334.143V221.75C334.143 221.236 334.01 220.835 333.743 220.548C333.476 220.259 333.109 220.114 332.643 220.114C332.322 220.114 332.036 220.183 331.783 220.323C331.533 220.462 331.335 220.665 331.19 220.932C331.045 221.199 330.973 221.523 330.973 221.904ZM341.623 220.761L340.72 221.017C340.663 220.867 340.579 220.72 340.468 220.578C340.36 220.433 340.213 220.314 340.025 220.22C339.838 220.127 339.598 220.08 339.305 220.08C338.904 220.08 338.571 220.172 338.304 220.357C338.039 220.538 337.907 220.77 337.907 221.051C337.907 221.301 337.998 221.499 338.18 221.644C338.362 221.788 338.646 221.909 339.032 222.006L340.004 222.244C340.589 222.386 341.025 222.604 341.312 222.896C341.599 223.186 341.743 223.56 341.743 224.017C341.743 224.392 341.635 224.727 341.419 225.023C341.206 225.318 340.907 225.551 340.524 225.722C340.14 225.892 339.694 225.977 339.186 225.977C338.518 225.977 337.966 225.832 337.528 225.543C337.091 225.253 336.814 224.83 336.697 224.273L337.652 224.034C337.743 224.386 337.914 224.651 338.167 224.827C338.423 225.003 338.757 225.091 339.169 225.091C339.637 225.091 340.01 224.992 340.285 224.793C340.564 224.591 340.703 224.35 340.703 224.068C340.703 223.841 340.623 223.651 340.464 223.497C340.305 223.341 340.061 223.225 339.731 223.148L338.64 222.892C338.041 222.75 337.6 222.53 337.319 222.232C337.041 221.93 336.902 221.554 336.902 221.102C336.902 220.733 337.005 220.406 337.213 220.122C337.423 219.838 337.708 219.615 338.069 219.453C338.433 219.291 338.845 219.21 339.305 219.21C339.953 219.21 340.461 219.352 340.831 219.636C341.203 219.921 341.467 220.296 341.623 220.761ZM347.637 217.114V225.841H346.631V217.114H347.637ZM352.223 225.977C351.593 225.977 351.049 225.838 350.591 225.56C350.137 225.279 349.786 224.886 349.539 224.384C349.294 223.878 349.172 223.29 349.172 222.619C349.172 221.949 349.294 221.358 349.539 220.847C349.786 220.332 350.13 219.932 350.57 219.645C351.013 219.355 351.53 219.21 352.121 219.21C352.462 219.21 352.799 219.267 353.131 219.381C353.463 219.494 353.766 219.679 354.039 219.935C354.311 220.188 354.529 220.523 354.691 220.94C354.853 221.358 354.934 221.872 354.934 222.483V222.909H349.888V222.04H353.911C353.911 221.671 353.837 221.341 353.689 221.051C353.544 220.761 353.337 220.533 353.067 220.365C352.8 220.198 352.485 220.114 352.121 220.114C351.721 220.114 351.374 220.213 351.081 220.412C350.792 220.608 350.569 220.864 350.412 221.179C350.256 221.494 350.178 221.832 350.178 222.193V222.773C350.178 223.267 350.263 223.686 350.434 224.03C350.607 224.371 350.847 224.631 351.154 224.81C351.461 224.986 351.817 225.074 352.223 225.074C352.488 225.074 352.726 225.037 352.939 224.963C353.155 224.886 353.341 224.773 353.498 224.622C353.654 224.469 353.775 224.279 353.86 224.051L354.831 224.324C354.729 224.654 354.557 224.943 354.316 225.193C354.074 225.44 353.776 225.634 353.421 225.773C353.066 225.909 352.667 225.977 352.223 225.977ZM351.61 218.409L352.65 216.432H353.826L352.496 218.409H351.61ZM359.105 228.432C358.62 228.432 358.202 228.369 357.853 228.244C357.503 228.122 357.212 227.96 356.979 227.759C356.749 227.56 356.566 227.347 356.429 227.119L357.23 226.557C357.321 226.676 357.436 226.813 357.576 226.966C357.715 227.122 357.905 227.257 358.147 227.371C358.391 227.487 358.711 227.546 359.105 227.546C359.634 227.546 360.07 227.418 360.414 227.162C360.757 226.906 360.929 226.506 360.929 225.96V224.631H360.844C360.77 224.75 360.665 224.898 360.529 225.074C360.395 225.247 360.202 225.402 359.949 225.538C359.699 225.672 359.361 225.739 358.935 225.739C358.407 225.739 357.932 225.614 357.512 225.364C357.094 225.114 356.763 224.75 356.519 224.273C356.277 223.796 356.157 223.216 356.157 222.534C356.157 221.864 356.275 221.28 356.51 220.783C356.746 220.283 357.074 219.896 357.495 219.624C357.915 219.348 358.401 219.21 358.952 219.21C359.378 219.21 359.716 219.281 359.966 219.423C360.219 219.563 360.412 219.722 360.546 219.901C360.682 220.077 360.787 220.222 360.861 220.335H360.963V219.296H361.935V226.029C361.935 226.591 361.807 227.048 361.551 227.401C361.299 227.756 360.958 228.016 360.529 228.18C360.103 228.348 359.628 228.432 359.105 228.432ZM359.071 224.835C359.475 224.835 359.816 224.743 360.094 224.558C360.373 224.374 360.584 224.108 360.729 223.761C360.874 223.415 360.946 223 360.946 222.517C360.946 222.046 360.875 221.629 360.733 221.269C360.591 220.908 360.381 220.625 360.103 220.421C359.824 220.216 359.48 220.114 359.071 220.114C358.645 220.114 358.29 220.222 358.006 220.438C357.725 220.654 357.513 220.943 357.371 221.307C357.232 221.671 357.162 222.074 357.162 222.517C357.162 222.972 357.233 223.374 357.375 223.723C357.52 224.07 357.733 224.342 358.015 224.541C358.299 224.737 358.651 224.835 359.071 224.835ZM365.702 225.994C365.287 225.994 364.911 225.916 364.573 225.76C364.235 225.601 363.966 225.372 363.767 225.074C363.569 224.773 363.469 224.409 363.469 223.983C363.469 223.608 363.543 223.304 363.691 223.071C363.838 222.835 364.036 222.651 364.283 222.517C364.53 222.384 364.803 222.284 365.101 222.219C365.402 222.151 365.705 222.097 366.009 222.057C366.407 222.006 366.729 221.967 366.976 221.942C367.226 221.913 367.408 221.867 367.522 221.801C367.638 221.736 367.696 221.622 367.696 221.46V221.426C367.696 221.006 367.581 220.679 367.351 220.446C367.124 220.213 366.779 220.097 366.316 220.097C365.836 220.097 365.459 220.202 365.186 220.412C364.914 220.622 364.722 220.847 364.611 221.085L363.657 220.744C363.827 220.347 364.054 220.037 364.338 219.815C364.625 219.591 364.938 219.435 365.276 219.347C365.617 219.256 365.952 219.21 366.282 219.21C366.492 219.21 366.733 219.236 367.006 219.287C367.282 219.335 367.547 219.436 367.803 219.59C368.061 219.743 368.276 219.975 368.446 220.284C368.617 220.594 368.702 221.009 368.702 221.529V225.841H367.696V224.955H367.645C367.577 225.097 367.463 225.249 367.304 225.411C367.145 225.573 366.934 225.71 366.669 225.824C366.405 225.938 366.083 225.994 365.702 225.994ZM365.855 225.091C366.253 225.091 366.588 225.013 366.861 224.857C367.137 224.7 367.344 224.499 367.483 224.252C367.625 224.004 367.696 223.744 367.696 223.472V222.551C367.654 222.602 367.56 222.649 367.415 222.692C367.273 222.732 367.108 222.767 366.921 222.798C366.736 222.827 366.556 222.852 366.38 222.875C366.206 222.895 366.066 222.912 365.958 222.926C365.696 222.96 365.452 223.016 365.225 223.092C365 223.166 364.819 223.279 364.679 223.429C364.543 223.577 364.475 223.779 364.475 224.034C364.475 224.384 364.604 224.648 364.863 224.827C365.124 225.003 365.455 225.091 365.855 225.091ZM371.543 217.114V225.841H370.538V217.114H371.543ZM376.13 225.977C375.499 225.977 374.955 225.838 374.498 225.56C374.043 225.279 373.692 224.886 373.445 224.384C373.201 223.878 373.078 223.29 373.078 222.619C373.078 221.949 373.201 221.358 373.445 220.847C373.692 220.332 374.036 219.932 374.476 219.645C374.919 219.355 375.436 219.21 376.027 219.21C376.368 219.21 376.705 219.267 377.037 219.381C377.37 219.494 377.672 219.679 377.945 219.935C378.218 220.188 378.435 220.523 378.597 220.94C378.759 221.358 378.84 221.872 378.84 222.483V222.909H373.794V222.04H377.817C377.817 221.671 377.743 221.341 377.596 221.051C377.451 220.761 377.243 220.533 376.973 220.365C376.706 220.198 376.391 220.114 376.027 220.114C375.627 220.114 375.28 220.213 374.988 220.412C374.698 220.608 374.475 220.864 374.319 221.179C374.162 221.494 374.084 221.832 374.084 222.193V222.773C374.084 223.267 374.169 223.686 374.34 224.03C374.513 224.371 374.753 224.631 375.06 224.81C375.367 224.986 375.723 225.074 376.13 225.074C376.394 225.074 376.632 225.037 376.846 224.963C377.061 224.886 377.248 224.773 377.404 224.622C377.56 224.469 377.681 224.279 377.766 224.051L378.738 224.324C378.635 224.654 378.463 224.943 378.222 225.193C377.98 225.44 377.682 225.634 377.327 225.773C376.972 225.909 376.573 225.977 376.13 225.977ZM385.006 220.761L384.103 221.017C384.046 220.867 383.962 220.72 383.851 220.578C383.743 220.433 383.596 220.314 383.408 220.22C383.221 220.127 382.98 220.08 382.688 220.08C382.287 220.08 381.953 220.172 381.686 220.357C381.422 220.538 381.29 220.77 381.29 221.051C381.29 221.301 381.381 221.499 381.563 221.644C381.745 221.788 382.029 221.909 382.415 222.006L383.387 222.244C383.972 222.386 384.408 222.604 384.695 222.896C384.982 223.186 385.125 223.56 385.125 224.017C385.125 224.392 385.017 224.727 384.801 225.023C384.588 225.318 384.29 225.551 383.907 225.722C383.523 225.892 383.077 225.977 382.569 225.977C381.901 225.977 381.348 225.832 380.911 225.543C380.473 225.253 380.196 224.83 380.08 224.273L381.034 224.034C381.125 224.386 381.297 224.651 381.55 224.827C381.806 225.003 382.14 225.091 382.551 225.091C383.02 225.091 383.392 224.992 383.668 224.793C383.946 224.591 384.086 224.35 384.086 224.068C384.086 223.841 384.006 223.651 383.847 223.497C383.688 223.341 383.444 223.225 383.114 223.148L382.023 222.892C381.424 222.75 380.983 222.53 380.702 222.232C380.424 221.93 380.284 221.554 380.284 221.102C380.284 220.733 380.388 220.406 380.596 220.122C380.806 219.838 381.091 219.615 381.452 219.453C381.816 219.291 382.228 219.21 382.688 219.21C383.336 219.21 383.844 219.352 384.213 219.636C384.586 219.921 384.85 220.296 385.006 220.761Z" fill="#273B4A"/>
<path d="M24.0795 219.841H23.0227C22.9602 219.537 22.8509 219.27 22.6946 219.04C22.5412 218.81 22.3537 218.617 22.1321 218.46C21.9134 218.301 21.6705 218.182 21.4034 218.102C21.1364 218.023 20.858 217.983 20.5682 217.983C20.0398 217.983 19.5611 218.117 19.1321 218.384C18.706 218.651 18.3665 219.044 18.1136 219.564C17.8636 220.084 17.7386 220.722 17.7386 221.477C17.7386 222.233 17.8636 222.871 18.1136 223.391C18.3665 223.911 18.706 224.304 19.1321 224.571C19.5611 224.838 20.0398 224.972 20.5682 224.972C20.858 224.972 21.1364 224.932 21.4034 224.852C21.6705 224.773 21.9134 224.655 22.1321 224.499C22.3537 224.34 22.5412 224.145 22.6946 223.915C22.8509 223.682 22.9602 223.415 23.0227 223.114H24.0795C24 223.56 23.8551 223.959 23.6449 224.311C23.4347 224.663 23.1733 224.963 22.8608 225.21C22.5483 225.455 22.1974 225.641 21.8082 225.769C21.4219 225.896 21.0085 225.96 20.5682 225.96C19.8239 225.96 19.1619 225.779 18.5824 225.415C18.0028 225.051 17.5469 224.534 17.2145 223.864C16.8821 223.193 16.7159 222.398 16.7159 221.477C16.7159 220.557 16.8821 219.761 17.2145 219.091C17.5469 218.421 18.0028 217.904 18.5824 217.54C19.1619 217.176 19.8239 216.994 20.5682 216.994C21.0085 216.994 21.4219 217.058 21.8082 217.186C22.1974 217.314 22.5483 217.502 22.8608 217.749C23.1733 217.993 23.4347 218.291 23.6449 218.644C23.8551 218.993 24 219.392 24.0795 219.841ZM28.31 225.977C27.7191 225.977 27.2006 225.837 26.7546 225.555C26.3114 225.274 25.9648 224.881 25.7148 224.375C25.4677 223.869 25.3441 223.279 25.3441 222.602C25.3441 221.921 25.4677 221.325 25.7148 220.817C25.9648 220.308 26.3114 219.913 26.7546 219.632C27.2006 219.351 27.7191 219.21 28.31 219.21C28.9009 219.21 29.418 219.351 29.8612 219.632C30.3072 219.913 30.6538 220.308 30.9009 220.817C31.1509 221.325 31.2759 221.921 31.2759 222.602C31.2759 223.279 31.1509 223.869 30.9009 224.375C30.6538 224.881 30.3072 225.274 29.8612 225.555C29.418 225.837 28.9009 225.977 28.31 225.977ZM28.31 225.074C28.7589 225.074 29.1282 224.959 29.418 224.729C29.7077 224.499 29.9222 224.196 30.0614 223.821C30.2006 223.446 30.2702 223.04 30.2702 222.602C30.2702 222.165 30.2006 221.757 30.0614 221.379C29.9222 221.002 29.7077 220.696 29.418 220.463C29.1282 220.23 28.7589 220.114 28.31 220.114C27.8612 220.114 27.4918 220.23 27.2021 220.463C26.9123 220.696 26.6978 221.002 26.5586 221.379C26.4194 221.757 26.3498 222.165 26.3498 222.602C26.3498 223.04 26.4194 223.446 26.5586 223.821C26.6978 224.196 26.9123 224.499 27.2021 224.729C27.4918 224.959 27.8612 225.074 28.31 225.074ZM32.8111 228.296V219.296H33.7827V220.335H33.902C33.9759 220.222 34.0781 220.077 34.2088 219.901C34.3423 219.722 34.5327 219.563 34.7798 219.423C35.0298 219.281 35.3679 219.21 35.794 219.21C36.3452 219.21 36.831 219.348 37.2514 219.624C37.6719 219.899 38 220.29 38.2358 220.796C38.4716 221.301 38.5895 221.898 38.5895 222.585C38.5895 223.279 38.4716 223.879 38.2358 224.388C38 224.894 37.6733 225.286 37.2557 225.564C36.8381 225.84 36.3565 225.977 35.8111 225.977C35.3906 225.977 35.054 225.908 34.8011 225.769C34.5483 225.627 34.3537 225.466 34.2173 225.287C34.081 225.105 33.9759 224.955 33.902 224.835H33.8168V228.296H32.8111ZM33.7997 222.568C33.7997 223.063 33.8722 223.499 34.017 223.877C34.1619 224.252 34.3736 224.546 34.652 224.759C34.9304 224.969 35.2713 225.074 35.6747 225.074C36.0952 225.074 36.446 224.963 36.7273 224.742C37.0114 224.517 37.2244 224.216 37.3665 223.838C37.5114 223.457 37.5838 223.034 37.5838 222.568C37.5838 222.108 37.5128 221.693 37.3707 221.324C37.2315 220.952 37.0199 220.658 36.7358 220.442C36.4545 220.223 36.1009 220.114 35.6747 220.114C35.2656 220.114 34.9219 220.217 34.6435 220.425C34.3651 220.629 34.1548 220.916 34.0128 221.286C33.8707 221.652 33.7997 222.08 33.7997 222.568ZM40.5369 228.296C40.3665 228.296 40.2145 228.281 40.081 228.253C39.9474 228.227 39.8551 228.202 39.804 228.176L40.0597 227.29C40.304 227.352 40.5199 227.375 40.7074 227.358C40.8949 227.341 41.0611 227.257 41.206 227.107C41.3537 226.959 41.4886 226.719 41.6108 226.386L41.7983 225.875L39.3778 219.296H40.4688L42.2756 224.511H42.3438L44.1506 219.296H45.2415L42.4631 226.796C42.3381 227.134 42.1832 227.413 41.9986 227.635C41.8139 227.859 41.5994 228.026 41.3551 228.134C41.1136 228.242 40.8409 228.296 40.5369 228.296ZM46.5689 225.841V219.296H47.5405V220.284H47.6087C47.728 219.96 47.9439 219.698 48.2564 219.496C48.5689 219.294 48.9212 219.193 49.3132 219.193C49.3871 219.193 49.4794 219.195 49.5902 219.198C49.701 219.2 49.7848 219.205 49.8416 219.21V220.233C49.8075 220.225 49.7294 220.212 49.6072 220.195C49.4879 220.175 49.3615 220.165 49.228 220.165C48.9098 220.165 48.6257 220.232 48.3757 220.365C48.1286 220.496 47.9325 220.678 47.7876 220.911C47.6456 221.141 47.5746 221.404 47.5746 221.699V225.841H46.5689ZM51.0337 225.841V219.296H52.0394V225.841H51.0337ZM51.5451 218.205C51.3491 218.205 51.18 218.138 51.038 218.004C50.8988 217.871 50.8292 217.71 50.8292 217.523C50.8292 217.335 50.8988 217.175 51.038 217.041C51.18 216.908 51.3491 216.841 51.5451 216.841C51.7411 216.841 51.9087 216.908 52.0479 217.041C52.19 217.175 52.261 217.335 52.261 217.523C52.261 217.71 52.19 217.871 52.0479 218.004C51.9087 218.138 51.7411 218.205 51.5451 218.205ZM56.5234 228.432C56.0376 228.432 55.62 228.369 55.2706 228.244C54.9212 228.122 54.63 227.96 54.397 227.759C54.1669 227.56 53.9837 227.347 53.8473 227.119L54.6484 226.557C54.7393 226.676 54.8544 226.813 54.9936 226.966C55.1328 227.122 55.3232 227.257 55.5646 227.371C55.8089 227.487 56.1286 227.546 56.5234 227.546C57.0518 227.546 57.4879 227.418 57.8317 227.162C58.1754 226.906 58.3473 226.506 58.3473 225.96V224.631H58.2621C58.1882 224.75 58.0831 224.898 57.9467 225.074C57.8132 225.247 57.62 225.402 57.3672 225.538C57.1172 225.672 56.7791 225.739 56.353 225.739C55.8246 225.739 55.3501 225.614 54.9297 225.364C54.5121 225.114 54.1811 224.75 53.9368 224.273C53.6953 223.796 53.5746 223.216 53.5746 222.534C53.5746 221.864 53.6925 221.28 53.9283 220.783C54.1641 220.283 54.4922 219.896 54.9126 219.624C55.3331 219.348 55.8189 219.21 56.37 219.21C56.7962 219.21 57.1342 219.281 57.3842 219.423C57.6371 219.563 57.8303 219.722 57.9638 219.901C58.1001 220.077 58.2053 220.222 58.2791 220.335H58.3814V219.296H59.353V226.029C59.353 226.591 59.2251 227.048 58.9695 227.401C58.7166 227.756 58.3757 228.016 57.9467 228.18C57.5206 228.348 57.0462 228.432 56.5234 228.432ZM56.4893 224.835C56.8928 224.835 57.2337 224.743 57.5121 224.558C57.7905 224.374 58.0021 224.108 58.147 223.761C58.2919 223.415 58.3643 223 58.3643 222.517C58.3643 222.046 58.2933 221.629 58.1513 221.269C58.0092 220.908 57.799 220.625 57.5206 220.421C57.2422 220.216 56.8984 220.114 56.4893 220.114C56.0632 220.114 55.7081 220.222 55.424 220.438C55.1428 220.654 54.9311 220.943 54.7891 221.307C54.6499 221.671 54.5803 222.074 54.5803 222.517C54.5803 222.972 54.6513 223.374 54.7933 223.723C54.9382 224.07 55.1513 224.342 55.4325 224.541C55.7166 224.737 56.0689 224.835 56.4893 224.835ZM62.1996 221.904V225.841H61.1939V217.114H62.1996V220.318H62.2848C62.4382 219.98 62.6683 219.712 62.9751 219.513C63.2848 219.311 63.6967 219.21 64.2109 219.21C64.657 219.21 65.0476 219.3 65.3828 219.479C65.718 219.655 65.978 219.926 66.1626 220.293C66.3501 220.656 66.4439 221.119 66.4439 221.682V225.841H65.4382V221.75C65.4382 221.23 65.3033 220.828 65.0334 220.544C64.7663 220.257 64.3956 220.114 63.9212 220.114C63.5916 220.114 63.2962 220.183 63.0348 220.323C62.7763 220.462 62.5717 220.665 62.4212 220.932C62.2734 221.199 62.1996 221.523 62.1996 221.904ZM71.1303 219.296V220.148H67.7383V219.296H71.1303ZM68.7269 217.727H69.7326V223.966C69.7326 224.25 69.7738 224.463 69.8562 224.605C69.9414 224.744 70.0494 224.838 70.18 224.886C70.3136 224.932 70.4542 224.955 70.6019 224.955C70.7127 224.955 70.8036 224.949 70.8746 224.938C70.9457 224.923 71.0025 224.912 71.0451 224.904L71.2496 225.807C71.1815 225.832 71.0863 225.858 70.9641 225.884C70.842 225.912 70.6871 225.926 70.4996 225.926C70.2156 225.926 69.9371 225.865 69.6644 225.743C69.3945 225.621 69.1701 225.435 68.9911 225.185C68.815 224.935 68.7269 224.619 68.7269 224.239V217.727ZM76.0011 225.841V225.074L78.8817 221.921C79.2198 221.551 79.4982 221.23 79.717 220.957C79.9357 220.682 80.0977 220.423 80.2028 220.182C80.3107 219.938 80.3647 219.682 80.3647 219.415C80.3647 219.108 80.2908 218.842 80.1431 218.618C79.9982 218.394 79.7994 218.22 79.5465 218.098C79.2937 217.976 79.0096 217.915 78.6942 217.915C78.359 217.915 78.0664 217.984 77.8164 218.124C77.5692 218.26 77.3775 218.452 77.2411 218.699C77.1076 218.946 77.0408 219.236 77.0408 219.568H76.0352C76.0352 219.057 76.1531 218.608 76.3888 218.222C76.6246 217.835 76.9457 217.534 77.3519 217.318C77.761 217.102 78.2198 216.994 78.7283 216.994C79.2397 216.994 79.6928 217.102 80.0877 217.318C80.4826 217.534 80.7923 217.825 81.0167 218.192C81.2411 218.558 81.3533 218.966 81.3533 219.415C81.3533 219.736 81.2951 220.05 81.1786 220.357C81.065 220.661 80.8661 221 80.582 221.375C80.3008 221.747 79.9102 222.202 79.4102 222.739L77.4499 224.835V224.904H81.5067V225.841H76.0011ZM86.1133 225.96C85.4712 225.96 84.9244 225.786 84.4727 225.436C84.021 225.084 83.6758 224.574 83.4371 223.906C83.1985 223.236 83.0792 222.426 83.0792 221.477C83.0792 220.534 83.1985 219.729 83.4371 219.061C83.6786 218.391 84.0252 217.879 84.4769 217.527C84.9315 217.172 85.4769 216.994 86.1133 216.994C86.7496 216.994 87.2937 217.172 87.7454 217.527C88.1999 217.879 88.5465 218.391 88.7852 219.061C89.0266 219.729 89.1474 220.534 89.1474 221.477C89.1474 222.426 89.0281 223.236 88.7894 223.906C88.5508 224.574 88.2056 225.084 87.7539 225.436C87.3022 225.786 86.7553 225.96 86.1133 225.96ZM86.1133 225.023C86.7496 225.023 87.244 224.716 87.5962 224.102C87.9485 223.489 88.1246 222.614 88.1246 221.477C88.1246 220.722 88.0437 220.078 87.8817 219.547C87.7227 219.016 87.4925 218.611 87.1914 218.332C86.8931 218.054 86.5337 217.915 86.1133 217.915C85.4826 217.915 84.9897 218.226 84.6346 218.848C84.2795 219.467 84.1019 220.344 84.1019 221.477C84.1019 222.233 84.1815 222.875 84.3406 223.404C84.4996 223.932 84.7283 224.334 85.0266 224.609C85.3278 224.885 85.69 225.023 86.1133 225.023ZM90.7667 225.841V225.074L93.6474 221.921C93.9854 221.551 94.2638 221.23 94.4826 220.957C94.7013 220.682 94.8633 220.423 94.9684 220.182C95.0763 219.938 95.1303 219.682 95.1303 219.415C95.1303 219.108 95.0565 218.842 94.9087 218.618C94.7638 218.394 94.565 218.22 94.3121 218.098C94.0593 217.976 93.7752 217.915 93.4599 217.915C93.1246 217.915 92.832 217.984 92.582 218.124C92.3349 218.26 92.1431 218.452 92.0067 218.699C91.8732 218.946 91.8065 219.236 91.8065 219.568H90.8008C90.8008 219.057 90.9187 218.608 91.1545 218.222C91.3903 217.835 91.7113 217.534 92.1175 217.318C92.5266 217.102 92.9854 216.994 93.494 216.994C94.0053 216.994 94.4585 217.102 94.8533 217.318C95.2482 217.534 95.5579 217.825 95.7823 218.192C96.0067 218.558 96.119 218.966 96.119 219.415C96.119 219.736 96.0607 220.05 95.9442 220.357C95.8306 220.661 95.6317 221 95.3477 221.375C95.0664 221.747 94.6758 222.202 94.1758 222.739L92.2156 224.835V224.904H96.2724V225.841H90.7667ZM100.981 225.96C100.419 225.96 99.9173 225.864 99.4769 225.671C99.0394 225.477 98.6914 225.209 98.4329 224.865C98.1772 224.519 98.038 224.117 98.0153 223.659H99.0891C99.1119 223.94 99.2085 224.183 99.3789 224.388C99.5494 224.59 99.7724 224.746 100.048 224.857C100.324 224.967 100.629 225.023 100.964 225.023C101.339 225.023 101.672 224.957 101.961 224.827C102.251 224.696 102.478 224.514 102.643 224.281C102.808 224.048 102.89 223.779 102.89 223.472C102.89 223.151 102.811 222.868 102.652 222.624C102.493 222.377 102.26 222.183 101.953 222.044C101.646 221.905 101.271 221.835 100.828 221.835H100.129V220.898H100.828C101.174 220.898 101.478 220.835 101.74 220.71C102.004 220.585 102.21 220.409 102.358 220.182C102.508 219.955 102.583 219.688 102.583 219.381C102.583 219.085 102.518 218.828 102.387 218.609C102.257 218.391 102.072 218.22 101.833 218.098C101.598 217.976 101.319 217.915 100.998 217.915C100.697 217.915 100.413 217.97 100.146 218.081C99.8817 218.189 99.6658 218.347 99.4982 218.554C99.3306 218.759 99.2397 219.006 99.2255 219.296H98.2028C98.2198 218.838 98.3576 218.438 98.6161 218.094C98.8746 217.747 99.2127 217.477 99.6303 217.284C100.051 217.091 100.512 216.994 101.015 216.994C101.555 216.994 102.018 217.104 102.404 217.323C102.791 217.538 103.088 217.824 103.295 218.179C103.502 218.534 103.606 218.918 103.606 219.33C103.606 219.821 103.477 220.24 103.218 220.587C102.963 220.933 102.615 221.173 102.174 221.307V221.375C102.725 221.466 103.156 221.7 103.466 222.078C103.775 222.453 103.93 222.918 103.93 223.472C103.93 223.946 103.801 224.372 103.542 224.75C103.287 225.125 102.937 225.421 102.494 225.636C102.051 225.852 101.547 225.96 100.981 225.96Z" fill="#273B4A"/>
<path d="M518.557 220.761L517.653 221.017C517.597 220.867 517.513 220.72 517.402 220.578C517.294 220.433 517.146 220.314 516.959 220.22C516.771 220.127 516.531 220.08 516.239 220.08C515.838 220.08 515.504 220.172 515.237 220.357C514.973 220.538 514.841 220.77 514.841 221.051C514.841 221.301 514.932 221.499 515.114 221.644C515.295 221.788 515.58 221.909 515.966 222.006L516.938 222.244C517.523 222.386 517.959 222.604 518.246 222.896C518.533 223.186 518.676 223.56 518.676 224.017C518.676 224.392 518.568 224.727 518.352 225.023C518.139 225.318 517.841 225.551 517.457 225.722C517.074 225.892 516.628 225.977 516.119 225.977C515.452 225.977 514.899 225.832 514.462 225.543C514.024 225.253 513.747 224.83 513.631 224.273L514.585 224.034C514.676 224.386 514.848 224.651 515.101 224.827C515.357 225.003 515.69 225.091 516.102 225.091C516.571 225.091 516.943 224.992 517.219 224.793C517.497 224.591 517.636 224.35 517.636 224.068C517.636 223.841 517.557 223.651 517.398 223.497C517.239 223.341 516.994 223.225 516.665 223.148L515.574 222.892C514.974 222.75 514.534 222.53 514.253 222.232C513.974 221.93 513.835 221.554 513.835 221.102C513.835 220.733 513.939 220.406 514.146 220.122C514.357 219.838 514.642 219.615 515.003 219.453C515.366 219.291 515.778 219.21 516.239 219.21C516.886 219.21 517.395 219.352 517.764 219.636C518.136 219.921 518.401 220.296 518.557 220.761ZM520.19 225.841V219.296H521.196V225.841H520.19ZM520.701 218.205C520.505 218.205 520.336 218.138 520.194 218.004C520.055 217.871 519.985 217.71 519.985 217.523C519.985 217.335 520.055 217.175 520.194 217.041C520.336 216.908 520.505 216.841 520.701 216.841C520.897 216.841 521.065 216.908 521.204 217.041C521.346 217.175 521.417 217.335 521.417 217.523C521.417 217.71 521.346 217.871 521.204 218.004C521.065 218.138 520.897 218.205 520.701 218.205ZM525.884 219.296V220.148H522.492V219.296H525.884ZM523.481 217.727H524.487V223.966C524.487 224.25 524.528 224.463 524.61 224.605C524.695 224.744 524.803 224.838 524.934 224.886C525.067 224.932 525.208 224.955 525.356 224.955C525.467 224.955 525.558 224.949 525.629 224.938C525.7 224.923 525.756 224.912 525.799 224.904L526.004 225.807C525.935 225.832 525.84 225.858 525.718 225.884C525.596 225.912 525.441 225.926 525.254 225.926C524.969 225.926 524.691 225.865 524.418 225.743C524.148 225.621 523.924 225.435 523.745 225.185C523.569 224.935 523.481 224.619 523.481 224.239V217.727ZM530.071 225.977C529.44 225.977 528.896 225.838 528.439 225.56C527.984 225.279 527.634 224.886 527.386 224.384C527.142 223.878 527.02 223.29 527.02 222.619C527.02 221.949 527.142 221.358 527.386 220.847C527.634 220.332 527.977 219.932 528.418 219.645C528.861 219.355 529.378 219.21 529.969 219.21C530.31 219.21 530.646 219.267 530.979 219.381C531.311 219.494 531.614 219.679 531.886 219.935C532.159 220.188 532.376 220.523 532.538 220.94C532.7 221.358 532.781 221.872 532.781 222.483V222.909H527.736V222.04H531.759C531.759 221.671 531.685 221.341 531.537 221.051C531.392 220.761 531.185 220.533 530.915 220.365C530.648 220.198 530.332 220.114 529.969 220.114C529.568 220.114 529.222 220.213 528.929 220.412C528.639 220.608 528.416 220.864 528.26 221.179C528.104 221.494 528.026 221.832 528.026 222.193V222.773C528.026 223.267 528.111 223.686 528.281 224.03C528.455 224.371 528.695 224.631 529.001 224.81C529.308 224.986 529.665 225.074 530.071 225.074C530.335 225.074 530.574 225.037 530.787 224.963C531.003 224.886 531.189 224.773 531.345 224.622C531.501 224.469 531.622 224.279 531.707 224.051L532.679 224.324C532.577 224.654 532.405 224.943 532.163 225.193C531.922 225.44 531.624 225.634 531.268 225.773C530.913 225.909 530.514 225.977 530.071 225.977ZM537.686 225.841V219.296H538.658V220.284H538.726C538.845 219.96 539.061 219.698 539.374 219.496C539.686 219.294 540.038 219.193 540.43 219.193C540.504 219.193 540.597 219.195 540.707 219.198C540.818 219.2 540.902 219.205 540.959 219.21V220.233C540.925 220.225 540.847 220.212 540.724 220.195C540.605 220.175 540.479 220.165 540.345 220.165C540.027 220.165 539.743 220.232 539.493 220.365C539.246 220.496 539.05 220.678 538.905 220.911C538.763 221.141 538.692 221.404 538.692 221.699V225.841H537.686ZM544.696 225.977C544.065 225.977 543.521 225.838 543.064 225.56C542.609 225.279 542.259 224.886 542.011 224.384C541.767 223.878 541.645 223.29 541.645 222.619C541.645 221.949 541.767 221.358 542.011 220.847C542.259 220.332 542.602 219.932 543.043 219.645C543.486 219.355 544.003 219.21 544.594 219.21C544.935 219.21 545.271 219.267 545.604 219.381C545.936 219.494 546.239 219.679 546.511 219.935C546.784 220.188 547.001 220.523 547.163 220.94C547.325 221.358 547.406 221.872 547.406 222.483V222.909H542.361V222.04H546.384C546.384 221.671 546.31 221.341 546.162 221.051C546.017 220.761 545.81 220.533 545.54 220.365C545.273 220.198 544.957 220.114 544.594 220.114C544.193 220.114 543.847 220.213 543.554 220.412C543.264 220.608 543.041 220.864 542.885 221.179C542.729 221.494 542.651 221.832 542.651 222.193V222.773C542.651 223.267 542.736 223.686 542.906 224.03C543.08 224.371 543.32 224.631 543.626 224.81C543.933 224.986 544.29 225.074 544.696 225.074C544.96 225.074 545.199 225.037 545.412 224.963C545.628 224.886 545.814 224.773 545.97 224.622C546.126 224.469 546.247 224.279 546.332 224.051L547.304 224.324C547.202 224.654 547.03 224.943 546.788 225.193C546.547 225.44 546.249 225.634 545.893 225.773C545.538 225.909 545.139 225.977 544.696 225.977ZM544.082 218.409L545.122 216.432H546.298L544.969 218.409H544.082ZM550.862 225.994C550.447 225.994 550.071 225.916 549.733 225.76C549.395 225.601 549.126 225.372 548.928 225.074C548.729 224.773 548.629 224.409 548.629 223.983C548.629 223.608 548.703 223.304 548.851 223.071C548.999 222.835 549.196 222.651 549.443 222.517C549.69 222.384 549.963 222.284 550.261 222.219C550.563 222.151 550.865 222.097 551.169 222.057C551.567 222.006 551.889 221.967 552.136 221.942C552.386 221.913 552.568 221.867 552.682 221.801C552.798 221.736 552.857 221.622 552.857 221.46V221.426C552.857 221.006 552.741 220.679 552.511 220.446C552.284 220.213 551.939 220.097 551.476 220.097C550.996 220.097 550.619 220.202 550.347 220.412C550.074 220.622 549.882 220.847 549.771 221.085L548.817 220.744C548.987 220.347 549.214 220.037 549.499 219.815C549.786 219.591 550.098 219.435 550.436 219.347C550.777 219.256 551.112 219.21 551.442 219.21C551.652 219.21 551.893 219.236 552.166 219.287C552.442 219.335 552.707 219.436 552.963 219.59C553.222 219.743 553.436 219.975 553.607 220.284C553.777 220.594 553.862 221.009 553.862 221.529V225.841H552.857V224.955H552.805C552.737 225.097 552.624 225.249 552.464 225.411C552.305 225.573 552.094 225.71 551.83 225.824C551.565 225.938 551.243 225.994 550.862 225.994ZM551.016 225.091C551.413 225.091 551.749 225.013 552.021 224.857C552.297 224.7 552.504 224.499 552.643 224.252C552.786 224.004 552.857 223.744 552.857 223.472V222.551C552.814 222.602 552.72 222.649 552.575 222.692C552.433 222.732 552.268 222.767 552.081 222.798C551.896 222.827 551.716 222.852 551.54 222.875C551.366 222.895 551.226 222.912 551.118 222.926C550.857 222.96 550.612 223.016 550.385 223.092C550.161 223.166 549.979 223.279 549.839 223.429C549.703 223.577 549.635 223.779 549.635 224.034C549.635 224.384 549.764 224.648 550.023 224.827C550.284 225.003 550.615 225.091 551.016 225.091ZM556.703 217.114V225.841H555.698V217.114H556.703ZM558.545 225.841V219.296H559.551V225.841H558.545ZM559.057 218.205C558.861 218.205 558.692 218.138 558.55 218.004C558.411 217.871 558.341 217.71 558.341 217.523C558.341 217.335 558.411 217.175 558.55 217.041C558.692 216.908 558.861 216.841 559.057 216.841C559.253 216.841 559.42 216.908 559.56 217.041C559.702 217.175 559.773 217.335 559.773 217.523C559.773 217.71 559.702 217.871 559.56 218.004C559.42 218.138 559.253 218.205 559.057 218.205ZM566.029 220.761L565.126 221.017C565.069 220.867 564.985 220.72 564.875 220.578C564.767 220.433 564.619 220.314 564.431 220.22C564.244 220.127 564.004 220.08 563.711 220.08C563.311 220.08 562.977 220.172 562.71 220.357C562.446 220.538 562.314 220.77 562.314 221.051C562.314 221.301 562.404 221.499 562.586 221.644C562.768 221.788 563.052 221.909 563.439 222.006L564.41 222.244C564.995 222.386 565.431 222.604 565.718 222.896C566.005 223.186 566.149 223.56 566.149 224.017C566.149 224.392 566.041 224.727 565.825 225.023C565.612 225.318 565.314 225.551 564.93 225.722C564.547 225.892 564.1 225.977 563.592 225.977C562.924 225.977 562.372 225.832 561.934 225.543C561.497 225.253 561.22 224.83 561.103 224.273L562.058 224.034C562.149 224.386 562.321 224.651 562.574 224.827C562.829 225.003 563.163 225.091 563.575 225.091C564.044 225.091 564.416 224.992 564.691 224.793C564.97 224.591 565.109 224.35 565.109 224.068C565.109 223.841 565.029 223.651 564.87 223.497C564.711 223.341 564.467 223.225 564.137 223.148L563.047 222.892C562.447 222.75 562.007 222.53 561.725 222.232C561.447 221.93 561.308 221.554 561.308 221.102C561.308 220.733 561.412 220.406 561.619 220.122C561.829 219.838 562.115 219.615 562.475 219.453C562.839 219.291 563.251 219.21 563.711 219.21C564.359 219.21 564.868 219.352 565.237 219.636C565.609 219.921 565.873 220.296 566.029 220.761ZM570.407 225.977C569.776 225.977 569.232 225.838 568.775 225.56C568.32 225.279 567.969 224.886 567.722 224.384C567.478 223.878 567.356 223.29 567.356 222.619C567.356 221.949 567.478 221.358 567.722 220.847C567.969 220.332 568.313 219.932 568.754 219.645C569.197 219.355 569.714 219.21 570.305 219.21C570.646 219.21 570.982 219.267 571.315 219.381C571.647 219.494 571.95 219.679 572.222 219.935C572.495 220.188 572.712 220.523 572.874 220.94C573.036 221.358 573.117 221.872 573.117 222.483V222.909H568.072V222.04H572.094C572.094 221.671 572.021 221.341 571.873 221.051C571.728 220.761 571.521 220.533 571.251 220.365C570.984 220.198 570.668 220.114 570.305 220.114C569.904 220.114 569.558 220.213 569.265 220.412C568.975 220.608 568.752 220.864 568.596 221.179C568.44 221.494 568.362 221.832 568.362 222.193V222.773C568.362 223.267 568.447 223.686 568.617 224.03C568.79 224.371 569.031 224.631 569.337 224.81C569.644 224.986 570.001 225.074 570.407 225.074C570.671 225.074 570.91 225.037 571.123 224.963C571.339 224.886 571.525 224.773 571.681 224.622C571.837 224.469 571.958 224.279 572.043 224.051L573.015 224.324C572.913 224.654 572.741 224.943 572.499 225.193C572.258 225.44 571.96 225.634 571.604 225.773C571.249 225.909 570.85 225.977 570.407 225.977ZM569.793 218.409L570.833 216.432H572.009L570.68 218.409H569.793ZM578.022 228.296V219.296H578.994V220.335H579.113C579.187 220.222 579.289 220.077 579.42 219.901C579.553 219.722 579.744 219.563 579.991 219.423C580.241 219.281 580.579 219.21 581.005 219.21C581.556 219.21 582.042 219.348 582.462 219.624C582.883 219.899 583.211 220.29 583.447 220.796C583.683 221.301 583.8 221.898 583.8 222.585C583.8 223.279 583.683 223.879 583.447 224.388C583.211 224.894 582.884 225.286 582.467 225.564C582.049 225.84 581.567 225.977 581.022 225.977C580.602 225.977 580.265 225.908 580.012 225.769C579.759 225.627 579.565 225.466 579.428 225.287C579.292 225.105 579.187 224.955 579.113 224.835H579.028V228.296H578.022ZM579.011 222.568C579.011 223.063 579.083 223.499 579.228 223.877C579.373 224.252 579.585 224.546 579.863 224.759C580.141 224.969 580.482 225.074 580.886 225.074C581.306 225.074 581.657 224.963 581.938 224.742C582.222 224.517 582.435 224.216 582.577 223.838C582.722 223.457 582.795 223.034 582.795 222.568C582.795 222.108 582.724 221.693 582.582 221.324C582.442 220.952 582.231 220.658 581.947 220.442C581.665 220.223 581.312 220.114 580.886 220.114C580.477 220.114 580.133 220.217 579.854 220.425C579.576 220.629 579.366 220.916 579.224 221.286C579.082 221.652 579.011 222.08 579.011 222.568ZM587.261 225.994C586.846 225.994 586.469 225.916 586.131 225.76C585.793 225.601 585.525 225.372 585.326 225.074C585.127 224.773 585.028 224.409 585.028 223.983C585.028 223.608 585.102 223.304 585.249 223.071C585.397 222.835 585.594 222.651 585.842 222.517C586.089 222.384 586.362 222.284 586.66 222.219C586.961 222.151 587.263 222.097 587.567 222.057C587.965 222.006 588.288 221.967 588.535 221.942C588.785 221.913 588.967 221.867 589.08 221.801C589.197 221.736 589.255 221.622 589.255 221.46V221.426C589.255 221.006 589.14 220.679 588.91 220.446C588.683 220.213 588.337 220.097 587.874 220.097C587.394 220.097 587.018 220.202 586.745 220.412C586.472 220.622 586.281 220.847 586.17 221.085L585.215 220.744C585.386 220.347 585.613 220.037 585.897 219.815C586.184 219.591 586.496 219.435 586.835 219.347C587.175 219.256 587.511 219.21 587.84 219.21C588.05 219.21 588.292 219.236 588.565 219.287C588.84 219.335 589.106 219.436 589.362 219.59C589.62 219.743 589.835 219.975 590.005 220.284C590.175 220.594 590.261 221.009 590.261 221.529V225.841H589.255V224.955H589.204C589.136 225.097 589.022 225.249 588.863 225.411C588.704 225.573 588.492 225.71 588.228 225.824C587.964 225.938 587.641 225.994 587.261 225.994ZM587.414 225.091C587.812 225.091 588.147 225.013 588.42 224.857C588.695 224.7 588.903 224.499 589.042 224.252C589.184 224.004 589.255 223.744 589.255 223.472V222.551C589.212 222.602 589.119 222.649 588.974 222.692C588.832 222.732 588.667 222.767 588.479 222.798C588.295 222.827 588.114 222.852 587.938 222.875C587.765 222.895 587.624 222.912 587.516 222.926C587.255 222.96 587.011 223.016 586.783 223.092C586.559 223.166 586.377 223.279 586.238 223.429C586.102 223.577 586.033 223.779 586.033 224.034C586.033 224.384 586.163 224.648 586.421 224.827C586.683 225.003 587.013 225.091 587.414 225.091ZM592.096 225.841V219.296H593.068V220.284H593.136C593.255 219.96 593.471 219.698 593.784 219.496C594.096 219.294 594.449 219.193 594.841 219.193C594.914 219.193 595.007 219.195 595.118 219.198C595.228 219.2 595.312 219.205 595.369 219.21V220.233C595.335 220.225 595.257 220.212 595.135 220.195C595.015 220.175 594.889 220.165 594.755 220.165C594.437 220.165 594.153 220.232 593.903 220.365C593.656 220.496 593.46 220.678 593.315 220.911C593.173 221.141 593.102 221.404 593.102 221.699V225.841H592.096ZM600.072 217.114H601.334L604.3 224.358H604.402L607.368 217.114H608.629V225.841H607.641V219.21H607.555L604.828 225.841H603.874L601.146 219.21H601.061V225.841H600.072V217.114ZM615.521 219.296C615.47 218.864 615.262 218.529 614.899 218.29C614.535 218.051 614.089 217.932 613.561 217.932C613.174 217.932 612.836 217.994 612.547 218.119C612.26 218.244 612.035 218.416 611.873 218.635C611.714 218.854 611.635 219.102 611.635 219.381C611.635 219.614 611.69 219.814 611.801 219.982C611.914 220.146 612.059 220.284 612.235 220.395C612.412 220.503 612.596 220.592 612.789 220.663C612.983 220.732 613.16 220.787 613.322 220.83L614.208 221.068C614.436 221.128 614.689 221.21 614.967 221.315C615.248 221.421 615.517 221.564 615.772 221.746C616.031 221.925 616.244 222.155 616.412 222.436C616.579 222.717 616.663 223.063 616.663 223.472C616.663 223.943 616.539 224.369 616.292 224.75C616.048 225.131 615.69 225.433 615.218 225.658C614.75 225.882 614.18 225.994 613.51 225.994C612.885 225.994 612.343 225.894 611.886 225.692C611.431 225.49 611.074 225.209 610.812 224.848C610.554 224.487 610.407 224.068 610.373 223.591H611.464C611.493 223.921 611.603 224.193 611.797 224.409C611.993 224.622 612.24 224.781 612.538 224.886C612.839 224.989 613.163 225.04 613.51 225.04C613.913 225.04 614.275 224.975 614.596 224.844C614.917 224.71 615.172 224.526 615.359 224.29C615.547 224.051 615.64 223.773 615.64 223.455C615.64 223.165 615.559 222.929 615.397 222.747C615.235 222.565 615.022 222.418 614.758 222.304C614.494 222.19 614.208 222.091 613.902 222.006L612.828 221.699C612.146 221.503 611.606 221.223 611.208 220.859C610.811 220.496 610.612 220.02 610.612 219.432C610.612 218.943 610.744 218.517 611.008 218.154C611.275 217.787 611.633 217.503 612.082 217.301C612.534 217.097 613.038 216.994 613.595 216.994C614.157 216.994 614.657 217.095 615.095 217.297C615.532 217.496 615.879 217.769 616.135 218.115C616.393 218.462 616.529 218.855 616.544 219.296H615.521ZM625.423 219.841H624.366C624.304 219.537 624.195 219.27 624.038 219.04C623.885 218.81 623.697 218.617 623.476 218.46C623.257 218.301 623.014 218.182 622.747 218.102C622.48 218.023 622.202 217.983 621.912 217.983C621.384 217.983 620.905 218.117 620.476 218.384C620.05 218.651 619.71 219.044 619.457 219.564C619.207 220.084 619.082 220.722 619.082 221.477C619.082 222.233 619.207 222.871 619.457 223.391C619.71 223.911 620.05 224.304 620.476 224.571C620.905 224.838 621.384 224.972 621.912 224.972C622.202 224.972 622.48 224.932 622.747 224.852C623.014 224.773 623.257 224.655 623.476 224.499C623.697 224.34 623.885 224.145 624.038 223.915C624.195 223.682 624.304 223.415 624.366 223.114H625.423C625.344 223.56 625.199 223.959 624.989 224.311C624.778 224.663 624.517 224.963 624.205 225.21C623.892 225.455 623.541 225.641 623.152 225.769C622.766 225.896 622.352 225.96 621.912 225.96C621.168 225.96 620.506 225.779 619.926 225.415C619.347 225.051 618.891 224.534 618.558 223.864C618.226 223.193 618.06 222.398 618.06 221.477C618.06 220.557 618.226 219.761 618.558 219.091C618.891 218.421 619.347 217.904 619.926 217.54C620.506 217.176 621.168 216.994 621.912 216.994C622.352 216.994 622.766 217.058 623.152 217.186C623.541 217.314 623.892 217.502 624.205 217.749C624.517 217.993 624.778 218.291 624.989 218.644C625.199 218.993 625.344 219.392 625.423 219.841Z" fill="#273B4A"/>
<line x1="-0.000630438" y1="208.341" x2="666.997" y2="207.5" stroke="#273B4A"/>
</g>
<defs>
<clipPath id="clip0_4_241">
<rect width="667" height="236" fill="white"/>
</clipPath>
<clipPath id="clip1_4_241">
<rect width="20" height="20" fill="white" transform="translate(394 118)"/>
</clipPath>
<clipPath id="clip2_4_241">
<rect width="20" height="20" fill="white" transform="translate(324 118)"/>
</clipPath>
<clipPath id="clip3_4_241">
<rect width="20" height="20" fill="white" transform="translate(254 118)"/>
</clipPath>
</defs>
</svg>
