<svg width="577" height="83" viewBox="0 0 577 83" fill="none" xmlns="http://www.w3.org/2000/svg">
<g clip-path="url(#clip0_17_43)">
<rect width="577" height="83" fill="white"/>
<rect width="577" height="83" fill="black"/>
<rect x="263" y="18" width="51" height="47" fill="#F5EFEF" fill-opacity="0.47"/>
<path d="M274.057 46V37.2727H275.114V45.0625H279.17V46H274.057ZM283.33 46.1364C282.739 46.1364 282.22 45.9957 281.774 45.7145C281.331 45.4332 280.984 45.0398 280.734 44.5341C280.487 44.0284 280.364 43.4375 280.364 42.7614C280.364 42.0795 280.487 41.4844 280.734 40.9759C280.984 40.4673 281.331 40.0724 281.774 39.7912C282.22 39.5099 282.739 39.3693 283.33 39.3693C283.92 39.3693 284.438 39.5099 284.881 39.7912C285.327 40.0724 285.673 40.4673 285.92 40.9759C286.17 41.4844 286.295 42.0795 286.295 42.7614C286.295 43.4375 286.17 44.0284 285.92 44.5341C285.673 45.0398 285.327 45.4332 284.881 45.7145C284.438 45.9957 283.92 46.1364 283.33 46.1364ZM283.33 45.233C283.778 45.233 284.148 45.1179 284.438 44.8878C284.727 44.6577 284.942 44.3551 285.081 43.9801C285.22 43.6051 285.29 43.1989 285.29 42.7614C285.29 42.3239 285.22 41.9162 285.081 41.5384C284.942 41.1605 284.727 40.8551 284.438 40.6222C284.148 40.3892 283.778 40.2727 283.33 40.2727C282.881 40.2727 282.511 40.3892 282.222 40.6222C281.932 40.8551 281.717 41.1605 281.578 41.5384C281.439 41.9162 281.369 42.3239 281.369 42.7614C281.369 43.1989 281.439 43.6051 281.578 43.9801C281.717 44.3551 281.932 44.6577 282.222 44.8878C282.511 45.1179 282.881 45.233 283.33 45.233ZM290.473 48.5909C289.987 48.5909 289.569 48.5284 289.22 48.4034C288.87 48.2812 288.579 48.1193 288.346 47.9176C288.116 47.7188 287.933 47.5057 287.797 47.2784L288.598 46.7159C288.689 46.8352 288.804 46.9716 288.943 47.125C289.082 47.2812 289.272 47.4162 289.514 47.5298C289.758 47.6463 290.078 47.7045 290.473 47.7045C291.001 47.7045 291.437 47.5767 291.781 47.321C292.125 47.0653 292.297 46.6648 292.297 46.1193V44.7898H292.211C292.137 44.9091 292.032 45.0568 291.896 45.233C291.762 45.4062 291.569 45.5611 291.316 45.6974C291.066 45.831 290.728 45.8977 290.302 45.8977C289.774 45.8977 289.299 45.7727 288.879 45.5227C288.461 45.2727 288.13 44.9091 287.886 44.4318C287.645 43.9545 287.524 43.375 287.524 42.6932C287.524 42.0227 287.642 41.4389 287.877 40.9418C288.113 40.4418 288.441 40.0554 288.862 39.7827C289.282 39.5071 289.768 39.3693 290.319 39.3693C290.745 39.3693 291.083 39.4403 291.333 39.5824C291.586 39.7216 291.779 39.8807 291.913 40.0597C292.049 40.2358 292.154 40.3807 292.228 40.4943H292.331V39.4545H293.302V46.1875C293.302 46.75 293.174 47.2074 292.919 47.5597C292.666 47.9148 292.325 48.1747 291.896 48.3395C291.47 48.5071 290.995 48.5909 290.473 48.5909ZM290.439 44.9943C290.842 44.9943 291.183 44.902 291.461 44.7173C291.74 44.5327 291.951 44.267 292.096 43.9205C292.241 43.5739 292.314 43.1591 292.314 42.6761C292.314 42.2045 292.243 41.7884 292.1 41.4276C291.958 41.0668 291.748 40.7841 291.47 40.5795C291.191 40.375 290.848 40.2727 290.439 40.2727C290.012 40.2727 289.657 40.3807 289.373 40.5966C289.092 40.8125 288.88 41.1023 288.738 41.4659C288.599 41.8295 288.529 42.233 288.529 42.6761C288.529 43.1307 288.6 43.5327 288.743 43.8821C288.887 44.2287 289.1 44.5014 289.382 44.7003C289.666 44.8963 290.018 44.9943 290.439 44.9943ZM297.802 46.1364C297.211 46.1364 296.693 45.9957 296.247 45.7145C295.804 45.4332 295.457 45.0398 295.207 44.5341C294.96 44.0284 294.836 43.4375 294.836 42.7614C294.836 42.0795 294.96 41.4844 295.207 40.9759C295.457 40.4673 295.804 40.0724 296.247 39.7912C296.693 39.5099 297.211 39.3693 297.802 39.3693C298.393 39.3693 298.91 39.5099 299.353 39.7912C299.799 40.0724 300.146 40.4673 300.393 40.9759C300.643 41.4844 300.768 42.0795 300.768 42.7614C300.768 43.4375 300.643 44.0284 300.393 44.5341C300.146 45.0398 299.799 45.4332 299.353 45.7145C298.91 45.9957 298.393 46.1364 297.802 46.1364ZM297.802 45.233C298.251 45.233 298.62 45.1179 298.91 44.8878C299.2 44.6577 299.414 44.3551 299.554 43.9801C299.693 43.6051 299.762 43.1989 299.762 42.7614C299.762 42.3239 299.693 41.9162 299.554 41.5384C299.414 41.1605 299.2 40.8551 298.91 40.6222C298.62 40.3892 298.251 40.2727 297.802 40.2727C297.353 40.2727 296.984 40.3892 296.694 40.6222C296.404 40.8551 296.19 41.1605 296.051 41.5384C295.912 41.9162 295.842 42.3239 295.842 42.7614C295.842 43.1989 295.912 43.6051 296.051 43.9801C296.19 44.3551 296.404 44.6577 296.694 44.8878C296.984 45.1179 297.353 45.233 297.802 45.233Z" fill="white"/>
<g clip-path="url(#clip1_17_43)">
<path d="M101 33.8008C103.672 33.8008 103.988 33.8125 105.039 33.8594C106.016 33.9023 106.543 34.0664 106.895 34.2031C107.359 34.3828 107.695 34.6016 108.043 34.9492C108.395 35.3008 108.609 35.6328 108.789 36.0977C108.926 36.4492 109.09 36.9805 109.133 37.9531C109.18 39.0078 109.191 39.3242 109.191 41.9922C109.191 44.6641 109.18 44.9805 109.133 46.0313C109.09 47.0078 108.926 47.5352 108.789 47.8867C108.609 48.3516 108.391 48.6875 108.043 49.0352C107.691 49.3867 107.359 49.6016 106.895 49.7813C106.543 49.918 106.012 50.082 105.039 50.125C103.984 50.1719 103.668 50.1836 101 50.1836C98.3281 50.1836 98.0117 50.1719 96.9609 50.125C95.9844 50.082 95.457 49.918 95.1055 49.7813C94.6406 49.6016 94.3047 49.3828 93.957 49.0352C93.6055 48.6836 93.3906 48.3516 93.2109 47.8867C93.0742 47.5352 92.9102 47.0039 92.8672 46.0313C92.8203 44.9766 92.8086 44.6602 92.8086 41.9922C92.8086 39.3203 92.8203 39.0039 92.8672 37.9531C92.9102 36.9766 93.0742 36.4492 93.2109 36.0977C93.3906 35.6328 93.6094 35.2969 93.957 34.9492C94.3086 34.5977 94.6406 34.3828 95.1055 34.2031C95.457 34.0664 95.9883 33.9023 96.9609 33.8594C98.0117 33.8125 98.3281 33.8008 101 33.8008ZM101 32C98.2852 32 97.9453 32.0117 96.8789 32.0586C95.8164 32.1055 95.0859 32.2773 94.4531 32.5234C93.793 32.7812 93.2344 33.1211 92.6797 33.6797C92.1211 34.2344 91.7813 34.793 91.5234 35.4492C91.2773 36.0859 91.1055 36.8125 91.0586 37.875C91.0117 38.9453 91 39.2852 91 42C91 44.7148 91.0117 45.0547 91.0586 46.1211C91.1055 47.1836 91.2773 47.9141 91.5234 48.5469C91.7813 49.207 92.1211 49.7656 92.6797 50.3203C93.2344 50.875 93.793 51.2188 94.4492 51.4727C95.0859 51.7188 95.8125 51.8906 96.875 51.9375C97.9414 51.9844 98.2813 51.9961 100.996 51.9961C103.711 51.9961 104.051 51.9844 105.117 51.9375C106.18 51.8906 106.91 51.7188 107.543 51.4727C108.199 51.2188 108.758 50.875 109.313 50.3203C109.867 49.7656 110.211 49.207 110.465 48.5508C110.711 47.9141 110.883 47.1875 110.93 46.125C110.977 45.0586 110.988 44.7188 110.988 42.0039C110.988 39.2891 110.977 38.9492 110.93 37.8828C110.883 36.8203 110.711 36.0898 110.465 35.457C110.219 34.793 109.879 34.2344 109.32 33.6797C108.766 33.125 108.207 32.7813 107.551 32.5273C106.914 32.2812 106.188 32.1094 105.125 32.0625C104.055 32.0117 103.715 32 101 32Z" fill="white"/>
<path d="M101 36.8633C98.1641 36.8633 95.8633 39.1641 95.8633 42C95.8633 44.8359 98.1641 47.1367 101 47.1367C103.836 47.1367 106.137 44.8359 106.137 42C106.137 39.1641 103.836 36.8633 101 36.8633ZM101 45.332C99.1602 45.332 97.668 43.8398 97.668 42C97.668 40.1602 99.1602 38.668 101 38.668C102.84 38.668 104.332 40.1602 104.332 42C104.332 43.8398 102.84 45.332 101 45.332Z" fill="white"/>
<path d="M107.539 36.6601C107.539 37.3242 107 37.8593 106.34 37.8593C105.676 37.8593 105.141 37.3203 105.141 36.6601C105.141 35.9961 105.68 35.4609 106.34 35.4609C107 35.4609 107.539 36 107.539 36.6601Z" fill="white"/>
</g>
<path d="M72.2918 50.125C79.8371 50.125 83.9652 43.8723 83.9652 38.4516C83.9652 38.2758 83.9613 38.0961 83.9535 37.9203C84.7566 37.3396 85.4496 36.6202 86 35.7961C85.2521 36.1289 84.458 36.3462 83.6449 36.4406C84.5011 35.9275 85.1421 35.1213 85.4492 34.1715C84.6438 34.6488 83.763 34.9855 82.8445 35.1672C82.2257 34.5097 81.4075 34.0743 80.5164 33.9284C79.6253 33.7825 78.711 33.9342 77.9148 34.3601C77.1186 34.786 76.4848 35.4623 76.1115 36.2845C75.7382 37.1066 75.6462 38.0289 75.8496 38.9086C74.2187 38.8268 72.6233 38.4031 71.1667 37.6651C69.71 36.9271 68.4247 35.8912 67.3941 34.6246C66.8703 35.5277 66.71 36.5964 66.9459 37.6134C67.1817 38.6305 67.7959 39.5196 68.6637 40.1C68.0122 40.0793 67.375 39.9039 66.8047 39.5883V39.6391C66.8041 40.5868 67.1317 41.5055 67.7319 42.239C68.3321 42.9725 69.1678 43.4755 70.0969 43.6625C69.4934 43.8276 68.86 43.8517 68.2457 43.7328C68.5079 44.5479 69.018 45.2608 69.7048 45.772C70.3916 46.2832 71.2209 46.5672 72.077 46.5844C70.6237 47.726 68.8285 48.3451 66.9805 48.3422C66.6527 48.3417 66.3253 48.3216 66 48.282C67.8774 49.4865 70.0613 50.1262 72.2918 50.125Z" fill="white"/>
<path d="M60 42C60 36.4771 55.5229 32 50 32C44.4771 32 40 36.4771 40 42C40 46.9912 43.6568 51.1283 48.4375 51.8785V44.8906H45.8984V42H48.4375V39.7969C48.4375 37.2906 49.9305 35.9063 52.2146 35.9063C53.3084 35.9063 54.4531 36.1016 54.4531 36.1016V38.5625H53.1922C51.95 38.5625 51.5625 39.3334 51.5625 40.125V42H54.3359L53.8926 44.8906H51.5625V51.8785C56.3432 51.1283 60 46.9912 60 42Z" fill="white"/>
<path d="M33.8008 37C33.8008 37 33.6055 35.6211 33.0039 35.0157C32.2422 34.2188 31.3906 34.2149 31 34.168C28.2031 33.9649 24.0039 33.9649 24.0039 33.9649H23.9961C23.9961 33.9649 19.7969 33.9649 17 34.168C16.6094 34.2149 15.7578 34.2188 14.9961 35.0157C14.3945 35.6211 14.2031 37 14.2031 37C14.2031 37 14 38.6211 14 40.2383V41.7539C14 43.3711 14.1992 44.9922 14.1992 44.9922C14.1992 44.9922 14.3945 46.3711 14.9922 46.9766C15.7539 47.7735 16.7539 47.7461 17.1992 47.8321C18.8008 47.9844 24 48.0313 24 48.0313C24 48.0313 28.2031 48.0235 31 47.8243C31.3906 47.7774 32.2422 47.7735 33.0039 46.9766C33.6055 46.3711 33.8008 44.9922 33.8008 44.9922C33.8008 44.9922 34 43.375 34 41.7539V40.2383C34 38.6211 33.8008 37 33.8008 37ZM21.9336 43.5938V37.9727L27.3359 40.793L21.9336 43.5938Z" fill="white"/>
<rect x="517.5" y="22.5" width="39" height="10.7647" fill="white" stroke="black"/>
<rect x="517.5" y="50.7353" width="39" height="10.7647" fill="white" stroke="black"/>
<rect x="517.5" y="36.6176" width="39" height="10.7647" fill="white" stroke="black"/>
</g>
<defs>
<clipPath id="clip0_17_43">
<rect width="577" height="83" fill="white"/>
</clipPath>
<clipPath id="clip1_17_43">
<rect width="20" height="20" fill="white" transform="translate(91 32)"/>
</clipPath>
</defs>
</svg>
