<svg width="577" height="83" viewBox="0 0 577 83" fill="none" xmlns="http://www.w3.org/2000/svg">
<g clip-path="url(#clip0_17_44)">
<rect width="577" height="83" fill="white"/>
<rect width="577" height="83" fill="#D9D9D9"/>
<rect x="3" y="18" width="51" height="47" fill="#1E1E1E"/>
<path d="M14.0568 47V38.2727H15.1136V46.0625H19.1705V47H14.0568ZM23.3295 47.1364C22.7386 47.1364 22.2202 46.9957 21.7741 46.7145C21.331 46.4332 20.9844 46.0398 20.7344 45.5341C20.4872 45.0284 20.3636 44.4375 20.3636 43.7614C20.3636 43.0795 20.4872 42.4844 20.7344 41.9759C20.9844 41.4673 21.331 41.0724 21.7741 40.7912C22.2202 40.5099 22.7386 40.3693 23.3295 40.3693C23.9205 40.3693 24.4375 40.5099 24.8807 40.7912C25.3267 41.0724 25.6733 41.4673 25.9205 41.9759C26.1705 42.4844 26.2955 43.0795 26.2955 43.7614C26.2955 44.4375 26.1705 45.0284 25.9205 45.5341C25.6733 46.0398 25.3267 46.4332 24.8807 46.7145C24.4375 46.9957 23.9205 47.1364 23.3295 47.1364ZM23.3295 46.233C23.7784 46.233 24.1477 46.1179 24.4375 45.8878C24.7273 45.6577 24.9418 45.3551 25.081 44.9801C25.2202 44.6051 25.2898 44.1989 25.2898 43.7614C25.2898 43.3239 25.2202 42.9162 25.081 42.5384C24.9418 42.1605 24.7273 41.8551 24.4375 41.6222C24.1477 41.3892 23.7784 41.2727 23.3295 41.2727C22.8807 41.2727 22.5114 41.3892 22.2216 41.6222C21.9318 41.8551 21.7173 42.1605 21.5781 42.5384C21.4389 42.9162 21.3693 43.3239 21.3693 43.7614C21.3693 44.1989 21.4389 44.6051 21.5781 44.9801C21.7173 45.3551 21.9318 45.6577 22.2216 45.8878C22.5114 46.1179 22.8807 46.233 23.3295 46.233ZM30.4727 49.5909C29.9869 49.5909 29.5692 49.5284 29.2198 49.4034C28.8704 49.2812 28.5792 49.1193 28.3462 48.9176C28.1161 48.7188 27.9329 48.5057 27.7965 48.2784L28.5977 47.7159C28.6886 47.8352 28.8036 47.9716 28.9428 48.125C29.082 48.2812 29.2724 48.4162 29.5138 48.5298C29.7582 48.6463 30.0778 48.7045 30.4727 48.7045C31.0011 48.7045 31.4371 48.5767 31.7809 48.321C32.1246 48.0653 32.2965 47.6648 32.2965 47.1193V45.7898H32.2113C32.1374 45.9091 32.0323 46.0568 31.896 46.233C31.7624 46.4062 31.5692 46.5611 31.3164 46.6974C31.0664 46.831 30.7283 46.8977 30.3022 46.8977C29.7738 46.8977 29.2994 46.7727 28.8789 46.5227C28.4613 46.2727 28.1303 45.9091 27.886 45.4318C27.6445 44.9545 27.5238 44.375 27.5238 43.6932C27.5238 43.0227 27.6417 42.4389 27.8775 41.9418C28.1133 41.4418 28.4414 41.0554 28.8619 40.7827C29.2823 40.5071 29.7681 40.3693 30.3192 40.3693C30.7454 40.3693 31.0835 40.4403 31.3335 40.5824C31.5863 40.7216 31.7795 40.8807 31.913 41.0597C32.0494 41.2358 32.1545 41.3807 32.2283 41.4943H32.3306V40.4545H33.3022V47.1875C33.3022 47.75 33.1744 48.2074 32.9187 48.5597C32.6658 48.9148 32.3249 49.1747 31.896 49.3395C31.4698 49.5071 30.9954 49.5909 30.4727 49.5909ZM30.4386 45.9943C30.842 45.9943 31.1829 45.902 31.4613 45.7173C31.7397 45.5327 31.9513 45.267 32.0962 44.9205C32.2411 44.5739 32.3136 44.1591 32.3136 43.6761C32.3136 43.2045 32.2425 42.7884 32.1005 42.4276C31.9585 42.0668 31.7482 41.7841 31.4698 41.5795C31.1914 41.375 30.8477 41.2727 30.4386 41.2727C30.0124 41.2727 29.6573 41.3807 29.3732 41.5966C29.092 41.8125 28.8803 42.1023 28.7383 42.4659C28.5991 42.8295 28.5295 43.233 28.5295 43.6761C28.5295 44.1307 28.6005 44.5327 28.7425 44.8821C28.8874 45.2287 29.1005 45.5014 29.3817 45.7003C29.6658 45.8963 30.0181 45.9943 30.4386 45.9943ZM37.8022 47.1364C37.2113 47.1364 36.6928 46.9957 36.2468 46.7145C35.8036 46.4332 35.457 46.0398 35.207 45.5341C34.9599 45.0284 34.8363 44.4375 34.8363 43.7614C34.8363 43.0795 34.9599 42.4844 35.207 41.9759C35.457 41.4673 35.8036 41.0724 36.2468 40.7912C36.6928 40.5099 37.2113 40.3693 37.8022 40.3693C38.3931 40.3693 38.9102 40.5099 39.3533 40.7912C39.7994 41.0724 40.146 41.4673 40.3931 41.9759C40.6431 42.4844 40.7681 43.0795 40.7681 43.7614C40.7681 44.4375 40.6431 45.0284 40.3931 45.5341C40.146 46.0398 39.7994 46.4332 39.3533 46.7145C38.9102 46.9957 38.3931 47.1364 37.8022 47.1364ZM37.8022 46.233C38.2511 46.233 38.6204 46.1179 38.9102 45.8878C39.1999 45.6577 39.4144 45.3551 39.5536 44.9801C39.6928 44.6051 39.7624 44.1989 39.7624 43.7614C39.7624 43.3239 39.6928 42.9162 39.5536 42.5384C39.4144 42.1605 39.1999 41.8551 38.9102 41.6222C38.6204 41.3892 38.2511 41.2727 37.8022 41.2727C37.3533 41.2727 36.984 41.3892 36.6942 41.6222C36.4045 41.8551 36.19 42.1605 36.0508 42.5384C35.9116 42.9162 35.842 43.3239 35.842 43.7614C35.842 44.1989 35.9116 44.6051 36.0508 44.9801C36.19 45.3551 36.4045 45.6577 36.6942 45.8878C36.984 46.1179 37.3533 46.233 37.8022 46.233Z" fill="white"/>
<path d="M65.0568 38.2727H66.3182L69.2841 45.517H69.3864L72.3523 38.2727H73.6136V47H72.625V40.3693H72.5398L69.8125 47H68.858L66.1307 40.3693H66.0455V47H65.0568V38.2727ZM78.3406 47.1364C77.7099 47.1364 77.1658 46.9972 76.7085 46.7188C76.2539 46.4375 75.9031 46.0455 75.6559 45.5426C75.4116 45.0369 75.2894 44.4489 75.2894 43.7784C75.2894 43.108 75.4116 42.517 75.6559 42.0057C75.9031 41.4915 76.2468 41.0909 76.6871 40.804C77.1303 40.5142 77.6474 40.3693 78.2383 40.3693C78.5792 40.3693 78.9158 40.4261 79.2482 40.5398C79.5806 40.6534 79.8832 40.8381 80.1559 41.0938C80.4286 41.3466 80.646 41.6818 80.8079 42.0994C80.9698 42.517 81.0508 43.0312 81.0508 43.642V44.0682H76.0053V43.1989H80.0281C80.0281 42.8295 79.9542 42.5 79.8065 42.2102C79.6616 41.9205 79.4542 41.6918 79.1843 41.5241C78.9173 41.3565 78.6019 41.2727 78.2383 41.2727C77.8377 41.2727 77.4911 41.3722 77.1985 41.571C76.9087 41.767 76.6857 42.0227 76.5295 42.3381C76.3732 42.6534 76.2951 42.9915 76.2951 43.3523V43.9318C76.2951 44.4261 76.3803 44.8452 76.5508 45.1889C76.7241 45.5298 76.9641 45.7898 77.271 45.9688C77.5778 46.1449 77.9343 46.233 78.3406 46.233C78.6048 46.233 78.8434 46.196 79.0565 46.1222C79.2724 46.0455 79.4585 45.9318 79.6147 45.7812C79.771 45.6278 79.8917 45.4375 79.9769 45.2102L80.9485 45.483C80.8462 45.8125 80.6744 46.1023 80.4329 46.3523C80.1914 46.5994 79.8931 46.7926 79.538 46.9318C79.1829 47.0682 78.7837 47.1364 78.3406 47.1364ZM83.5863 43.0625V47H82.5806V40.4545H83.5522V41.4773H83.6374C83.7908 41.1449 84.0238 40.8778 84.3363 40.6761C84.6488 40.4716 85.0522 40.3693 85.5465 40.3693C85.9897 40.3693 86.3775 40.4602 86.7099 40.642C87.0423 40.821 87.3008 41.0938 87.4854 41.4602C87.6701 41.8239 87.7624 42.2841 87.7624 42.8409V47H86.7567V42.9091C86.7567 42.3949 86.6232 41.9943 86.3562 41.7074C86.0891 41.4176 85.7227 41.2727 85.2567 41.2727C84.9357 41.2727 84.6488 41.3423 84.396 41.4815C84.146 41.6207 83.9485 41.8239 83.8036 42.0909C83.6587 42.358 83.5863 42.6818 83.5863 43.0625ZM93.7251 44.3239V40.4545H94.7308V47H93.7251V45.892H93.657C93.5036 46.2244 93.2649 46.5071 92.9411 46.7401C92.6172 46.9702 92.2081 47.0852 91.7138 47.0852C91.3047 47.0852 90.9411 46.9957 90.6229 46.8168C90.3047 46.6349 90.0547 46.3622 89.8729 45.9986C89.6911 45.6321 89.6001 45.1705 89.6001 44.6136V40.4545H90.6058V44.5455C90.6058 45.0227 90.7393 45.4034 91.0064 45.6875C91.2763 45.9716 91.62 46.1136 92.0376 46.1136C92.2876 46.1136 92.5419 46.0497 92.8004 45.9219C93.0618 45.794 93.2805 45.598 93.4567 45.3338C93.6357 45.0696 93.7251 44.733 93.7251 44.3239ZM102.999 38.2727V47H101.942V39.3807H101.891L99.7603 40.7955V39.7216L101.942 38.2727H102.999Z" fill="#1E1E1E"/>
<path d="M131.057 38.2727H132.318L135.284 45.517H135.386L138.352 38.2727H139.614V47H138.625V40.3693H138.54L135.812 47H134.858L132.131 40.3693H132.045V47H131.057V38.2727ZM144.341 47.1364C143.71 47.1364 143.166 46.9972 142.708 46.7188C142.254 46.4375 141.903 46.0455 141.656 45.5426C141.412 45.0369 141.289 44.4489 141.289 43.7784C141.289 43.108 141.412 42.517 141.656 42.0057C141.903 41.4915 142.247 41.0909 142.687 40.804C143.13 40.5142 143.647 40.3693 144.238 40.3693C144.579 40.3693 144.916 40.4261 145.248 40.5398C145.581 40.6534 145.883 40.8381 146.156 41.0938C146.429 41.3466 146.646 41.6818 146.808 42.0994C146.97 42.517 147.051 43.0312 147.051 43.642V44.0682H142.005V43.1989H146.028C146.028 42.8295 145.954 42.5 145.806 42.2102C145.662 41.9205 145.454 41.6918 145.184 41.5241C144.917 41.3565 144.602 41.2727 144.238 41.2727C143.838 41.2727 143.491 41.3722 143.199 41.571C142.909 41.767 142.686 42.0227 142.529 42.3381C142.373 42.6534 142.295 42.9915 142.295 43.3523V43.9318C142.295 44.4261 142.38 44.8452 142.551 45.1889C142.724 45.5298 142.964 45.7898 143.271 45.9688C143.578 46.1449 143.934 46.233 144.341 46.233C144.605 46.233 144.843 46.196 145.056 46.1222C145.272 46.0455 145.458 45.9318 145.615 45.7812C145.771 45.6278 145.892 45.4375 145.977 45.2102L146.949 45.483C146.846 45.8125 146.674 46.1023 146.433 46.3523C146.191 46.5994 145.893 46.7926 145.538 46.9318C145.183 47.0682 144.784 47.1364 144.341 47.1364ZM149.586 43.0625V47H148.581V40.4545H149.552V41.4773H149.637C149.791 41.1449 150.024 40.8778 150.336 40.6761C150.649 40.4716 151.052 40.3693 151.547 40.3693C151.99 40.3693 152.377 40.4602 152.71 40.642C153.042 40.821 153.301 41.0938 153.485 41.4602C153.67 41.8239 153.762 42.2841 153.762 42.8409V47H152.757V42.9091C152.757 42.3949 152.623 41.9943 152.356 41.7074C152.089 41.4176 151.723 41.2727 151.257 41.2727C150.936 41.2727 150.649 41.3423 150.396 41.4815C150.146 41.6207 149.949 41.8239 149.804 42.0909C149.659 42.358 149.586 42.6818 149.586 43.0625ZM159.725 44.3239V40.4545H160.731V47H159.725V45.892H159.657C159.504 46.2244 159.265 46.5071 158.941 46.7401C158.617 46.9702 158.208 47.0852 157.714 47.0852C157.305 47.0852 156.941 46.9957 156.623 46.8168C156.305 46.6349 156.055 46.3622 155.873 45.9986C155.691 45.6321 155.6 45.1705 155.6 44.6136V40.4545H156.606V44.5455C156.606 45.0227 156.739 45.4034 157.006 45.6875C157.276 45.9716 157.62 46.1136 158.038 46.1136C158.288 46.1136 158.542 46.0497 158.8 45.9219C159.062 45.794 159.281 45.598 159.457 45.3338C159.636 45.0696 159.725 44.733 159.725 44.3239ZM162.556 47V46.233L165.436 43.0795C165.775 42.7102 166.053 42.3892 166.272 42.1165C166.49 41.8409 166.652 41.5824 166.757 41.3409C166.865 41.0966 166.919 40.8409 166.919 40.5739C166.919 40.267 166.846 40.0014 166.698 39.777C166.553 39.5526 166.354 39.3793 166.101 39.2571C165.848 39.1349 165.564 39.0739 165.249 39.0739C164.914 39.0739 164.621 39.1435 164.371 39.2827C164.124 39.419 163.932 39.6108 163.796 39.858C163.662 40.1051 163.596 40.3949 163.596 40.7273H162.59C162.59 40.2159 162.708 39.767 162.944 39.3807C163.179 38.9943 163.5 38.6932 163.907 38.4773C164.316 38.2614 164.775 38.1534 165.283 38.1534C165.794 38.1534 166.248 38.2614 166.642 38.4773C167.037 38.6932 167.347 38.9844 167.571 39.3509C167.796 39.7173 167.908 40.125 167.908 40.5739C167.908 40.8949 167.85 41.2088 167.733 41.5156C167.62 41.8196 167.421 42.1591 167.137 42.5341C166.855 42.9062 166.465 43.3608 165.965 43.8977L164.005 45.9943V46.0625H168.061V47H162.556Z" fill="#1E1E1E"/>
<path d="M197.057 38.2727H198.318L201.284 45.517H201.386L204.352 38.2727H205.614V47H204.625V40.3693H204.54L201.812 47H200.858L198.131 40.3693H198.045V47H197.057V38.2727ZM210.341 47.1364C209.71 47.1364 209.166 46.9972 208.708 46.7188C208.254 46.4375 207.903 46.0455 207.656 45.5426C207.412 45.0369 207.289 44.4489 207.289 43.7784C207.289 43.108 207.412 42.517 207.656 42.0057C207.903 41.4915 208.247 41.0909 208.687 40.804C209.13 40.5142 209.647 40.3693 210.238 40.3693C210.579 40.3693 210.916 40.4261 211.248 40.5398C211.581 40.6534 211.883 40.8381 212.156 41.0938C212.429 41.3466 212.646 41.6818 212.808 42.0994C212.97 42.517 213.051 43.0312 213.051 43.642V44.0682H208.005V43.1989H212.028C212.028 42.8295 211.954 42.5 211.806 42.2102C211.662 41.9205 211.454 41.6918 211.184 41.5241C210.917 41.3565 210.602 41.2727 210.238 41.2727C209.838 41.2727 209.491 41.3722 209.199 41.571C208.909 41.767 208.686 42.0227 208.529 42.3381C208.373 42.6534 208.295 42.9915 208.295 43.3523V43.9318C208.295 44.4261 208.38 44.8452 208.551 45.1889C208.724 45.5298 208.964 45.7898 209.271 45.9688C209.578 46.1449 209.934 46.233 210.341 46.233C210.605 46.233 210.843 46.196 211.056 46.1222C211.272 46.0455 211.458 45.9318 211.615 45.7812C211.771 45.6278 211.892 45.4375 211.977 45.2102L212.949 45.483C212.846 45.8125 212.674 46.1023 212.433 46.3523C212.191 46.5994 211.893 46.7926 211.538 46.9318C211.183 47.0682 210.784 47.1364 210.341 47.1364ZM215.586 43.0625V47H214.581V40.4545H215.552V41.4773H215.637C215.791 41.1449 216.024 40.8778 216.336 40.6761C216.649 40.4716 217.052 40.3693 217.547 40.3693C217.99 40.3693 218.377 40.4602 218.71 40.642C219.042 40.821 219.301 41.0938 219.485 41.4602C219.67 41.8239 219.762 42.2841 219.762 42.8409V47H218.757V42.9091C218.757 42.3949 218.623 41.9943 218.356 41.7074C218.089 41.4176 217.723 41.2727 217.257 41.2727C216.936 41.2727 216.649 41.3423 216.396 41.4815C216.146 41.6207 215.949 41.8239 215.804 42.0909C215.659 42.358 215.586 42.6818 215.586 43.0625ZM225.725 44.3239V40.4545H226.731V47H225.725V45.892H225.657C225.504 46.2244 225.265 46.5071 224.941 46.7401C224.617 46.9702 224.208 47.0852 223.714 47.0852C223.305 47.0852 222.941 46.9957 222.623 46.8168C222.305 46.6349 222.055 46.3622 221.873 45.9986C221.691 45.6321 221.6 45.1705 221.6 44.6136V40.4545H222.606V44.5455C222.606 45.0227 222.739 45.4034 223.006 45.6875C223.276 45.9716 223.62 46.1136 224.038 46.1136C224.288 46.1136 224.542 46.0497 224.8 45.9219C225.062 45.794 225.281 45.598 225.457 45.3338C225.636 45.0696 225.725 44.733 225.725 44.3239ZM231.505 47.1193C230.942 47.1193 230.441 47.0227 230 46.8295C229.563 46.6364 229.215 46.3679 228.956 46.0241C228.701 45.6776 228.561 45.2756 228.539 44.8182H229.613C229.635 45.0994 229.732 45.3423 229.902 45.5469C230.073 45.7486 230.296 45.9048 230.571 46.0156C230.847 46.1264 231.152 46.1818 231.488 46.1818C231.863 46.1818 232.195 46.1165 232.485 45.9858C232.775 45.8551 233.002 45.6733 233.167 45.4403C233.331 45.2074 233.414 44.9375 233.414 44.6307C233.414 44.3097 233.334 44.027 233.175 43.7827C233.016 43.5355 232.783 43.3423 232.476 43.2031C232.169 43.0639 231.794 42.9943 231.351 42.9943H230.652V42.0568H231.351C231.698 42.0568 232.002 41.9943 232.263 41.8693C232.527 41.7443 232.733 41.5682 232.881 41.3409C233.032 41.1136 233.107 40.8466 233.107 40.5398C233.107 40.2443 233.042 39.9872 232.911 39.7685C232.78 39.5497 232.596 39.3793 232.357 39.2571C232.121 39.1349 231.843 39.0739 231.522 39.0739C231.221 39.0739 230.936 39.1293 230.669 39.2401C230.405 39.348 230.189 39.5057 230.022 39.7131C229.854 39.9176 229.763 40.1648 229.749 40.4545H228.726C228.743 39.9972 228.881 39.5966 229.14 39.2528C229.398 38.9062 229.736 38.6364 230.154 38.4432C230.574 38.25 231.036 38.1534 231.539 38.1534C232.078 38.1534 232.542 38.2628 232.928 38.4815C233.314 38.6974 233.611 38.983 233.819 39.3381C234.026 39.6932 234.13 40.0767 234.13 40.4886C234.13 40.9801 234 41.3991 233.742 41.7457C233.486 42.0923 233.138 42.3324 232.698 42.4659V42.5341C233.249 42.625 233.679 42.8594 233.989 43.2372C234.299 43.6122 234.453 44.0767 234.453 44.6307C234.453 45.1051 234.324 45.5312 234.066 45.9091C233.81 46.2841 233.461 46.5795 233.017 46.7955C232.574 47.0114 232.07 47.1193 231.505 47.1193Z" fill="#1E1E1E"/>
<path d="M263.057 38.2727H264.318L267.284 45.517H267.386L270.352 38.2727H271.614V47H270.625V40.3693H270.54L267.812 47H266.858L264.131 40.3693H264.045V47H263.057V38.2727ZM276.341 47.1364C275.71 47.1364 275.166 46.9972 274.708 46.7188C274.254 46.4375 273.903 46.0455 273.656 45.5426C273.412 45.0369 273.289 44.4489 273.289 43.7784C273.289 43.108 273.412 42.517 273.656 42.0057C273.903 41.4915 274.247 41.0909 274.687 40.804C275.13 40.5142 275.647 40.3693 276.238 40.3693C276.579 40.3693 276.916 40.4261 277.248 40.5398C277.581 40.6534 277.883 40.8381 278.156 41.0938C278.429 41.3466 278.646 41.6818 278.808 42.0994C278.97 42.517 279.051 43.0312 279.051 43.642V44.0682H274.005V43.1989H278.028C278.028 42.8295 277.954 42.5 277.806 42.2102C277.662 41.9205 277.454 41.6918 277.184 41.5241C276.917 41.3565 276.602 41.2727 276.238 41.2727C275.838 41.2727 275.491 41.3722 275.199 41.571C274.909 41.767 274.686 42.0227 274.529 42.3381C274.373 42.6534 274.295 42.9915 274.295 43.3523V43.9318C274.295 44.4261 274.38 44.8452 274.551 45.1889C274.724 45.5298 274.964 45.7898 275.271 45.9688C275.578 46.1449 275.934 46.233 276.341 46.233C276.605 46.233 276.843 46.196 277.056 46.1222C277.272 46.0455 277.458 45.9318 277.615 45.7812C277.771 45.6278 277.892 45.4375 277.977 45.2102L278.949 45.483C278.846 45.8125 278.674 46.1023 278.433 46.3523C278.191 46.5994 277.893 46.7926 277.538 46.9318C277.183 47.0682 276.784 47.1364 276.341 47.1364ZM281.586 43.0625V47H280.581V40.4545H281.552V41.4773H281.637C281.791 41.1449 282.024 40.8778 282.336 40.6761C282.649 40.4716 283.052 40.3693 283.547 40.3693C283.99 40.3693 284.377 40.4602 284.71 40.642C285.042 40.821 285.301 41.0938 285.485 41.4602C285.67 41.8239 285.762 42.2841 285.762 42.8409V47H284.757V42.9091C284.757 42.3949 284.623 41.9943 284.356 41.7074C284.089 41.4176 283.723 41.2727 283.257 41.2727C282.936 41.2727 282.649 41.3423 282.396 41.4815C282.146 41.6207 281.949 41.8239 281.804 42.0909C281.659 42.358 281.586 42.6818 281.586 43.0625ZM291.725 44.3239V40.4545H292.731V47H291.725V45.892H291.657C291.504 46.2244 291.265 46.5071 290.941 46.7401C290.617 46.9702 290.208 47.0852 289.714 47.0852C289.305 47.0852 288.941 46.9957 288.623 46.8168C288.305 46.6349 288.055 46.3622 287.873 45.9986C287.691 45.6321 287.6 45.1705 287.6 44.6136V40.4545H288.606V44.5455C288.606 45.0227 288.739 45.4034 289.006 45.6875C289.276 45.9716 289.62 46.1136 290.038 46.1136C290.288 46.1136 290.542 46.0497 290.8 45.9219C291.062 45.794 291.281 45.598 291.457 45.3338C291.636 45.0696 291.725 44.733 291.725 44.3239ZM294.351 45.2102V44.3409L298.186 38.2727H298.817V39.6193H298.391L295.493 44.2045V44.2727H300.658V45.2102H294.351ZM298.459 47V44.946V44.5412V38.2727H299.465V47H298.459Z" fill="#1E1E1E"/>
<path d="M329.415 37.2727L332.006 44.6193H332.108L334.699 37.2727H335.807L332.602 46H331.511L328.307 37.2727H329.415ZM339.08 46.1364C338.489 46.1364 337.97 45.9957 337.524 45.7145C337.081 45.4332 336.734 45.0398 336.484 44.5341C336.237 44.0284 336.114 43.4375 336.114 42.7614C336.114 42.0795 336.237 41.4844 336.484 40.9759C336.734 40.4673 337.081 40.0724 337.524 39.7912C337.97 39.5099 338.489 39.3693 339.08 39.3693C339.67 39.3693 340.188 39.5099 340.631 39.7912C341.077 40.0724 341.423 40.4673 341.67 40.9759C341.92 41.4844 342.045 42.0795 342.045 42.7614C342.045 43.4375 341.92 44.0284 341.67 44.5341C341.423 45.0398 341.077 45.4332 340.631 45.7145C340.188 45.9957 339.67 46.1364 339.08 46.1364ZM339.08 45.233C339.528 45.233 339.898 45.1179 340.188 44.8878C340.477 44.6577 340.692 44.3551 340.831 43.9801C340.97 43.6051 341.04 43.1989 341.04 42.7614C341.04 42.3239 340.97 41.9162 340.831 41.5384C340.692 41.1605 340.477 40.8551 340.188 40.6222C339.898 40.3892 339.528 40.2727 339.08 40.2727C338.631 40.2727 338.261 40.3892 337.972 40.6222C337.682 40.8551 337.467 41.1605 337.328 41.5384C337.189 41.9162 337.119 42.3239 337.119 42.7614C337.119 43.1989 337.189 43.6051 337.328 43.9801C337.467 44.3551 337.682 44.6577 337.972 44.8878C338.261 45.1179 338.631 45.233 339.08 45.233ZM346.427 39.4545V40.3068H343.035V39.4545H346.427ZM344.024 37.8864H345.029V44.125C345.029 44.4091 345.071 44.6222 345.153 44.7642C345.238 44.9034 345.346 44.9972 345.477 45.0455C345.61 45.0909 345.751 45.1136 345.899 45.1136C346.01 45.1136 346.1 45.108 346.172 45.0966C346.243 45.0824 346.299 45.071 346.342 45.0625L346.547 45.9659C346.478 45.9915 346.383 46.017 346.261 46.0426C346.139 46.071 345.984 46.0852 345.797 46.0852C345.512 46.0852 345.234 46.0241 344.961 45.902C344.691 45.7798 344.467 45.5938 344.288 45.3438C344.112 45.0938 344.024 44.7784 344.024 44.3977V37.8864ZM347.94 46V39.4545H348.912V40.4432H348.98C349.099 40.1193 349.315 39.8565 349.627 39.6548C349.94 39.4531 350.292 39.3523 350.684 39.3523C350.758 39.3523 350.85 39.3537 350.961 39.3565C351.072 39.3594 351.156 39.3636 351.213 39.3693V40.392C351.179 40.3835 351.1 40.3707 350.978 40.3537C350.859 40.3338 350.733 40.3239 350.599 40.3239C350.281 40.3239 349.997 40.3906 349.747 40.5241C349.5 40.6548 349.304 40.8366 349.159 41.0696C349.017 41.2997 348.946 41.5625 348.946 41.858V46H347.94ZM354.95 46.1364C354.319 46.1364 353.775 45.9972 353.318 45.7188C352.863 45.4375 352.512 45.0455 352.265 44.5426C352.021 44.0369 351.899 43.4489 351.899 42.7784C351.899 42.108 352.021 41.517 352.265 41.0057C352.512 40.4915 352.856 40.0909 353.297 39.804C353.74 39.5142 354.257 39.3693 354.848 39.3693C355.189 39.3693 355.525 39.4261 355.858 39.5398C356.19 39.6534 356.493 39.8381 356.765 40.0938C357.038 40.3466 357.255 40.6818 357.417 41.0994C357.579 41.517 357.66 42.0312 357.66 42.642V43.0682H352.615V42.1989H356.637C356.637 41.8295 356.564 41.5 356.416 41.2102C356.271 40.9205 356.064 40.6918 355.794 40.5241C355.527 40.3565 355.211 40.2727 354.848 40.2727C354.447 40.2727 354.1 40.3722 353.808 40.571C353.518 40.767 353.295 41.0227 353.139 41.3381C352.983 41.6534 352.904 41.9915 352.904 42.3523V42.9318C352.904 43.4261 352.99 43.8452 353.16 44.1889C353.333 44.5298 353.574 44.7898 353.88 44.9688C354.187 45.1449 354.544 45.233 354.95 45.233C355.214 45.233 355.453 45.196 355.666 45.1222C355.882 45.0455 356.068 44.9318 356.224 44.7812C356.38 44.6278 356.501 44.4375 356.586 44.2102L357.558 44.483C357.456 44.8125 357.284 45.1023 357.042 45.3523C356.801 45.5994 356.502 45.7926 356.147 45.9318C355.792 46.0682 355.393 46.1364 354.95 46.1364ZM363.059 46H361.951L365.156 37.2727H366.247L369.451 46H368.343L365.735 38.6534H365.667L363.059 46ZM363.468 42.5909H367.934V43.5284H363.468V42.5909ZM373.146 46.1364C372.6 46.1364 372.119 45.9986 371.701 45.723C371.284 45.4446 370.957 45.0526 370.721 44.5469C370.485 44.0384 370.368 43.4375 370.368 42.7443C370.368 42.0568 370.485 41.4602 370.721 40.9545C370.957 40.4489 371.285 40.0582 371.706 39.7827C372.126 39.5071 372.612 39.3693 373.163 39.3693C373.589 39.3693 373.926 39.4403 374.173 39.5824C374.423 39.7216 374.613 39.8807 374.744 40.0597C374.877 40.2358 374.981 40.3807 375.055 40.4943H375.14V37.2727H376.146V46H375.174V44.9943H375.055C374.981 45.1136 374.876 45.2642 374.74 45.446C374.603 45.625 374.409 45.7855 374.156 45.9276C373.903 46.0668 373.566 46.1364 373.146 46.1364ZM373.282 45.233C373.686 45.233 374.027 45.1278 374.305 44.9176C374.583 44.7045 374.795 44.4105 374.94 44.0355C375.085 43.6577 375.157 43.2216 375.157 42.7273C375.157 42.2386 375.086 41.8111 374.944 41.4446C374.802 41.0753 374.592 40.7884 374.314 40.5838C374.035 40.3764 373.691 40.2727 373.282 40.2727C372.856 40.2727 372.501 40.3821 372.217 40.6009C371.936 40.8168 371.724 41.1108 371.582 41.483C371.443 41.8523 371.373 42.267 371.373 42.7273C371.373 43.1932 371.444 43.6165 371.586 43.9972C371.731 44.375 371.944 44.6761 372.225 44.9006C372.51 45.1222 372.862 45.233 373.282 45.233ZM378.127 46V39.4545H379.099V40.4432H379.167C379.287 40.1193 379.502 39.8565 379.815 39.6548C380.127 39.4531 380.48 39.3523 380.872 39.3523C380.946 39.3523 381.038 39.3537 381.149 39.3565C381.26 39.3594 381.343 39.3636 381.4 39.3693V40.392C381.366 40.3835 381.288 40.3707 381.166 40.3537C381.047 40.3338 380.92 40.3239 380.787 40.3239C380.468 40.3239 380.184 40.3906 379.934 40.5241C379.687 40.6548 379.491 40.8366 379.346 41.0696C379.204 41.2997 379.133 41.5625 379.133 41.858V46H378.127ZM385.137 46.1364C384.507 46.1364 383.963 45.9972 383.505 45.7188C383.051 45.4375 382.7 45.0455 382.453 44.5426C382.208 44.0369 382.086 43.4489 382.086 42.7784C382.086 42.108 382.208 41.517 382.453 41.0057C382.7 40.4915 383.044 40.0909 383.484 39.804C383.927 39.5142 384.444 39.3693 385.035 39.3693C385.376 39.3693 385.713 39.4261 386.045 39.5398C386.377 39.6534 386.68 39.8381 386.953 40.0938C387.225 40.3466 387.443 40.6818 387.605 41.0994C387.767 41.517 387.848 42.0312 387.848 42.642V43.0682H382.802V42.1989H386.825C386.825 41.8295 386.751 41.5 386.603 41.2102C386.458 40.9205 386.251 40.6918 385.981 40.5241C385.714 40.3565 385.399 40.2727 385.035 40.2727C384.635 40.2727 384.288 40.3722 383.995 40.571C383.706 40.767 383.483 41.0227 383.326 41.3381C383.17 41.6534 383.092 41.9915 383.092 42.3523V42.9318C383.092 43.4261 383.177 43.8452 383.348 44.1889C383.521 44.5298 383.761 44.7898 384.068 44.9688C384.375 45.1449 384.731 45.233 385.137 45.233C385.402 45.233 385.64 45.196 385.853 45.1222C386.069 45.0455 386.255 44.9318 386.412 44.7812C386.568 44.6278 386.689 44.4375 386.774 44.2102L387.745 44.483C387.643 44.8125 387.471 45.1023 387.23 45.3523C386.988 45.5994 386.69 45.7926 386.335 45.9318C385.98 46.0682 385.581 46.1364 385.137 46.1364ZM394.014 40.9205L393.11 41.1761C393.054 41.0256 392.97 40.8793 392.859 40.7372C392.751 40.5923 392.603 40.473 392.416 40.3793C392.228 40.2855 391.988 40.2386 391.696 40.2386C391.295 40.2386 390.961 40.331 390.694 40.5156C390.43 40.6974 390.298 40.929 390.298 41.2102C390.298 41.4602 390.389 41.6577 390.571 41.8026C390.752 41.9474 391.037 42.0682 391.423 42.1648L392.395 42.4034C392.98 42.5455 393.416 42.7628 393.703 43.0554C393.99 43.3452 394.133 43.7187 394.133 44.1761C394.133 44.5511 394.025 44.8864 393.809 45.1818C393.596 45.4773 393.298 45.7102 392.914 45.8807C392.531 46.0511 392.085 46.1364 391.576 46.1364C390.909 46.1364 390.356 45.9915 389.919 45.7017C389.481 45.4119 389.204 44.9886 389.088 44.4318L390.042 44.1932C390.133 44.5455 390.305 44.8097 390.558 44.9858C390.814 45.1619 391.147 45.25 391.559 45.25C392.028 45.25 392.4 45.1506 392.676 44.9517C392.954 44.75 393.093 44.5085 393.093 44.2273C393.093 44 393.014 43.8097 392.855 43.6562C392.696 43.5 392.451 43.3835 392.122 43.3068L391.031 43.0511C390.431 42.9091 389.991 42.6889 389.71 42.3906C389.431 42.0895 389.292 41.7131 389.292 41.2614C389.292 40.892 389.396 40.5653 389.603 40.2812C389.814 39.9972 390.099 39.7741 390.46 39.6122C390.824 39.4503 391.235 39.3693 391.696 39.3693C392.343 39.3693 392.852 39.5114 393.221 39.7955C393.593 40.0795 393.858 40.4545 394.014 40.9205ZM400.283 40.9205L399.38 41.1761C399.323 41.0256 399.239 40.8793 399.129 40.7372C399.021 40.5923 398.873 40.473 398.685 40.3793C398.498 40.2855 398.258 40.2386 397.965 40.2386C397.565 40.2386 397.231 40.331 396.964 40.5156C396.7 40.6974 396.567 40.929 396.567 41.2102C396.567 41.4602 396.658 41.6577 396.84 41.8026C397.022 41.9474 397.306 42.0682 397.692 42.1648L398.664 42.4034C399.249 42.5455 399.685 42.7628 399.972 43.0554C400.259 43.3452 400.403 43.7187 400.403 44.1761C400.403 44.5511 400.295 44.8864 400.079 45.1818C399.866 45.4773 399.567 45.7102 399.184 45.8807C398.8 46.0511 398.354 46.1364 397.846 46.1364C397.178 46.1364 396.626 45.9915 396.188 45.7017C395.751 45.4119 395.474 44.9886 395.357 44.4318L396.312 44.1932C396.403 44.5455 396.575 44.8097 396.827 44.9858C397.083 45.1619 397.417 45.25 397.829 45.25C398.298 45.25 398.67 45.1506 398.945 44.9517C399.224 44.75 399.363 44.5085 399.363 44.2273C399.363 44 399.283 43.8097 399.124 43.6562C398.965 43.5 398.721 43.3835 398.391 43.3068L397.3 43.0511C396.701 42.9091 396.261 42.6889 395.979 42.3906C395.701 42.0895 395.562 41.7131 395.562 41.2614C395.562 40.892 395.665 40.5653 395.873 40.2812C396.083 39.9972 396.369 39.7741 396.729 39.6122C397.093 39.4503 397.505 39.3693 397.965 39.3693C398.613 39.3693 399.121 39.5114 399.491 39.7955C399.863 40.0795 400.127 40.4545 400.283 40.9205ZM404.661 46.1364C404.03 46.1364 403.486 45.9972 403.029 45.7188C402.574 45.4375 402.223 45.0455 401.976 44.5426C401.732 44.0369 401.61 43.4489 401.61 42.7784C401.61 42.108 401.732 41.517 401.976 41.0057C402.223 40.4915 402.567 40.0909 403.007 39.804C403.451 39.5142 403.968 39.3693 404.559 39.3693C404.9 39.3693 405.236 39.4261 405.569 39.5398C405.901 39.6534 406.203 39.8381 406.476 40.0938C406.749 40.3466 406.966 40.6818 407.128 41.0994C407.29 41.517 407.371 42.0312 407.371 42.642V43.0682H402.326V42.1989H406.348C406.348 41.8295 406.275 41.5 406.127 41.2102C405.982 40.9205 405.775 40.6918 405.505 40.5241C405.238 40.3565 404.922 40.2727 404.559 40.2727C404.158 40.2727 403.811 40.3722 403.519 40.571C403.229 40.767 403.006 41.0227 402.85 41.3381C402.694 41.6534 402.615 41.9915 402.615 42.3523V42.9318C402.615 43.4261 402.701 43.8452 402.871 44.1889C403.044 44.5298 403.284 44.7898 403.591 44.9688C403.898 45.1449 404.255 45.233 404.661 45.233C404.925 45.233 405.164 45.196 405.377 45.1222C405.593 45.0455 405.779 44.9318 405.935 44.7812C406.091 44.6278 406.212 44.4375 406.297 44.2102L407.269 44.483C407.167 44.8125 406.995 45.1023 406.753 45.3523C406.512 45.5994 406.213 45.7926 405.858 45.9318C405.503 46.0682 405.104 46.1364 404.661 46.1364Z" fill="#1E1E1E"/>
<path d="M448.977 37.2727V46H447.955L443.199 39.1477H443.114V46H442.057V37.2727H443.08L447.852 44.142H447.938V37.2727H448.977ZM452.762 41.125C452.402 41.125 452.072 41.0369 451.774 40.8608C451.478 40.6847 451.243 40.4489 451.066 40.1534C450.89 39.8551 450.802 39.5256 450.802 39.1648C450.802 38.804 450.89 38.4759 451.066 38.1804C451.243 37.8821 451.478 37.6449 451.774 37.4688C452.072 37.2926 452.402 37.2045 452.762 37.2045C453.123 37.2045 453.451 37.2926 453.747 37.4688C454.045 37.6449 454.282 37.8821 454.458 38.1804C454.635 38.4759 454.723 38.804 454.723 39.1648C454.723 39.5256 454.635 39.8551 454.458 40.1534C454.282 40.4489 454.045 40.6847 453.747 40.8608C453.451 41.0369 453.123 41.125 452.762 41.125ZM452.762 40.2727C452.967 40.2727 453.153 40.223 453.321 40.1236C453.488 40.0241 453.622 39.8906 453.721 39.723C453.821 39.5554 453.87 39.3693 453.87 39.1648C453.87 38.9602 453.821 38.7741 453.721 38.6065C453.622 38.4389 453.488 38.3054 453.321 38.206C453.153 38.1065 452.967 38.0568 452.762 38.0568C452.558 38.0568 452.372 38.1065 452.204 38.206C452.037 38.3054 451.903 38.4389 451.804 38.6065C451.704 38.7741 451.654 38.9602 451.654 39.1648C451.654 39.3693 451.704 39.5554 451.804 39.723C451.903 39.8906 452.037 40.0241 452.204 40.1236C452.372 40.223 452.558 40.2727 452.762 40.2727ZM459.439 38.2102V37.2727H465.984V38.2102H463.24V46H462.183V38.2102H459.439ZM469.274 46.1364C468.643 46.1364 468.099 45.9972 467.642 45.7188C467.188 45.4375 466.837 45.0455 466.589 44.5426C466.345 44.0369 466.223 43.4489 466.223 42.7784C466.223 42.108 466.345 41.517 466.589 41.0057C466.837 40.4915 467.18 40.0909 467.621 39.804C468.064 39.5142 468.581 39.3693 469.172 39.3693C469.513 39.3693 469.849 39.4261 470.182 39.5398C470.514 39.6534 470.817 39.8381 471.089 40.0938C471.362 40.3466 471.58 40.6818 471.741 41.0994C471.903 41.517 471.984 42.0312 471.984 42.642V43.0682H466.939V42.1989H470.962C470.962 41.8295 470.888 41.5 470.74 41.2102C470.595 40.9205 470.388 40.6918 470.118 40.5241C469.851 40.3565 469.536 40.2727 469.172 40.2727C468.771 40.2727 468.425 40.3722 468.132 40.571C467.842 40.767 467.619 41.0227 467.463 41.3381C467.307 41.6534 467.229 41.9915 467.229 42.3523V42.9318C467.229 43.4261 467.314 43.8452 467.484 44.1889C467.658 44.5298 467.898 44.7898 468.205 44.9688C468.511 45.1449 468.868 45.233 469.274 45.233C469.538 45.233 469.777 45.196 469.99 45.1222C470.206 45.0455 470.392 44.9318 470.548 44.7812C470.705 44.6278 470.825 44.4375 470.911 44.2102L471.882 44.483C471.78 44.8125 471.608 45.1023 471.366 45.3523C471.125 45.5994 470.827 45.7926 470.472 45.9318C470.116 46.0682 469.717 46.1364 469.274 46.1364ZM468.661 38.5682L469.7 36.5909H470.876L469.547 38.5682H468.661ZM474.52 37.2727V46H473.514V37.2727H474.52ZM479.106 46.1364C478.475 46.1364 477.931 45.9972 477.474 45.7188C477.02 45.4375 476.669 45.0455 476.422 44.5426C476.177 44.0369 476.055 43.4489 476.055 42.7784C476.055 42.108 476.177 41.517 476.422 41.0057C476.669 40.4915 477.012 40.0909 477.453 39.804C477.896 39.5142 478.413 39.3693 479.004 39.3693C479.345 39.3693 479.681 39.4261 480.014 39.5398C480.346 39.6534 480.649 39.8381 480.922 40.0938C481.194 40.3466 481.412 40.6818 481.574 41.0994C481.735 41.517 481.816 42.0312 481.816 42.642V43.0682H476.771V42.1989H480.794C480.794 41.8295 480.72 41.5 480.572 41.2102C480.427 40.9205 480.22 40.6918 479.95 40.5241C479.683 40.3565 479.368 40.2727 479.004 40.2727C478.603 40.2727 478.257 40.3722 477.964 40.571C477.674 40.767 477.451 41.0227 477.295 41.3381C477.139 41.6534 477.061 41.9915 477.061 42.3523V42.9318C477.061 43.4261 477.146 43.8452 477.316 44.1889C477.49 44.5298 477.73 44.7898 478.037 44.9688C478.343 45.1449 478.7 45.233 479.106 45.233C479.37 45.233 479.609 45.196 479.822 45.1222C480.038 45.0455 480.224 44.9318 480.38 44.7812C480.537 44.6278 480.657 44.4375 480.743 44.2102L481.714 44.483C481.612 44.8125 481.44 45.1023 481.199 45.3523C480.957 45.5994 480.659 45.7926 480.304 45.9318C479.949 46.0682 479.549 46.1364 479.106 46.1364ZM478.493 38.5682L479.532 36.5909H480.708L479.379 38.5682H478.493ZM483.346 48.4545V39.4545H484.318V40.4943H484.437C484.511 40.3807 484.613 40.2358 484.744 40.0597C484.877 39.8807 485.068 39.7216 485.315 39.5824C485.565 39.4403 485.903 39.3693 486.329 39.3693C486.88 39.3693 487.366 39.5071 487.787 39.7827C488.207 40.0582 488.535 40.4489 488.771 40.9545C489.007 41.4602 489.125 42.0568 489.125 42.7443C489.125 43.4375 489.007 44.0384 488.771 44.5469C488.535 45.0526 488.208 45.4446 487.791 45.723C487.373 45.9986 486.892 46.1364 486.346 46.1364C485.926 46.1364 485.589 46.0668 485.336 45.9276C485.083 45.7855 484.889 45.625 484.752 45.446C484.616 45.2642 484.511 45.1136 484.437 44.9943H484.352V48.4545H483.346ZM484.335 42.7273C484.335 43.2216 484.407 43.6577 484.552 44.0355C484.697 44.4105 484.909 44.7045 485.187 44.9176C485.466 45.1278 485.806 45.233 486.21 45.233C486.63 45.233 486.981 45.1222 487.262 44.9006C487.547 44.6761 487.76 44.375 487.902 43.9972C488.047 43.6165 488.119 43.1932 488.119 42.7273C488.119 42.267 488.048 41.8523 487.906 41.483C487.767 41.1108 487.555 40.8168 487.271 40.6009C486.99 40.3821 486.636 40.2727 486.21 40.2727C485.801 40.2727 485.457 40.3764 485.179 40.5838C484.9 40.7884 484.69 41.0753 484.548 41.4446C484.406 41.8111 484.335 42.2386 484.335 42.7273ZM491.664 42.0625V46H490.659V37.2727H491.664V40.4773H491.75C491.903 40.1392 492.133 39.8707 492.44 39.6719C492.75 39.4702 493.162 39.3693 493.676 39.3693C494.122 39.3693 494.512 39.4588 494.848 39.6378C495.183 39.8139 495.443 40.0852 495.627 40.4517C495.815 40.8153 495.909 41.2784 495.909 41.8409V46H494.903V41.9091C494.903 41.3892 494.768 40.9872 494.498 40.7031C494.231 40.4162 493.86 40.2727 493.386 40.2727C493.056 40.2727 492.761 40.3423 492.5 40.4815C492.241 40.6207 492.037 40.8239 491.886 41.0909C491.738 41.358 491.664 41.6818 491.664 42.0625ZM500.408 46.1364C499.817 46.1364 499.298 45.9957 498.852 45.7145C498.409 45.4332 498.062 45.0398 497.812 44.5341C497.565 44.0284 497.442 43.4375 497.442 42.7614C497.442 42.0795 497.565 41.4844 497.812 40.9759C498.062 40.4673 498.409 40.0724 498.852 39.7912C499.298 39.5099 499.817 39.3693 500.408 39.3693C500.999 39.3693 501.516 39.5099 501.959 39.7912C502.405 40.0724 502.751 40.4673 502.999 40.9759C503.249 41.4844 503.374 42.0795 503.374 42.7614C503.374 43.4375 503.249 44.0284 502.999 44.5341C502.751 45.0398 502.405 45.4332 501.959 45.7145C501.516 45.9957 500.999 46.1364 500.408 46.1364ZM500.408 45.233C500.857 45.233 501.226 45.1179 501.516 44.8878C501.805 44.6577 502.02 44.3551 502.159 43.9801C502.298 43.6051 502.368 43.1989 502.368 42.7614C502.368 42.3239 502.298 41.9162 502.159 41.5384C502.02 41.1605 501.805 40.8551 501.516 40.6222C501.226 40.3892 500.857 40.2727 500.408 40.2727C499.959 40.2727 499.589 40.3892 499.3 40.6222C499.01 40.8551 498.795 41.1605 498.656 41.5384C498.517 41.9162 498.447 42.3239 498.447 42.7614C498.447 43.1989 498.517 43.6051 498.656 43.9801C498.795 44.3551 499.01 44.6577 499.3 44.8878C499.589 45.1179 499.959 45.233 500.408 45.233ZM505.914 42.0625V46H504.909V39.4545H505.88V40.4773H505.966C506.119 40.1449 506.352 39.8778 506.664 39.6761C506.977 39.4716 507.38 39.3693 507.875 39.3693C508.318 39.3693 508.706 39.4602 509.038 39.642C509.37 39.821 509.629 40.0938 509.814 40.4602C509.998 40.8239 510.091 41.2841 510.091 41.8409V46H509.085V41.9091C509.085 41.3949 508.951 40.9943 508.684 40.7074C508.417 40.4176 508.051 40.2727 507.585 40.2727C507.264 40.2727 506.977 40.3423 506.724 40.4815C506.474 40.6207 506.277 40.8239 506.132 41.0909C505.987 41.358 505.914 41.6818 505.914 42.0625ZM514.673 46.1364C514.042 46.1364 513.498 45.9972 513.04 45.7188C512.586 45.4375 512.235 45.0455 511.988 44.5426C511.744 44.0369 511.621 43.4489 511.621 42.7784C511.621 42.108 511.744 41.517 511.988 41.0057C512.235 40.4915 512.579 40.0909 513.019 39.804C513.462 39.5142 513.979 39.3693 514.57 39.3693C514.911 39.3693 515.248 39.4261 515.58 39.5398C515.913 39.6534 516.215 39.8381 516.488 40.0938C516.761 40.3466 516.978 40.6818 517.14 41.0994C517.302 41.517 517.383 42.0312 517.383 42.642V43.0682H512.337V42.1989H516.36C516.36 41.8295 516.286 41.5 516.138 41.2102C515.994 40.9205 515.786 40.6918 515.516 40.5241C515.249 40.3565 514.934 40.2727 514.57 40.2727C514.17 40.2727 513.823 40.3722 513.531 40.571C513.241 40.767 513.018 41.0227 512.862 41.3381C512.705 41.6534 512.627 41.9915 512.627 42.3523V42.9318C512.627 43.4261 512.712 43.8452 512.883 44.1889C513.056 44.5298 513.296 44.7898 513.603 44.9688C513.91 45.1449 514.266 45.233 514.673 45.233C514.937 45.233 515.175 45.196 515.388 45.1222C515.604 45.0455 515.79 44.9318 515.947 44.7812C516.103 44.6278 516.224 44.4375 516.309 44.2102L517.281 44.483C517.178 44.8125 517.006 45.1023 516.765 45.3523C516.523 45.5994 516.225 45.7926 515.87 45.9318C515.515 46.0682 515.116 46.1364 514.673 46.1364Z" fill="#1E1E1E"/>
</g>
<defs>
<clipPath id="clip0_17_44">
<rect width="577" height="83" fill="white"/>
</clipPath>
</defs>
</svg>
