<?xml version="1.0" encoding="utf-8"?><!-- Uploaded to: SVG Repo, www.svgrepo.com, Generator: SVG Repo Mixer Tools -->
<svg fill="#000000" width="800px" height="800px" viewBox="0 0 24 24" id="log-in-2" data-name="Flat Color" xmlns="http://www.w3.org/2000/svg" class="icon flat-color"><path id="secondary" d="M17.71,11.29l-3-3a1,1,0,0,0-1.42,1.42L14.59,11H3a1,1,0,0,0,0,2H14.59l-1.3,1.29a1,1,0,0,0,0,1.42,1,1,0,0,0,1.42,0l3-3A1,1,0,0,0,17.71,11.29Z" style="fill: rgb(44, 169, 188);"></path><path id="primary" d="M20,21H11a2,2,0,0,1-2-2V16a1,1,0,0,1,2,0v3h9V5H11V8A1,1,0,0,1,9,8V5a2,2,0,0,1,2-2h9a2,2,0,0,1,2,2V19A2,2,0,0,1,20,21Z" style="fill: rgb(0, 0, 0);"></path></svg>