<?xml version="1.0" encoding="utf-8"?><!-- Uploaded to: SVG Repo, www.svgrepo.com, Generator: SVG Repo Mixer Tools -->
<svg fill="#000000" width="800px" height="800px" viewBox="0 0 24 24" id="log-in-double-arrow" data-name="Flat Color" xmlns="http://www.w3.org/2000/svg" class="icon flat-color"><path id="secondary" d="M17.71,12.71l-3,3a1,1,0,0,1-1.42,0,1,1,0,0,1,0-1.42L15.59,12l-2.3-2.29a1,1,0,0,1,1.42-1.42l3,3A1,1,0,0,1,17.71,12.71Zm-5-1.42-3-3A1,1,0,0,0,8.29,9.71L9.59,11H3a1,1,0,0,0,0,2H9.59l-1.3,1.29a1,1,0,0,0,0,1.42,1,1,0,0,0,1.42,0l3-3A1,1,0,0,0,12.71,11.29Z" style="fill: rgb(44, 169, 188);"></path><path id="primary" d="M20,22H11a2,2,0,0,1-2-2V19a1,1,0,0,1,2,0v1h9V4H11V5A1,1,0,0,1,9,5V4a2,2,0,0,1,2-2h9a2,2,0,0,1,2,2V20A2,2,0,0,1,20,22Z" style="fill: rgb(0, 0, 0);"></path></svg>